<svg width="142" height="120" viewBox="0 0 142 120" fill="none" xmlns="http://www.w3.org/2000/svg">
<g clip-path="url(#clip0_8090_19776)">
<path d="M52.3141 95.0836H89.6885V105.629L92.9174 115.72C93.014 116.022 93.0632 116.337 93.0632 116.654V116.654C93.0632 118.346 91.691 119.719 89.9983 119.719H52.0044C50.3117 119.719 48.9395 118.346 48.9395 116.654V116.654C48.9395 116.337 48.9886 116.022 49.0853 115.72L52.3141 105.629V95.0836Z" fill="#0084FE"/>
<mask id="mask0_8090_19776" style="mask-type:alpha" maskUnits="userSpaceOnUse" x="48" y="95" width="46" height="25">
<path d="M52.3161 95.0836H89.6905V105.629L92.9193 115.72C93.016 116.022 93.0652 116.337 93.0652 116.654V116.654C93.0652 118.346 91.6929 119.719 90.0002 119.719H52.0064C50.3136 119.719 48.9414 118.346 48.9414 116.654V116.654C48.9414 116.337 48.9906 116.022 49.0872 115.72L52.3161 105.629V95.0836Z" fill="#FF2B2A"/>
</mask>
<g mask="url(#mask0_8090_19776)">
<g filter="url(#filter0_f_8090_19776)">
<path d="M95.627 116.032V116.032C95.627 118.068 93.9762 119.719 91.9399 119.719H50.0152C47.9789 119.719 46.3281 118.068 46.3281 116.032V116.032" stroke="#0D6FE1" stroke-width="5.30086"/>
</g>
<g opacity="0.4" filter="url(#filter1_f_8090_19776)">
<path d="M93.0652 116.032V116.032C93.0652 116.558 92.6386 116.984 92.1123 116.984H49.8942C49.368 116.984 48.9414 116.558 48.9414 116.032V116.032" stroke="url(#paint0_linear_8090_19776)" stroke-width="1.32522"/>
</g>
<g filter="url(#filter2_f_8090_19776)">
<rect x="33.3936" y="107.125" width="68.5212" height="4.88846" fill="#0D6FE1"/>
</g>
<g filter="url(#filter3_f_8090_19776)">
<rect x="53.0801" y="91.0237" width="35.7934" height="8.11981" fill="#0D6FE1"/>
</g>
<g opacity="0.6" filter="url(#filter4_f_8090_19776)">
<path d="M49.2119 105.413H92.7937" stroke="white" stroke-width="1.98782"/>
</g>
</g>
<path d="M9.0295 95.4325C4.09981 95.4325 0.103516 91.4362 0.103516 86.5065L0.103517 9.20741C0.103517 4.27773 4.09982 0.281433 9.0295 0.281433L132.971 0.281435C137.9 0.281435 141.896 4.27773 141.896 9.20742L141.896 86.5065C141.896 91.4362 137.9 95.4325 132.97 95.4325L9.0295 95.4325Z" fill="#0084FE"/>
<mask id="mask1_8090_19776" style="mask-type:alpha" maskUnits="userSpaceOnUse" x="0" y="0" width="142" height="96">
<path d="M9.0295 95.4325C4.09981 95.4325 0.103516 91.4362 0.103516 86.5065L0.103517 9.20741C0.103517 4.27773 4.09982 0.281433 9.0295 0.281433L132.971 0.281435C137.9 0.281435 141.896 4.27773 141.896 9.20742L141.896 86.5065C141.896 91.4362 137.9 95.4325 132.97 95.4325L9.0295 95.4325Z" fill="#FF2B2A"/>
</mask>
<g mask="url(#mask1_8090_19776)">
<g opacity="0.7" filter="url(#filter5_f_8090_19776)">
<path d="M10.1203 95.4325C5.19063 95.4325 1.19434 91.4362 1.19434 86.5065L1.19434 10.6724C1.19434 5.74268 5.19064 1.74637 10.1203 1.74637L131.878 1.74637C136.808 1.74637 140.804 5.74267 140.804 10.6724L140.804 86.5065C140.804 91.4362 136.808 95.4325 131.878 95.4325L10.1203 95.4325Z" stroke="url(#paint1_linear_8090_19776)" stroke-width="1.11575"/>
</g>
<g filter="url(#filter6_f_8090_19776)">
<path d="M9.0295 95.4325C4.09981 95.4325 0.103516 91.4362 0.103516 86.5065L0.103517 9.20741C0.103517 4.27773 4.09982 0.281433 9.0295 0.281433L132.971 0.281435C137.9 0.281435 141.896 4.27773 141.896 9.20742L141.896 86.5065C141.896 91.4362 137.9 95.4325 132.97 95.4325L9.0295 95.4325Z" stroke="url(#paint2_linear_8090_19776)" stroke-width="0.557874"/>
</g>
<g opacity="0.7" filter="url(#filter7_f_8090_19776)">
<path d="M10.1203 95.4325C5.19063 95.4325 1.19434 91.4362 1.19434 86.5065L1.19434 10.6724C1.19434 5.74268 5.19064 1.74637 10.1203 1.74637L131.878 1.74637C136.808 1.74637 140.804 5.74267 140.804 10.6724L140.804 86.5065C140.804 91.4362 136.808 95.4325 131.878 95.4325L10.1203 95.4325Z" stroke="url(#paint3_linear_8090_19776)" stroke-width="1.11575"/>
</g>
<g opacity="0.4" filter="url(#filter8_f_8090_19776)">
<rect x="3.75684" y="95.4325" width="90.826" height="134.484" rx="6.13661" transform="rotate(-90 3.75684 95.4325)" stroke="url(#paint4_linear_8090_19776)" stroke-width="1.11575"/>
</g>
<g filter="url(#filter9_d_8090_19776)">
<path d="M4.87259 84.271C4.25638 84.271 3.75684 83.7715 3.75684 83.1552L3.75684 11.7194C3.75684 8.02216 6.75406 5.02494 10.4513 5.02494L131.546 5.02494C135.244 5.02494 138.241 8.02217 138.241 11.7194L138.241 83.1553C138.241 83.7715 137.741 84.271 137.125 84.271L4.87259 84.271Z" fill="#80B3FF"/>
</g>
<mask id="mask2_8090_19776" style="mask-type:alpha" maskUnits="userSpaceOnUse" x="3" y="5" width="136" height="80">
<path d="M4.87552 84.2709C4.25931 84.2709 3.75977 83.7713 3.75977 83.1551L3.75977 11.7193C3.75977 8.02204 6.75699 5.02482 10.4543 5.02482L131.549 5.02482C135.247 5.02482 138.244 8.02204 138.244 11.7193L138.244 83.1551C138.244 83.7713 137.744 84.2709 137.128 84.2709L4.87552 84.2709Z" fill="#FF8080"/>
</mask>
<g mask="url(#mask2_8090_19776)">
<g opacity="0.4" filter="url(#filter10_f_8090_19776)">
<path d="M3.89923 83.1551L3.89923 11.7193C3.89924 8.09907 6.83402 5.16428 10.4543 5.16428L131.549 5.16429C135.17 5.16429 138.104 8.09907 138.104 11.7193L138.104 83.1551C138.104 83.6943 137.667 84.1314 137.128 84.1314L4.87552 84.1314C4.33633 84.1314 3.89923 83.6943 3.89923 83.1551Z" stroke="url(#paint5_linear_8090_19776)" stroke-width="0.278937"/>
</g>
</g>
<path opacity="0.2" d="M9.0295 95.4325C4.09981 95.4325 0.103516 91.4362 0.103516 86.5065L0.103517 9.20741C0.103517 4.27773 4.09982 0.281433 9.0295 0.281433L132.971 0.281435C137.9 0.281435 141.896 4.27773 141.896 9.20742L141.896 86.5065C141.896 91.4362 137.9 95.4325 132.97 95.4325L9.0295 95.4325Z" fill="white"/>
<path opacity="0.2" d="M9.0295 95.4325C4.09981 95.4325 0.103516 91.4362 0.103516 86.5065L0.103517 9.20741C0.103517 4.27773 4.09982 0.281433 9.0295 0.281433L132.971 0.281435C137.9 0.281435 141.896 4.27773 141.896 9.20742L141.896 86.5065C141.896 91.4362 137.9 95.4325 132.97 95.4325L9.0295 95.4325Z" fill="white"/>
</g>
<g filter="url(#filter11_d_8090_19776)">
<circle cx="71.0017" cy="89.2937" r="3.34842" fill="white"/>
</g>
<mask id="mask3_8090_19776" style="mask-type:alpha" maskUnits="userSpaceOnUse" x="67" y="85" width="8" height="8">
<circle cx="71.0017" cy="89.2937" r="3.34842" fill="white"/>
</mask>
<g mask="url(#mask3_8090_19776)">
<g filter="url(#filter12_f_8090_19776)">
<circle cx="71.0017" cy="89.2937" r="3.06949" stroke="url(#paint6_linear_8090_19776)" stroke-width="0.557874"/>
</g>
</g>
<g filter="url(#filter13_d_8090_19776)">
<path d="M8.28665 79.5273C7.67044 79.5273 7.1709 79.0278 7.1709 78.4116L7.1709 13.3942C7.1709 10.6212 9.41882 8.37332 12.1918 8.37332L129.812 8.37332C132.585 8.37332 134.833 10.6212 134.833 13.3942L134.833 78.4116C134.833 79.0278 134.334 79.5273 133.718 79.5273L8.28665 79.5273Z" fill="white"/>
</g>
</g>
<defs>
<filter id="filter0_f_8090_19776" x="43.3464" y="115.7" width="55.2622" height="7.00013" filterUnits="userSpaceOnUse" color-interpolation-filters="sRGB">
<feFlood flood-opacity="0" result="BackgroundImageFix"/>
<feBlend mode="normal" in="SourceGraphic" in2="BackgroundImageFix" result="shape"/>
<feGaussianBlur stdDeviation="0.165652" result="effect1_foregroundBlur_8090_19776"/>
</filter>
<filter id="filter1_f_8090_19776" x="46.9531" y="114.706" width="48.0996" height="4.26591" filterUnits="userSpaceOnUse" color-interpolation-filters="sRGB">
<feFlood flood-opacity="0" result="BackgroundImageFix"/>
<feBlend mode="normal" in="SourceGraphic" in2="BackgroundImageFix" result="shape"/>
<feGaussianBlur stdDeviation="0.662608" result="effect1_foregroundBlur_8090_19776"/>
</filter>
<filter id="filter2_f_8090_19776" x="29.0866" y="102.818" width="77.1354" height="13.5023" filterUnits="userSpaceOnUse" color-interpolation-filters="sRGB">
<feFlood flood-opacity="0" result="BackgroundImageFix"/>
<feBlend mode="normal" in="SourceGraphic" in2="BackgroundImageFix" result="shape"/>
<feGaussianBlur stdDeviation="2.15348" result="effect1_foregroundBlur_8090_19776"/>
</filter>
<filter id="filter3_f_8090_19776" x="48.7731" y="86.7167" width="44.4069" height="16.7337" filterUnits="userSpaceOnUse" color-interpolation-filters="sRGB">
<feFlood flood-opacity="0" result="BackgroundImageFix"/>
<feBlend mode="normal" in="SourceGraphic" in2="BackgroundImageFix" result="shape"/>
<feGaussianBlur stdDeviation="2.15348" result="effect1_foregroundBlur_8090_19776"/>
</filter>
<filter id="filter4_f_8090_19776" x="45.2363" y="100.443" width="51.5333" height="9.93909" filterUnits="userSpaceOnUse" color-interpolation-filters="sRGB">
<feFlood flood-opacity="0" result="BackgroundImageFix"/>
<feBlend mode="normal" in="SourceGraphic" in2="BackgroundImageFix" result="shape"/>
<feGaussianBlur stdDeviation="1.98782" result="effect1_foregroundBlur_8090_19776"/>
</filter>
<filter id="filter5_f_8090_19776" x="-1.31584" y="-0.764082" width="144.631" height="98.707" filterUnits="userSpaceOnUse" color-interpolation-filters="sRGB">
<feFlood flood-opacity="0" result="BackgroundImageFix"/>
<feBlend mode="normal" in="SourceGraphic" in2="BackgroundImageFix" result="shape"/>
<feGaussianBlur stdDeviation="0.976279" result="effect1_foregroundBlur_8090_19776"/>
</filter>
<filter id="filter6_f_8090_19776" x="-0.733655" y="-0.555433" width="143.467" height="96.8247" filterUnits="userSpaceOnUse" color-interpolation-filters="sRGB">
<feFlood flood-opacity="0" result="BackgroundImageFix"/>
<feBlend mode="normal" in="SourceGraphic" in2="BackgroundImageFix" result="shape"/>
<feGaussianBlur stdDeviation="0.278937" result="effect1_foregroundBlur_8090_19776"/>
</filter>
<filter id="filter7_f_8090_19776" x="-1.31584" y="-0.764082" width="144.631" height="98.707" filterUnits="userSpaceOnUse" color-interpolation-filters="sRGB">
<feFlood flood-opacity="0" result="BackgroundImageFix"/>
<feBlend mode="normal" in="SourceGraphic" in2="BackgroundImageFix" result="shape"/>
<feGaussianBlur stdDeviation="0.976279" result="effect1_foregroundBlur_8090_19776"/>
</filter>
<filter id="filter8_f_8090_19776" x="2.08347" y="2.93284" width="137.831" height="94.1733" filterUnits="userSpaceOnUse" color-interpolation-filters="sRGB">
<feFlood flood-opacity="0" result="BackgroundImageFix"/>
<feBlend mode="normal" in="SourceGraphic" in2="BackgroundImageFix" result="shape"/>
<feGaussianBlur stdDeviation="0.557874" result="effect1_foregroundBlur_8090_19776"/>
</filter>
<filter id="filter9_d_8090_19776" x="3.19896" y="5.0249" width="135.6" height="80.3618" filterUnits="userSpaceOnUse" color-interpolation-filters="sRGB">
<feFlood flood-opacity="0" result="BackgroundImageFix"/>
<feColorMatrix in="SourceAlpha" type="matrix" values="0 0 0 0 0 0 0 0 0 0 0 0 0 0 0 0 0 0 127 0" result="hardAlpha"/>
<feOffset dy="0.557874"/>
<feGaussianBlur stdDeviation="0.278937"/>
<feComposite in2="hardAlpha" operator="out"/>
<feColorMatrix type="matrix" values="0 0 0 0 0.0412536 0 0 0 0 0.324255 0 0 0 0 0.873611 0 0 0 1 0"/>
<feBlend mode="normal" in2="BackgroundImageFix" result="effect1_dropShadow_8090_19776"/>
<feBlend mode="normal" in="SourceGraphic" in2="effect1_dropShadow_8090_19776" result="shape"/>
</filter>
<filter id="filter10_f_8090_19776" x="3.20189" y="4.46691" width="135.6" height="80.3618" filterUnits="userSpaceOnUse" color-interpolation-filters="sRGB">
<feFlood flood-opacity="0" result="BackgroundImageFix"/>
<feBlend mode="normal" in="SourceGraphic" in2="BackgroundImageFix" result="shape"/>
<feGaussianBlur stdDeviation="0.278937" result="effect1_foregroundBlur_8090_19776"/>
</filter>
<filter id="filter11_d_8090_19776" x="66.5376" y="85.9453" width="8.92876" height="8.9284" filterUnits="userSpaceOnUse" color-interpolation-filters="sRGB">
<feFlood flood-opacity="0" result="BackgroundImageFix"/>
<feColorMatrix in="SourceAlpha" type="matrix" values="0 0 0 0 0 0 0 0 0 0 0 0 0 0 0 0 0 0 127 0" result="hardAlpha"/>
<feOffset dy="1.11575"/>
<feGaussianBlur stdDeviation="0.557874"/>
<feComposite in2="hardAlpha" operator="out"/>
<feColorMatrix type="matrix" values="0 0 0 0 0.0412536 0 0 0 0 0.47408 0 0 0 0 0.873611 0 0 0 1 0"/>
<feBlend mode="normal" in2="BackgroundImageFix" result="effect1_dropShadow_8090_19776"/>
<feBlend mode="normal" in="SourceGraphic" in2="effect1_dropShadow_8090_19776" result="shape"/>
</filter>
<filter id="filter12_f_8090_19776" x="67.3744" y="85.6664" width="7.25514" height="7.25477" filterUnits="userSpaceOnUse" color-interpolation-filters="sRGB">
<feFlood flood-opacity="0" result="BackgroundImageFix"/>
<feBlend mode="normal" in="SourceGraphic" in2="BackgroundImageFix" result="shape"/>
<feGaussianBlur stdDeviation="0.139469" result="effect1_foregroundBlur_8090_19776"/>
</filter>
<filter id="filter13_d_8090_19776" x="5.18307" y="6.38547" width="131.638" height="75.1297" filterUnits="userSpaceOnUse" color-interpolation-filters="sRGB">
<feFlood flood-opacity="0" result="BackgroundImageFix"/>
<feColorMatrix in="SourceAlpha" type="matrix" values="0 0 0 0 0 0 0 0 0 0 0 0 0 0 0 0 0 0 127 0" result="hardAlpha"/>
<feOffset/>
<feGaussianBlur stdDeviation="0.993912"/>
<feComposite in2="hardAlpha" operator="out"/>
<feColorMatrix type="matrix" values="0 0 0 0 0.312813 0 0 0 0 0.494725 0 0 0 0 0.9625 0 0 0 1 0"/>
<feBlend mode="normal" in2="BackgroundImageFix" result="effect1_dropShadow_8090_19776"/>
<feBlend mode="normal" in="SourceGraphic" in2="effect1_dropShadow_8090_19776" result="shape"/>
</filter>
<linearGradient id="paint0_linear_8090_19776" x1="50.2205" y1="116.984" x2="93.0652" y2="116.984" gradientUnits="userSpaceOnUse">
<stop stop-color="white" stop-opacity="0"/>
<stop offset="0.526042" stop-color="white"/>
<stop offset="1" stop-color="white" stop-opacity="0"/>
</linearGradient>
<linearGradient id="paint1_linear_8090_19776" x1="6.75327" y1="5.44359" x2="11.3573" y2="12.838" gradientUnits="userSpaceOnUse">
<stop stop-color="white"/>
<stop offset="1" stop-color="white" stop-opacity="0"/>
</linearGradient>
<linearGradient id="paint2_linear_8090_19776" x1="10.4254" y1="-2.09037" x2="10.4254" y2="11.5465" gradientUnits="userSpaceOnUse">
<stop stop-color="white"/>
<stop offset="1" stop-color="white" stop-opacity="0"/>
</linearGradient>
<linearGradient id="paint3_linear_8090_19776" x1="134.97" y1="7.25732" x2="123.669" y2="23.8599" gradientUnits="userSpaceOnUse">
<stop stop-color="white"/>
<stop offset="1" stop-color="white" stop-opacity="0"/>
</linearGradient>
<linearGradient id="paint4_linear_8090_19776" x1="93.917" y1="144.746" x2="19.8045" y2="144.746" gradientUnits="userSpaceOnUse">
<stop stop-color="#0532A7"/>
<stop offset="1" stop-color="white" stop-opacity="0"/>
</linearGradient>
<linearGradient id="paint5_linear_8090_19776" x1="71.0018" y1="5.72241" x2="71.0018" y2="84.2709" gradientUnits="userSpaceOnUse">
<stop stop-color="white"/>
<stop offset="1" stop-color="white" stop-opacity="0"/>
</linearGradient>
<linearGradient id="paint6_linear_8090_19776" x1="71.0017" y1="85.9453" x2="71.0017" y2="92.6422" gradientUnits="userSpaceOnUse">
<stop stop-color="#DBEBFF"/>
<stop offset="1" stop-color="#FFDBDB" stop-opacity="0"/>
</linearGradient>
<clipPath id="clip0_8090_19776">
<rect width="142" height="120" fill="white"/>
</clipPath>
</defs>
</svg>
