<svg width="740" height="320" viewBox="0 0 740 320" fill="none" xmlns="http://www.w3.org/2000/svg">
<path d="M70.6 194.2H150.2V62.2L70.6 194.2ZM150.2 233.8H15.8V205L131.4 17.8H198.6V194.2H232.6V233.8H198.6V301H150.2V233.8ZM370.497 311C296.097 311 246.097 247.4 246.097 159.4C246.097 71.4 296.097 7.79998 370.497 7.79998C444.897 7.79998 494.897 71.4 494.897 159.4C494.897 247.4 444.897 311 370.497 311ZM370.497 49.8C324.097 49.8 294.097 95.8 294.097 159.4C294.097 223 324.097 269.4 370.497 269.4C416.897 269.4 446.897 223 446.897 159.4C446.897 95.8 416.897 49.8 370.497 49.8ZM555.241 194.2H634.841V62.2L555.241 194.2ZM634.841 233.8H500.441V205L616.041 17.8H683.241V194.2H717.241V233.8H683.241V301H634.841V233.8Z" fill="#E1E4EA"/>
</svg>
