<svg width="104" height="120" viewBox="0 0 104 120" fill="none" xmlns="http://www.w3.org/2000/svg">
<path fill-rule="evenodd" clip-rule="evenodd" d="M61.1404 108.441C63.8043 105.073 67.5373 102.775 71.5123 101.15C90.5621 93.3605 103.999 74.5069 103.999 52.4852C103.999 23.4984 80.7179 0 51.9994 0C23.2809 0 0 23.4984 0 52.4852C0 74.5069 13.4368 93.3605 32.4866 101.15C36.4616 102.775 40.1945 105.073 42.8585 108.441L48.2872 115.306C50.1821 117.702 53.8168 117.702 55.7117 115.306L61.1404 108.441Z" fill="#FFEAEA"/>
<mask id="mask0_7962_18604" style="mask-type:alpha" maskUnits="userSpaceOnUse" x="0" y="0" width="104" height="118">
<path fill-rule="evenodd" clip-rule="evenodd" d="M61.1414 108.442C63.8053 105.073 67.5382 102.776 71.5133 101.15C90.563 93.3609 104 74.5073 104 52.4855C104 23.4988 80.7189 0.000366211 52.0004 0.000366211C23.2819 0.000366211 0.000976562 23.4988 0.000976562 52.4855C0.000976562 74.5073 13.4378 93.3609 32.4876 101.15C36.4626 102.776 40.1955 105.073 42.8594 108.442L48.2882 115.306C50.1831 117.702 53.8178 117.702 55.7127 115.306L61.1414 108.442Z" fill="#EAF5FF"/>
</mask>
<g mask="url(#mask0_7962_18604)">
<g filter="url(#filter0_f_7962_18604)">
<path d="M98.3204 52.4855C98.3204 72.1465 86.3291 88.9562 69.3637 95.8933C64.8618 97.7341 60.168 100.517 56.6867 104.919L52.0004 110.844L47.3141 104.919C43.8329 100.517 39.139 97.7341 34.6371 95.8933C17.6717 88.9562 5.68046 72.1465 5.68046 52.4855C5.68046 26.5856 26.4683 5.67985 52.0004 5.67985C77.5325 5.67985 98.3204 26.5856 98.3204 52.4855Z" stroke="url(#paint0_linear_7962_18604)" stroke-width="11.359"/>
</g>
<g filter="url(#filter1_f_7962_18604)">
<path d="M101.191 53.6749C101.191 74.4817 88.5216 92.2934 70.5571 99.6876C66.4143 101.393 62.3599 103.85 59.4234 107.563L54.2279 114.132C53.091 115.57 50.9102 115.57 49.7732 114.132L44.5778 107.563C41.6412 103.85 37.5869 101.393 33.4441 99.6876C15.4796 92.2934 2.81015 74.4817 2.81015 53.6749C2.81015 26.2276 24.85 4.0073 52.0006 4.0073C79.1512 4.0073 101.191 26.2276 101.191 53.6749Z" stroke="url(#paint1_linear_7962_18604)" stroke-width="3.78632"/>
</g>
<g filter="url(#filter2_f_7962_18604)">
<ellipse cx="51.9997" cy="120" rx="37.9235" ry="38.2778" fill="#FEBDBD"/>
</g>
<g filter="url(#filter3_f_7962_18604)">
<path d="M101.191 53.6749C101.191 74.4817 88.5216 92.2934 70.5571 99.6876C66.4143 101.393 62.3599 103.85 59.4234 107.563L54.2279 114.132C53.091 115.57 50.9102 115.57 49.7732 114.132L44.5778 107.563C41.6412 103.85 37.5869 101.393 33.4441 99.6876C15.4796 92.2934 2.81015 74.4817 2.81015 53.6749C2.81015 26.2276 24.85 4.0073 52.0006 4.0073C79.1512 4.0073 101.191 26.2276 101.191 53.6749Z" stroke="url(#paint2_linear_7962_18604)" stroke-width="3.78632"/>
</g>
</g>
<g filter="url(#filter4_dd_7962_18604)">
<path d="M52.831 81.2338C52.3067 81.5377 51.6897 81.5377 51.1654 81.2338C46.4193 78.483 22.9971 64.0618 22.9971 47.3674C22.9971 43.3364 24.5836 39.4705 27.4075 36.6201C30.2315 33.7698 34.0616 32.1685 38.0553 32.1685C44.3547 32.1685 49.7506 35.6333 51.9982 41.1752C54.2458 35.6333 59.6417 32.1685 65.9411 32.1685C69.9348 32.1685 73.7649 33.7698 76.5889 36.6201C79.4128 39.4705 80.9993 43.3364 80.9993 47.3674C80.9993 64.0618 57.5771 78.483 52.831 81.2338Z" fill="#FF2B2A"/>
<mask id="mask1_7962_18604" style="mask-type:alpha" maskUnits="userSpaceOnUse" x="22" y="32" width="59" height="50">
<path d="M52.831 81.2339C52.3067 81.5378 51.6897 81.5378 51.1654 81.2339C46.4193 78.4831 22.9971 64.0619 22.9971 47.3675C22.9971 43.3365 24.5836 39.4706 27.4075 36.6202C30.2315 33.7699 34.0616 32.1686 38.0553 32.1686C44.3547 32.1686 49.7506 35.6334 51.9982 41.1754C54.2458 35.6334 59.6417 32.1686 65.9411 32.1686C69.9348 32.1686 73.7649 33.7699 76.5889 36.6202C79.4128 39.4706 80.9993 43.3365 80.9993 47.3675C80.9993 64.0619 57.5771 78.4831 52.831 81.2339Z" fill="#FF2B2A"/>
</mask>
<g mask="url(#mask1_7962_18604)">
<g filter="url(#filter5_f_7962_18604)">
<path d="M52.4332 80.5558C51.909 80.8597 51.2931 80.8597 50.7689 80.5558C46.0632 77.8271 22.9971 63.6125 22.9971 47.1594C22.9971 43.1836 24.5618 39.3706 27.3471 36.5593C30.1324 33.748 33.9101 32.1686 37.8491 32.1686C44.0623 32.1686 49.3842 35.5859 51.6011 41.052C53.8179 35.5859 59.1399 32.1686 65.353 32.1686C69.292 32.1686 73.0697 33.748 75.855 36.5593C78.6403 39.3706 80.205 43.1836 80.205 47.1594C80.205 63.6125 57.1389 77.8271 52.4332 80.5558Z" stroke="url(#paint3_linear_7962_18604)" stroke-width="1.36722" stroke-linecap="round" stroke-linejoin="round"/>
</g>
<g filter="url(#filter6_f_7962_18604)">
<path d="M37.8486 32.1682C44.0617 32.1682 49.3837 35.5856 51.6005 41.0517" stroke="url(#paint4_linear_7962_18604)" stroke-width="1.36722" stroke-linecap="round" stroke-linejoin="round"/>
</g>
<g filter="url(#filter7_f_7962_18604)">
<path d="M52.828 78.9904C52.304 79.2946 51.6901 79.2946 51.1661 78.9904C46.554 76.3129 24.3096 62.5753 24.3096 46.6788C24.3096 42.8304 25.8242 39.1396 28.5203 36.4184C31.2163 33.6971 34.873 32.1683 38.6858 32.1683C44.6998 32.1683 49.8513 35.4762 51.9971 40.7671C54.1428 35.4762 59.2943 32.1683 65.3083 32.1683C69.1212 32.1683 72.7778 33.6971 75.4738 36.4184C78.1699 39.1396 79.6845 42.8304 79.6845 46.6788C79.6845 62.5753 57.4401 76.3129 52.828 78.9904Z" stroke="url(#paint5_linear_7962_18604)" stroke-width="1.36722" stroke-linecap="round" stroke-linejoin="round"/>
</g>
<g filter="url(#filter8_f_7962_18604)">
<path d="M52.831 81.2339C52.3067 81.5378 51.6897 81.5378 51.1654 81.2339C46.4193 78.4831 22.9971 64.0619 22.9971 47.3675C22.9971 43.3365 24.5836 39.4706 27.4075 36.6202C30.2315 33.7699 34.0616 32.1686 38.0553 32.1686C44.3547 32.1686 49.7506 35.6334 51.9982 41.1754C54.2458 35.6334 59.6417 32.1686 65.9411 32.1686C69.9348 32.1686 73.7649 33.7699 76.5889 36.6202C79.4128 39.4706 80.9993 43.3365 80.9993 47.3675C80.9993 64.0619 57.5771 78.4831 52.831 81.2339Z" stroke="url(#paint6_linear_7962_18604)" stroke-width="0.841364" stroke-linecap="round" stroke-linejoin="round"/>
</g>
<g filter="url(#filter9_f_7962_18604)">
<path d="M59.2374 35.9751C60.5423 34.149 63.5715 33.0777 67.0654 33.1888C69.2805 33.2592 71.388 33.8658 72.9244 34.8752C74.3075 35.7838 75.1257 36.9519 75.2443 38.166C75.3307 38.3312 75.3406 38.4698 75.2578 38.571C75.262 38.4356 75.2575 38.3005 75.2443 38.166C74.7519 37.2244 71.7731 35.4195 69.2909 34.7597C65.4243 33.7318 60.3139 35.0667 59.2374 35.9751Z" fill="white"/>
</g>
<g opacity="0.3" filter="url(#filter10_f_7962_18604)">
<ellipse cx="7.21622" cy="8.79948" rx="7.21622" ry="8.79948" transform="matrix(0.792809 -0.60947 0.60234 0.79824 25.2773 41.6647)" fill="white"/>
</g>
<g opacity="0.3" filter="url(#filter11_f_7962_18604)">
<ellipse cx="4.65552" cy="5.67695" rx="4.65552" ry="5.67695" transform="matrix(0.792809 -0.60947 0.60234 0.79824 29.1904 42.5966)" fill="white"/>
</g>
<mask id="mask2_7962_18604" style="mask-type:alpha" maskUnits="userSpaceOnUse" x="22" y="31" width="32" height="36">
<path d="M53.5739 49.3265C53.5739 58.909 46.0186 66.6772 37.5933 66.6772C29.168 66.6772 22.3379 58.909 22.3379 49.3265C22.3379 39.744 28.4003 31.9758 37.5933 31.9758C47.9276 31.9758 53.5739 39.744 53.5739 49.3265Z" fill="#D9D9D9"/>
</mask>
<g mask="url(#mask2_7962_18604)">
<g filter="url(#filter12_f_7962_18604)">
<path d="M52.9426 43.407C52.3724 38.472 47.7058 35.111 45.3652 34.2423C49.5327 36.565 51.9504 41.1016 51.8185 43.1902L52.9426 43.407Z" fill="white"/>
</g>
</g>
<path opacity="0.2" d="M52.831 81.2339C52.3067 81.5378 51.6897 81.5378 51.1654 81.2339C46.4193 78.4831 22.9971 64.0619 22.9971 47.3675C22.9971 43.3365 24.5836 39.4706 27.4075 36.6202C30.2315 33.7699 34.0616 32.1686 38.0553 32.1686C44.3547 32.1686 49.7506 35.6334 51.9982 41.1754C54.2458 35.6334 59.6417 32.1686 65.9411 32.1686C69.9348 32.1686 73.7649 33.7699 76.5889 36.6202C79.4128 39.4706 80.9993 43.3365 80.9993 47.3675C80.9993 64.0619 57.5771 78.4831 52.831 81.2339Z" fill="url(#paint7_linear_7962_18604)"/>
</g>
</g>
<defs>
<filter id="filter0_f_7962_18604" x="-8.51825" y="-8.51886" width="121.037" height="134.141" filterUnits="userSpaceOnUse" color-interpolation-filters="sRGB">
<feFlood flood-opacity="0" result="BackgroundImageFix"/>
<feBlend mode="normal" in="SourceGraphic" in2="BackgroundImageFix" result="shape"/>
<feGaussianBlur stdDeviation="4.25961" result="effect1_foregroundBlur_7962_18604"/>
</filter>
<filter id="filter1_f_7962_18604" x="-2.86933" y="-1.67219" width="109.74" height="122.562" filterUnits="userSpaceOnUse" color-interpolation-filters="sRGB">
<feFlood flood-opacity="0" result="BackgroundImageFix"/>
<feBlend mode="normal" in="SourceGraphic" in2="BackgroundImageFix" result="shape"/>
<feGaussianBlur stdDeviation="1.89316" result="effect1_foregroundBlur_7962_18604"/>
</filter>
<filter id="filter2_f_7962_18604" x="-20.9473" y="46.6988" width="145.894" height="146.603" filterUnits="userSpaceOnUse" color-interpolation-filters="sRGB">
<feFlood flood-opacity="0" result="BackgroundImageFix"/>
<feBlend mode="normal" in="SourceGraphic" in2="BackgroundImageFix" result="shape"/>
<feGaussianBlur stdDeviation="17.5117" result="effect1_foregroundBlur_7962_18604"/>
</filter>
<filter id="filter3_f_7962_18604" x="-2.95648" y="-1.75933" width="109.914" height="122.736" filterUnits="userSpaceOnUse" color-interpolation-filters="sRGB">
<feFlood flood-opacity="0" result="BackgroundImageFix"/>
<feBlend mode="normal" in="SourceGraphic" in2="BackgroundImageFix" result="shape"/>
<feGaussianBlur stdDeviation="1.93673" result="effect1_foregroundBlur_7962_18604"/>
</filter>
<filter id="filter4_dd_7962_18604" x="19.7684" y="31.7649" width="64.4593" height="56.1543" filterUnits="userSpaceOnUse" color-interpolation-filters="sRGB">
<feFlood flood-opacity="0" result="BackgroundImageFix"/>
<feColorMatrix in="SourceAlpha" type="matrix" values="0 0 0 0 0 0 0 0 0 0 0 0 0 0 0 0 0 0 127 0" result="hardAlpha"/>
<feOffset dy="3.22869"/>
<feGaussianBlur stdDeviation="1.61435"/>
<feComposite in2="hardAlpha" operator="out"/>
<feColorMatrix type="matrix" values="0 0 0 0 0.668056 0 0 0 0 0 0 0 0 0 0 0 0 0 0.25 0"/>
<feBlend mode="normal" in2="BackgroundImageFix" result="effect1_dropShadow_7962_18604"/>
<feColorMatrix in="SourceAlpha" type="matrix" values="0 0 0 0 0 0 0 0 0 0 0 0 0 0 0 0 0 0 127 0" result="hardAlpha"/>
<feOffset dy="1.21076"/>
<feGaussianBlur stdDeviation="0.807173"/>
<feComposite in2="hardAlpha" operator="out"/>
<feColorMatrix type="matrix" values="0 0 0 0 0.901389 0 0 0 0 0 0 0 0 0 0 0 0 0 0.5 0"/>
<feBlend mode="normal" in2="effect1_dropShadow_7962_18604" result="effect2_dropShadow_7962_18604"/>
<feBlend mode="normal" in="SourceGraphic" in2="effect2_dropShadow_7962_18604" result="shape"/>
</filter>
<filter id="filter5_f_7962_18604" x="19.579" y="28.7506" width="64.0441" height="55.4513" filterUnits="userSpaceOnUse" color-interpolation-filters="sRGB">
<feFlood flood-opacity="0" result="BackgroundImageFix"/>
<feBlend mode="normal" in="SourceGraphic" in2="BackgroundImageFix" result="shape"/>
<feGaussianBlur stdDeviation="1.36722" result="effect1_foregroundBlur_7962_18604"/>
</filter>
<filter id="filter6_f_7962_18604" x="34.4306" y="28.7502" width="20.588" height="15.7197" filterUnits="userSpaceOnUse" color-interpolation-filters="sRGB">
<feFlood flood-opacity="0" result="BackgroundImageFix"/>
<feBlend mode="normal" in="SourceGraphic" in2="BackgroundImageFix" result="shape"/>
<feGaussianBlur stdDeviation="1.36722" result="effect1_foregroundBlur_7962_18604"/>
</filter>
<filter id="filter7_f_7962_18604" x="18.8933" y="26.7521" width="66.2075" height="57.8827" filterUnits="userSpaceOnUse" color-interpolation-filters="sRGB">
<feFlood flood-opacity="0" result="BackgroundImageFix"/>
<feBlend mode="normal" in="SourceGraphic" in2="BackgroundImageFix" result="shape"/>
<feGaussianBlur stdDeviation="2.36634" result="effect1_foregroundBlur_7962_18604"/>
</filter>
<filter id="filter8_f_7962_18604" x="21.3141" y="30.4859" width="61.3678" height="52.6587" filterUnits="userSpaceOnUse" color-interpolation-filters="sRGB">
<feFlood flood-opacity="0" result="BackgroundImageFix"/>
<feBlend mode="normal" in="SourceGraphic" in2="BackgroundImageFix" result="shape"/>
<feGaussianBlur stdDeviation="0.631023" result="effect1_foregroundBlur_7962_18604"/>
</filter>
<filter id="filter9_f_7962_18604" x="55.4512" y="29.3948" width="23.6494" height="12.9624" filterUnits="userSpaceOnUse" color-interpolation-filters="sRGB">
<feFlood flood-opacity="0" result="BackgroundImageFix"/>
<feBlend mode="normal" in="SourceGraphic" in2="BackgroundImageFix" result="shape"/>
<feGaussianBlur stdDeviation="1.89307" result="effect1_foregroundBlur_7962_18604"/>
</filter>
<filter id="filter10_f_7962_18604" x="20.2967" y="27.7989" width="32.0043" height="32.9836" filterUnits="userSpaceOnUse" color-interpolation-filters="sRGB">
<feFlood flood-opacity="0" result="BackgroundImageFix"/>
<feBlend mode="normal" in="SourceGraphic" in2="BackgroundImageFix" result="shape"/>
<feGaussianBlur stdDeviation="4.10165" result="effect1_foregroundBlur_7962_18604"/>
</filter>
<filter id="filter11_f_7962_18604" x="24.8541" y="32.5281" width="22.8933" height="23.5254" filterUnits="userSpaceOnUse" color-interpolation-filters="sRGB">
<feFlood flood-opacity="0" result="BackgroundImageFix"/>
<feBlend mode="normal" in="SourceGraphic" in2="BackgroundImageFix" result="shape"/>
<feGaussianBlur stdDeviation="3.2077" result="effect1_foregroundBlur_7962_18604"/>
</filter>
<filter id="filter12_f_7962_18604" x="43.5773" y="32.4544" width="11.1529" height="12.7405" filterUnits="userSpaceOnUse" color-interpolation-filters="sRGB">
<feFlood flood-opacity="0" result="BackgroundImageFix"/>
<feBlend mode="normal" in="SourceGraphic" in2="BackgroundImageFix" result="shape"/>
<feGaussianBlur stdDeviation="0.893949" result="effect1_foregroundBlur_7962_18604"/>
</filter>
<linearGradient id="paint0_linear_7962_18604" x1="52.0004" y1="0.000366211" x2="52.0004" y2="120" gradientUnits="userSpaceOnUse">
<stop stop-color="white"/>
<stop offset="1" stop-color="white" stop-opacity="0"/>
</linearGradient>
<linearGradient id="paint1_linear_7962_18604" x1="52.0006" y1="2.11414" x2="52.0006" y2="31.9379" gradientUnits="userSpaceOnUse">
<stop stop-color="white"/>
<stop offset="1" stop-color="white" stop-opacity="0"/>
</linearGradient>
<linearGradient id="paint2_linear_7962_18604" x1="18.0692" y1="39.9222" x2="32.4952" y2="39.0001" gradientUnits="userSpaceOnUse">
<stop stop-color="white"/>
<stop offset="1" stop-color="white" stop-opacity="0"/>
</linearGradient>
<linearGradient id="paint3_linear_7962_18604" x1="29.0601" y1="38.2378" x2="40.6546" y2="42.9112" gradientUnits="userSpaceOnUse">
<stop stop-color="white"/>
<stop offset="1" stop-color="white" stop-opacity="0"/>
</linearGradient>
<linearGradient id="paint4_linear_7962_18604" x1="40.3654" y1="31.7668" x2="56.1194" y2="46.9099" gradientUnits="userSpaceOnUse">
<stop stop-color="white" stop-opacity="0"/>
<stop offset="0.512152" stop-color="white"/>
<stop offset="1" stop-color="white" stop-opacity="0"/>
</linearGradient>
<linearGradient id="paint5_linear_7962_18604" x1="68.7956" y1="66.026" x2="63.302" y2="61.7693" gradientUnits="userSpaceOnUse">
<stop stop-color="white"/>
<stop offset="1" stop-color="white" stop-opacity="0"/>
</linearGradient>
<linearGradient id="paint6_linear_7962_18604" x1="55.6172" y1="79.5142" x2="53.7307" y2="76.451" gradientUnits="userSpaceOnUse">
<stop stop-color="white" stop-opacity="0.67"/>
<stop offset="1" stop-color="white" stop-opacity="0"/>
</linearGradient>
<linearGradient id="paint7_linear_7962_18604" x1="65.2333" y1="35.8374" x2="51.7695" y2="81.6387" gradientUnits="userSpaceOnUse">
<stop stop-color="white"/>
<stop offset="1" stop-color="white" stop-opacity="0"/>
</linearGradient>
</defs>
</svg>
