<svg width="64" height="64" viewBox="0 0 64 64" fill="none" xmlns="http://www.w3.org/2000/svg">
<circle cx="32" cy="32" r="32" fill="#090909"/>
<path d="M26.4083 48.7751C29.4949 48.7751 31.9999 46.27 31.9999 43.1834V37.5918H26.4083C23.3217 37.5918 20.8167 40.0969 20.8167 43.1834C20.8167 46.27 23.3217 48.7751 26.4083 48.7751Z" fill="#0ACF83"/>
<path d="M20.8167 32.0003C20.8167 28.9137 23.3217 26.4087 26.4083 26.4087H31.9999V37.592H26.4083C23.3217 37.592 20.8167 35.0869 20.8167 32.0003Z" fill="#A259FF"/>
<path d="M20.8167 20.8172C20.8167 17.7306 23.3217 15.2256 26.4083 15.2256H31.9999V26.4089H26.4083C23.3217 26.4089 20.8167 23.9038 20.8167 20.8172Z" fill="#F24E1E"/>
<path d="M32 15.2256H37.5916C40.6782 15.2256 43.1833 17.7306 43.1833 20.8172C43.1833 23.9038 40.6782 26.4089 37.5916 26.4089H32V15.2256Z" fill="#FF7262"/>
<path d="M43.1833 32.0003C43.1833 35.0869 40.6782 37.592 37.5916 37.592C34.5051 37.592 32 35.0869 32 32.0003C32 28.9137 34.5051 26.4087 37.5916 26.4087C40.6782 26.4087 43.1833 28.9137 43.1833 32.0003Z" fill="#1ABCFE"/>
</svg>
