<svg width="58" height="58" viewBox="0 0 58 58" fill="none" xmlns="http://www.w3.org/2000/svg">
<g clip-path="url(#clip0_7343_10968)">
<path d="M57.6373 0.362549H0.362305V57.6376H57.6373V0.362549Z" fill="white" stroke="#F9F8F6" stroke-width="0.725"/>
<path fill-rule="evenodd" clip-rule="evenodd" d="M40.8251 21.7972C43.378 21.7972 45.4475 19.7276 45.4475 17.1747C45.4475 14.6218 43.378 12.5522 40.8251 12.5522C38.2721 12.5522 36.2026 14.6218 36.2026 17.1747C36.2026 19.7276 38.2721 21.7972 40.8251 21.7972Z" fill="#8055FA"/>
<path fill-rule="evenodd" clip-rule="evenodd" d="M40.8246 33.4068C43.3775 33.4068 45.4471 31.3373 45.4471 28.7845C45.4471 26.2316 43.3775 24.1621 40.8246 24.1621C38.2717 24.1621 36.2021 26.2316 36.2021 28.7845C36.2021 31.3373 38.2717 33.4068 40.8246 33.4068Z" fill="#7550FB"/>
<path fill-rule="evenodd" clip-rule="evenodd" d="M40.8246 45.4475C43.3775 45.4475 45.4471 43.378 45.4471 40.8251C45.4471 38.2721 43.3775 36.2026 40.8246 36.2026C38.2717 36.2026 36.2021 38.2721 36.2021 40.8251C36.2021 43.378 38.2717 45.4475 40.8246 45.4475Z" fill="#6A4AFC"/>
<path fill-rule="evenodd" clip-rule="evenodd" d="M28.7854 33.4068C31.3383 33.4068 33.4077 31.3373 33.4077 28.7845C33.4077 26.2316 31.3383 24.1621 28.7854 24.1621C26.2326 24.1621 24.1631 26.2316 24.1631 28.7845C24.1631 31.3373 26.2326 33.4068 28.7854 33.4068Z" fill="#6045FD"/>
<path fill-rule="evenodd" clip-rule="evenodd" d="M28.7849 45.4475C31.3377 45.4475 33.4072 43.378 33.4072 40.8251C33.4072 38.2721 31.3377 36.2026 28.7849 36.2026C26.232 36.2026 24.1626 38.2721 24.1626 40.8251C24.1626 43.378 26.232 45.4475 28.7849 45.4475Z" fill="#553FFE"/>
<path fill-rule="evenodd" clip-rule="evenodd" d="M17.1747 45.4475C19.7276 45.4475 21.7972 43.378 21.7972 40.8251C21.7972 38.2721 19.7276 36.2026 17.1747 36.2026C14.6218 36.2026 12.5522 38.2721 12.5522 40.8251C12.5522 43.378 14.6218 45.4475 17.1747 45.4475Z" fill="#4A3AFF"/>
</g>
<defs>
<clipPath id="clip0_7343_10968">
<rect width="58" height="58" fill="white"/>
</clipPath>
</defs>
</svg>
