<svg width="64" height="64" viewBox="0 0 64 64" fill="none" xmlns="http://www.w3.org/2000/svg">
<circle cx="32" cy="32" r="32" fill="url(#paint0_linear_7874_8027)"/>
<path fill-rule="evenodd" clip-rule="evenodd" d="M46.9318 21.2648C46.9318 23.5824 45.053 25.4612 42.7354 25.4612C40.4178 25.4612 38.539 23.5824 38.539 21.2648C38.539 18.9472 40.4178 17.0684 42.7354 17.0684C45.053 17.0684 46.9318 18.9472 46.9318 21.2648ZM46.9314 31.8045C46.9314 34.1221 45.0526 36.0008 42.735 36.0008C40.4174 36.0008 38.5386 34.1221 38.5386 31.8045C38.5386 29.487 40.4174 27.6083 42.735 27.6083C45.0526 27.6083 46.9314 29.487 46.9314 31.8045ZM42.735 46.9315C45.0526 46.9315 46.9314 45.0527 46.9314 42.7351C46.9314 40.4175 45.0526 38.5387 42.735 38.5387C40.4174 38.5387 38.5386 40.4175 38.5386 42.7351C38.5386 45.0527 40.4174 46.9315 42.735 46.9315ZM36.0014 31.8045C36.0014 34.1221 34.1227 36.0008 31.8052 36.0008C29.4876 36.0008 27.6089 34.1221 27.6089 31.8045C27.6089 29.487 29.4876 27.6083 31.8052 27.6083C34.1227 27.6083 36.0014 29.487 36.0014 31.8045ZM31.8052 46.9315C34.1227 46.9315 36.0014 45.0527 36.0014 42.7351C36.0014 40.4175 34.1227 38.5387 31.8052 38.5387C29.4876 38.5387 27.6089 40.4175 27.6089 42.7351C27.6089 45.0527 29.4876 46.9315 31.8052 46.9315ZM25.4614 42.7351C25.4614 45.0527 23.5826 46.9315 21.265 46.9315C18.9474 46.9315 17.0686 45.0527 17.0686 42.7351C17.0686 40.4175 18.9474 38.5387 21.265 38.5387C23.5826 38.5387 25.4614 40.4175 25.4614 42.7351Z" fill="url(#paint1_linear_7874_8027)"/>
<defs>
<linearGradient id="paint0_linear_7874_8027" x1="53.511" y1="3.29386" x2="8.11977" y2="57.5223" gradientUnits="userSpaceOnUse">
<stop stop-color="#8055FA"/>
<stop offset="1" stop-color="#4A3AFF"/>
</linearGradient>
<linearGradient id="paint1_linear_7874_8027" x1="17.0686" y1="43.6428" x2="45.2809" y2="18.7957" gradientUnits="userSpaceOnUse">
<stop stop-color="white" stop-opacity="0.87"/>
<stop offset="1" stop-color="white"/>
</linearGradient>
</defs>
</svg>
