<svg width="214" height="40" viewBox="0 0 214 40" fill="none" xmlns="http://www.w3.org/2000/svg">
<path d="M56.6446 10.0103L52.4177 21.6266H60.9019L56.6446 10.0103ZM51.627 24.3634L50.1978 28.3774H46.3054L53.999 6.84771H59.2902L66.9533 28.3774H63.0913L61.6621 24.3634H51.627ZM77.3349 25.8839C80.2846 25.8839 82.4437 23.664 82.4437 20.6535C82.4437 17.5822 80.2542 15.4231 77.3349 15.4231C74.3853 15.4231 72.2566 17.643 72.2566 20.6535C72.2566 23.664 74.3853 25.8839 77.3349 25.8839ZM85.7279 20.6535C85.7279 25.4886 82.4741 28.9856 77.9735 28.9856C75.6624 28.9856 73.6858 27.9821 72.3782 26.2792V35.3716H69.0636V12.9296H72.287V15.0886C73.625 13.3553 75.6016 12.3214 77.9735 12.3214C82.4437 12.3214 85.7279 15.8184 85.7279 20.6535ZM96.7351 25.8839C99.6848 25.8839 101.844 23.664 101.844 20.6535C101.844 17.5822 99.6544 15.4231 96.7351 15.4231C93.7854 15.4231 91.6567 17.643 91.6567 20.6535C91.6567 23.664 93.7854 25.8839 96.7351 25.8839ZM105.128 20.6535C105.128 25.4886 101.874 28.9856 97.3737 28.9856C95.0626 28.9856 93.086 27.9821 91.7784 26.2792V35.3716H88.4638V12.9296H91.6871V15.0886C93.0252 13.3553 95.0018 12.3214 97.3737 12.3214C101.844 12.3214 105.128 15.8184 105.128 20.6535ZM107.864 5.93543H111.148V28.3774H107.864V5.93543ZM115.039 12.9296H118.323V28.3774H115.039V12.9296ZM116.681 10.436C115.465 10.436 114.613 9.58454 114.613 8.39858C114.613 7.24303 115.465 6.42198 116.681 6.42198C117.867 6.42198 118.719 7.24303 118.719 8.39858C118.719 9.58454 117.867 10.436 116.681 10.436ZM129.614 12.3214C133.537 12.3214 136.76 14.7845 137.308 18.1904L134.145 18.5857C133.659 16.5787 131.773 15.1494 129.645 15.1494C126.908 15.1494 124.749 17.4605 124.749 20.6535C124.779 23.8465 126.877 26.1576 129.645 26.1576C131.834 26.1576 133.628 24.7283 134.175 22.7517L137.338 23.1471C136.699 26.5225 133.446 28.9856 129.645 28.9856C124.901 28.9856 121.464 25.4886 121.464 20.6535C121.464 15.8184 124.901 12.3214 129.614 12.3214ZM147.743 26.0359C150.693 26.0359 152.821 23.7856 152.821 20.6535C152.821 17.5213 150.693 15.2711 147.743 15.2711C144.793 15.2711 142.634 17.5213 142.634 20.6535C142.634 23.7552 144.793 26.0359 147.743 26.0359ZM152.852 15.2407V12.9296H156.166V28.3774H152.852V26.0663C151.544 27.8909 149.507 28.9856 147.104 28.9856C142.573 28.9856 139.35 25.4886 139.35 20.6535C139.35 15.8184 142.573 12.3214 147.104 12.3214C149.507 12.3214 151.544 13.4161 152.852 15.2407ZM160.966 24.0289V15.5143H158.595V12.9296H161.149L161.575 9.18922H164.281V12.9296H168.052V15.5143H164.281V23.8161C164.281 25.2149 165.133 26.188 166.531 26.188C166.957 26.188 167.687 26.0967 168.265 25.9143V28.5599C167.474 28.8336 166.379 28.9856 165.528 28.9856C162.761 28.9856 160.966 26.9786 160.966 24.0289ZM171.436 12.9296H174.72V28.3774H171.436V12.9296ZM173.078 10.436C171.862 10.436 171.011 9.58454 171.011 8.39858C171.011 7.24303 171.862 6.42198 173.078 6.42198C174.264 6.42198 175.116 7.24303 175.116 8.39858C175.116 9.58454 174.264 10.436 173.078 10.436ZM186.224 12.3214C191.15 12.3214 194.617 15.7576 194.617 20.6535C194.617 25.5494 191.15 28.9856 186.224 28.9856C181.267 28.9856 177.831 25.5494 177.831 20.6535C177.831 15.7576 181.267 12.3214 186.224 12.3214ZM186.224 26.0359C189.174 26.0359 191.333 23.7856 191.333 20.6535C191.333 17.5213 189.174 15.2711 186.224 15.2711C183.244 15.2711 181.146 17.5213 181.146 20.6535C181.146 23.7856 183.244 26.0359 186.224 26.0359ZM197.338 12.9296H200.592V14.9062C201.687 13.2945 203.603 12.3214 205.61 12.3214C209.38 12.3214 211.843 15.119 211.843 18.9506V28.3774H208.559V19.1939C208.559 16.9132 207.191 15.2711 204.88 15.2711C202.569 15.2711 200.653 17.0348 200.653 19.4979V28.3774H197.338V12.9296Z" fill="#545D73"/>
<path fill-rule="evenodd" clip-rule="evenodd" d="M15.0337 27.2588L7.51814 27.2588C3.36599 27.2588 0 23.8928 0 19.7407C0 16.0097 2.89719 12.9554 6.56455 12.7049C6.82447 9.04661 9.87459 6.15955 13.599 6.15955H14.0635C16.1338 6.15955 18.0086 6.99652 19.3681 8.35056C21.1907 6.97512 23.4595 6.15955 25.9187 6.15955H26.7838C32.3177 6.15955 36.8037 10.6456 36.8037 16.1795C36.8037 22.2984 31.8434 27.2588 25.7244 27.2588H15.0337Z" fill="#545D73"/>
</svg>
