<svg width="170" height="42" viewBox="0 0 170 42" fill="none" xmlns="http://www.w3.org/2000/svg">
<path d="M55.3825 22.3428C55.3825 20.3662 53.4971 18.937 50.8515 18.937H45.2562V25.779H50.8515C53.4971 25.779 55.3825 24.3194 55.3825 22.3428ZM50.7907 10.2703H45.2562V16.0785H50.7907C53.1322 16.0785 54.7743 14.8925 54.7743 13.1896C54.7743 11.4867 53.1322 10.2703 50.7907 10.2703ZM51.4597 28.7896H41.6071V7.25982H51.338C55.5041 7.25982 58.4538 9.69256 58.4538 13.0376C58.4538 15.1358 57.1158 16.9604 55.2608 17.4773C57.4807 18.0247 59.062 20.1533 59.062 22.6469C59.062 26.2352 55.8994 28.7896 51.4597 28.7896ZM76.5905 28.7896H73.3367V26.813C72.2724 28.4246 70.3262 29.3977 68.3496 29.3977C64.5485 29.3977 62.0853 26.6001 62.0853 22.7685V13.3417H65.3999V22.5253C65.3999 24.8059 66.7379 26.448 69.0794 26.448C71.3601 26.448 73.3063 24.6843 73.3063 22.2212V13.3417H76.5905V28.7896ZM93.3256 24.1369C93.3256 27.2083 90.5279 29.4281 86.6051 29.4281C82.5303 29.4281 79.5806 26.965 79.5806 23.5592H82.6215C82.6215 25.3837 84.294 26.7217 86.6051 26.7217C88.673 26.7217 90.163 25.779 90.1326 24.5019C90.1326 22.8902 87.7303 22.4948 86.1794 22.282C82.5607 21.7346 79.8239 21.2785 79.8239 17.599C79.8239 14.7709 82.5303 12.7031 86.0274 12.7031C90.011 12.7031 92.9302 14.9229 92.9302 17.9943H89.8589C89.8285 16.4738 88.2168 15.4095 85.9969 15.4095C84.3244 15.4095 82.9256 16.3218 82.9256 17.5685C82.9256 18.7241 84.0812 19.089 86.5747 19.5147C89.5244 20.0013 93.3256 20.6399 93.3256 24.1369ZM96.567 13.3417H99.8512V28.7896H96.567V13.3417ZM98.2091 10.8481C96.9927 10.8481 96.1413 9.99665 96.1413 8.81069C96.1413 7.65514 96.9927 6.83409 98.2091 6.83409C99.3951 6.83409 100.247 7.65514 100.247 8.81069C100.247 9.99665 99.3951 10.8481 98.2091 10.8481ZM103.722 13.3417H106.976V15.3183C108.071 13.7066 109.986 12.7335 111.994 12.7335C115.764 12.7335 118.227 15.5311 118.227 19.3627V28.7896H114.943V19.606C114.943 17.3253 113.575 15.6832 111.264 15.6832C108.953 15.6832 107.037 17.4469 107.037 19.9101V28.7896H103.722V13.3417ZM124.106 19.6364H133.716C133.351 17.2036 131.405 15.5007 128.85 15.5007C126.357 15.5007 124.532 17.1732 124.106 19.6364ZM120.67 20.8832C120.67 16.1393 124.137 12.7335 128.941 12.7335C133.746 12.7335 137.152 16.1393 137.152 20.9136C137.152 21.2785 137.121 21.7346 137.091 22.0995L124.076 22.0691C124.471 24.8059 126.387 26.6305 128.911 26.6305C130.979 26.6305 132.895 25.4141 133.472 23.7112L136.574 24.1673C135.692 27.2083 132.499 29.3977 128.972 29.3977C124.137 29.3977 120.67 25.8399 120.67 20.8832ZM153.138 24.1369C153.138 27.2083 150.34 29.4281 146.417 29.4281C142.343 29.4281 139.393 26.965 139.393 23.5592H142.434C142.434 25.3837 144.106 26.7217 146.417 26.7217C148.485 26.7217 149.975 25.779 149.945 24.5019C149.945 22.8902 147.543 22.4948 145.992 22.282C142.373 21.7346 139.636 21.2785 139.636 17.599C139.636 14.7709 142.343 12.7031 145.84 12.7031C149.823 12.7031 152.743 14.9229 152.743 17.9943H149.671C149.641 16.4738 148.029 15.4095 145.809 15.4095C144.137 15.4095 142.738 16.3218 142.738 17.5685C142.738 18.7241 143.893 19.089 146.387 19.5147C149.337 20.0013 153.138 20.6399 153.138 24.1369ZM169.212 24.1369C169.212 27.2083 166.414 29.4281 162.492 29.4281C158.417 29.4281 155.467 26.965 155.467 23.5592H158.508C158.508 25.3837 160.18 26.7217 162.492 26.7217C164.559 26.7217 166.049 25.779 166.019 24.5019C166.019 22.8902 163.617 22.4948 162.066 22.282C158.447 21.7346 155.71 21.2785 155.71 17.599C155.71 14.7709 158.417 12.7031 161.914 12.7031C165.897 12.7031 168.817 14.9229 168.817 17.9943H165.745C165.715 16.4738 164.103 15.4095 161.883 15.4095C160.211 15.4095 158.812 16.3218 158.812 17.5685C158.812 18.7241 159.968 19.089 162.461 19.5147C165.411 20.0013 169.212 20.6399 169.212 24.1369Z" fill="#545D73"/>
<path fill-rule="evenodd" clip-rule="evenodd" d="M17.1932 12.8623L21.8949 17.6184L17.4181 22.147L12.7164 17.3909L17.1932 12.8623ZM12.3726 7.98588L9.42478 5.00396C9.25663 4.83387 9.25663 4.55809 9.42478 4.388L13.6365 0.127569C13.8046 -0.0425231 14.0772 -0.0425232 14.2454 0.127569L28.6437 14.6926C30.2411 16.3085 30.2411 18.9284 28.6437 20.5443L22.2387 27.0234L25.1865 30.0053C25.3546 30.1754 25.3546 30.4512 25.1865 30.6213L20.9748 34.8817C20.8067 35.0518 20.5341 35.0518 20.3659 34.8817L5.96758 20.3167C4.37018 18.7008 4.37018 16.0809 5.96758 14.465L12.3726 7.98588Z" fill="#545D73"/>
</svg>
