<svg width="48" height="48" viewBox="0 0 48 48" fill="none" xmlns="http://www.w3.org/2000/svg">
<rect x="0.769231" y="0.769231" width="46.4615" height="46.4615" rx="11.5385" fill="#F1F3F7" stroke="#353E5C" stroke-width="1.53846"/>
<mask id="mask0_5462_57441" style="mask-type:alpha" maskUnits="userSpaceOnUse" x="1" y="1" width="46" height="46">
<rect x="1.68091" y="1.84967" width="44.6131" height="44.6024" rx="10.7692" fill="#E3EFFF"/>
</mask>
<g mask="url(#mask0_5462_57441)">
<line x1="32.8207" y1="6.10127e-05" x2="32.8207" y2="50.0481" stroke="#B4B9C9" stroke-width="1.02564"/>
<line x1="41.1283" y1="6.10127e-05" x2="41.1283" y2="50.0481" stroke="#B4B9C9" stroke-width="1.02564"/>
<line x1="24.5131" y1="6.10127e-05" x2="24.5131" y2="50.0481" stroke="#B4B9C9" stroke-width="1.02564"/>
<line x1="7.89759" y1="6.10127e-05" x2="7.89759" y2="50.0481" stroke="#B4B9C9" stroke-width="1.02564"/>
<line x1="16.2052" y1="6.10127e-05" x2="16.2052" y2="50.0481" stroke="#B4B9C9" stroke-width="1.02564"/>
<line x1="-1.02393" y1="16.2035" x2="49.0242" y2="16.2035" stroke="#B4B9C9" stroke-width="1.02564"/>
<line x1="-1.02393" y1="7.89581" x2="49.0242" y2="7.89581" stroke="#B4B9C9" stroke-width="1.02564"/>
<line x1="-1.02393" y1="24.5112" x2="49.0242" y2="24.5112" stroke="#B4B9C9" stroke-width="1.02564"/>
<line x1="-1.02393" y1="41.1266" x2="49.0242" y2="41.1266" stroke="#B4B9C9" stroke-width="1.02564"/>
<line x1="-1.02393" y1="32.819" x2="49.0242" y2="32.819" stroke="#B4B9C9" stroke-width="1.02564"/>
<rect x="1.41211" y="1.53467" width="45.0024" height="44.9916" rx="10.7692" fill="url(#paint0_radial_5462_57441)"/>
</g>
<path d="M13.5 26.8965C13.5 29.4961 15.6073 31.6034 18.2069 31.6034H29.7931C32.3926 31.6034 34.5 29.4961 34.5 26.8965C34.5 24.4155 32.5805 22.3828 30.1455 22.2027C29.9644 18.9656 27.2822 16.3965 24 16.3965C20.7177 16.3965 18.0355 18.9656 17.8546 22.2027C15.4196 22.3828 13.5 24.4155 13.5 26.8965Z" fill="white" stroke="#353E5C" stroke-width="1.5" stroke-linecap="round" stroke-linejoin="round"/>
<defs>
<radialGradient id="paint0_radial_5462_57441" cx="0" cy="0" r="1" gradientUnits="userSpaceOnUse" gradientTransform="translate(23.9133 24.0305) rotate(90) scale(22.4958 22.5012)">
<stop stop-color="#F6FAFD" stop-opacity="0.28"/>
<stop offset="1" stop-color="#F6FAFD"/>
</radialGradient>
</defs>
</svg>
