<svg width="188" height="40" viewBox="0 0 188 40" fill="none" xmlns="http://www.w3.org/2000/svg">
<path d="M56.9292 25.5978C60.0918 25.5978 62.9502 23.4691 63.7713 20.5195L67.2379 21.0972C66.2648 25.537 61.9163 28.7604 56.8988 28.7604C50.3608 28.7604 45.617 23.9253 45.6474 17.2353C45.6474 10.5452 50.3608 5.71016 56.8988 5.71016C61.9163 5.71016 66.2648 9.08559 67.2379 13.7078L63.7409 14.1335C63.0111 11.0926 60.1526 8.90313 56.9292 8.90313C52.4591 8.90313 49.2965 12.3698 49.2965 17.2353C49.3269 22.1007 52.4895 25.5978 56.9292 25.5978ZM77.8878 11.9441C82.8141 11.9441 86.2808 15.3803 86.2808 20.2762C86.2808 25.1721 82.8141 28.6083 77.8878 28.6083C72.9311 28.6083 69.4949 25.1721 69.4949 20.2762C69.4949 15.3803 72.9311 11.9441 77.8878 11.9441ZM77.8878 25.6586C80.8375 25.6586 82.9966 23.4083 82.9966 20.2762C82.9966 17.144 80.8375 14.8937 77.8878 14.8937C74.9077 14.8937 72.8095 17.144 72.8095 20.2762C72.8095 23.4083 74.9077 25.6586 77.8878 25.6586ZM92.3165 28.0001H89.0019V12.5522H92.1949V14.316C93.168 12.8259 94.7797 11.9441 96.6346 11.9441C99.037 11.9441 101.044 13.0996 101.956 14.8633C103.021 13.0996 104.967 11.9745 107.187 11.9745C110.805 11.9745 113.36 14.7417 113.36 18.6645V28.0001H110.076V18.9382C110.076 16.5967 108.585 14.9242 106.487 14.8937C104.328 14.8937 102.777 16.5967 102.777 18.9382V28.0001H99.4627V18.9382C99.4627 16.5054 98.0943 14.8937 95.9656 14.8937C93.7762 14.8937 92.3165 16.5054 92.3165 18.9382V28.0001ZM124.78 25.5066C127.73 25.5066 129.889 23.2867 129.889 20.2762C129.889 17.2048 127.7 15.0458 124.78 15.0458C121.831 15.0458 119.702 17.2657 119.702 20.2762C119.702 23.2867 121.831 25.5066 124.78 25.5066ZM133.173 20.2762C133.173 25.1112 129.92 28.6083 125.419 28.6083C123.108 28.6083 121.131 27.6048 119.824 25.9019V34.9942H116.509V12.5522H119.733V14.7113C121.071 12.978 123.047 11.9441 125.419 11.9441C129.889 11.9441 133.173 15.4411 133.173 20.2762ZM143.572 25.6586C146.522 25.6586 148.651 23.4083 148.651 20.2762C148.651 17.144 146.522 14.8937 143.572 14.8937C140.623 14.8937 138.464 17.144 138.464 20.2762C138.464 23.3779 140.623 25.6586 143.572 25.6586ZM148.681 14.8633V12.5522H151.996V28.0001H148.681V25.689C147.374 27.5136 145.336 28.6083 142.934 28.6083C138.403 28.6083 135.179 25.1112 135.179 20.2762C135.179 15.4411 138.403 11.9441 142.934 11.9441C145.336 11.9441 147.374 13.0388 148.681 14.8633ZM155.458 12.5522H158.712V14.5288C159.806 12.9171 161.722 11.9441 163.729 11.9441C167.5 11.9441 169.963 14.7417 169.963 18.5733V28.0001H166.679V18.8165C166.679 16.5358 165.311 14.8937 162.999 14.8937C160.688 14.8937 158.773 16.6575 158.773 19.1206V28.0001H155.458V12.5522ZM173.136 34.3556V31.6796C173.805 31.9229 174.565 32.1054 175.173 32.1054C177.302 32.1054 177.94 29.9767 178.731 28.0609L171.767 12.5522H175.386L180.221 23.9557L184.417 12.5522H187.884L181.833 28.365C180.495 31.9229 179.126 34.8726 175.842 34.8726C174.96 34.8726 173.926 34.6902 173.136 34.3556Z" fill="#545D73"/>
<path fill-rule="evenodd" clip-rule="evenodd" d="M13.2934 3.10437C11.9001 3.10437 10.7706 4.23387 10.7706 5.62717V13.5034H2.55405C1.16075 13.5034 0.03125 14.6329 0.03125 16.0262V34.619C0.03125 36.0123 1.16075 37.1418 2.55405 37.1418H21.3603C22.7536 37.1418 23.8831 36.0123 23.8831 34.619V26.7428H32.0996C33.4929 26.7428 34.6224 25.6133 34.6224 24.22V5.62717C34.6224 4.23387 33.4929 3.10437 32.0996 3.10437H13.2934ZM23.8831 26.7428V16.0262C23.8831 14.6329 22.7536 13.5034 21.3603 13.5034H10.7706V24.22C10.7706 25.6133 11.9001 26.7428 13.2934 26.7428H23.8831Z" fill="#545D73"/>
</svg>
