<svg width="193" height="40" viewBox="0 0 193 40" fill="none" xmlns="http://www.w3.org/2000/svg">
<path d="M48.3611 18.2993V24.8981H60.0383V27.9999H44.8336V6.47015H59.7342V9.57189H48.3611V15.5017H58.5178V18.2993H48.3611ZM63.0324 12.552H66.2862V14.5286C67.3809 12.9169 69.2967 11.9438 71.3037 11.9438C75.0744 11.9438 77.5376 14.7415 77.5376 18.573V27.9999H74.2534V18.8163C74.2534 16.5356 72.885 14.8935 70.5739 14.8935C68.2628 14.8935 66.347 16.6572 66.347 19.1204V27.9999H63.0324V12.552ZM82.0481 23.6514V15.1368H79.6762V12.552H82.2306L82.6563 8.81166H85.3627V12.552H89.1335V15.1368H85.3627V23.4385C85.3627 24.8373 86.2142 25.8104 87.613 25.8104C88.0387 25.8104 88.7686 25.7192 89.3463 25.5367V28.1823C88.5557 28.456 87.461 28.6081 86.6095 28.6081C83.8423 28.6081 82.0481 26.6011 82.0481 23.6514ZM94.7986 18.8467H104.408C104.043 16.414 102.097 14.711 99.5424 14.711C97.0489 14.711 95.2243 16.3836 94.7986 18.8467ZM91.3624 20.0935C91.3624 15.3496 94.829 11.9438 99.6337 11.9438C104.438 11.9438 107.844 15.3496 107.844 20.1239C107.844 20.4888 107.814 20.9449 107.783 21.3098L94.7682 21.2794C95.1635 24.0163 97.0793 25.8408 99.6033 25.8408C101.671 25.8408 103.587 24.6245 104.165 22.9215L107.266 23.3777C106.385 26.4186 103.192 28.6081 99.6641 28.6081C94.829 28.6081 91.3624 25.0502 91.3624 20.0935ZM110.572 12.552H113.765V14.5286C114.707 12.9473 116.197 12.0046 117.961 12.0046C118.569 12.0046 119.269 12.1567 119.938 12.3999V15.3496C119.086 14.9847 118.144 14.8631 117.535 14.8631C115.346 14.8631 113.886 16.8093 113.886 19.5461V27.9999H110.572V12.552ZM130.344 25.5063C133.294 25.5063 135.453 23.2864 135.453 20.2759C135.453 17.2046 133.263 15.0455 130.344 15.0455C127.394 15.0455 125.266 17.2654 125.266 20.2759C125.266 23.2864 127.394 25.5063 130.344 25.5063ZM138.737 20.2759C138.737 25.111 135.483 28.6081 130.982 28.6081C128.671 28.6081 126.695 27.6046 125.387 25.9016V34.994H122.073V12.552H125.296V14.711C126.634 12.9777 128.611 11.9438 130.982 11.9438C135.453 11.9438 138.737 15.4409 138.737 20.2759ZM141.473 12.552H144.666V14.5286C145.608 12.9473 147.098 12.0046 148.862 12.0046C149.47 12.0046 150.17 12.1567 150.839 12.3999V15.3496C149.987 14.9847 149.045 14.8631 148.436 14.8631C146.247 14.8631 144.787 16.8093 144.787 19.5461V27.9999H141.473V12.552ZM153.399 12.552H156.684V27.9999H153.399V12.552ZM155.041 10.0584C153.825 10.0584 152.974 9.20698 152.974 8.02102C152.974 6.86547 153.825 6.04442 155.041 6.04442C156.227 6.04442 157.079 6.86547 157.079 8.02102C157.079 9.20698 156.227 10.0584 155.041 10.0584ZM173.813 23.3473C173.813 26.4186 171.015 28.6385 167.092 28.6385C163.018 28.6385 160.068 26.1753 160.068 22.7695H163.109C163.109 24.594 164.781 25.9321 167.092 25.9321C169.16 25.9321 170.65 24.9894 170.62 23.7122C170.62 22.1005 168.218 21.7052 166.667 21.4923C163.048 20.9449 160.311 20.4888 160.311 16.8093C160.311 13.9812 163.018 11.9134 166.515 11.9134C170.498 11.9134 173.418 14.1333 173.418 17.2046H170.346C170.316 15.6841 168.704 14.6198 166.484 14.6198C164.812 14.6198 163.413 15.5321 163.413 16.7789C163.413 17.9344 164.569 18.2993 167.062 18.7251C170.012 19.2116 173.813 19.8502 173.813 23.3473ZM179.335 18.8467H188.944C188.579 16.414 186.633 14.711 184.079 14.711C181.585 14.711 179.761 16.3836 179.335 18.8467ZM175.899 20.0935C175.899 15.3496 179.365 11.9438 184.17 11.9438C188.975 11.9438 192.381 15.3496 192.381 20.1239C192.381 20.4888 192.35 20.9449 192.32 21.3098L179.305 21.2794C179.7 24.0163 181.616 25.8408 184.14 25.8408C186.208 25.8408 188.123 24.6245 188.701 22.9215L191.803 23.3777C190.921 26.4186 187.728 28.6081 184.201 28.6081C179.365 28.6081 175.899 25.0502 175.899 20.0935Z" fill="#545D73"/>
<g clip-path="url(#clip0_7960_17395)">
<path fill-rule="evenodd" clip-rule="evenodd" d="M1.42844 26.7595C1.42844 27.6064 2.28617 28.1836 3.07067 27.8647L13.5535 23.6034C14.0031 23.4206 14.2972 22.9836 14.2972 22.4983L14.2972 17.6859C14.2972 17.2005 14.5913 16.7635 15.0409 16.5807L25.561 12.3043C26.0106 12.1215 26.3047 11.6845 26.3047 11.1991L26.3047 5.5574C26.3047 4.89854 25.7706 4.36442 25.1117 4.36442L14.6289 4.36442C13.9701 4.36442 13.4359 4.89853 13.4359 5.5574L13.4359 14.4706C13.4359 15.1294 12.9018 15.6635 12.243 15.6635L2.62142 15.6635C1.96255 15.6635 1.42844 16.1977 1.42844 16.8565L1.42844 26.7595Z" fill="#545D73"/>
<path fill-rule="evenodd" clip-rule="evenodd" d="M35.4114 12.5287C35.4114 11.6818 34.5537 11.1046 33.7692 11.4235L23.2864 15.6848C22.8367 15.8676 22.5427 16.3046 22.5427 16.7899V21.6023C22.5427 22.0876 22.2486 22.5246 21.7989 22.7074L11.2789 26.9839C10.8292 27.1666 10.5352 27.6036 10.5352 28.089V33.7308C10.5352 34.3896 11.0693 34.9237 11.7281 34.9237H22.2109C22.8698 34.9237 23.4039 34.3896 23.4039 33.7308V24.8177C23.4039 24.1588 23.938 23.6247 24.5969 23.6247H34.2184C34.8773 23.6247 35.4114 23.0905 35.4114 22.4317V12.5287Z" fill="#545D73"/>
</g>
<defs>
<clipPath id="clip0_7960_17395">
<rect width="35.2567" height="35.2567" fill="white" transform="translate(0.789062 2.97266)"/>
</clipPath>
</defs>
</svg>
