<svg width="126" height="120" viewBox="0 0 126 120" fill="none" xmlns="http://www.w3.org/2000/svg">
<path fill-rule="evenodd" clip-rule="evenodd" d="M37.5789 30.8036C40.2543 25.3564 53.2325 0 63 0C72.7675 0 85.7458 25.3566 88.4211 30.8037C93.3513 31.5505 122.701 36.3825 125.71 45.9873C128.606 55.2357 108.961 74.9156 104.272 79.4432C105.9 87.261 110.487 112.463 103.288 118.243C94.9242 124.96 64.6208 110.296 63.3162 109.659C62.0115 110.296 31.7081 124.96 23.3438 118.243C16.2942 112.582 20.5474 88.2943 22.2559 79.9499C18.8072 76.6641 -2.73401 55.6419 0.290045 45.9873C3.29858 36.3822 32.65 31.5502 37.5789 30.8036Z" fill="#FFBF1A"/>
<mask id="mask0_7962_18608" style="mask-type:alpha" maskUnits="userSpaceOnUse" x="0" y="0" width="126" height="120">
<path fill-rule="evenodd" clip-rule="evenodd" d="M37.5789 30.8036C40.2543 25.3564 53.2325 0 63 0C72.7675 0 85.7458 25.3566 88.4211 30.8037C93.3513 31.5505 122.701 36.3825 125.71 45.9873C128.606 55.2357 108.961 74.9156 104.272 79.4432C105.9 87.261 110.487 112.463 103.288 118.243C94.9242 124.96 64.6208 110.296 63.3162 109.659C62.0115 110.296 31.7081 124.96 23.3438 118.243C16.2942 112.582 20.5474 88.2943 22.2559 79.9499C18.8072 76.6641 -2.73401 55.6419 0.290045 45.9873C3.29858 36.3822 32.65 31.5502 37.5789 30.8036Z" fill="#FFBF1A"/>
</mask>
<g mask="url(#mask0_7962_18608)">
<g opacity="0.3" filter="url(#filter0_f_7962_18608)">
<ellipse cx="63.733" cy="6.35114" rx="47.9117" ry="48.1489" fill="white"/>
</g>
<g filter="url(#filter1_f_7962_18608)">
<path d="M37.6516 31.2835L37.9026 31.2455L38.0146 31.0176C39.349 28.3006 43.2504 20.6242 48.0306 13.6331C50.4217 10.136 53.0203 6.82898 55.6151 4.40151C58.2286 1.95661 60.7528 0.485392 63 0.485392C65.2472 0.485392 67.7714 1.95662 70.3849 4.40154C72.9798 6.82903 75.5783 10.136 77.9695 13.6331C82.7497 20.6244 86.6511 28.3007 87.9855 31.0176L88.0974 31.2455L88.3484 31.2836C90.8064 31.6559 99.3496 33.0466 107.646 35.5386C111.797 36.7852 115.863 38.301 119.071 40.0917C122.302 41.8954 124.553 43.9194 125.246 46.1323C125.914 48.2623 125.298 51.0819 123.802 54.2738C122.316 57.4438 120.009 60.8802 117.452 64.1887C112.338 70.8028 106.274 76.8355 103.935 79.094L103.742 79.28L103.797 79.5422C104.609 83.4434 106.157 91.6705 106.606 99.6345C106.83 103.618 106.778 107.514 106.229 110.761C105.678 114.028 104.64 116.535 102.985 117.865C101.056 119.413 97.7713 119.781 93.7502 119.343C89.7619 118.908 85.1861 117.696 80.8074 116.248C72.0542 113.352 64.1753 109.538 63.529 109.223L63.3162 109.119L63.1034 109.223C62.4571 109.538 54.5782 113.352 45.8249 116.248C41.4463 117.696 36.8705 118.908 32.8821 119.343C28.8611 119.781 25.576 119.413 23.6477 117.865C22.0269 116.563 20.9978 114.132 20.4375 110.961C19.8806 107.808 19.8033 104.022 20.0003 100.127C20.3941 92.3414 21.8788 84.2115 22.7315 80.0472L22.7854 79.7839L22.5908 79.5984C20.8716 77.9605 14.6435 71.902 9.22634 65.0557C6.5166 61.6311 4.02383 58.0268 2.39775 54.6922C0.759657 51.3329 0.0562699 48.3575 0.753246 46.1324C1.44642 43.9193 3.69816 41.8952 6.92913 40.0915C10.1367 38.3008 14.2037 36.7849 18.354 35.5384C26.651 33.0464 35.1943 31.6557 37.6516 31.2835Z" stroke="white" stroke-width="0.970784"/>
</g>
<g filter="url(#filter2_f_7962_18608)">
<path d="M37.6152 31.0435L37.7408 31.0245L37.7967 30.9106C39.1328 28.1903 43.0402 20.5017 47.8303 13.4961C50.2258 9.99252 52.8359 6.66915 55.4493 4.22428C58.0721 1.77069 60.6555 0.242696 63 0.242696C65.3445 0.242696 67.9279 1.7707 70.5507 4.22431C73.1642 6.6692 75.7742 9.99259 78.1698 13.4962C82.9599 20.5018 86.8673 28.1904 88.2033 30.9106L88.2593 31.0246L88.3848 31.0436C90.8463 31.4165 99.4029 32.8092 107.716 35.3062C111.874 36.5549 115.96 38.0768 119.189 39.8797C122.43 41.6893 124.755 43.7527 125.478 46.0598C126.174 48.2808 125.524 51.1727 124.022 54.3768C122.525 57.57 120.206 61.0224 117.644 64.3371C112.519 70.9652 106.445 77.0074 104.103 79.2686L104.007 79.3616L104.034 79.4927C104.848 83.3977 106.399 91.6387 106.848 99.6209C107.073 103.613 107.021 107.529 106.469 110.801C105.914 114.084 104.864 116.667 103.137 118.054C101.127 119.668 97.7532 120.023 93.7239 119.584C89.711 119.146 85.1166 117.929 80.7312 116.478C71.9623 113.577 64.0719 109.758 63.4226 109.441L63.3162 109.389L63.2098 109.441C62.5605 109.758 54.67 113.577 45.9011 116.478C41.5157 117.929 36.9214 119.146 32.9084 119.584C28.8791 120.023 25.5054 119.668 23.4958 118.054C21.8042 116.696 20.7616 114.191 20.1985 111.003C19.6371 107.825 19.5605 104.018 19.7579 100.115C20.1527 92.3108 21.6402 84.1668 22.4937 79.9985L22.5207 79.8669L22.4233 79.7741C20.7016 78.1338 14.4638 72.066 9.03602 65.2063C6.32155 61.7757 3.81671 58.1558 2.17961 54.7985C0.536502 51.429 -0.204849 48.3792 0.521645 46.0598C1.2443 43.7527 3.56945 41.6891 6.81083 39.8796C10.0405 38.0766 14.1265 36.5547 18.2841 35.306C26.5977 32.809 35.1544 31.4163 37.6152 31.0435Z" stroke="url(#paint0_linear_7962_18608)" stroke-width="0.485392"/>
</g>
<g filter="url(#filter3_f_7962_18608)">
<path d="M65.2841 5.43799C55.8511 5.43799 43.3172 29.9262 40.7334 35.1869" stroke="url(#paint1_linear_7962_18608)" stroke-width="6.3101"/>
</g>
<g filter="url(#filter4_f_7962_18608)">
<path d="M6.58402 50.3785C9.27059 41.2913 36.1987 36.1914 41.9526 35.2006" stroke="url(#paint2_linear_7962_18608)" stroke-width="6.3101"/>
</g>
<g filter="url(#filter5_f_7962_18608)">
<path d="M38.5454 32.1873L39.6752 32.0162L40.1789 30.9906C41.4682 28.3655 45.2289 20.969 49.8192 14.2555C52.119 10.8919 54.5708 7.78385 56.9692 5.54021C59.4514 3.21813 61.4948 2.18426 62.9991 2.18426C64.5034 2.18426 66.5468 3.21814 69.029 5.54023C71.4274 7.7839 73.8792 10.892 76.179 14.2555C80.7694 20.9691 84.5301 28.3656 85.8194 30.9907L86.3231 32.0163L87.4528 32.1874C89.8235 32.5465 98.0574 33.888 106.029 36.2822C110.022 37.4818 113.853 38.9174 116.823 40.5759C119.9 42.2932 121.577 43.9881 122.045 45.4818C122.494 46.9158 122.138 49.155 120.72 52.1805C119.348 55.1078 117.185 58.3445 114.725 61.5253C109.816 67.8745 103.975 73.6876 101.714 75.8708L100.847 76.7079L101.093 77.8877C101.88 81.6633 103.368 89.5852 103.798 97.2211C104.013 101.046 103.957 104.701 103.452 107.686C102.932 110.765 102.011 112.674 100.905 113.562C99.5994 114.611 97.0217 115.057 93.1603 114.636C89.4457 114.231 85.1157 113.091 80.8954 111.695C72.4726 108.909 64.8736 105.231 64.2649 104.934L63.3073 104.467L62.3497 104.934C61.741 105.231 54.142 108.909 45.7192 111.695C41.4989 113.091 37.1689 114.231 33.4543 114.636C29.5929 115.057 27.0152 114.611 25.7094 113.562C24.6286 112.694 23.7201 110.848 23.1937 107.868C22.6827 104.976 22.6024 101.429 22.7914 97.6918C23.1688 90.2314 24.5957 82.4057 25.4212 78.3742L25.6638 77.1891L24.788 76.3547C23.1305 74.7755 17.1277 68.9346 11.9217 62.3553C9.31356 59.0591 6.96873 55.656 5.46128 52.5646C3.89978 49.3624 3.48178 46.9865 3.95308 45.4818C4.42096 43.9881 6.09841 42.2931 9.17462 40.5757C12.1455 38.9172 15.976 37.4816 19.9698 36.282C27.9414 33.8877 36.1754 32.5464 38.5454 32.1873Z" stroke="url(#paint3_linear_7962_18608)" stroke-width="4.36853"/>
</g>
<g filter="url(#filter6_f_7962_18608)">
<path d="M61.7979 4.71301C71.0735 4.71301 84.8812 26.6094 87.4218 31.7822C92.1037 32.4914 118.493 39.2636 121.35 48.3847" stroke="url(#paint4_linear_7962_18608)" stroke-width="0.970784"/>
</g>
<g filter="url(#filter7_f_7962_18608)">
<path d="M66.498 6.64648C69.5844 9.94957 79.6052 25.3774 83.4532 36.0117C93.0731 36.8173 113.924 39.8545 120.37 45.5584" stroke="url(#paint5_linear_7962_18608)" stroke-width="1.45618"/>
</g>
<g filter="url(#filter8_f_7962_18608)">
<path d="M66.498 6.64648C69.5844 9.94957 79.6052 25.3774 83.4532 36.0117C93.0731 36.8173 113.924 39.8545 120.37 45.5584" stroke="url(#paint6_linear_7962_18608)" stroke-width="1.45618"/>
</g>
</g>
<defs>
<filter id="filter0_f_7962_18608" x="-51.8753" y="-109.494" width="231.217" height="231.691" filterUnits="userSpaceOnUse" color-interpolation-filters="sRGB">
<feFlood flood-opacity="0" result="BackgroundImageFix"/>
<feBlend mode="normal" in="SourceGraphic" in2="BackgroundImageFix" result="shape"/>
<feGaussianBlur stdDeviation="33.8483" result="effect1_foregroundBlur_7962_18608"/>
</filter>
<filter id="filter1_f_7962_18608" x="-1.94157" y="-1.94157" width="129.883" height="123.883" filterUnits="userSpaceOnUse" color-interpolation-filters="sRGB">
<feFlood flood-opacity="0" result="BackgroundImageFix"/>
<feBlend mode="normal" in="SourceGraphic" in2="BackgroundImageFix" result="shape"/>
<feGaussianBlur stdDeviation="0.970784" result="effect1_foregroundBlur_7962_18608"/>
</filter>
<filter id="filter2_f_7962_18608" x="-0.970784" y="-0.970784" width="127.942" height="121.942" filterUnits="userSpaceOnUse" color-interpolation-filters="sRGB">
<feFlood flood-opacity="0" result="BackgroundImageFix"/>
<feBlend mode="normal" in="SourceGraphic" in2="BackgroundImageFix" result="shape"/>
<feGaussianBlur stdDeviation="0.485392" result="effect1_foregroundBlur_7962_18608"/>
</filter>
<filter id="filter3_f_7962_18608" x="31.5913" y="-4.02714" width="40.003" height="46.9151" filterUnits="userSpaceOnUse" color-interpolation-filters="sRGB">
<feFlood flood-opacity="0" result="BackgroundImageFix"/>
<feBlend mode="normal" in="SourceGraphic" in2="BackgroundImageFix" result="shape"/>
<feGaussianBlur stdDeviation="3.15505" result="effect1_foregroundBlur_7962_18608"/>
</filter>
<filter id="filter4_f_7962_18608" x="-2.74955" y="25.7788" width="51.5528" height="31.8123" filterUnits="userSpaceOnUse" color-interpolation-filters="sRGB">
<feFlood flood-opacity="0" result="BackgroundImageFix"/>
<feBlend mode="normal" in="SourceGraphic" in2="BackgroundImageFix" result="shape"/>
<feGaussianBlur stdDeviation="3.15505" result="effect1_foregroundBlur_7962_18608"/>
</filter>
<filter id="filter5_f_7962_18608" x="-4.23877" y="-5.8247" width="134.476" height="128.627" filterUnits="userSpaceOnUse" color-interpolation-filters="sRGB">
<feFlood flood-opacity="0" result="BackgroundImageFix"/>
<feBlend mode="normal" in="SourceGraphic" in2="BackgroundImageFix" result="shape"/>
<feGaussianBlur stdDeviation="2.91235" result="effect1_foregroundBlur_7962_18608"/>
</filter>
<filter id="filter6_f_7962_18608" x="59.3709" y="1.8007" width="64.8695" height="49.156" filterUnits="userSpaceOnUse" color-interpolation-filters="sRGB">
<feFlood flood-opacity="0" result="BackgroundImageFix"/>
<feBlend mode="normal" in="SourceGraphic" in2="BackgroundImageFix" result="shape"/>
<feGaussianBlur stdDeviation="1.21348" result="effect1_foregroundBlur_7962_18608"/>
</filter>
<filter id="filter7_f_7962_18608" x="60.6265" y="0.810102" width="65.5653" height="50.633" filterUnits="userSpaceOnUse" color-interpolation-filters="sRGB">
<feFlood flood-opacity="0" result="BackgroundImageFix"/>
<feBlend mode="normal" in="SourceGraphic" in2="BackgroundImageFix" result="shape"/>
<feGaussianBlur stdDeviation="2.66966" result="effect1_foregroundBlur_7962_18608"/>
</filter>
<filter id="filter8_f_7962_18608" x="60.6265" y="0.810102" width="65.5653" height="50.633" filterUnits="userSpaceOnUse" color-interpolation-filters="sRGB">
<feFlood flood-opacity="0" result="BackgroundImageFix"/>
<feBlend mode="normal" in="SourceGraphic" in2="BackgroundImageFix" result="shape"/>
<feGaussianBlur stdDeviation="2.66966" result="effect1_foregroundBlur_7962_18608"/>
</filter>
<linearGradient id="paint0_linear_7962_18608" x1="80.9278" y1="120" x2="68.4272" y2="72.6579" gradientUnits="userSpaceOnUse">
<stop stop-color="#FF9900"/>
<stop offset="1" stop-color="#FF9900" stop-opacity="0"/>
</linearGradient>
<linearGradient id="paint1_linear_7962_18608" x1="55.6748" y1="10.0301" x2="37.6488" y2="32.1742" gradientUnits="userSpaceOnUse">
<stop stop-color="white"/>
<stop offset="1" stop-color="white" stop-opacity="0"/>
</linearGradient>
<linearGradient id="paint2_linear_7962_18608" x1="13.701" y1="42.4294" x2="40.0478" y2="31.5908" gradientUnits="userSpaceOnUse">
<stop stop-color="white"/>
<stop offset="1" stop-color="white" stop-opacity="0"/>
</linearGradient>
<linearGradient id="paint3_linear_7962_18608" x1="80.4753" y1="116.977" x2="68.2896" y2="70.8278" gradientUnits="userSpaceOnUse">
<stop stop-color="#FF9900"/>
<stop offset="1" stop-color="#FF9900" stop-opacity="0"/>
</linearGradient>
<linearGradient id="paint4_linear_7962_18608" x1="67.9414" y1="9.42595" x2="116.212" y2="45.4505" gradientUnits="userSpaceOnUse">
<stop stop-color="white"/>
<stop offset="0.0001" stop-color="white" stop-opacity="0"/>
<stop offset="0.484375" stop-color="white"/>
<stop offset="1" stop-color="white" stop-opacity="0"/>
</linearGradient>
<linearGradient id="paint5_linear_7962_18608" x1="66.6183" y1="5.92142" x2="109.75" y2="47.0375" gradientUnits="userSpaceOnUse">
<stop stop-color="white" stop-opacity="0"/>
<stop offset="0.505208" stop-color="white"/>
<stop offset="1" stop-color="white" stop-opacity="0"/>
</linearGradient>
<linearGradient id="paint6_linear_7962_18608" x1="66.6183" y1="5.92142" x2="109.75" y2="47.0375" gradientUnits="userSpaceOnUse">
<stop stop-color="white" stop-opacity="0"/>
<stop offset="0.505208" stop-color="white"/>
<stop offset="1" stop-color="white" stop-opacity="0"/>
</linearGradient>
</defs>
</svg>
