<svg width="32" height="32" viewBox="0 0 32 32" fill="none" xmlns="http://www.w3.org/2000/svg">
<path d="M28.5559 8.27424L16.4465 1.25864C16.1703 1.09867 15.8297 1.09867 15.5536 1.25864L3.44413 8.27421C3.16924 8.43346 3 8.7271 3 9.04479V23.0814C3 23.3991 3.16924 23.6927 3.44413 23.852L15.5536 30.8676C15.8297 31.0276 16.1703 31.0276 16.4465 30.8676L28.5559 23.852C28.8308 23.6928 29 23.3991 29 23.0814V9.04482C29 8.72713 28.8308 8.4335 28.5559 8.27424Z" fill="#0084FE"/>
<mask id="mask0_7854_9297" style="mask-type:alpha" maskUnits="userSpaceOnUse" x="3" y="1" width="26" height="30">
<path d="M28.5559 8.27424L16.4465 1.25864C16.1703 1.09867 15.8297 1.09867 15.5536 1.25864L3.44413 8.27421C3.16924 8.43346 3 8.7271 3 9.04479V23.0814C3 23.3991 3.16924 23.6927 3.44413 23.852L15.5536 30.8676C15.8297 31.0276 16.1703 31.0276 16.4465 30.8676L28.5559 23.852C28.8308 23.6928 29 23.3991 29 23.0814V9.04482C29 8.72713 28.8308 8.4335 28.5559 8.27424Z" fill="#FFBF1A"/>
</mask>
<g mask="url(#mask0_7854_9297)">
<g opacity="0.3" filter="url(#filter0_f_7854_9297)">
<rect width="15.0867" height="15.0867" rx="0.445281" transform="matrix(0.866475 0.49922 -0.866475 0.49922 15.8073 0.821655)" fill="white"/>
</g>
<g filter="url(#filter1_f_7854_9297)">
<rect width="15.0867" height="15.0632" rx="0.445281" transform="matrix(0.866475 0.49922 -2.20764e-08 1 2.73499 8.35309)" stroke="url(#paint0_linear_7854_9297)" stroke-width="0.485117"/>
</g>
<g filter="url(#filter2_f_7854_9297)">
<rect width="15.0867" height="15.0632" rx="0.445281" transform="matrix(0.866475 0.49922 -2.20764e-08 1 2.73499 8.35309)" stroke="url(#paint1_linear_7854_9297)" stroke-width="0.485117"/>
</g>
<g opacity="0.4" filter="url(#filter3_f_7854_9297)">
<rect width="14.5199" height="14.8161" rx="0.445281" transform="matrix(0.866475 0.49922 -2.20764e-08 1 2.99994 8.81458)" stroke="url(#paint2_linear_7854_9297)" stroke-width="0.485117"/>
</g>
<g opacity="0.4" filter="url(#filter4_f_7854_9297)">
<rect width="14.5199" height="14.8161" rx="0.445281" transform="matrix(-0.866475 0.49922 2.20764e-08 1 28.9999 8.81458)" stroke="url(#paint3_linear_7854_9297)" stroke-width="0.485117"/>
</g>
<g filter="url(#filter5_f_7854_9297)">
<rect width="15.0867" height="15.0867" rx="0.445281" transform="matrix(0.866475 0.49922 -0.866475 0.49922 16.1924 0.821655)" stroke="url(#paint4_linear_7854_9297)" stroke-width="0.646822"/>
</g>
</g>
<defs>
<filter id="filter0_f_7854_9297" x="2.36872" y="0.359627" width="26.8771" height="15.9873" filterUnits="userSpaceOnUse" color-interpolation-filters="sRGB">
<feFlood flood-opacity="0" result="BackgroundImageFix"/>
<feBlend mode="normal" in="SourceGraphic" in2="BackgroundImageFix" result="shape"/>
<feGaussianBlur stdDeviation="0.296139" result="effect1_foregroundBlur_7854_9297"/>
</filter>
<filter id="filter1_f_7854_9297" x="1.55461" y="7.28148" width="15.433" height="24.738" filterUnits="userSpaceOnUse" color-interpolation-filters="sRGB">
<feFlood flood-opacity="0" result="BackgroundImageFix"/>
<feBlend mode="normal" in="SourceGraphic" in2="BackgroundImageFix" result="shape"/>
<feGaussianBlur stdDeviation="0.485117" result="effect1_foregroundBlur_7854_9297"/>
</filter>
<filter id="filter2_f_7854_9297" x="1.87802" y="7.60489" width="14.7862" height="24.0912" filterUnits="userSpaceOnUse" color-interpolation-filters="sRGB">
<feFlood flood-opacity="0" result="BackgroundImageFix"/>
<feBlend mode="normal" in="SourceGraphic" in2="BackgroundImageFix" result="shape"/>
<feGaussianBlur stdDeviation="0.323411" result="effect1_foregroundBlur_7854_9297"/>
</filter>
<filter id="filter3_f_7854_9297" x="2.34451" y="8.26791" width="13.892" height="23.1581" filterUnits="userSpaceOnUse" color-interpolation-filters="sRGB">
<feFlood flood-opacity="0" result="BackgroundImageFix"/>
<feBlend mode="normal" in="SourceGraphic" in2="BackgroundImageFix" result="shape"/>
<feGaussianBlur stdDeviation="0.222641" result="effect1_foregroundBlur_7854_9297"/>
</filter>
<filter id="filter4_f_7854_9297" x="15.7633" y="8.26791" width="13.892" height="23.1581" filterUnits="userSpaceOnUse" color-interpolation-filters="sRGB">
<feFlood flood-opacity="0" result="BackgroundImageFix"/>
<feBlend mode="normal" in="SourceGraphic" in2="BackgroundImageFix" result="shape"/>
<feGaussianBlur stdDeviation="0.222641" result="effect1_foregroundBlur_7854_9297"/>
</filter>
<filter id="filter5_f_7854_9297" x="2.30301" y="0.0766885" width="27.7788" height="16.553" filterUnits="userSpaceOnUse" color-interpolation-filters="sRGB">
<feFlood flood-opacity="0" result="BackgroundImageFix"/>
<feBlend mode="normal" in="SourceGraphic" in2="BackgroundImageFix" result="shape"/>
<feGaussianBlur stdDeviation="0.323411" result="effect1_foregroundBlur_7854_9297"/>
</filter>
<linearGradient id="paint0_linear_7854_9297" x1="14.2165" y1="-0.200757" x2="8.08845" y2="7.97018" gradientUnits="userSpaceOnUse">
<stop stop-color="white"/>
<stop offset="1" stop-color="white" stop-opacity="0"/>
</linearGradient>
<linearGradient id="paint1_linear_7854_9297" x1="8.36138" y1="14.0248" x2="9.25308" y2="11.7019" gradientUnits="userSpaceOnUse">
<stop stop-color="#0029FF"/>
<stop offset="1" stop-color="#0029FF" stop-opacity="0"/>
</linearGradient>
<linearGradient id="paint2_linear_7854_9297" x1="1.64712" y1="14.9219" x2="9.72408" y2="10.5043" gradientUnits="userSpaceOnUse">
<stop stop-color="white"/>
<stop offset="1" stop-color="white" stop-opacity="0"/>
</linearGradient>
<linearGradient id="paint3_linear_7854_9297" x1="1.64712" y1="14.9219" x2="9.72408" y2="10.5043" gradientUnits="userSpaceOnUse">
<stop stop-color="white"/>
<stop offset="1" stop-color="white" stop-opacity="0"/>
</linearGradient>
<linearGradient id="paint4_linear_7854_9297" x1="0.726376" y1="1.38052" x2="4.97954" y2="2.0827" gradientUnits="userSpaceOnUse">
<stop stop-color="white"/>
<stop offset="1" stop-color="white" stop-opacity="0"/>
</linearGradient>
</defs>
</svg>
