<svg width="118" height="125" viewBox="0 0 118 125" fill="none" xmlns="http://www.w3.org/2000/svg">
<circle cx="24.1561" cy="25.9113" r="20.6957" fill="#FFA1A1"/>
<mask id="mask0_7851_10750" style="mask-type:alpha" maskUnits="userSpaceOnUse" x="3" y="5" width="42" height="42">
<circle cx="24.1582" cy="25.9113" r="20.6957" fill="#A1CEFF"/>
</mask>
<g mask="url(#mask0_7851_10750)">
<g filter="url(#filter0_f_7851_10750)">
<ellipse cx="28.4559" cy="28.8045" rx="15.4763" ry="20.0563" transform="rotate(49.1067 28.4559 28.8045)" fill="#E70000"/>
</g>
<g filter="url(#filter1_f_7851_10750)">
<path d="M38.2246 40.0841C29.7084 47.4593 18.3995 47.9577 12.9082 41.6168C7.41686 35.2759 9.52579 24.1543 18.042 16.7791C26.5581 9.40387 37.867 8.90543 43.3584 15.2463C48.8497 21.5872 46.7408 32.7089 38.2246 40.0841Z" stroke="#FF4545" stroke-width="1.10969"/>
</g>
</g>
<path d="M15.0051 109.909L15.9049 97.8467C16.0252 96.2335 17.2456 94.9181 18.8453 94.6775L19.4057 94.5932C24.9343 93.7614 30.3798 96.5382 32.9533 101.502C33.6247 102.796 33.3566 104.379 32.2963 105.381L23.3157 113.864C20.0392 116.959 14.6698 114.404 15.0051 109.909Z" fill="#FE2121"/>
<mask id="mask1_7851_10750" style="mask-type:alpha" maskUnits="userSpaceOnUse" x="14" y="94" width="20" height="22">
<path d="M15.0041 109.909L15.9039 97.8466C16.0242 96.2334 17.2446 94.918 18.8443 94.6774L19.4047 94.5931C24.9333 93.7613 30.3788 96.5381 32.9523 101.501C33.6237 102.796 33.3556 104.379 32.2953 105.381L23.3147 113.864C20.0382 116.959 14.6688 114.404 15.0041 109.909Z" fill="#2194FE"/>
</mask>
<g mask="url(#mask1_7851_10750)">
<path d="M15.0041 109.909L15.9039 97.8466C16.0242 96.2334 17.2446 94.918 18.8443 94.6774L19.4047 94.5931C24.9333 93.7613 30.3788 96.5381 32.9523 101.501C33.6237 102.796 33.3556 104.379 32.2953 105.381L23.3147 113.864C20.0382 116.959 14.6688 114.404 15.0041 109.909Z" fill="#FE2121"/>
<g opacity="0.6" filter="url(#filter2_f_7851_10750)">
<path d="M23.4722 92.9658L18.3676 111.942" stroke="white" stroke-width="4.66069"/>
</g>
<g opacity="0.6" filter="url(#filter3_f_7851_10750)">
<path d="M36.2341 101.344L21.0868 119.598" stroke="#FF0000" stroke-width="4.66069"/>
</g>
</g>
<path fill-rule="evenodd" clip-rule="evenodd" d="M25.4558 104.88C24.8095 104.633 24.1678 104.366 23.5312 104.078C2.16876 94.4053 -5.37952 64.9874 6.67168 38.3709C18.7229 11.7543 45.81 -1.98173 67.1725 7.69057C67.4316 7.80791 67.6887 7.92815 67.9438 8.05126L84.462 15.3355C96.7026 20.7333 106.382 30.655 111.476 43.0252C120.866 65.8315 112.885 92.0963 92.3936 105.822L91.7036 106.284C77.54 115.772 59.6696 117.844 43.711 111.849L25.4155 104.977L25.4558 104.88Z" fill="#FF2B2A"/>
<mask id="mask2_7851_10750" style="mask-type:alpha" maskUnits="userSpaceOnUse" x="0" y="4" width="116" height="112">
<path fill-rule="evenodd" clip-rule="evenodd" d="M25.4556 104.88C24.8094 104.633 24.1677 104.366 23.5311 104.078C2.16863 94.4053 -5.37964 64.9874 6.67155 38.3709C18.7227 11.7543 45.8099 -1.98173 67.1723 7.69057C67.4315 7.80791 67.6886 7.92815 67.9437 8.05126L84.4619 15.3355C96.7024 20.7333 106.382 30.655 111.475 43.0252C120.866 65.8315 112.885 92.0963 92.3934 105.822L91.7034 106.284C77.5399 115.772 59.6695 117.844 43.7109 111.849L25.4154 104.977L25.4556 104.88Z" fill="#0084FE"/>
</mask>
<g mask="url(#mask2_7851_10750)">
<path opacity="0.3" fill-rule="evenodd" clip-rule="evenodd" d="M25.4556 104.88C24.8094 104.633 24.1677 104.366 23.5311 104.078C2.16863 94.4053 -5.37964 64.9874 6.67155 38.3709C18.7227 11.7543 45.8099 -1.98173 67.1723 7.69057C67.4315 7.80791 67.6886 7.92815 67.9437 8.05126L84.4619 15.3355C96.7024 20.7333 106.382 30.655 111.475 43.0252C120.866 65.8315 112.885 92.0963 92.3934 105.822L91.7034 106.284C77.5399 115.772 59.6695 117.844 43.7109 111.849L25.4154 104.977L25.4556 104.88Z" fill="url(#paint0_linear_7851_10750)"/>
<path opacity="0.3" fill-rule="evenodd" clip-rule="evenodd" d="M25.4556 104.88C24.8094 104.633 24.1677 104.366 23.5311 104.078C2.16863 94.4053 -5.37964 64.9874 6.67155 38.3709C18.7227 11.7543 45.8099 -1.98173 67.1723 7.69057C67.4315 7.80791 67.6886 7.92815 67.9437 8.05126L84.4619 15.3355C96.7024 20.7333 106.382 30.655 111.475 43.0252C120.866 65.8315 112.885 92.0963 92.3934 105.822L91.7034 106.284C77.5399 115.772 59.6695 117.844 43.7109 111.849L25.4154 104.977L25.4556 104.88Z" fill="url(#paint1_linear_7851_10750)"/>
<g opacity="0.2" filter="url(#filter4_f_7851_10750)">
<ellipse cx="45.3505" cy="55.8841" rx="42.4602" ry="52.9033" transform="rotate(24.3596 45.3505 55.8841)" fill="white"/>
</g>
<g filter="url(#filter5_f_7851_10750)">
<path d="M83.222 73.0312C71.2937 99.3762 44.6549 112.668 23.8961 103.269C3.13717 93.8699 -4.44917 65.082 7.47907 38.7371C19.4073 12.3921 46.0461 -0.899681 66.805 8.49934C87.5639 17.8984 95.1502 46.6863 83.222 73.0312Z" stroke="url(#paint2_linear_7851_10750)" stroke-width="1.7755"/>
</g>
<g filter="url(#filter6_f_7851_10750)">
<path d="M76.9327 70.1832C66.9642 92.1998 44.7304 103.258 27.4454 95.4317C10.1605 87.6056 3.80167 63.6016 13.7701 41.585C23.7386 19.5684 45.9725 8.51041 63.2574 16.3365C80.5423 24.1626 86.9012 48.1666 76.9327 70.1832Z" stroke="#FB0404" stroke-width="1.7755"/>
</g>
<g filter="url(#filter7_f_7851_10750)">
<path d="M77.8483 70.1071C67.7165 92.4843 45.0297 103.88 27.2626 95.836C9.49543 87.7915 3.09188 63.2241 13.2236 40.8469C23.3553 18.4698 46.0422 7.07359 63.8093 15.118C81.5764 23.1625 87.98 47.7299 77.8483 70.1071Z" stroke="url(#paint3_linear_7851_10750)" stroke-width="0.887751"/>
</g>
<g filter="url(#filter8_f_7851_10750)">
<path d="M78.6155 70.9455C68.1225 94.1206 44.7097 105.776 26.495 97.5294C8.28022 89.2823 1.59284 63.9979 12.0858 40.8228C22.5788 17.6477 45.9917 5.99182 64.2064 14.2389C82.4212 22.486 89.1085 47.7704 78.6155 70.9455Z" stroke="url(#paint4_linear_7851_10750)" stroke-width="1.7755"/>
</g>
<g filter="url(#filter9_f_7851_10750)">
<path d="M74.4503 69.0595C65.3195 89.2258 44.8826 99.4811 28.8899 92.24C12.8972 84.999 7.12062 62.8751 16.2514 42.7087C25.3821 22.5424 45.819 12.2872 61.8117 19.5282C77.8044 26.7692 83.581 48.8932 74.4503 69.0595Z" stroke="url(#paint5_linear_7851_10750)" stroke-width="0.887751"/>
</g>
<g opacity="0.8" filter="url(#filter10_f_7851_10750)">
<ellipse cx="98.6871" cy="27.1345" rx="6.25306" ry="21.4835" transform="rotate(-39.4073 98.6871 27.1345)" fill="#FF0000"/>
</g>
</g>
<g filter="url(#filter11_dd_7851_10750)">
<rect width="10.2501" height="5.07842" rx="2.53921" transform="matrix(-0.99991 0.0134491 0.0134491 0.99991 76.1373 49.9695)" fill="#FF7777"/>
<mask id="mask3_7851_10750" style="mask-type:alpha" maskUnits="userSpaceOnUse" x="65" y="50" width="12" height="6">
<rect width="10.261" height="5.07842" rx="2.53921" transform="matrix(-0.99991 0.0134491 0.0134491 0.99991 76.1487 49.9695)" fill="#0084FE"/>
</mask>
<g mask="url(#mask3_7851_10750)">
<rect opacity="0.3" width="11.1759" height="5.33811" rx="2.66906" transform="matrix(-0.999349 0.0360822 0.00501054 0.999987 76.6566 49.7042)" fill="url(#paint6_linear_7851_10750)"/>
<g opacity="0.3" filter="url(#filter12_f_7851_10750)">
<rect width="10.875" height="4.93893" rx="2.46946" transform="matrix(-0.999349 0.0360822 0.00501054 0.999987 76.119 49.2942)" fill="white"/>
</g>
<g opacity="0.6" filter="url(#filter13_f_7851_10750)">
<rect x="-0.123324" y="0.1285" width="10.0256" height="4.43066" rx="2.21533" transform="matrix(-0.999349 0.0360822 0.00501054 0.999987 75.873 49.5588)" stroke="url(#paint7_linear_7851_10750)" stroke-width="0.248053"/>
</g>
</g>
</g>
<g filter="url(#filter14_dd_7851_10750)">
<rect width="10.2501" height="5.07842" rx="2.53921" transform="matrix(-0.99991 0.0134491 0.0134491 0.99991 23.0945 50.3024)" fill="#FF7777"/>
<mask id="mask4_7851_10750" style="mask-type:alpha" maskUnits="userSpaceOnUse" x="12" y="50" width="12" height="6">
<rect width="10.261" height="5.07842" rx="2.53921" transform="matrix(-0.99991 0.0134491 0.0134491 0.99991 23.1051 50.3024)" fill="#0084FE"/>
</mask>
<g mask="url(#mask4_7851_10750)">
<rect opacity="0.3" width="11.1759" height="5.33811" rx="2.66906" transform="matrix(-0.999349 0.0360822 0.00501054 0.999987 23.613 50.0371)" fill="url(#paint8_linear_7851_10750)"/>
<g opacity="0.3" filter="url(#filter15_f_7851_10750)">
<rect width="10.875" height="4.93893" rx="2.46946" transform="matrix(-0.999349 0.0360822 0.00501054 0.999987 23.0754 49.6271)" fill="white"/>
</g>
<g opacity="0.6" filter="url(#filter16_f_7851_10750)">
<rect x="-0.123324" y="0.1285" width="10.0256" height="4.43066" rx="2.21533" transform="matrix(-0.999349 0.0360822 0.00501054 0.999987 22.8294 49.8917)" stroke="url(#paint9_linear_7851_10750)" stroke-width="0.248053"/>
</g>
</g>
</g>
<g filter="url(#filter17_dd_7851_10750)">
<rect width="10.2501" height="5.07842" rx="2.53921" transform="matrix(-0.167279 0.98591 0.98591 0.167279 46.1013 17.4766)" fill="#FF7777"/>
<mask id="mask5_7851_10750" style="mask-type:alpha" maskUnits="userSpaceOnUse" x="44" y="17" width="7" height="12">
<rect width="10.261" height="5.07842" rx="2.53921" transform="matrix(-0.167279 0.98591 0.98591 0.167279 46.1041 17.4658)" fill="#0084FE"/>
</mask>
<g mask="url(#mask5_7851_10750)">
<rect opacity="0.3" width="11.1759" height="5.33811" rx="2.66906" transform="matrix(-0.144917 0.989444 0.984463 0.175593 45.9357 16.9178)" fill="url(#paint10_linear_7851_10750)"/>
<g opacity="0.3" filter="url(#filter18_f_7851_10750)">
<rect width="10.875" height="4.93893" rx="2.46946" transform="matrix(-0.144917 0.989444 0.984463 0.175593 45.4354 17.3733)" fill="white"/>
</g>
<g opacity="0.6" filter="url(#filter19_f_7851_10750)">
<rect x="0.104126" y="0.144495" width="10.0256" height="4.43066" rx="2.21533" transform="matrix(-0.144917 0.989444 0.984463 0.175593 45.6686 17.435)" stroke="url(#paint11_linear_7851_10750)" stroke-width="0.248053"/>
</g>
</g>
</g>
<g filter="url(#filter20_dd_7851_10750)">
<rect width="16.336" height="5.07912" rx="2.53956" transform="matrix(-0.172217 0.985059 0.987214 0.159402 43.2861 34.4512)" fill="#FF7777"/>
<mask id="mask6_7851_10750" style="mask-type:alpha" maskUnits="userSpaceOnUse" x="40" y="34" width="8" height="17">
<rect width="16.2965" height="5.12366" rx="2.56183" transform="matrix(-0.172817 0.988493 0.978634 0.158016 43.2881 34.4341)" fill="#0084FE"/>
</mask>
<g mask="url(#mask6_7851_10750)">
<rect opacity="0.3" width="17.7636" height="5.39064" rx="2.69532" transform="matrix(-0.158574 0.989729 0.975401 0.170984 43.1742 33.589)" fill="url(#paint12_linear_7851_10750)"/>
<g opacity="0.3" filter="url(#filter21_f_7851_10750)">
<rect width="17.2852" height="4.98753" rx="2.49376" transform="matrix(-0.158574 0.989729 0.975401 0.170984 42.6155 34.359)" fill="white"/>
</g>
<g opacity="0.6" filter="url(#filter22_f_7851_10750)">
<rect x="0.101308" y="0.143959" width="16.0815" height="4.4767" rx="2.23835" transform="matrix(-0.158574 0.989729 0.975401 0.170984 42.8489 34.423)" stroke="url(#paint13_linear_7851_10750)" stroke-width="0.248053"/>
</g>
</g>
</g>
<g filter="url(#filter23_dd_7851_10750)">
<rect width="25.4519" height="5.08079" rx="2.5404" transform="matrix(-0.864575 -0.502504 -0.478127 0.878291 66.0283 63.9326)" fill="#FF7777"/>
<mask id="mask7_7851_10750" style="mask-type:alpha" maskUnits="userSpaceOnUse" x="42" y="52" width="24" height="16">
<rect width="25.3565" height="5.22862" rx="2.61431" transform="matrix(-0.868748 -0.50493 -0.464609 0.853459 66.0509 63.9463)" fill="#0084FE"/>
</mask>
<g mask="url(#mask7_7851_10750)">
<rect opacity="0.3" width="27.6477" height="5.51235" rx="2.75617" transform="matrix(-0.871952 -0.496207 -0.480758 0.8407 67.2736 64.358)" fill="url(#paint14_linear_7851_10750)"/>
<g opacity="0.3" filter="url(#filter24_f_7851_10750)">
<rect width="26.9032" height="5.10013" rx="2.55007" transform="matrix(-0.871952 -0.496207 -0.480758 0.8407 66.3296 63.3267)" fill="white"/>
</g>
<g opacity="0.6" filter="url(#filter25_f_7851_10750)">
<rect x="-0.167772" y="0.0427262" width="25.1677" height="4.58337" rx="2.29169" transform="matrix(-0.871952 -0.496207 -0.480758 0.8407 65.9073 63.476)" stroke="url(#paint15_linear_7851_10750)" stroke-width="0.248053"/>
</g>
</g>
</g>
<g filter="url(#filter26_dd_7851_10750)">
<rect width="10.2501" height="5.07842" rx="2.53921" transform="matrix(-0.167279 0.98591 0.98591 0.167279 35.7815 78.0654)" fill="#FF7777"/>
<mask id="mask8_7851_10750" style="mask-type:alpha" maskUnits="userSpaceOnUse" x="34" y="78" width="7" height="11">
<rect width="10.261" height="5.07842" rx="2.53921" transform="matrix(-0.167279 0.98591 0.98591 0.167279 35.7832 78.0547)" fill="#0084FE"/>
</mask>
<g mask="url(#mask8_7851_10750)">
<rect opacity="0.3" width="11.1759" height="5.33811" rx="2.66906" transform="matrix(-0.144917 0.989444 0.984463 0.175593 35.6147 77.5067)" fill="url(#paint16_linear_7851_10750)"/>
<g opacity="0.3" filter="url(#filter27_f_7851_10750)">
<rect width="10.875" height="4.93893" rx="2.46946" transform="matrix(-0.144917 0.989444 0.984463 0.175593 35.1143 77.9622)" fill="white"/>
</g>
<g opacity="0.6" filter="url(#filter28_f_7851_10750)">
<rect x="0.104126" y="0.144495" width="10.0256" height="4.43066" rx="2.21533" transform="matrix(-0.144917 0.989444 0.984463 0.175593 35.3477 78.024)" stroke="url(#paint17_linear_7851_10750)" stroke-width="0.248053"/>
</g>
</g>
</g>
<g filter="url(#filter29_dd_7851_10750)">
<path d="M37.0559 49.2133C38.3784 46.9404 41.2732 46.1384 43.5768 47.4068L45.1932 48.2969C47.2589 49.4344 48.166 51.9236 47.3165 54.1235V54.1235C46.9213 55.1466 46.1817 55.9999 45.2251 56.5364L45.0877 56.6134C43.4399 57.5375 41.4184 57.4852 39.8206 56.4773L38.6577 55.7437C36.453 54.353 35.745 51.4664 37.0559 49.2133V49.2133Z" fill="#FF7777"/>
<mask id="mask9_7851_10750" style="mask-type:alpha" maskUnits="userSpaceOnUse" x="36" y="46" width="12" height="12">
<path d="M37.0549 49.2133C38.3774 46.9404 41.2722 46.1384 43.5758 47.4068L45.1922 48.2969C47.258 49.4344 48.1651 51.9236 47.3155 54.1235V54.1235C46.9204 55.1466 46.1808 55.9999 45.2241 56.5364L45.0868 56.6134C43.4389 57.5375 41.4175 57.4852 39.8196 56.4773L38.6568 55.7437C36.4521 54.353 35.744 51.4664 37.0549 49.2133V49.2133Z" fill="#77BEFF"/>
</mask>
<g mask="url(#mask9_7851_10750)">
<g opacity="0.3" filter="url(#filter30_f_7851_10750)">
<path d="M37.2803 48.826C38.483 46.7588 41.1174 46.032 43.21 47.19L45.6126 48.5196C47.4454 49.5339 48.2636 51.734 47.5389 53.6994V53.6994C47.1684 54.704 46.4317 55.5315 45.4766 56.0156L45.2813 56.1147C43.7798 56.8758 41.9894 56.7948 40.5628 55.9012L38.7468 54.7638C36.7361 53.5044 36.0871 50.8768 37.2803 48.826V48.826Z" fill="url(#paint18_linear_7851_10750)"/>
</g>
<g opacity="0.3" filter="url(#filter31_f_7851_10750)">
<path d="M37.0863 49.1594C38.3921 46.9151 41.2507 46.1236 43.5248 47.3767L45.2511 48.328C47.2843 49.4483 48.179 51.8971 47.3469 54.0642V54.0642C46.955 55.085 46.2157 55.9349 45.259 56.4645L45.1142 56.5446C43.4865 57.4457 41.4972 57.3893 39.9232 56.3973L38.6694 55.6072C36.4917 54.2348 35.7918 51.3843 37.0863 49.1594V49.1594Z" fill="url(#paint19_linear_7851_10750)"/>
</g>
<g filter="url(#filter32_f_7851_10750)">
<path d="M37.0549 49.2133C38.3774 46.9404 41.2722 46.1384 43.5758 47.4068L45.1922 48.2969C47.258 49.4344 48.1651 51.9236 47.3155 54.1235V54.1235C46.9204 55.1466 46.1808 55.9999 45.2241 56.5364L45.0868 56.6134C43.4389 57.5375 41.4175 57.4852 39.8196 56.4773L38.6568 55.7437C36.4521 54.353 35.744 51.4664 37.0549 49.2133V49.2133Z" fill="url(#paint20_linear_7851_10750)"/>
</g>
<g filter="url(#filter33_f_7851_10750)">
<path d="M43.7801 52.4275C43.0223 54.8172 40.83 56.2137 38.91 55.6049C36.9901 54.9961 36.003 52.5915 36.7607 50.2018C37.5184 47.8121 39.7108 46.4156 41.6308 47.0244C43.5507 47.6332 44.5378 50.0378 43.7801 52.4275Z" stroke="url(#paint21_linear_7851_10750)" stroke-width="0.221938"/>
</g>
</g>
</g>
<g filter="url(#filter34_f_7851_10750)">
<path d="M89.3687 115.151L88.4689 103.088C88.3486 101.475 87.1282 100.16 85.5285 99.9189L84.9681 99.8346C79.4395 99.0029 73.994 101.78 71.4205 106.743C70.7491 108.038 71.0172 109.621 72.0775 110.622L81.0581 119.106C84.3346 122.201 89.704 119.645 89.3687 115.151Z" fill="url(#paint22_linear_7851_10750)"/>
</g>
<path d="M89.3687 115.151L88.4689 103.088C88.3486 101.475 87.1282 100.16 85.5285 99.9189L84.9681 99.8346C79.4395 99.0029 73.994 101.78 71.4205 106.743C70.7491 108.038 71.0172 109.621 72.0775 110.622L81.0581 119.106C84.3346 122.201 89.704 119.645 89.3687 115.151Z" fill="#FE2121"/>
<mask id="mask10_7851_10750" style="mask-type:alpha" maskUnits="userSpaceOnUse" x="71" y="99" width="19" height="22">
<path d="M89.3693 115.151L88.4695 103.088C88.3492 101.475 87.1288 100.16 85.5291 99.9189L84.9687 99.8346C79.4401 99.0029 73.9946 101.78 71.4211 106.743C70.7497 108.038 71.0178 109.621 72.0781 110.622L81.0587 119.106C84.3352 122.201 89.7046 119.645 89.3693 115.151Z" fill="#2194FE"/>
</mask>
<g mask="url(#mask10_7851_10750)">
<path d="M89.3693 115.151L88.4695 103.088C88.3492 101.475 87.1288 100.16 85.5291 99.9189L84.9687 99.8346C79.4401 99.0029 73.9946 101.78 71.4211 106.743C70.7497 108.038 71.0178 109.621 72.0781 110.622L81.0587 119.106C84.3352 122.201 89.7046 119.645 89.3693 115.151Z" fill="#FE2121"/>
<g opacity="0.6" filter="url(#filter35_f_7851_10750)">
<path d="M80.9012 98.2074L86.0058 117.183" stroke="white" stroke-width="4.66069"/>
</g>
<g opacity="0.6" filter="url(#filter36_f_7851_10750)">
<path d="M68.1393 106.586L83.2866 124.84" stroke="#FF0000" stroke-width="4.66069"/>
</g>
</g>
<path d="M110.636 36.2103C111.835 36.6937 113.226 36.3342 113.92 35.2433C115.125 33.3476 116.045 31.2801 116.647 29.1071C117.442 26.231 117.664 23.2265 117.298 20.2649C116.933 17.3033 115.987 14.4427 114.516 11.8465C113.045 9.25019 111.077 6.96908 108.725 5.13339C106.372 3.29769 103.681 1.94335 100.805 1.14769C97.9289 0.352037 94.9243 0.130644 91.9627 0.496157C89.0011 0.86167 86.1405 1.80693 83.5443 3.27797C81.5826 4.38945 79.8009 5.78464 78.2552 7.41508C77.3657 8.35336 77.3552 9.79009 78.1157 10.8357V10.8357C86.363 22.1748 97.6315 30.9674 110.636 36.2103V36.2103Z" fill="#FFA1A1"/>
<mask id="mask11_7851_10750" style="mask-type:alpha" maskUnits="userSpaceOnUse" x="77" y="0" width="41" height="37">
<path d="M110.636 36.2103C111.835 36.6937 113.226 36.3342 113.92 35.2433C115.126 33.3476 116.046 31.2801 116.647 29.1071C117.443 26.231 117.664 23.2265 117.299 20.2649C116.933 17.3033 115.988 14.4427 114.517 11.8465C113.046 9.25019 111.078 6.96908 108.725 5.13339C106.373 3.29769 103.682 1.94335 100.806 1.14769C97.9295 0.352037 94.925 0.130644 91.9634 0.496157C89.0018 0.86167 86.1412 1.80693 83.5449 3.27797C81.5833 4.38945 79.8015 5.78464 78.2559 7.41508C77.3664 8.35336 77.3559 9.79009 78.1164 10.8357V10.8357C86.3637 22.1748 97.6321 30.9674 110.636 36.2103V36.2103Z" fill="#A1CEFF"/>
</mask>
<g mask="url(#mask11_7851_10750)">
<g filter="url(#filter37_f_7851_10750)">
<path d="M110.636 36.2103C111.835 36.6937 113.226 36.3342 113.92 35.2433C115.126 33.3476 116.046 31.2801 116.647 29.1071C117.443 26.231 117.664 23.2265 117.299 20.2649C116.933 17.3033 115.988 14.4427 114.517 11.8465C113.046 9.25019 111.078 6.96908 108.725 5.13339C106.373 3.29769 103.682 1.94335 100.806 1.14769C97.9295 0.352037 94.925 0.130644 91.9634 0.496157C89.0018 0.86167 86.1412 1.80693 83.5449 3.27797C81.5833 4.38945 79.8015 5.78464 78.2559 7.41508C77.3664 8.35336 77.3559 9.79009 78.1164 10.8357V10.8357C86.3637 22.1748 97.6321 30.9674 110.636 36.2103V36.2103Z" stroke="url(#paint23_linear_7851_10750)" stroke-width="2.66325"/>
</g>
<g opacity="0.7" filter="url(#filter38_f_7851_10750)">
<ellipse cx="106.4" cy="4.87875" rx="15.9123" ry="23.3001" transform="rotate(-49.3454 106.4 4.87875)" fill="white"/>
</g>
</g>
<defs>
<filter id="filter0_f_7851_10750" x="8.22174" y="9.22107" width="40.4684" height="39.1669" filterUnits="userSpaceOnUse" color-interpolation-filters="sRGB">
<feFlood flood-opacity="0" result="BackgroundImageFix"/>
<feBlend mode="normal" in="SourceGraphic" in2="BackgroundImageFix" result="shape"/>
<feGaussianBlur stdDeviation="0.99872" result="effect1_foregroundBlur_7851_10750"/>
</filter>
<filter id="filter1_f_7851_10750" x="8.20544" y="9.17522" width="39.8557" height="38.5126" filterUnits="userSpaceOnUse" color-interpolation-filters="sRGB">
<feFlood flood-opacity="0" result="BackgroundImageFix"/>
<feBlend mode="normal" in="SourceGraphic" in2="BackgroundImageFix" result="shape"/>
<feGaussianBlur stdDeviation="0.554844" result="effect1_foregroundBlur_7851_10750"/>
</filter>
<filter id="filter2_f_7851_10750" x="10.5688" y="86.812" width="20.7022" height="31.2833" filterUnits="userSpaceOnUse" color-interpolation-filters="sRGB">
<feFlood flood-opacity="0" result="BackgroundImageFix"/>
<feBlend mode="normal" in="SourceGraphic" in2="BackgroundImageFix" result="shape"/>
<feGaussianBlur stdDeviation="2.77422" result="effect1_foregroundBlur_7851_10750"/>
</filter>
<filter id="filter3_f_7851_10750" x="13.745" y="94.3075" width="29.8308" height="32.3274" filterUnits="userSpaceOnUse" color-interpolation-filters="sRGB">
<feFlood flood-opacity="0" result="BackgroundImageFix"/>
<feBlend mode="normal" in="SourceGraphic" in2="BackgroundImageFix" result="shape"/>
<feGaussianBlur stdDeviation="2.77422" result="effect1_foregroundBlur_7851_10750"/>
</filter>
<filter id="filter4_f_7851_10750" x="-0.843312" y="2.81764" width="92.3877" height="106.133" filterUnits="userSpaceOnUse" color-interpolation-filters="sRGB">
<feFlood flood-opacity="0" result="BackgroundImageFix"/>
<feBlend mode="normal" in="SourceGraphic" in2="BackgroundImageFix" result="shape"/>
<feGaussianBlur stdDeviation="0.887751" result="effect1_foregroundBlur_7851_10750"/>
</filter>
<filter id="filter5_f_7851_10750" x="-2.84075" y="0.820197" width="96.3826" height="110.128" filterUnits="userSpaceOnUse" color-interpolation-filters="sRGB">
<feFlood flood-opacity="0" result="BackgroundImageFix"/>
<feBlend mode="normal" in="SourceGraphic" in2="BackgroundImageFix" result="shape"/>
<feGaussianBlur stdDeviation="1.88647" result="effect1_foregroundBlur_7851_10750"/>
</filter>
<filter id="filter6_f_7851_10750" x="4.38343" y="9.16114" width="81.936" height="93.4459" filterUnits="userSpaceOnUse" color-interpolation-filters="sRGB">
<feFlood flood-opacity="0" result="BackgroundImageFix"/>
<feBlend mode="normal" in="SourceGraphic" in2="BackgroundImageFix" result="shape"/>
<feGaussianBlur stdDeviation="1.88647" result="effect1_foregroundBlur_7851_10750"/>
</filter>
<filter id="filter7_f_7851_10750" x="6.63413" y="10.7621" width="77.8036" height="89.4297" filterUnits="userSpaceOnUse" color-interpolation-filters="sRGB">
<feFlood flood-opacity="0" result="BackgroundImageFix"/>
<feBlend mode="normal" in="SourceGraphic" in2="BackgroundImageFix" result="shape"/>
<feGaussianBlur stdDeviation="0.665813" result="effect1_foregroundBlur_7851_10750"/>
</filter>
<filter id="filter8_f_7851_10750" x="2.44941" y="6.92872" width="85.8026" height="97.9109" filterUnits="userSpaceOnUse" color-interpolation-filters="sRGB">
<feFlood flood-opacity="0" result="BackgroundImageFix"/>
<feBlend mode="normal" in="SourceGraphic" in2="BackgroundImageFix" result="shape"/>
<feGaussianBlur stdDeviation="1.88647" result="effect1_foregroundBlur_7851_10750"/>
</filter>
<filter id="filter9_f_7851_10750" x="8.80684" y="14.098" width="73.0879" height="83.5722" filterUnits="userSpaceOnUse" color-interpolation-filters="sRGB">
<feFlood flood-opacity="0" result="BackgroundImageFix"/>
<feBlend mode="normal" in="SourceGraphic" in2="BackgroundImageFix" result="shape"/>
<feGaussianBlur stdDeviation="1.33163" result="effect1_foregroundBlur_7851_10750"/>
</filter>
<filter id="filter10_f_7851_10750" x="77.7782" y="3.62716" width="41.8179" height="47.0147" filterUnits="userSpaceOnUse" color-interpolation-filters="sRGB">
<feFlood flood-opacity="0" result="BackgroundImageFix"/>
<feBlend mode="normal" in="SourceGraphic" in2="BackgroundImageFix" result="shape"/>
<feGaussianBlur stdDeviation="3.2181" result="effect1_foregroundBlur_7851_10750"/>
</filter>
<filter id="filter11_dd_7851_10750" x="62.3711" y="49.5595" width="14.2559" height="9.14295" filterUnits="userSpaceOnUse" color-interpolation-filters="sRGB">
<feFlood flood-opacity="0" result="BackgroundImageFix"/>
<feColorMatrix in="SourceAlpha" type="matrix" values="0 0 0 0 0 0 0 0 0 0 0 0 0 0 0 0 0 0 127 0" result="hardAlpha"/>
<feOffset dx="-1.55356" dy="1.55356"/>
<feGaussianBlur stdDeviation="0.99872"/>
<feComposite in2="hardAlpha" operator="out"/>
<feColorMatrix type="matrix" values="0 0 0 0 1 0 0 0 0 0 0 0 0 0 0 0 0 0 0.5 0"/>
<feBlend mode="normal" in2="BackgroundImageFix" result="effect1_dropShadow_7851_10750"/>
<feColorMatrix in="SourceAlpha" type="matrix" values="0 0 0 0 0 0 0 0 0 0 0 0 0 0 0 0 0 0 127 0" result="hardAlpha"/>
<feOffset dy="0.221938"/>
<feGaussianBlur stdDeviation="0.221938"/>
<feComposite in2="hardAlpha" operator="out"/>
<feColorMatrix type="matrix" values="0 0 0 0 1 0 0 0 0 0 0 0 0 0 0 0 0 0 1 0"/>
<feBlend mode="normal" in2="effect1_dropShadow_7851_10750" result="effect2_dropShadow_7851_10750"/>
<feBlend mode="normal" in="SourceGraphic" in2="effect2_dropShadow_7851_10750" result="shape"/>
</filter>
<filter id="filter12_f_7851_10750" x="65.0154" y="49.1337" width="11.364" height="5.65236" filterUnits="userSpaceOnUse" color-interpolation-filters="sRGB">
<feFlood flood-opacity="0" result="BackgroundImageFix"/>
<feBlend mode="normal" in="SourceGraphic" in2="BackgroundImageFix" result="shape"/>
<feGaussianBlur stdDeviation="0.124026" result="effect1_foregroundBlur_7851_10750"/>
</filter>
<filter id="filter13_f_7851_10750" x="65.6169" y="49.3892" width="10.7632" height="5.37977" filterUnits="userSpaceOnUse" color-interpolation-filters="sRGB">
<feFlood flood-opacity="0" result="BackgroundImageFix"/>
<feBlend mode="normal" in="SourceGraphic" in2="BackgroundImageFix" result="shape"/>
<feGaussianBlur stdDeviation="0.124026" result="effect1_foregroundBlur_7851_10750"/>
</filter>
<filter id="filter14_dd_7851_10750" x="9.32796" y="49.8924" width="14.2554" height="9.14295" filterUnits="userSpaceOnUse" color-interpolation-filters="sRGB">
<feFlood flood-opacity="0" result="BackgroundImageFix"/>
<feColorMatrix in="SourceAlpha" type="matrix" values="0 0 0 0 0 0 0 0 0 0 0 0 0 0 0 0 0 0 127 0" result="hardAlpha"/>
<feOffset dx="-1.55356" dy="1.55356"/>
<feGaussianBlur stdDeviation="0.99872"/>
<feComposite in2="hardAlpha" operator="out"/>
<feColorMatrix type="matrix" values="0 0 0 0 1 0 0 0 0 0 0 0 0 0 0 0 0 0 0.5 0"/>
<feBlend mode="normal" in2="BackgroundImageFix" result="effect1_dropShadow_7851_10750"/>
<feColorMatrix in="SourceAlpha" type="matrix" values="0 0 0 0 0 0 0 0 0 0 0 0 0 0 0 0 0 0 127 0" result="hardAlpha"/>
<feOffset dy="0.221938"/>
<feGaussianBlur stdDeviation="0.221938"/>
<feComposite in2="hardAlpha" operator="out"/>
<feColorMatrix type="matrix" values="0 0 0 0 1 0 0 0 0 0 0 0 0 0 0 0 0 0 1 0"/>
<feBlend mode="normal" in2="effect1_dropShadow_7851_10750" result="effect2_dropShadow_7851_10750"/>
<feBlend mode="normal" in="SourceGraphic" in2="effect2_dropShadow_7851_10750" result="shape"/>
</filter>
<filter id="filter15_f_7851_10750" x="11.9718" y="49.4665" width="11.364" height="5.65236" filterUnits="userSpaceOnUse" color-interpolation-filters="sRGB">
<feFlood flood-opacity="0" result="BackgroundImageFix"/>
<feBlend mode="normal" in="SourceGraphic" in2="BackgroundImageFix" result="shape"/>
<feGaussianBlur stdDeviation="0.124026" result="effect1_foregroundBlur_7851_10750"/>
</filter>
<filter id="filter16_f_7851_10750" x="12.5732" y="49.722" width="10.7632" height="5.37977" filterUnits="userSpaceOnUse" color-interpolation-filters="sRGB">
<feFlood flood-opacity="0" result="BackgroundImageFix"/>
<feBlend mode="normal" in="SourceGraphic" in2="BackgroundImageFix" result="shape"/>
<feGaussianBlur stdDeviation="0.124026" result="effect1_foregroundBlur_7851_10750"/>
</filter>
<filter id="filter17_dd_7851_10750" x="41.2242" y="17.4105" width="9.94208" height="14.1837" filterUnits="userSpaceOnUse" color-interpolation-filters="sRGB">
<feFlood flood-opacity="0" result="BackgroundImageFix"/>
<feColorMatrix in="SourceAlpha" type="matrix" values="0 0 0 0 0 0 0 0 0 0 0 0 0 0 0 0 0 0 127 0" result="hardAlpha"/>
<feOffset dx="-1.55356" dy="1.55356"/>
<feGaussianBlur stdDeviation="0.99872"/>
<feComposite in2="hardAlpha" operator="out"/>
<feColorMatrix type="matrix" values="0 0 0 0 1 0 0 0 0 0 0 0 0 0 0 0 0 0 0.5 0"/>
<feBlend mode="normal" in2="BackgroundImageFix" result="effect1_dropShadow_7851_10750"/>
<feColorMatrix in="SourceAlpha" type="matrix" values="0 0 0 0 0 0 0 0 0 0 0 0 0 0 0 0 0 0 127 0" result="hardAlpha"/>
<feOffset dy="0.221938"/>
<feGaussianBlur stdDeviation="0.221938"/>
<feComposite in2="hardAlpha" operator="out"/>
<feColorMatrix type="matrix" values="0 0 0 0 1 0 0 0 0 0 0 0 0 0 0 0 0 0 1 0"/>
<feBlend mode="normal" in2="effect1_dropShadow_7851_10750" result="effect2_dropShadow_7851_10750"/>
<feBlend mode="normal" in="SourceGraphic" in2="effect2_dropShadow_7851_10750" result="shape"/>
</filter>
<filter id="filter18_f_7851_10750" x="43.9427" y="17.5203" width="6.27156" height="11.3335" filterUnits="userSpaceOnUse" color-interpolation-filters="sRGB">
<feFlood flood-opacity="0" result="BackgroundImageFix"/>
<feBlend mode="normal" in="SourceGraphic" in2="BackgroundImageFix" result="shape"/>
<feGaussianBlur stdDeviation="0.124026" result="effect1_foregroundBlur_7851_10750"/>
</filter>
<filter id="filter19_f_7851_10750" x="44.2687" y="17.5452" width="5.96315" height="10.7344" filterUnits="userSpaceOnUse" color-interpolation-filters="sRGB">
<feFlood flood-opacity="0" result="BackgroundImageFix"/>
<feBlend mode="normal" in="SourceGraphic" in2="BackgroundImageFix" result="shape"/>
<feGaussianBlur stdDeviation="0.124026" result="effect1_foregroundBlur_7851_10750"/>
</filter>
<filter id="filter20_dd_7851_10750" x="37.3209" y="34.3625" width="11.0242" height="20.1693" filterUnits="userSpaceOnUse" color-interpolation-filters="sRGB">
<feFlood flood-opacity="0" result="BackgroundImageFix"/>
<feColorMatrix in="SourceAlpha" type="matrix" values="0 0 0 0 0 0 0 0 0 0 0 0 0 0 0 0 0 0 127 0" result="hardAlpha"/>
<feOffset dx="-1.55356" dy="1.55356"/>
<feGaussianBlur stdDeviation="0.99872"/>
<feComposite in2="hardAlpha" operator="out"/>
<feColorMatrix type="matrix" values="0 0 0 0 1 0 0 0 0 0 0 0 0 0 0 0 0 0 0.5 0"/>
<feBlend mode="normal" in2="BackgroundImageFix" result="effect1_dropShadow_7851_10750"/>
<feColorMatrix in="SourceAlpha" type="matrix" values="0 0 0 0 0 0 0 0 0 0 0 0 0 0 0 0 0 0 127 0" result="hardAlpha"/>
<feOffset dy="0.221938"/>
<feGaussianBlur stdDeviation="0.221938"/>
<feComposite in2="hardAlpha" operator="out"/>
<feColorMatrix type="matrix" values="0 0 0 0 1 0 0 0 0 0 0 0 0 0 0 0 0 0 1 0"/>
<feBlend mode="normal" in2="effect1_dropShadow_7851_10750" result="effect2_dropShadow_7851_10750"/>
<feBlend mode="normal" in="SourceGraphic" in2="effect2_dropShadow_7851_10750" result="shape"/>
</filter>
<filter id="filter21_f_7851_10750" x="39.9896" y="34.5004" width="7.37568" height="17.6777" filterUnits="userSpaceOnUse" color-interpolation-filters="sRGB">
<feFlood flood-opacity="0" result="BackgroundImageFix"/>
<feBlend mode="normal" in="SourceGraphic" in2="BackgroundImageFix" result="shape"/>
<feGaussianBlur stdDeviation="0.124026" result="effect1_foregroundBlur_7851_10750"/>
</filter>
<filter id="filter22_f_7851_10750" x="40.3785" y="34.5248" width="7.00605" height="16.728" filterUnits="userSpaceOnUse" color-interpolation-filters="sRGB">
<feFlood flood-opacity="0" result="BackgroundImageFix"/>
<feBlend mode="normal" in="SourceGraphic" in2="BackgroundImageFix" result="shape"/>
<feGaussianBlur stdDeviation="0.124026" result="effect1_foregroundBlur_7851_10750"/>
</filter>
<filter id="filter23_dd_7851_10750" x="38.9436" y="51.6358" width="26.6414" height="19.3734" filterUnits="userSpaceOnUse" color-interpolation-filters="sRGB">
<feFlood flood-opacity="0" result="BackgroundImageFix"/>
<feColorMatrix in="SourceAlpha" type="matrix" values="0 0 0 0 0 0 0 0 0 0 0 0 0 0 0 0 0 0 127 0" result="hardAlpha"/>
<feOffset dx="-1.55356" dy="1.55356"/>
<feGaussianBlur stdDeviation="0.99872"/>
<feComposite in2="hardAlpha" operator="out"/>
<feColorMatrix type="matrix" values="0 0 0 0 1 0 0 0 0 0 0 0 0 0 0 0 0 0 0.5 0"/>
<feBlend mode="normal" in2="BackgroundImageFix" result="effect1_dropShadow_7851_10750"/>
<feColorMatrix in="SourceAlpha" type="matrix" values="0 0 0 0 0 0 0 0 0 0 0 0 0 0 0 0 0 0 127 0" result="hardAlpha"/>
<feOffset dy="0.221938"/>
<feGaussianBlur stdDeviation="0.221938"/>
<feComposite in2="hardAlpha" operator="out"/>
<feColorMatrix type="matrix" values="0 0 0 0 1 0 0 0 0 0 0 0 0 0 0 0 0 0 1 0"/>
<feBlend mode="normal" in2="effect1_dropShadow_7851_10750" result="effect2_dropShadow_7851_10750"/>
<feBlend mode="normal" in="SourceGraphic" in2="effect2_dropShadow_7851_10750" result="shape"/>
</filter>
<filter id="filter24_f_7851_10750" x="41.0812" y="50.6484" width="24.5865" height="16.2946" filterUnits="userSpaceOnUse" color-interpolation-filters="sRGB">
<feFlood flood-opacity="0" result="BackgroundImageFix"/>
<feBlend mode="normal" in="SourceGraphic" in2="BackgroundImageFix" result="shape"/>
<feGaussianBlur stdDeviation="0.124026" result="effect1_foregroundBlur_7851_10750"/>
</filter>
<filter id="filter25_f_7851_10750" x="42.3307" y="51.564" width="23.2562" height="15.4274" filterUnits="userSpaceOnUse" color-interpolation-filters="sRGB">
<feFlood flood-opacity="0" result="BackgroundImageFix"/>
<feBlend mode="normal" in="SourceGraphic" in2="BackgroundImageFix" result="shape"/>
<feGaussianBlur stdDeviation="0.124026" result="effect1_foregroundBlur_7851_10750"/>
</filter>
<filter id="filter26_dd_7851_10750" x="30.9043" y="77.9994" width="9.94105" height="14.1837" filterUnits="userSpaceOnUse" color-interpolation-filters="sRGB">
<feFlood flood-opacity="0" result="BackgroundImageFix"/>
<feColorMatrix in="SourceAlpha" type="matrix" values="0 0 0 0 0 0 0 0 0 0 0 0 0 0 0 0 0 0 127 0" result="hardAlpha"/>
<feOffset dx="-1.55356" dy="1.55356"/>
<feGaussianBlur stdDeviation="0.99872"/>
<feComposite in2="hardAlpha" operator="out"/>
<feColorMatrix type="matrix" values="0 0 0 0 1 0 0 0 0 0 0 0 0 0 0 0 0 0 0.5 0"/>
<feBlend mode="normal" in2="BackgroundImageFix" result="effect1_dropShadow_7851_10750"/>
<feColorMatrix in="SourceAlpha" type="matrix" values="0 0 0 0 0 0 0 0 0 0 0 0 0 0 0 0 0 0 127 0" result="hardAlpha"/>
<feOffset dy="0.221938"/>
<feGaussianBlur stdDeviation="0.221938"/>
<feComposite in2="hardAlpha" operator="out"/>
<feColorMatrix type="matrix" values="0 0 0 0 1 0 0 0 0 0 0 0 0 0 0 0 0 0 1 0"/>
<feBlend mode="normal" in2="effect1_dropShadow_7851_10750" result="effect2_dropShadow_7851_10750"/>
<feBlend mode="normal" in="SourceGraphic" in2="effect2_dropShadow_7851_10750" result="shape"/>
</filter>
<filter id="filter27_f_7851_10750" x="33.6216" y="78.1091" width="6.27156" height="11.3335" filterUnits="userSpaceOnUse" color-interpolation-filters="sRGB">
<feFlood flood-opacity="0" result="BackgroundImageFix"/>
<feBlend mode="normal" in="SourceGraphic" in2="BackgroundImageFix" result="shape"/>
<feGaussianBlur stdDeviation="0.124026" result="effect1_foregroundBlur_7851_10750"/>
</filter>
<filter id="filter28_f_7851_10750" x="33.9477" y="78.1341" width="5.96315" height="10.7344" filterUnits="userSpaceOnUse" color-interpolation-filters="sRGB">
<feFlood flood-opacity="0" result="BackgroundImageFix"/>
<feBlend mode="normal" in="SourceGraphic" in2="BackgroundImageFix" result="shape"/>
<feGaussianBlur stdDeviation="0.124026" result="effect1_foregroundBlur_7851_10750"/>
</filter>
<filter id="filter29_dd_7851_10750" x="32.8465" y="46.3617" width="15.2311" height="14.4609" filterUnits="userSpaceOnUse" color-interpolation-filters="sRGB">
<feFlood flood-opacity="0" result="BackgroundImageFix"/>
<feColorMatrix in="SourceAlpha" type="matrix" values="0 0 0 0 0 0 0 0 0 0 0 0 0 0 0 0 0 0 127 0" result="hardAlpha"/>
<feOffset dx="-1.55356" dy="1.55356"/>
<feGaussianBlur stdDeviation="0.99872"/>
<feComposite in2="hardAlpha" operator="out"/>
<feColorMatrix type="matrix" values="0 0 0 0 1 0 0 0 0 0 0 0 0 0 0 0 0 0 0.5 0"/>
<feBlend mode="normal" in2="BackgroundImageFix" result="effect1_dropShadow_7851_10750"/>
<feColorMatrix in="SourceAlpha" type="matrix" values="0 0 0 0 0 0 0 0 0 0 0 0 0 0 0 0 0 0 127 0" result="hardAlpha"/>
<feOffset dy="0.221938"/>
<feGaussianBlur stdDeviation="0.221938"/>
<feComposite in2="hardAlpha" operator="out"/>
<feColorMatrix type="matrix" values="0 0 0 0 1 0 0 0 0 0 0 0 0 0 0 0 0 0 1 0"/>
<feBlend mode="normal" in2="effect1_dropShadow_7851_10750" result="effect2_dropShadow_7851_10750"/>
<feBlend mode="normal" in="SourceGraphic" in2="effect2_dropShadow_7851_10750" result="shape"/>
</filter>
<filter id="filter30_f_7851_10750" x="35.7955" y="45.7518" width="12.8937" height="11.7693" filterUnits="userSpaceOnUse" color-interpolation-filters="sRGB">
<feFlood flood-opacity="0" result="BackgroundImageFix"/>
<feBlend mode="normal" in="SourceGraphic" in2="BackgroundImageFix" result="shape"/>
<feGaussianBlur stdDeviation="0.443876" result="effect1_foregroundBlur_7851_10750"/>
</filter>
<filter id="filter31_f_7851_10750" x="35.5495" y="45.8947" width="12.9946" height="12.1759" filterUnits="userSpaceOnUse" color-interpolation-filters="sRGB">
<feFlood flood-opacity="0" result="BackgroundImageFix"/>
<feBlend mode="normal" in="SourceGraphic" in2="BackgroundImageFix" result="shape"/>
<feGaussianBlur stdDeviation="0.443876" result="effect1_foregroundBlur_7851_10750"/>
</filter>
<filter id="filter32_f_7851_10750" x="33.0684" y="43.4765" width="17.8934" height="17.1242" filterUnits="userSpaceOnUse" color-interpolation-filters="sRGB">
<feFlood flood-opacity="0" result="BackgroundImageFix"/>
<feBlend mode="normal" in="SourceGraphic" in2="BackgroundImageFix" result="shape"/>
<feGaussianBlur stdDeviation="1.66453" result="effect1_foregroundBlur_7851_10750"/>
</filter>
<filter id="filter33_f_7851_10750" x="35.9506" y="46.3266" width="8.63958" height="9.97601" filterUnits="userSpaceOnUse" color-interpolation-filters="sRGB">
<feFlood flood-opacity="0" result="BackgroundImageFix"/>
<feBlend mode="normal" in="SourceGraphic" in2="BackgroundImageFix" result="shape"/>
<feGaussianBlur stdDeviation="0.221938" result="effect1_foregroundBlur_7851_10750"/>
</filter>
<filter id="filter34_f_7851_10750" x="67.2806" y="95.9157" width="25.876" height="28.3231" filterUnits="userSpaceOnUse" color-interpolation-filters="sRGB">
<feFlood flood-opacity="0" result="BackgroundImageFix"/>
<feBlend mode="normal" in="SourceGraphic" in2="BackgroundImageFix" result="shape"/>
<feGaussianBlur stdDeviation="1.88647" result="effect1_foregroundBlur_7851_10750"/>
</filter>
<filter id="filter35_f_7851_10750" x="73.1024" y="92.0536" width="20.7022" height="31.2832" filterUnits="userSpaceOnUse" color-interpolation-filters="sRGB">
<feFlood flood-opacity="0" result="BackgroundImageFix"/>
<feBlend mode="normal" in="SourceGraphic" in2="BackgroundImageFix" result="shape"/>
<feGaussianBlur stdDeviation="2.77422" result="effect1_foregroundBlur_7851_10750"/>
</filter>
<filter id="filter36_f_7851_10750" x="60.7976" y="99.5491" width="29.8308" height="32.3275" filterUnits="userSpaceOnUse" color-interpolation-filters="sRGB">
<feFlood flood-opacity="0" result="BackgroundImageFix"/>
<feBlend mode="normal" in="SourceGraphic" in2="BackgroundImageFix" result="shape"/>
<feGaussianBlur stdDeviation="2.77422" result="effect1_foregroundBlur_7851_10750"/>
</filter>
<filter id="filter37_f_7851_10750" x="75.3471" y="-1.89434" width="44.3422" height="40.5329" filterUnits="userSpaceOnUse" color-interpolation-filters="sRGB">
<feFlood flood-opacity="0" result="BackgroundImageFix"/>
<feBlend mode="normal" in="SourceGraphic" in2="BackgroundImageFix" result="shape"/>
<feGaussianBlur stdDeviation="0.443876" result="effect1_foregroundBlur_7851_10750"/>
</filter>
<filter id="filter38_f_7851_10750" x="73.2545" y="-27.1673" width="66.2921" height="64.0922" filterUnits="userSpaceOnUse" color-interpolation-filters="sRGB">
<feFlood flood-opacity="0" result="BackgroundImageFix"/>
<feBlend mode="normal" in="SourceGraphic" in2="BackgroundImageFix" result="shape"/>
<feGaussianBlur stdDeviation="6.32523" result="effect1_foregroundBlur_7851_10750"/>
</filter>
<linearGradient id="paint0_linear_7851_10750" x1="110.195" y1="55.2626" x2="68.4712" y2="97.8747" gradientUnits="userSpaceOnUse">
<stop stop-color="white"/>
<stop offset="1" stop-color="white" stop-opacity="0"/>
</linearGradient>
<linearGradient id="paint1_linear_7851_10750" x1="62.7007" y1="126.505" x2="72.9099" y2="87.4435" gradientUnits="userSpaceOnUse">
<stop stop-color="white"/>
<stop offset="1" stop-color="white" stop-opacity="0"/>
</linearGradient>
<linearGradient id="paint2_linear_7851_10750" x1="85.5592" y1="38.8392" x2="54.4879" y2="67.6911" gradientUnits="userSpaceOnUse">
<stop stop-color="white"/>
<stop offset="1" stop-color="white" stop-opacity="0"/>
</linearGradient>
<linearGradient id="paint3_linear_7851_10750" x1="63.9924" y1="14.7137" x2="27.0795" y2="96.2404" gradientUnits="userSpaceOnUse">
<stop stop-color="#FB0404"/>
<stop offset="1" stop-color="#FB0404" stop-opacity="0"/>
</linearGradient>
<linearGradient id="paint4_linear_7851_10750" x1="9.46009" y1="68.763" x2="63.8224" y2="54.0642" gradientUnits="userSpaceOnUse">
<stop stop-color="white"/>
<stop offset="1" stop-color="white" stop-opacity="0"/>
</linearGradient>
<linearGradient id="paint5_linear_7851_10750" x1="14.2737" y1="67.0358" x2="61.3452" y2="54.3082" gradientUnits="userSpaceOnUse">
<stop stop-color="white"/>
<stop offset="1" stop-color="white" stop-opacity="0"/>
</linearGradient>
<linearGradient id="paint6_linear_7851_10750" x1="2.88834" y1="4.71833" x2="-0.326828" y2="3.58699" gradientUnits="userSpaceOnUse">
<stop stop-color="white"/>
<stop offset="1" stop-color="white" stop-opacity="0"/>
</linearGradient>
<linearGradient id="paint7_linear_7851_10750" x1="9.87989" y1="1.15764" x2="8.01415" y2="1.41728" gradientUnits="userSpaceOnUse">
<stop stop-color="white"/>
<stop offset="1" stop-color="white" stop-opacity="0"/>
</linearGradient>
<linearGradient id="paint8_linear_7851_10750" x1="2.88834" y1="4.71833" x2="-0.326828" y2="3.58699" gradientUnits="userSpaceOnUse">
<stop stop-color="white"/>
<stop offset="1" stop-color="white" stop-opacity="0"/>
</linearGradient>
<linearGradient id="paint9_linear_7851_10750" x1="9.87989" y1="1.15764" x2="8.01415" y2="1.41728" gradientUnits="userSpaceOnUse">
<stop stop-color="white"/>
<stop offset="1" stop-color="white" stop-opacity="0"/>
</linearGradient>
<linearGradient id="paint10_linear_7851_10750" x1="2.88834" y1="4.71833" x2="-0.326828" y2="3.58699" gradientUnits="userSpaceOnUse">
<stop stop-color="white"/>
<stop offset="1" stop-color="white" stop-opacity="0"/>
</linearGradient>
<linearGradient id="paint11_linear_7851_10750" x1="9.87989" y1="1.15764" x2="8.01415" y2="1.41728" gradientUnits="userSpaceOnUse">
<stop stop-color="white"/>
<stop offset="1" stop-color="white" stop-opacity="0"/>
</linearGradient>
<linearGradient id="paint12_linear_7851_10750" x1="4.59088" y1="4.76476" x2="0.195889" y2="2.33064" gradientUnits="userSpaceOnUse">
<stop stop-color="white"/>
<stop offset="1" stop-color="white" stop-opacity="0"/>
</linearGradient>
<linearGradient id="paint13_linear_7851_10750" x1="15.7036" y1="1.16904" x2="12.8191" y2="1.80084" gradientUnits="userSpaceOnUse">
<stop stop-color="white"/>
<stop offset="1" stop-color="white" stop-opacity="0"/>
</linearGradient>
<linearGradient id="paint14_linear_7851_10750" x1="7.14537" y1="4.87233" x2="1.91992" y2="0.46739" gradientUnits="userSpaceOnUse">
<stop stop-color="white"/>
<stop offset="1" stop-color="white" stop-opacity="0"/>
</linearGradient>
<linearGradient id="paint15_linear_7851_10750" x1="24.4415" y1="1.19543" x2="20.2072" y2="2.60707" gradientUnits="userSpaceOnUse">
<stop stop-color="white"/>
<stop offset="1" stop-color="white" stop-opacity="0"/>
</linearGradient>
<linearGradient id="paint16_linear_7851_10750" x1="2.88834" y1="4.71833" x2="-0.326828" y2="3.58699" gradientUnits="userSpaceOnUse">
<stop stop-color="white"/>
<stop offset="1" stop-color="white" stop-opacity="0"/>
</linearGradient>
<linearGradient id="paint17_linear_7851_10750" x1="9.87989" y1="1.15764" x2="8.01415" y2="1.41728" gradientUnits="userSpaceOnUse">
<stop stop-color="white"/>
<stop offset="1" stop-color="white" stop-opacity="0"/>
</linearGradient>
<linearGradient id="paint18_linear_7851_10750" x1="41.4529" y1="46.7987" x2="44.6013" y2="47.289" gradientUnits="userSpaceOnUse">
<stop stop-color="white"/>
<stop offset="1" stop-color="white" stop-opacity="0"/>
</linearGradient>
<linearGradient id="paint19_linear_7851_10750" x1="44.1011" y1="52.4799" x2="45.4859" y2="52.1229" gradientUnits="userSpaceOnUse">
<stop stop-color="white"/>
<stop offset="1" stop-color="white" stop-opacity="0"/>
</linearGradient>
<linearGradient id="paint20_linear_7851_10750" x1="47.7999" y1="53.9864" x2="43.4166" y2="51.7115" gradientUnits="userSpaceOnUse">
<stop stop-color="#FF2525"/>
<stop offset="1" stop-color="#FF2525" stop-opacity="0"/>
</linearGradient>
<linearGradient id="paint21_linear_7851_10750" x1="43.4171" y1="50.6851" x2="37.5358" y2="50.1858" gradientUnits="userSpaceOnUse">
<stop stop-color="white"/>
<stop offset="1" stop-color="white" stop-opacity="0"/>
</linearGradient>
<linearGradient id="paint22_linear_7851_10750" x1="80.2187" y1="99.6886" x2="82.2319" y2="110.525" gradientUnits="userSpaceOnUse">
<stop stop-color="#FB0404"/>
<stop offset="1" stop-color="#FB0404" stop-opacity="0"/>
</linearGradient>
<linearGradient id="paint23_linear_7851_10750" x1="87.7809" y1="22.7486" x2="93.2739" y2="15.5356" gradientUnits="userSpaceOnUse">
<stop stop-color="#FF4545"/>
<stop offset="1" stop-color="#FF4545" stop-opacity="0"/>
</linearGradient>
</defs>
</svg>
