<svg width="110" height="120" viewBox="0 0 110 120" fill="none" xmlns="http://www.w3.org/2000/svg">
<path d="M3.60891 8.5256C1.45125 9.2617 0.000167847 11.2944 0.000167847 13.5809V21.1254V21.1254C0.0040012 23.3609 0.731851 25.535 2.07474 27.3222L39.4833 77.1085H67.0259C69.2237 77.1085 71.2935 76.0747 72.6137 74.3176L107.925 27.3222C109.268 25.535 109.996 23.3609 110 21.1254V21.1254V13.5809C110 11.2944 108.549 9.2617 106.391 8.5256C73.067 -2.84187 36.933 -2.84187 3.60891 8.5256Z" fill="#40A2FF"/>
<mask id="mask0_7851_9350" style="mask-type:alpha" maskUnits="userSpaceOnUse" x="0" y="0" width="110" height="78">
<path d="M3.60874 8.5256C1.45108 9.2617 0 11.2944 0 13.5809V21.1254V21.1254C0.00383336 23.3609 0.731683 25.535 2.07457 27.3222L39.4831 77.1085H70.5166L107.925 27.3222C109.268 25.535 109.996 23.3609 110 21.1254V21.1254V13.5809C110 11.2944 108.549 9.2617 106.391 8.5256C73.0669 -2.84187 36.9328 -2.84187 3.60874 8.5256Z" fill="#0184FF"/>
</mask>
<g mask="url(#mask0_7851_9350)">
<g opacity="0.5" filter="url(#filter0_f_7851_9350)">
<ellipse cx="50.5746" cy="13.6011" rx="45.2232" ry="30.4646" fill="url(#paint0_linear_7851_9350)"/>
</g>
<g filter="url(#filter1_f_7851_9350)">
<path d="M84.3948 77.7599L115.896 24.0738C76.5235 11.1849 34.0668 11.1849 -5.30592 24.0738L25.7486 77.7599H84.3948Z" fill="#0084FE"/>
</g>
<mask id="mask1_7851_9350" style="mask-type:alpha" maskUnits="userSpaceOnUse" x="-6" y="14" width="122" height="64">
<path d="M84.3948 77.7599L115.896 24.0738C76.5235 11.1849 34.0668 11.1849 -5.30592 24.0738L25.7486 77.7599H84.3948Z" fill="#0084FE"/>
</mask>
<g mask="url(#mask1_7851_9350)">
<g opacity="0.5" filter="url(#filter2_f_7851_9350)">
<ellipse cx="92.7939" cy="49.1251" rx="43.6675" ry="52.6403" fill="white"/>
</g>
</g>
<g filter="url(#filter3_f_7851_9350)">
<path d="M109.638 -8.14368V23.7204L71.0129 76.0378" stroke="url(#paint1_linear_7851_9350)" stroke-width="3.49473"/>
</g>
<g filter="url(#filter4_f_7851_9350)">
<path d="M109.638 -8.14368V23.7204L71.0129 76.0378" stroke="url(#paint2_linear_7851_9350)" stroke-width="3.49473"/>
</g>
<g filter="url(#filter5_f_7851_9350)">
<path d="M0.000956178 -4.59155V27.2725L38.6257 79.5899" stroke="url(#paint3_linear_7851_9350)" stroke-width="3.49473"/>
</g>
<g opacity="0.6" filter="url(#filter6_f_7851_9350)">
<path d="M3.60874 8.5256C1.45108 9.2617 0 11.2944 0 13.5809V21.1254V21.1254C0.00383336 23.3609 0.731683 25.535 2.07457 27.3222L39.4831 77.1085H67.0257C69.2235 77.1085 71.2933 76.0747 72.6136 74.3176L107.925 27.3222C109.268 25.535 109.996 23.3609 110 21.1254V21.1254V13.5809C110 11.2944 108.549 9.2617 106.391 8.5256C73.0669 -2.84187 36.9328 -2.84187 3.60874 8.5256Z" stroke="url(#paint4_linear_7851_9350)" stroke-width="0.873682"/>
</g>
</g>
<path d="M39.525 77.0185L40.5474 76.6347C50.228 73.0001 60.921 73.1371 70.5053 77.0185V77.0185L70.5052 104.989L39.525 116.023L39.525 106.465L39.525 77.0185Z" fill="#0084FE"/>
<mask id="mask2_7851_9350" style="mask-type:alpha" maskUnits="userSpaceOnUse" x="39" y="74" width="32" height="43">
<path d="M39.525 77.0185L40.5474 76.6346C50.228 73.0001 60.921 73.1371 70.5052 77.0185V77.0185L70.5052 104.497L68.6038 105.884C60.1219 112.071 50.0118 115.635 39.525 116.134V116.134L39.525 77.0185Z" fill="#FF2B2A"/>
</mask>
<g mask="url(#mask2_7851_9350)">
<g opacity="0.5" filter="url(#filter7_f_7851_9350)">
<rect x="91.1243" y="64.9371" width="82.2177" height="24.3514" transform="rotate(90 91.1243 64.9371)" fill="white"/>
</g>
<g opacity="0.5" filter="url(#filter8_f_7851_9350)">
<rect x="40.5558" y="64.9373" width="82.2177" height="24.3514" transform="rotate(90 40.5558 64.9373)" fill="white"/>
</g>
<g filter="url(#filter9_f_7851_9350)">
<path d="M69.9713 86.0341L69.9713 138.574C69.9713 141.981 67.5332 144.9 64.1804 145.507C58.5015 146.535 52.6874 146.573 46.9958 145.617L46.3839 145.515C42.733 144.902 40.0589 141.741 40.0589 138.039L40.0589 86.6359C40.0589 82.2006 42.8092 78.2302 46.9615 76.6713L47.4205 76.4989C52.6765 74.5256 58.4822 74.5999 63.6859 76.7073C67.4851 78.2459 69.9713 81.9352 69.9713 86.0341Z" stroke="url(#paint5_linear_7851_9350)" stroke-width="1.06779"/>
</g>
<g opacity="0.38" filter="url(#filter10_f_7851_9350)">
<rect x="75.6395" y="64.9373" width="82.2177" height="24.3514" transform="rotate(90 75.6395 64.9373)" fill="white"/>
</g>
<g filter="url(#filter11_f_7851_9350)">
<path d="M63.7189 72.7231V135.052" stroke="url(#paint6_linear_7851_9350)" stroke-width="1.74736"/>
</g>
<g filter="url(#filter12_f_7851_9350)">
<path d="M54.0631 72.7231V135.052" stroke="url(#paint7_linear_7851_9350)" stroke-width="3.49473"/>
</g>
<g opacity="0.5" filter="url(#filter13_f_7851_9350)">
<path d="M63.7189 72.7231V135.052" stroke="url(#paint8_linear_7851_9350)" stroke-width="1.74736"/>
</g>
<g opacity="0.5" filter="url(#filter14_f_7851_9350)">
<path d="M54.0631 72.7231V135.052" stroke="url(#paint9_linear_7851_9350)" stroke-width="3.49473"/>
</g>
</g>
<path fill-rule="evenodd" clip-rule="evenodd" d="M57.1919 115.45C65.6614 111.669 71.5518 106.405 70.3486 103.692C69.1453 100.978 61.3041 101.844 52.8347 105.625C44.3652 109.406 38.4748 114.671 39.678 117.384C40.8813 120.097 48.7225 119.231 57.1919 115.45ZM56.6963 114.333C63.7065 111.204 68.6357 106.967 67.706 104.871C66.7763 102.774 60.3398 103.612 53.3296 106.742C46.3194 109.871 41.3902 114.108 42.3199 116.204C43.2495 118.3 49.6861 117.463 56.6963 114.333Z" fill="#1E93FF"/>
<ellipse cx="13.9005" cy="4.15237" rx="13.9005" ry="4.15237" transform="matrix(0.913137 -0.407653 0.405393 0.914143 40.6371 112.408)" fill="#001A56"/>
<mask id="mask3_7851_9350" style="mask-type:alpha" maskUnits="userSpaceOnUse" x="42" y="103" width="26" height="15">
<ellipse cx="13.9005" cy="4.15237" rx="13.9005" ry="4.15237" transform="matrix(0.913137 -0.407653 0.405393 0.914143 40.6371 112.408)" fill="#001A56"/>
</mask>
<g mask="url(#mask3_7851_9350)">
<ellipse cx="13.9005" cy="4.15237" rx="13.9005" ry="4.15237" transform="matrix(0.913137 -0.407653 0.405393 0.914143 40.6371 112.408)" fill="url(#paint10_linear_7851_9350)"/>
<g opacity="0.7" filter="url(#filter15_f_7851_9350)">
<path d="M46.5841 102.741V165.069" stroke="url(#paint11_linear_7851_9350)" stroke-width="1.96834"/>
</g>
<g opacity="0.7" filter="url(#filter16_f_7851_9350)">
<path d="M50.8844 102.741V165.069" stroke="url(#paint12_linear_7851_9350)" stroke-width="1.96834"/>
</g>
</g>
<defs>
<filter id="filter0_f_7851_9350" x="-12.1223" y="-34.3372" width="125.394" height="95.8766" filterUnits="userSpaceOnUse" color-interpolation-filters="sRGB">
<feFlood flood-opacity="0" result="BackgroundImageFix"/>
<feBlend mode="normal" in="SourceGraphic" in2="BackgroundImageFix" result="shape"/>
<feGaussianBlur stdDeviation="8.73682" result="effect1_foregroundBlur_7851_9350"/>
</filter>
<filter id="filter1_f_7851_9350" x="-7.05329" y="12.6597" width="124.697" height="66.8475" filterUnits="userSpaceOnUse" color-interpolation-filters="sRGB">
<feFlood flood-opacity="0" result="BackgroundImageFix"/>
<feBlend mode="normal" in="SourceGraphic" in2="BackgroundImageFix" result="shape"/>
<feGaussianBlur stdDeviation="0.873682" result="effect1_foregroundBlur_7851_9350"/>
</filter>
<filter id="filter2_f_7851_9350" x="8.93708" y="-43.7046" width="167.714" height="185.659" filterUnits="userSpaceOnUse" color-interpolation-filters="sRGB">
<feFlood flood-opacity="0" result="BackgroundImageFix"/>
<feBlend mode="normal" in="SourceGraphic" in2="BackgroundImageFix" result="shape"/>
<feGaussianBlur stdDeviation="20.0947" result="effect1_foregroundBlur_7851_9350"/>
</filter>
<filter id="filter3_f_7851_9350" x="62.6176" y="-15.1331" width="55.7568" height="99.1983" filterUnits="userSpaceOnUse" color-interpolation-filters="sRGB">
<feFlood flood-opacity="0" result="BackgroundImageFix"/>
<feBlend mode="normal" in="SourceGraphic" in2="BackgroundImageFix" result="shape"/>
<feGaussianBlur stdDeviation="3.49473" result="effect1_foregroundBlur_7851_9350"/>
</filter>
<filter id="filter4_f_7851_9350" x="62.6176" y="-15.1331" width="55.7568" height="99.1983" filterUnits="userSpaceOnUse" color-interpolation-filters="sRGB">
<feFlood flood-opacity="0" result="BackgroundImageFix"/>
<feBlend mode="normal" in="SourceGraphic" in2="BackgroundImageFix" result="shape"/>
<feGaussianBlur stdDeviation="3.49473" result="effect1_foregroundBlur_7851_9350"/>
</filter>
<filter id="filter5_f_7851_9350" x="-8.73587" y="-11.581" width="55.7568" height="99.1983" filterUnits="userSpaceOnUse" color-interpolation-filters="sRGB">
<feFlood flood-opacity="0" result="BackgroundImageFix"/>
<feBlend mode="normal" in="SourceGraphic" in2="BackgroundImageFix" result="shape"/>
<feGaussianBlur stdDeviation="3.49473" result="effect1_foregroundBlur_7851_9350"/>
</filter>
<filter id="filter6_f_7851_9350" x="-1.31053" y="-1.31057" width="112.621" height="79.7295" filterUnits="userSpaceOnUse" color-interpolation-filters="sRGB">
<feFlood flood-opacity="0" result="BackgroundImageFix"/>
<feBlend mode="normal" in="SourceGraphic" in2="BackgroundImageFix" result="shape"/>
<feGaussianBlur stdDeviation="0.436841" result="effect1_foregroundBlur_7851_9350"/>
</filter>
<filter id="filter7_f_7851_9350" x="55.0272" y="53.1914" width="47.8429" height="105.709" filterUnits="userSpaceOnUse" color-interpolation-filters="sRGB">
<feFlood flood-opacity="0" result="BackgroundImageFix"/>
<feBlend mode="normal" in="SourceGraphic" in2="BackgroundImageFix" result="shape"/>
<feGaussianBlur stdDeviation="5.87286" result="effect1_foregroundBlur_7851_9350"/>
</filter>
<filter id="filter8_f_7851_9350" x="4.45865" y="53.1915" width="47.8429" height="105.709" filterUnits="userSpaceOnUse" color-interpolation-filters="sRGB">
<feFlood flood-opacity="0" result="BackgroundImageFix"/>
<feBlend mode="normal" in="SourceGraphic" in2="BackgroundImageFix" result="shape"/>
<feGaussianBlur stdDeviation="5.87286" result="effect1_foregroundBlur_7851_9350"/>
</filter>
<filter id="filter9_f_7851_9350" x="37.3894" y="72.4015" width="35.2514" height="76.5751" filterUnits="userSpaceOnUse" color-interpolation-filters="sRGB">
<feFlood flood-opacity="0" result="BackgroundImageFix"/>
<feBlend mode="normal" in="SourceGraphic" in2="BackgroundImageFix" result="shape"/>
<feGaussianBlur stdDeviation="1.06779" result="effect1_foregroundBlur_7851_9350"/>
</filter>
<filter id="filter10_f_7851_9350" x="39.5423" y="53.1915" width="47.8429" height="105.709" filterUnits="userSpaceOnUse" color-interpolation-filters="sRGB">
<feFlood flood-opacity="0" result="BackgroundImageFix"/>
<feBlend mode="normal" in="SourceGraphic" in2="BackgroundImageFix" result="shape"/>
<feGaussianBlur stdDeviation="5.87286" result="effect1_foregroundBlur_7851_9350"/>
</filter>
<filter id="filter11_f_7851_9350" x="57.6031" y="67.4811" width="12.2315" height="72.8129" filterUnits="userSpaceOnUse" color-interpolation-filters="sRGB">
<feFlood flood-opacity="0" result="BackgroundImageFix"/>
<feBlend mode="normal" in="SourceGraphic" in2="BackgroundImageFix" result="shape"/>
<feGaussianBlur stdDeviation="2.62105" result="effect1_foregroundBlur_7851_9350"/>
</filter>
<filter id="filter12_f_7851_9350" x="45.3262" y="65.7337" width="17.4737" height="76.3077" filterUnits="userSpaceOnUse" color-interpolation-filters="sRGB">
<feFlood flood-opacity="0" result="BackgroundImageFix"/>
<feBlend mode="normal" in="SourceGraphic" in2="BackgroundImageFix" result="shape"/>
<feGaussianBlur stdDeviation="3.49473" result="effect1_foregroundBlur_7851_9350"/>
</filter>
<filter id="filter13_f_7851_9350" x="57.6031" y="67.4811" width="12.2315" height="72.8129" filterUnits="userSpaceOnUse" color-interpolation-filters="sRGB">
<feFlood flood-opacity="0" result="BackgroundImageFix"/>
<feBlend mode="normal" in="SourceGraphic" in2="BackgroundImageFix" result="shape"/>
<feGaussianBlur stdDeviation="2.62105" result="effect1_foregroundBlur_7851_9350"/>
</filter>
<filter id="filter14_f_7851_9350" x="45.3262" y="65.7337" width="17.4737" height="76.3077" filterUnits="userSpaceOnUse" color-interpolation-filters="sRGB">
<feFlood flood-opacity="0" result="BackgroundImageFix"/>
<feBlend mode="normal" in="SourceGraphic" in2="BackgroundImageFix" result="shape"/>
<feGaussianBlur stdDeviation="3.49473" result="effect1_foregroundBlur_7851_9350"/>
</filter>
<filter id="filter15_f_7851_9350" x="43.1395" y="100.28" width="6.8892" height="67.2496" filterUnits="userSpaceOnUse" color-interpolation-filters="sRGB">
<feFlood flood-opacity="0" result="BackgroundImageFix"/>
<feBlend mode="normal" in="SourceGraphic" in2="BackgroundImageFix" result="shape"/>
<feGaussianBlur stdDeviation="1.23022" result="effect1_foregroundBlur_7851_9350"/>
</filter>
<filter id="filter16_f_7851_9350" x="45.9635" y="98.8039" width="9.84172" height="70.2021" filterUnits="userSpaceOnUse" color-interpolation-filters="sRGB">
<feFlood flood-opacity="0" result="BackgroundImageFix"/>
<feBlend mode="normal" in="SourceGraphic" in2="BackgroundImageFix" result="shape"/>
<feGaussianBlur stdDeviation="1.96834" result="effect1_foregroundBlur_7851_9350"/>
</filter>
<linearGradient id="paint0_linear_7851_9350" x1="83.9524" y1="7.68043" x2="17.4932" y2="11.0091" gradientUnits="userSpaceOnUse">
<stop stop-color="white"/>
<stop offset="1" stop-color="white" stop-opacity="0"/>
</linearGradient>
<linearGradient id="paint1_linear_7851_9350" x1="89.2524" y1="51.9244" x2="72.5507" y2="74.3698" gradientUnits="userSpaceOnUse">
<stop stop-color="white"/>
<stop offset="1" stop-color="white" stop-opacity="0"/>
</linearGradient>
<linearGradient id="paint2_linear_7851_9350" x1="89.2524" y1="51.9244" x2="72.5507" y2="74.3698" gradientUnits="userSpaceOnUse">
<stop stop-color="white"/>
<stop offset="1" stop-color="white" stop-opacity="0"/>
</linearGradient>
<linearGradient id="paint3_linear_7851_9350" x1="20.3863" y1="55.4766" x2="37.0879" y2="77.922" gradientUnits="userSpaceOnUse">
<stop stop-color="white"/>
<stop offset="1" stop-color="white" stop-opacity="0"/>
</linearGradient>
<linearGradient id="paint4_linear_7851_9350" x1="54.9998" y1="0" x2="54.9998" y2="6.21294" gradientUnits="userSpaceOnUse">
<stop stop-color="#0084FE"/>
<stop offset="1" stop-color="#0084FE" stop-opacity="0"/>
</linearGradient>
<linearGradient id="paint5_linear_7851_9350" x1="55.0151" y1="70.6856" x2="55.0151" y2="75.6626" gradientUnits="userSpaceOnUse">
<stop stop-color="white"/>
<stop offset="1" stop-color="white" stop-opacity="0"/>
</linearGradient>
<linearGradient id="paint6_linear_7851_9350" x1="64.2189" y1="72.7231" x2="64.2189" y2="135.052" gradientUnits="userSpaceOnUse">
<stop stop-color="white" stop-opacity="0.28"/>
<stop offset="1" stop-color="white"/>
</linearGradient>
<linearGradient id="paint7_linear_7851_9350" x1="54.5631" y1="72.7231" x2="54.5631" y2="135.052" gradientUnits="userSpaceOnUse">
<stop stop-color="white" stop-opacity="0.37"/>
<stop offset="1" stop-color="white"/>
</linearGradient>
<linearGradient id="paint8_linear_7851_9350" x1="64.2189" y1="72.7231" x2="64.2189" y2="135.052" gradientUnits="userSpaceOnUse">
<stop stop-color="white" stop-opacity="0.28"/>
<stop offset="1" stop-color="white"/>
</linearGradient>
<linearGradient id="paint9_linear_7851_9350" x1="54.5631" y1="72.7231" x2="54.5631" y2="135.052" gradientUnits="userSpaceOnUse">
<stop stop-color="white" stop-opacity="0.37"/>
<stop offset="1" stop-color="white"/>
</linearGradient>
<linearGradient id="paint10_linear_7851_9350" x1="25.9739" y1="4.3446" x2="2.33202" y2="3.763" gradientUnits="userSpaceOnUse">
<stop stop-color="#001A56"/>
<stop offset="1" stop-color="#0084FE"/>
</linearGradient>
<linearGradient id="paint11_linear_7851_9350" x1="47.0841" y1="102.741" x2="47.0841" y2="165.069" gradientUnits="userSpaceOnUse">
<stop stop-color="white" stop-opacity="0.37"/>
<stop offset="1" stop-color="white"/>
</linearGradient>
<linearGradient id="paint12_linear_7851_9350" x1="51.3844" y1="102.741" x2="51.3844" y2="165.069" gradientUnits="userSpaceOnUse">
<stop stop-color="white" stop-opacity="0.37"/>
<stop offset="1" stop-color="white"/>
</linearGradient>
</defs>
</svg>
