<svg width="48" height="48" viewBox="0 0 48 48" fill="none" xmlns="http://www.w3.org/2000/svg">
<rect x="0.769231" y="0.769231" width="46.4615" height="46.4615" rx="11.5385" fill="#F1F3F7" stroke="#353E5C" stroke-width="1.53846"/>
<mask id="mask0_5462_57347" style="mask-type:alpha" maskUnits="userSpaceOnUse" x="1" y="1" width="46" height="46">
<rect x="1.68091" y="1.84967" width="44.6131" height="44.6024" rx="10.7692" fill="#E3EFFF"/>
</mask>
<g mask="url(#mask0_5462_57347)">
<line x1="32.8207" y1="6.10127e-05" x2="32.8207" y2="50.0481" stroke="#B4B9C9" stroke-width="1.02564"/>
<line x1="41.1283" y1="6.10127e-05" x2="41.1283" y2="50.0481" stroke="#B4B9C9" stroke-width="1.02564"/>
<line x1="24.5131" y1="6.10127e-05" x2="24.5131" y2="50.0481" stroke="#B4B9C9" stroke-width="1.02564"/>
<line x1="7.89759" y1="6.10127e-05" x2="7.89759" y2="50.0481" stroke="#B4B9C9" stroke-width="1.02564"/>
<line x1="16.2052" y1="6.10127e-05" x2="16.2052" y2="50.0481" stroke="#B4B9C9" stroke-width="1.02564"/>
<line x1="-1.02393" y1="16.2035" x2="49.0242" y2="16.2035" stroke="#B4B9C9" stroke-width="1.02564"/>
<line x1="-1.02393" y1="7.89581" x2="49.0242" y2="7.89581" stroke="#B4B9C9" stroke-width="1.02564"/>
<line x1="-1.02393" y1="24.5112" x2="49.0242" y2="24.5112" stroke="#B4B9C9" stroke-width="1.02564"/>
<line x1="-1.02393" y1="41.1266" x2="49.0242" y2="41.1266" stroke="#B4B9C9" stroke-width="1.02564"/>
<line x1="-1.02393" y1="32.819" x2="49.0242" y2="32.819" stroke="#B4B9C9" stroke-width="1.02564"/>
<rect x="1.41211" y="1.53467" width="45.0024" height="44.9916" rx="10.7692" fill="url(#paint0_radial_5462_57347)"/>
</g>
<path d="M14.7617 28.2908L16.356 28.5405C17.5328 28.7247 18.3733 29.8027 18.2866 31.017L18.1692 32.663C18.135 33.1425 18.3904 33.594 18.8135 33.8028L19.9927 34.3837C20.4157 34.5925 20.9209 34.5143 21.2665 34.1889L22.4514 33.0691C23.325 32.2432 24.6729 32.2432 25.5475 33.0691L26.7323 34.1889C27.0779 34.5156 27.582 34.5925 28.0062 34.3837L29.1876 33.8016C29.6096 33.594 29.8639 33.1437 29.8297 32.6655L29.7121 31.017C29.6255 29.8027 30.466 28.7247 31.6428 28.5405L33.2371 28.2908C33.7013 28.2185 34.0754 27.8627 34.1802 27.3937L34.471 26.0896C34.576 25.6206 34.3901 25.1341 34.0024 24.8635L32.6715 23.9314C31.6896 23.2431 31.3897 21.8993 31.9827 20.8435L32.7867 19.4133C33.0204 18.9968 32.9818 18.4754 32.6886 18.0998L31.8733 17.0533C31.5801 16.6777 31.0921 16.5226 30.6428 16.6637L29.101 17.1467C27.9618 17.5036 26.7472 16.9052 26.3093 15.7725L25.7185 14.2408C25.5452 13.7928 25.1221 13.4988 24.6511 13.5L23.3442 13.5035C22.8732 13.5047 22.4514 13.801 22.2803 14.2501L21.7043 15.7643C21.271 16.904 20.0508 17.5071 18.9081 17.1478L17.3025 16.6439C16.852 16.5016 16.3617 16.6579 16.0686 17.0359L15.2589 18.0834C14.9658 18.4625 14.9305 18.9852 15.1688 19.4016L15.991 20.8353C16.5966 21.8922 16.3001 23.2489 15.3125 23.9408L13.9976 24.8623C13.6099 25.1341 13.424 25.6206 13.5289 26.0884L13.8197 27.3926C13.9235 27.8627 14.2975 28.2185 14.7617 28.2908Z" fill="white" stroke="#353E5C" stroke-width="1.23077" stroke-linecap="round" stroke-linejoin="round"/>
<path d="M26.3044 21.6957C27.5767 22.9681 27.5767 25.0319 26.3044 26.3044C25.032 27.5767 22.9682 27.5767 21.6957 26.3044C20.4234 25.0319 20.4234 22.9681 21.6957 21.6957C22.9682 20.4233 25.032 20.4233 26.3044 21.6957Z" fill="#B4B9C9" stroke="#353E5C" stroke-width="1.23077" stroke-linecap="round" stroke-linejoin="round"/>
<defs>
<radialGradient id="paint0_radial_5462_57347" cx="0" cy="0" r="1" gradientUnits="userSpaceOnUse" gradientTransform="translate(23.9133 24.0305) rotate(90) scale(22.4958 22.5012)">
<stop stop-color="#F6FAFD" stop-opacity="0.28"/>
<stop offset="1" stop-color="#F6FAFD"/>
</radialGradient>
</defs>
</svg>
