<svg width="48" height="48" viewBox="0 0 48 48" fill="none" xmlns="http://www.w3.org/2000/svg">
<rect x="0.769231" y="0.769231" width="46.4615" height="46.4615" rx="11.5385" fill="#F1F3F7" stroke="#353E5C" stroke-width="1.53846"/>
<mask id="mask0_5462_57770" style="mask-type:alpha" maskUnits="userSpaceOnUse" x="1" y="1" width="46" height="46">
<rect x="1.68079" y="1.84967" width="44.6131" height="44.6024" rx="10.7692" fill="#F1F4FF"/>
</mask>
<g mask="url(#mask0_5462_57770)">
<line x1="32.8077" y1="6.10133e-05" x2="32.8077" y2="50.0481" stroke="#B4B9C9"/>
<line x1="41.1155" y1="6.10133e-05" x2="41.1155" y2="50.0481" stroke="#B4B9C9"/>
<line x1="24.5" y1="6.10133e-05" x2="24.5" y2="50.0481" stroke="#B4B9C9"/>
<line x1="7.88464" y1="6.10133e-05" x2="7.88465" y2="50.0481" stroke="#B4B9C9"/>
<line x1="16.1924" y1="6.10133e-05" x2="16.1924" y2="50.0481" stroke="#B4B9C9"/>
<line x1="-1.02405" y1="16.2164" x2="49.024" y2="16.2164" stroke="#B4B9C9"/>
<line x1="-1.02405" y1="7.90863" x2="49.024" y2="7.90863" stroke="#B4B9C9"/>
<line x1="-1.02405" y1="24.524" x2="49.024" y2="24.524" stroke="#B4B9C9"/>
<line x1="-1.02405" y1="41.1394" x2="49.024" y2="41.1394" stroke="#B4B9C9"/>
<line x1="-1.02405" y1="32.8318" x2="49.024" y2="32.8318" stroke="#B4B9C9"/>
<rect x="1.41187" y="1.53467" width="45.0024" height="44.9916" rx="10.7692" fill="url(#paint0_radial_5462_57770)"/>
</g>
<rect x="12.9673" y="27.1887" width="5.53323" height="6.69625" rx="1.385" fill="white" stroke="#353E5C" stroke-width="1.23"/>
<rect x="21.2334" y="20.128" width="5.53323" height="13.757" rx="1.385" fill="white" stroke="#353E5C" stroke-width="1.23"/>
<rect x="29.4996" y="14.115" width="5.53323" height="19.77" rx="1.385" fill="#B4B9C9" stroke="#353E5C" stroke-width="1.23"/>
<defs>
<radialGradient id="paint0_radial_5462_57770" cx="0" cy="0" r="1" gradientUnits="userSpaceOnUse" gradientTransform="translate(23.9131 24.0305) rotate(90) scale(22.4958 22.5012)">
<stop stop-color="#F6FAFD" stop-opacity="0.28"/>
<stop offset="1" stop-color="#F6FAFD"/>
</radialGradient>
</defs>
</svg>
