<svg width="65" height="65" viewBox="0 0 65 65" fill="none" xmlns="http://www.w3.org/2000/svg">
<ellipse cx="32.1951" cy="32.1951" rx="28" ry="28" transform="rotate(-9.39498 32.1951 32.1951)" fill="#00BA57"/>
<mask id="mask0_7893_17399" style="mask-type:alpha" maskUnits="userSpaceOnUse" x="4" y="4" width="57" height="57">
<ellipse cx="32.1951" cy="32.1951" rx="28" ry="28" transform="rotate(-9.39498 32.1951 32.1951)" fill="#0F44E8"/>
</mask>
<g mask="url(#mask0_7893_17399)">
<g filter="url(#filter0_f_7893_17399)">
<ellipse cx="31.3781" cy="27.2469" rx="45.4817" ry="45.4817" transform="rotate(-9.39498 31.3781 27.2469)" fill="#0FDD55"/>
</g>
<g filter="url(#filter1_f_7893_17399)">
<ellipse cx="35.0463" cy="49.4428" rx="17.3356" ry="17.3357" transform="rotate(-9.39498 35.0463 49.4428)" fill="#00BA57"/>
</g>
<g style="mix-blend-mode:overlay" opacity="0.7" filter="url(#filter2_f_7893_17399)">
<path d="M68.5604 37.2839C71.72 56.3803 58.8008 74.4223 39.7045 77.582C20.6081 80.7416 2.5661 67.8224 -0.593562 48.7261C-3.75322 29.6297 9.16601 11.5877 28.2623 8.42802C47.3587 5.26836 65.4007 18.1876 68.5604 37.2839Z" stroke="white" stroke-width="12.6884"/>
</g>
<g opacity="0.7" filter="url(#filter3_f_7893_17399)">
<path d="M67.8852 34.0394C71.0323 53.0599 58.1644 71.0303 39.1439 74.1774C20.1234 77.3245 2.15299 64.4566 -0.994125 45.4361C-4.14124 26.4156 8.72668 8.44521 27.7472 5.2981C46.7677 2.15099 64.7381 15.0189 67.8852 34.0394Z" stroke="white" stroke-width="6.34421"/>
</g>
<g filter="url(#filter4_f_7893_17399)">
<path d="M41.4731 27.1556C42.4866 33.281 38.3426 39.0682 32.2172 40.0817C26.0918 41.0952 20.3046 36.9512 19.2911 30.8258C18.2776 24.7004 22.4216 18.9132 28.547 17.8997C34.6724 16.8862 40.4596 21.0302 41.4731 27.1556Z" stroke="url(#paint0_linear_7893_17399)" stroke-width="6.34421"/>
</g>
<g filter="url(#filter5_f_7893_17399)">
<path d="M26.2743 21.0901C34.8644 18.6677 43.7918 23.6676 46.2142 32.2577C48.6366 40.8478 43.6367 49.7752 35.0466 52.1976C26.4565 54.6201 17.5291 49.6202 15.1067 41.03C12.6843 32.4399 17.6842 23.5125 26.2743 21.0901Z" stroke="url(#paint1_linear_7893_17399)" stroke-width="6.34421"/>
</g>
</g>
<defs>
<filter id="filter0_f_7893_17399" x="-25.2118" y="-29.3443" width="113.181" height="113.182" filterUnits="userSpaceOnUse" color-interpolation-filters="sRGB">
<feFlood flood-opacity="0" result="BackgroundImageFix"/>
<feBlend mode="normal" in="SourceGraphic" in2="BackgroundImageFix" result="shape"/>
<feGaussianBlur stdDeviation="5.55119" result="effect1_foregroundBlur_7893_17399"/>
</filter>
<filter id="filter1_f_7893_17399" x="-2.91167" y="11.4857" width="75.9132" height="75.914" filterUnits="userSpaceOnUse" color-interpolation-filters="sRGB">
<feFlood flood-opacity="0" result="BackgroundImageFix"/>
<feBlend mode="normal" in="SourceGraphic" in2="BackgroundImageFix" result="shape"/>
<feGaussianBlur stdDeviation="10.3093" result="effect1_foregroundBlur_7893_17399"/>
</filter>
<filter id="filter2_f_7893_17399" x="-18.5164" y="-9.49508" width="105.002" height="105" filterUnits="userSpaceOnUse" color-interpolation-filters="sRGB">
<feFlood flood-opacity="0" result="BackgroundImageFix"/>
<feBlend mode="normal" in="SourceGraphic" in2="BackgroundImageFix" result="shape"/>
<feGaussianBlur stdDeviation="5.55119" result="effect1_foregroundBlur_7893_17399"/>
</filter>
<filter id="filter3_f_7893_17399" x="-12.5709" y="-6.27841" width="92.0324" height="92.0324" filterUnits="userSpaceOnUse" color-interpolation-filters="sRGB">
<feFlood flood-opacity="0" result="BackgroundImageFix"/>
<feBlend mode="normal" in="SourceGraphic" in2="BackgroundImageFix" result="shape"/>
<feGaussianBlur stdDeviation="3.96513" result="effect1_foregroundBlur_7893_17399"/>
</filter>
<filter id="filter4_f_7893_17399" x="8.03458" y="6.64432" width="44.6926" height="44.6928" filterUnits="userSpaceOnUse" color-interpolation-filters="sRGB">
<feFlood flood-opacity="0" result="BackgroundImageFix"/>
<feBlend mode="normal" in="SourceGraphic" in2="BackgroundImageFix" result="shape"/>
<feGaussianBlur stdDeviation="3.96513" result="effect1_foregroundBlur_7893_17399"/>
</filter>
<filter id="filter5_f_7893_17399" x="3.39395" y="9.37619" width="54.5324" height="54.5354" filterUnits="userSpaceOnUse" color-interpolation-filters="sRGB">
<feFlood flood-opacity="0" result="BackgroundImageFix"/>
<feBlend mode="normal" in="SourceGraphic" in2="BackgroundImageFix" result="shape"/>
<feGaussianBlur stdDeviation="3.96513" result="effect1_foregroundBlur_7893_17399"/>
</filter>
<linearGradient id="paint0_linear_7893_17399" x1="28.0292" y1="14.7701" x2="29.538" y2="23.8894" gradientUnits="userSpaceOnUse">
<stop stop-color="white"/>
<stop offset="1" stop-color="white" stop-opacity="0"/>
</linearGradient>
<linearGradient id="paint1_linear_7893_17399" x1="12.0537" y1="41.891" x2="23.9856" y2="38.5262" gradientUnits="userSpaceOnUse">
<stop stop-color="white"/>
<stop offset="1" stop-color="white" stop-opacity="0"/>
</linearGradient>
</defs>
</svg>
