<svg width="88" height="120" viewBox="0 0 88 120" fill="none" xmlns="http://www.w3.org/2000/svg">
<path fill-rule="evenodd" clip-rule="evenodd" d="M23.823 82.5023C44.592 91.9105 69.3917 81.8585 79.2148 60.0506C89.038 38.2426 80.1646 12.937 59.3957 3.52882C38.6267 -5.87936 13.827 4.17263 4.00388 25.9806C-5.81923 47.7885 3.05411 73.0941 23.823 82.5023ZM28.5609 71.9784C42.8103 78.4333 60.2027 70.6988 67.4078 54.7029C74.613 38.7071 68.9025 20.5072 54.653 14.0523C40.4036 7.5974 23.0113 15.3319 15.8061 31.3277C8.60098 47.3236 14.3115 65.5235 28.5609 71.9784Z" fill="#5BA6FF"/>
<mask id="mask0_7851_10971" style="mask-type:alpha" maskUnits="userSpaceOnUse" x="0" y="0" width="84" height="87">
<path fill-rule="evenodd" clip-rule="evenodd" d="M23.823 82.5023C44.592 91.9105 69.3917 81.8585 79.2148 60.0506C89.038 38.2426 80.1646 12.937 59.3957 3.52882C38.6267 -5.87936 13.827 4.17263 4.00388 25.9806C-5.81923 47.7885 3.05411 73.0941 23.823 82.5023ZM28.5609 71.9784C42.8103 78.4333 60.2027 70.6988 67.4078 54.7029C74.613 38.7071 68.9025 20.5072 54.653 14.0523C40.4036 7.5974 23.0113 15.3319 15.8061 31.3277C8.60098 47.3236 14.3115 65.5235 28.5609 71.9784Z" fill="#FF2B2A"/>
</mask>
<g mask="url(#mask0_7851_10971)">
<g opacity="0.5" filter="url(#filter0_f_7851_10971)">
<ellipse cx="65.5306" cy="14.3611" rx="22.535" ry="22.5988" fill="white"/>
</g>
<g filter="url(#filter1_f_7851_10971)">
<ellipse cx="35.9251" cy="40.5382" rx="43.6952" ry="45.1883" fill="#0084FE"/>
</g>
<g opacity="0.5" filter="url(#filter2_f_7851_10971)">
<path d="M66.9072 54.4763C59.0849 71.8422 40.2602 80.1439 24.9223 73.196C9.58449 66.248 3.35146 46.5954 11.1737 29.2295C18.996 11.8635 37.8207 3.56184 53.1586 10.5098C68.4964 17.4577 74.7294 37.1103 66.9072 54.4763Z" stroke="url(#paint0_linear_7851_10971)" stroke-width="1.10081"/>
</g>
<g opacity="0.5" filter="url(#filter3_f_7851_10971)">
<path d="M66.9078 54.4764C59.0883 71.8361 40.2704 80.1347 24.9381 73.1893C9.60577 66.2439 3.37497 46.5984 11.1944 29.2386C19.0139 11.8789 37.8318 3.58026 53.1642 10.5257C68.4965 17.4711 74.7273 37.1166 66.9078 54.4764Z" stroke="url(#paint1_linear_7851_10971)" stroke-width="1.10081"/>
</g>
<g opacity="0.6" filter="url(#filter4_f_7851_10971)">
<path d="M76.261 57.8921C66.8276 78.8347 43.0363 88.4491 23.1485 79.44C3.26066 70.431 -5.27348 46.1735 4.15989 25.2308C13.5933 4.28811 37.3846 -5.32622 57.2724 3.68282C77.1602 12.6919 85.6944 36.9494 76.261 57.8921Z" stroke="url(#paint2_linear_7851_10971)" stroke-width="1.10081"/>
</g>
<g opacity="0.5" filter="url(#filter5_f_7851_10971)">
<ellipse cx="28.2704" cy="31.9347" rx="28.2704" ry="31.9347" transform="matrix(0.910899 0.41263 -0.410697 0.911772 29.0201 2.26227)" stroke="url(#paint3_linear_7851_10971)" stroke-width="2.40518"/>
</g>
<g opacity="0.6" filter="url(#filter6_f_7851_10971)">
<path d="M78.5985 59.862C68.8827 81.4316 44.4005 91.3436 23.9435 82.0767C3.48656 72.8099 -5.28162 47.8357 4.43416 26.2661C14.1499 4.69648 38.6321 -5.21549 59.0891 4.05137C79.5461 13.3182 88.3142 38.2924 78.5985 59.862Z" stroke="url(#paint4_linear_7851_10971)" stroke-width="1.10081"/>
</g>
</g>
<path fill-rule="evenodd" clip-rule="evenodd" d="M64.7183 80.3891L61.7738 75.2747L61.7726 75.2754C61.7673 75.2655 61.7618 75.2557 61.7562 75.246C61.1898 74.2621 59.3452 74.2667 57.6361 75.2562C55.9271 76.2457 55.0008 77.8455 55.5672 78.8293C55.575 78.8427 55.5829 78.856 55.5911 78.869L58.5293 83.9725L64.7183 80.3891Z" fill="white"/>
<mask id="mask1_7851_10971" style="mask-type:alpha" maskUnits="userSpaceOnUse" x="55" y="74" width="10" height="10">
<path fill-rule="evenodd" clip-rule="evenodd" d="M64.7183 80.3891L61.7738 75.2747L61.7726 75.2754C61.7673 75.2655 61.7618 75.2557 61.7562 75.246C61.1898 74.2621 59.3452 74.2667 57.6361 75.2562C55.9271 76.2457 55.0008 77.8455 55.5672 78.8293C55.575 78.8427 55.5829 78.856 55.5911 78.869L58.5293 83.9725L64.7183 80.3891Z" fill="#D9D9D9"/>
</mask>
<g mask="url(#mask1_7851_10971)">
<path fill-rule="evenodd" clip-rule="evenodd" d="M64.7183 80.3891L61.7738 75.2747L61.7726 75.2754C61.7673 75.2655 61.7618 75.2557 61.7562 75.246C61.1898 74.2621 59.3452 74.2667 57.6361 75.2562C55.9271 76.2457 55.0008 77.8455 55.5672 78.8293C55.575 78.8427 55.5829 78.856 55.5911 78.869L58.5293 83.9725L64.7183 80.3891Z" fill="white"/>
<path opacity="0.5" fill-rule="evenodd" clip-rule="evenodd" d="M64.7183 80.3891L61.7738 75.2747L61.7726 75.2754C61.7673 75.2655 61.7618 75.2557 61.7562 75.246C61.1898 74.2621 59.3452 74.2667 57.6361 75.2562C55.9271 76.2457 55.0008 77.8455 55.5672 78.8293C55.575 78.8427 55.5829 78.856 55.5911 78.869L58.5293 83.9725L64.7183 80.3891Z" fill="url(#paint5_linear_7851_10971)"/>
<g filter="url(#filter7_f_7851_10971)">
<path d="M54.5401 77.0477L59.0395 84.8631" stroke="white" stroke-width="0.540249"/>
</g>
<g filter="url(#filter8_f_7851_10971)">
<path d="M54.5401 77.0477L59.0395 84.8631" stroke="white" stroke-width="0.540249"/>
</g>
</g>
<path d="M56.8243 89.7979C56.1934 88.7021 56.0528 87.39 56.437 86.1837L56.522 85.9168C58.0409 81.1475 63.0118 78.3935 67.846 79.643V79.643C68.9762 79.9351 69.9414 80.6702 70.5245 81.6831L84.6946 106.296C85.326 107.393 85.3347 108.742 84.7173 109.849V109.849C82.6399 113.571 78.7473 115.911 74.4938 115.993L74.1548 116C72.7844 116.026 71.5089 115.304 70.8243 114.115L56.8243 89.7979Z" fill="#0084FE"/>
<mask id="mask2_7851_10971" style="mask-type:alpha" maskUnits="userSpaceOnUse" x="56" y="79" width="30" height="37">
<path d="M56.8312 89.7976C56.2003 88.7018 56.0597 87.3897 56.4439 86.1834L56.5288 85.9166C58.0478 81.1473 63.0186 78.3933 67.8529 79.6427V79.6427C68.9831 79.9349 69.9482 80.67 70.5314 81.6829L84.7015 106.296C85.3329 107.393 85.3415 108.742 84.7242 109.848V109.848C82.6468 113.571 78.7541 115.911 74.5007 115.993L74.1616 115.999C72.7913 116.026 71.5157 115.304 70.8312 114.115L56.8312 89.7976Z" fill="#FF2B2A"/>
</mask>
<g mask="url(#mask2_7851_10971)">
<g opacity="0.5" filter="url(#filter9_f_7851_10971)">
<rect width="42.1724" height="12.5151" transform="matrix(0.49894 0.866637 -0.865412 0.501061 75.6898 69.42)" fill="white"/>
</g>
<g opacity="0.5" filter="url(#filter10_f_7851_10971)">
<rect width="42.1724" height="12.5151" transform="matrix(0.49894 0.866637 -0.865412 0.501061 53.2031 82.4412)" fill="white"/>
</g>
<g filter="url(#filter11_f_7851_10971)">
<path d="M70.7741 82.6511L85.131 107.588C86.0068 109.11 85.6698 111.042 84.3306 112.179C82.0696 114.097 79.4955 115.609 76.7217 116.649L76.4235 116.761C74.6385 117.43 72.6338 116.71 71.6823 115.057L57.5415 90.4952C56.9485 89.4652 56.8164 88.232 57.1775 87.0982L57.2625 86.8314C58.7378 82.1988 63.5661 79.5238 68.2617 80.7375C69.3219 81.0115 70.2272 81.701 70.7741 82.6511Z" stroke="url(#paint6_linear_7851_10971)" stroke-width="0.540249"/>
</g>
<g opacity="0.4" filter="url(#filter12_f_7851_10971)">
<ellipse cx="4.04484" cy="9.01671" rx="4.04484" ry="9.01671" transform="matrix(0.49894 0.866637 -0.865412 0.501061 84.6305 103.97)" fill="white"/>
</g>
<g opacity="0.3" filter="url(#filter13_f_7851_10971)">
<ellipse cx="3.26571" cy="7.15148" rx="3.26571" ry="7.15148" transform="matrix(0.49894 0.866637 -0.865412 0.501061 83.1228 105.189)" fill="white"/>
</g>
<g filter="url(#filter14_f_7851_10971)">
<path d="M80.0578 114.198C78.3744 115.173 76.6818 115.736 75.3136 115.868C73.9192 116.003 72.9729 115.684 72.608 115.05C72.2431 114.416 72.4413 113.435 73.2545 112.292C74.0524 111.169 75.3852 109.981 77.0686 109.006C78.752 108.032 80.4446 107.468 81.8128 107.336C83.2072 107.202 84.1535 107.521 84.5184 108.154C84.8833 108.788 84.6851 109.769 83.8719 110.913C83.074 112.035 81.7412 113.224 80.0578 114.198Z" stroke="url(#paint7_linear_7851_10971)" stroke-width="0.540249"/>
</g>
</g>
<defs>
<filter id="filter0_f_7851_10971" x="30.9697" y="-20.2636" width="69.1218" height="69.2495" filterUnits="userSpaceOnUse" color-interpolation-filters="sRGB">
<feFlood flood-opacity="0" result="BackgroundImageFix"/>
<feBlend mode="normal" in="SourceGraphic" in2="BackgroundImageFix" result="shape"/>
<feGaussianBlur stdDeviation="6.01296" result="effect1_foregroundBlur_7851_10971"/>
</filter>
<filter id="filter1_f_7851_10971" x="-9.3736" y="-6.2536" width="90.5974" height="93.5836" filterUnits="userSpaceOnUse" color-interpolation-filters="sRGB">
<feFlood flood-opacity="0" result="BackgroundImageFix"/>
<feBlend mode="normal" in="SourceGraphic" in2="BackgroundImageFix" result="shape"/>
<feGaussianBlur stdDeviation="0.801728" result="effect1_foregroundBlur_7851_10971"/>
</filter>
<filter id="filter2_f_7851_10971" x="5.59397" y="5.85257" width="66.8929" height="72.0007" filterUnits="userSpaceOnUse" color-interpolation-filters="sRGB">
<feFlood flood-opacity="0" result="BackgroundImageFix"/>
<feBlend mode="normal" in="SourceGraphic" in2="BackgroundImageFix" result="shape"/>
<feGaussianBlur stdDeviation="0.825605" result="effect1_foregroundBlur_7851_10971"/>
</filter>
<filter id="filter3_f_7851_10971" x="5.61588" y="5.86936" width="66.8705" height="71.9763" filterUnits="userSpaceOnUse" color-interpolation-filters="sRGB">
<feFlood flood-opacity="0" result="BackgroundImageFix"/>
<feBlend mode="normal" in="SourceGraphic" in2="BackgroundImageFix" result="shape"/>
<feGaussianBlur stdDeviation="0.825605" result="effect1_foregroundBlur_7851_10971"/>
</filter>
<filter id="filter4_f_7851_10971" x="-1.88436" y="-1.90017" width="84.1896" height="86.9232" filterUnits="userSpaceOnUse" color-interpolation-filters="sRGB">
<feFlood flood-opacity="0" result="BackgroundImageFix"/>
<feBlend mode="normal" in="SourceGraphic" in2="BackgroundImageFix" result="shape"/>
<feGaussianBlur stdDeviation="0.825605" result="effect1_foregroundBlur_7851_10971"/>
</filter>
<filter id="filter5_f_7851_10971" x="9.90232" y="8.80936" width="63.5076" height="68.4706" filterUnits="userSpaceOnUse" color-interpolation-filters="sRGB">
<feFlood flood-opacity="0" result="BackgroundImageFix"/>
<feBlend mode="normal" in="SourceGraphic" in2="BackgroundImageFix" result="shape"/>
<feGaussianBlur stdDeviation="0.825605" result="effect1_foregroundBlur_7851_10971"/>
</filter>
<filter id="filter6_f_7851_10971" x="-1.72976" y="-1.62429" width="86.4921" height="89.3767" filterUnits="userSpaceOnUse" color-interpolation-filters="sRGB">
<feFlood flood-opacity="0" result="BackgroundImageFix"/>
<feBlend mode="normal" in="SourceGraphic" in2="BackgroundImageFix" result="shape"/>
<feGaussianBlur stdDeviation="0.825605" result="effect1_foregroundBlur_7851_10971"/>
</filter>
<filter id="filter7_f_7851_10971" x="53.2258" y="75.8319" width="7.12798" height="10.2471" filterUnits="userSpaceOnUse" color-interpolation-filters="sRGB">
<feFlood flood-opacity="0" result="BackgroundImageFix"/>
<feBlend mode="normal" in="SourceGraphic" in2="BackgroundImageFix" result="shape"/>
<feGaussianBlur stdDeviation="0.540249" result="effect1_foregroundBlur_7851_10971"/>
</filter>
<filter id="filter8_f_7851_10971" x="53.2258" y="75.8319" width="7.12798" height="10.2471" filterUnits="userSpaceOnUse" color-interpolation-filters="sRGB">
<feFlood flood-opacity="0" result="BackgroundImageFix"/>
<feBlend mode="normal" in="SourceGraphic" in2="BackgroundImageFix" result="shape"/>
<feGaussianBlur stdDeviation="0.540249" result="effect1_foregroundBlur_7851_10971"/>
</filter>
<filter id="filter9_f_7851_10971" x="58.9163" y="63.4773" width="43.7577" height="54.7045" filterUnits="userSpaceOnUse" color-interpolation-filters="sRGB">
<feFlood flood-opacity="0" result="BackgroundImageFix"/>
<feBlend mode="normal" in="SourceGraphic" in2="BackgroundImageFix" result="shape"/>
<feGaussianBlur stdDeviation="2.97137" result="effect1_foregroundBlur_7851_10971"/>
</filter>
<filter id="filter10_f_7851_10971" x="36.4296" y="76.4984" width="43.7577" height="54.7045" filterUnits="userSpaceOnUse" color-interpolation-filters="sRGB">
<feFlood flood-opacity="0" result="BackgroundImageFix"/>
<feBlend mode="normal" in="SourceGraphic" in2="BackgroundImageFix" result="shape"/>
<feGaussianBlur stdDeviation="2.97137" result="effect1_foregroundBlur_7851_10971"/>
</filter>
<filter id="filter11_f_7851_10971" x="55.6273" y="79.0947" width="31.3389" height="39.2659" filterUnits="userSpaceOnUse" color-interpolation-filters="sRGB">
<feFlood flood-opacity="0" result="BackgroundImageFix"/>
<feBlend mode="normal" in="SourceGraphic" in2="BackgroundImageFix" result="shape"/>
<feGaussianBlur stdDeviation="0.540249" result="effect1_foregroundBlur_7851_10971"/>
</filter>
<filter id="filter12_f_7851_10971" x="66.4616" y="101.953" width="24.7678" height="20.0812" filterUnits="userSpaceOnUse" color-interpolation-filters="sRGB">
<feFlood flood-opacity="0" result="BackgroundImageFix"/>
<feBlend mode="normal" in="SourceGraphic" in2="BackgroundImageFix" result="shape"/>
<feGaussianBlur stdDeviation="2.161" result="effect1_foregroundBlur_7851_10971"/>
</filter>
<filter id="filter13_f_7851_10971" x="71.0812" y="105.956" width="14.9639" height="11.2937" filterUnits="userSpaceOnUse" color-interpolation-filters="sRGB">
<feFlood flood-opacity="0" result="BackgroundImageFix"/>
<feBlend mode="normal" in="SourceGraphic" in2="BackgroundImageFix" result="shape"/>
<feGaussianBlur stdDeviation="0.540249" result="effect1_foregroundBlur_7851_10971"/>
</filter>
<filter id="filter14_f_7851_10971" x="71.0812" y="105.956" width="14.9639" height="11.2937" filterUnits="userSpaceOnUse" color-interpolation-filters="sRGB">
<feFlood flood-opacity="0" result="BackgroundImageFix"/>
<feBlend mode="normal" in="SourceGraphic" in2="BackgroundImageFix" result="shape"/>
<feGaussianBlur stdDeviation="0.540249" result="effect1_foregroundBlur_7851_10971"/>
</filter>
<linearGradient id="paint0_linear_7851_10971" x1="70.374" y1="38.6364" x2="50.6846" y2="54.5679" gradientUnits="userSpaceOnUse">
<stop stop-color="white"/>
<stop offset="1" stop-color="white" stop-opacity="0"/>
</linearGradient>
<linearGradient id="paint1_linear_7851_10971" x1="11.294" y1="64.4379" x2="43.3596" y2="44.1038" gradientUnits="userSpaceOnUse">
<stop stop-color="white"/>
<stop offset="1" stop-color="white" stop-opacity="0"/>
</linearGradient>
<linearGradient id="paint2_linear_7851_10971" x1="78.1442" y1="50.1168" x2="65.2483" y2="49.636" gradientUnits="userSpaceOnUse">
<stop stop-color="white"/>
<stop offset="1" stop-color="white" stop-opacity="0"/>
</linearGradient>
<linearGradient id="paint3_linear_7851_10971" x1="6.81476" y1="14.5595" x2="49.3916" y2="30.2393" gradientUnits="userSpaceOnUse">
<stop stop-color="#12366C"/>
<stop offset="1" stop-color="#12366C" stop-opacity="0"/>
</linearGradient>
<linearGradient id="paint4_linear_7851_10971" x1="21.7713" y1="11.6801" x2="34.7963" y2="28.5596" gradientUnits="userSpaceOnUse">
<stop stop-color="white"/>
<stop offset="1" stop-color="white" stop-opacity="0"/>
</linearGradient>
<linearGradient id="paint5_linear_7851_10971" x1="62.7248" y1="76.9266" x2="56.5263" y2="80.4952" gradientUnits="userSpaceOnUse">
<stop stop-color="#A6B5EA" stop-opacity="0"/>
<stop offset="1" stop-color="#A6B5EA"/>
</linearGradient>
<linearGradient id="paint6_linear_7851_10971" x1="61.1063" y1="81.2728" x2="62.3854" y2="83.4821" gradientUnits="userSpaceOnUse">
<stop stop-color="white"/>
<stop offset="1" stop-color="white" stop-opacity="0"/>
</linearGradient>
<linearGradient id="paint7_linear_7851_10971" x1="79.5049" y1="107.666" x2="79.3054" y2="109.219" gradientUnits="userSpaceOnUse">
<stop stop-color="white"/>
<stop offset="1" stop-color="white" stop-opacity="0"/>
</linearGradient>
</defs>
</svg>
