<svg width="48" height="48" viewBox="0 0 48 48" fill="none" xmlns="http://www.w3.org/2000/svg">
<rect x="0.769231" y="0.769231" width="46.4615" height="46.4615" rx="11.5385" fill="#F1F3F7" stroke="#353E5C" stroke-width="1.53846"/>
<mask id="mask0_5462_57276" style="mask-type:alpha" maskUnits="userSpaceOnUse" x="1" y="1" width="46" height="46">
<rect x="1.68091" y="1.84967" width="44.6131" height="44.6024" rx="10.7692" fill="#E3EFFF"/>
</mask>
<g mask="url(#mask0_5462_57276)">
<line x1="32.8207" y1="6.10127e-05" x2="32.8207" y2="50.0481" stroke="#B4B9C9" stroke-width="1.02564"/>
<line x1="41.1283" y1="6.10127e-05" x2="41.1283" y2="50.0481" stroke="#B4B9C9" stroke-width="1.02564"/>
<line x1="24.5131" y1="6.10127e-05" x2="24.5131" y2="50.0481" stroke="#B4B9C9" stroke-width="1.02564"/>
<line x1="7.89759" y1="6.10127e-05" x2="7.89759" y2="50.0481" stroke="#B4B9C9" stroke-width="1.02564"/>
<line x1="16.2052" y1="6.10127e-05" x2="16.2052" y2="50.0481" stroke="#B4B9C9" stroke-width="1.02564"/>
<line x1="-1.02393" y1="16.2035" x2="49.0242" y2="16.2035" stroke="#B4B9C9" stroke-width="1.02564"/>
<line x1="-1.02393" y1="7.89581" x2="49.0242" y2="7.89581" stroke="#B4B9C9" stroke-width="1.02564"/>
<line x1="-1.02393" y1="24.5112" x2="49.0242" y2="24.5112" stroke="#B4B9C9" stroke-width="1.02564"/>
<line x1="-1.02393" y1="41.1266" x2="49.0242" y2="41.1266" stroke="#B4B9C9" stroke-width="1.02564"/>
<line x1="-1.02393" y1="32.819" x2="49.0242" y2="32.819" stroke="#B4B9C9" stroke-width="1.02564"/>
<rect x="1.41211" y="1.53467" width="45.0024" height="44.9916" rx="10.7692" fill="url(#paint0_radial_5462_57276)"/>
</g>
<path d="M23.9999 13.5C18.931 13.5 16.3965 17.4828 16.3965 21.1034C16.3965 26.8966 20.7413 27.6207 20.7413 29.7931V33.0524C20.7413 33.8523 21.3897 34.5 22.1896 34.5H25.8103C26.6102 34.5 27.2586 33.8523 27.2586 33.0524V29.7931C27.2586 27.6207 31.6034 26.8966 31.6034 21.1034C31.6034 17.4828 29.0689 13.5 23.9999 13.5Z" fill="white" stroke="#353E5C" stroke-width="1.23077" stroke-linecap="round" stroke-linejoin="round"/>
<path d="M20.7412 33.0524V29.7931H27.2585V33.0524C27.2585 33.8523 26.6101 34.5 25.8102 34.5H22.1895C21.3896 34.5 20.7412 33.8523 20.7412 33.0524Z" fill="#B4B9C9" stroke="#353E5C" stroke-width="1.23077" stroke-linecap="round" stroke-linejoin="round"/>
<defs>
<radialGradient id="paint0_radial_5462_57276" cx="0" cy="0" r="1" gradientUnits="userSpaceOnUse" gradientTransform="translate(23.9133 24.0305) rotate(90) scale(22.4958 22.5012)">
<stop stop-color="#F6FAFD" stop-opacity="0.28"/>
<stop offset="1" stop-color="#F6FAFD"/>
</radialGradient>
</defs>
</svg>
