<svg width="626" height="123" viewBox="0 0 626 123" fill="none" xmlns="http://www.w3.org/2000/svg">
<path d="M311 30H238.5H30.5C20.9561 29.0888 16.5011 26.7092 9.5 20.5C3.35954 14.3659 1.90635 9.88427 1 1V122H623C613.265 120.685 608.837 118.75 602.5 113.5C595.7 107.069 593.815 102.759 592 94.5V59C591.285 53.4701 590.255 50.4015 587 45C580.513 36.1414 575.498 32.8687 564 30H311Z" fill="#F9FCFF"/>
<path d="M238.5 30H311H564C575.498 32.8687 580.513 36.1414 587 45C590.255 50.4015 591.285 53.4701 592 59V94.5C593.815 102.759 595.7 107.069 602.5 113.5C608.837 118.75 613.265 120.685 623 122H625.5H1V1C1.90635 9.88427 3.35954 14.3659 9.5 20.5C16.5011 26.7092 20.9561 29.0888 30.5 30H238.5Z" stroke="#F9FCFF"/>
</svg>
