<svg width="616" height="124" viewBox="0 0 616 124" fill="none" xmlns="http://www.w3.org/2000/svg">
<path d="M262.5 31H582C592.845 30.4441 598.847 27.4009 609.5 17C613.143 11.3387 614.645 8.00044 615 4.61354V1C615.109 2.27486 615.122 3.44708 615 4.61354V123.5H1C12.742 120.765 17.6797 118.304 24 113C30.3199 105.845 32.2334 101.539 33 93.5V58C34.5714 46.5183 37.7849 42.1311 46 36.5C55.4642 30.8699 61.4378 30.1945 72.5 30.5L262.5 31Z" fill="#F9FCFF"/>
<path d="M262.5 31H582C592.845 30.4441 598.847 27.4009 609.5 17C614.398 9.389 615.425 5.97653 615 1V123.5H1C12.742 120.765 17.6797 118.304 24 113C30.3199 105.845 32.2334 101.539 33 93.5V58C34.5714 46.5183 37.7849 42.1311 46 36.5C55.4642 30.8699 61.4378 30.1945 72.5 30.5L262.5 31Z" stroke="#F9FCFF"/>
</svg>
