<svg width="550" height="132" viewBox="0 0 550 132" fill="none" xmlns="http://www.w3.org/2000/svg">
<path d="M540.5 30C547.082 22.8747 549.26 18.6384 549.5 10.5V131.5H2.64497C1.80347 131.506 0.92284 131.506 0 131.5H2.64497C13.2752 131.428 17.6607 130.416 22 127.5C27.3374 123.505 30.0538 120.7 34.5 115C37.148 111.282 38.2841 108.589 39 101.5V66C41.4198 57.376 43.5916 53.1091 49.5 47C56.7106 41.4987 60.8598 39.9931 68.5 39.5H520C527.139 38.5247 531.658 36.2821 540.5 30Z" fill="#F9FCFF"/>
<path d="M549.5 0V10.5C549.26 18.6384 547.082 22.8747 540.5 30C531.658 36.2821 527.139 38.5247 520 39.5H68.5C60.8598 39.9931 56.7106 41.4987 49.5 47C43.5916 53.1091 41.4198 57.376 39 66V101.5C38.2841 108.589 37.148 111.282 34.5 115C30.0538 120.7 27.3374 123.505 22 127.5C17.3172 130.647 12.5805 131.576 0 131.5H549.5V0Z" stroke="#F9FCFF"/>
</svg>
