<svg width="130" height="152" viewBox="0 0 130 152" fill="none" xmlns="http://www.w3.org/2000/svg">
<path d="M56.5 30.5H34.5C30.2327 30.3991 27.8286 30.1682 23.5 29C20.2759 27.8611 18.376 27.0285 14.5 24.5C11.3226 21.9423 9.54667 20.4585 6.5 16.5C3.61773 11.4713 2.3166 8.20708 1 1V151H129C123.066 150.691 120.467 150.007 117 148C111.415 144.257 108.624 141.887 104.5 137C100.737 132.002 99.4502 128.661 99 121.5V60.5C98.3965 55.9399 97.6431 53.3142 95.5 48.5C93.1875 43.8256 91.4196 41.3821 87 37.5C81.1957 32.5687 77.5058 30.968 70 30.5H56.5Z" fill="#F9FCFF" stroke="#F9FCFF"/>
</svg>
