<svg width="711" height="123" viewBox="0 0 711 123" fill="none" xmlns="http://www.w3.org/2000/svg">
<path d="M196 30.5H352H509H631H680C691.349 29.199 696.935 26.8247 704.5 17.5C708.597 11.3933 709.621 7.72482 710.5 1V122.5H2.29659C1.55915 122.505 0.794545 122.505 0 122.5H2.29659C11.1775 122.438 16.1205 121.544 22 117C27.8979 111.847 29.912 109.304 32.5 105C35.1768 99.0441 35.6983 96.3623 36 92V60.5C36.9225 53.9053 37.8993 50.624 41 46C45.4644 39.5963 48.4903 36.9914 54.5 33.5C60.1412 31.0678 63.5565 30.4768 70 30.5H196Z" fill="#F9FCFF"/>
<path d="M196 30.5H352H509H631H680C691.349 29.199 696.935 26.8247 704.5 17.5C708.597 11.3933 709.621 7.72482 710.5 1V122.5H0C10.363 122.561 15.6322 121.922 22 117C27.8979 111.847 29.912 109.304 32.5 105C35.1768 99.0441 35.6983 96.3623 36 92V60.5C36.9225 53.9053 37.8993 50.6239 41 46C45.4644 39.5963 48.4903 36.9914 54.5 33.5C60.1412 31.0678 63.5565 30.4768 70 30.5H196Z" stroke="#F9FCFF"/>
</svg>
