<svg width="130" height="153" viewBox="0 0 130 153" fill="none" xmlns="http://www.w3.org/2000/svg">
<path d="M61.5 32H93.5H99C104.967 31.7002 108.013 30.7917 113 28C117.499 25.4654 119.892 23.2151 124 18C127.756 11.6623 128.764 7.90333 129.5 1V152.5H1C8.63509 152.11 12.7165 150.74 19.5 145.5C23.139 141.722 25.2134 139.066 29 133C31.041 129.216 31.804 126.981 31.5 122.5V65.5C31.9001 60.1659 32.314 57.4321 33.5 53C36.3899 46.992 38.551 43.9057 43.5 39C49.2706 33.9543 53.3521 32.6845 61.5 32Z" fill="#F9FCFF" stroke="#F9FCFF"/>
</svg>
