<svg width="104" height="120" viewBox="0 0 104 120" fill="none" xmlns="http://www.w3.org/2000/svg">
<path fill-rule="evenodd" clip-rule="evenodd" d="M61.1925 108.376C63.8229 105.05 67.508 102.78 71.4356 101.182C90.5265 93.4117 104 74.5368 104 52.4853C104 23.4985 80.7186 0 51.9998 0C23.281 0 -0.00012207 23.4985 -0.00012207 52.4853C-0.00012207 74.5368 13.4731 93.4117 32.564 101.182C36.4916 102.78 40.1767 105.05 42.8071 108.376L48.3342 115.365C50.2053 117.731 53.7943 117.731 55.6654 115.365L61.1925 108.376Z" fill="#00E36A"/>
<mask id="mask0_7851_10878" style="mask-type:alpha" maskUnits="userSpaceOnUse" x="0" y="0" width="104" height="118">
<path fill-rule="evenodd" clip-rule="evenodd" d="M61.1926 108.376C63.8231 105.05 67.5081 102.78 71.4358 101.182C90.5266 93.4117 104 74.5368 104 52.4853C104 23.4985 80.7187 0 51.9999 0C23.2812 0 0 23.4985 0 52.4853C0 74.5368 13.4733 93.4117 32.5641 101.182C36.4917 102.78 40.1768 105.05 42.8072 108.376L48.3343 115.365C50.2054 117.731 53.7944 117.731 55.6655 115.365L61.1926 108.376Z" fill="#EAF5FF"/>
</mask>
<g mask="url(#mask0_7851_10878)">
<g opacity="0.6" filter="url(#filter0_f_7851_10878)">
<path d="M98.3918 52.4853C98.3918 72.2027 86.3497 89.0569 69.3217 95.9873C64.8655 97.801 60.2311 100.552 56.7939 104.898L51.9999 110.959L47.2059 104.898C43.7688 100.552 39.1344 97.801 34.6782 95.9873C17.6501 89.0569 5.60809 72.2027 5.60809 52.4853C5.60809 26.5465 26.4274 5.60809 51.9999 5.60809C77.5724 5.60809 98.3918 26.5465 98.3918 52.4853Z" stroke="url(#paint0_linear_7851_10878)" stroke-width="11.2162"/>
</g>
<g opacity="0.6" filter="url(#filter1_f_7851_10878)">
<path d="M101.216 53.6747C101.216 74.5201 88.5055 92.3608 70.4928 99.74C66.3966 101.418 62.394 103.846 59.4945 107.512L54.2007 114.206C53.078 115.625 50.9246 115.625 49.802 114.206L44.5081 107.512C41.6086 103.846 37.606 101.418 33.5098 99.74C15.4971 92.3608 2.7866 74.5201 2.7866 53.6747C2.7866 26.2144 24.8371 3.98313 52.0013 3.98313C79.1655 3.98313 101.216 26.2144 101.216 53.6747Z" stroke="url(#paint1_linear_7851_10878)" stroke-width="3.73873"/>
</g>
<g opacity="0.7" filter="url(#filter2_f_7851_10878)">
<ellipse cx="51.9995" cy="120" rx="37.9239" ry="38.2779" fill="#00BA57"/>
</g>
<g opacity="0.5" filter="url(#filter3_f_7851_10878)">
<path d="M101.216 53.6747C101.216 74.5201 88.5055 92.3608 70.4928 99.74C66.3966 101.418 62.394 103.846 59.4945 107.512L54.2007 114.206C53.078 115.625 50.9246 115.625 49.802 114.206L44.5081 107.512C41.6086 103.846 37.606 101.418 33.5098 99.74C15.4971 92.3608 2.7866 74.5201 2.7866 53.6747C2.7866 26.2144 24.8371 3.98313 52.0013 3.98313C79.1655 3.98313 101.216 26.2144 101.216 53.6747Z" stroke="url(#paint2_linear_7851_10878)" stroke-width="3.73873"/>
</g>
</g>
<g style="mix-blend-mode:multiply" opacity="0.6" filter="url(#filter4_f_7851_10878)">
<path d="M61.7028 60.1881C62.0052 59.985 62.3531 59.8612 62.7148 59.828C63.0766 59.7948 63.4409 59.8533 63.7746 59.998L76.6479 65.8197C77.0817 66.0069 77.4438 66.3308 77.68 66.743C77.9162 67.1553 78.0138 67.6336 77.9581 68.1065C77.534 71.3054 75.9733 74.24 73.5662 76.3644C71.1591 78.4889 68.0695 79.6587 64.872 79.6562C55.0261 79.6562 45.5835 75.7084 38.6214 68.6814C31.6593 61.6543 27.7481 52.1235 27.7481 42.1858C27.7456 38.9584 28.9046 35.8399 31.0094 33.4103C33.1142 30.9808 36.0216 29.4055 39.191 28.9774C39.6595 28.9213 40.1334 29.0197 40.5418 29.2581C40.9502 29.4965 41.2712 29.862 41.4566 30.2999L47.2245 43.3044C47.3662 43.6384 47.4239 44.0026 47.3924 44.3645C47.361 44.7265 47.2414 45.075 47.0443 45.379L41.2109 52.3799C41.004 52.6951 40.8816 53.059 40.8558 53.4362C40.83 53.8134 40.9015 54.1908 41.0635 54.5317C43.321 59.1962 48.098 63.9599 52.733 66.2164C53.0725 66.3792 53.4482 66.4498 53.823 66.4213C54.1978 66.3928 54.5588 66.2662 54.8703 66.0539L61.7028 60.1881Z" fill="#14B74B"/>
</g>
<path d="M59.9767 58.4451C60.2791 58.2419 60.627 58.1182 60.9888 58.085C61.3505 58.0518 61.7148 58.1102 62.0485 58.255L74.9218 64.0767C75.3556 64.2638 75.7178 64.5877 75.954 65C76.1902 65.4122 76.2877 65.8906 76.2321 66.3635C75.808 69.5623 74.2473 72.4969 71.8402 74.6214C69.4331 76.7459 66.3434 77.9156 63.1459 77.9132C53.3 77.9132 43.8574 73.9654 36.8953 66.9383C29.9332 59.9113 26.022 50.3805 26.022 40.4427C26.0195 37.2153 27.1785 34.0969 29.2833 31.6673C31.3881 29.2377 34.2956 27.6624 37.4649 27.2344C37.9334 27.1782 38.4073 27.2767 38.8157 27.5151C39.2242 27.7535 39.5451 28.119 39.7305 28.5569L45.4984 41.5613C45.6401 41.8953 45.6978 42.2595 45.6664 42.6215C45.6349 42.9834 45.5153 43.3319 45.3182 43.636L39.4849 50.6369C39.2779 50.952 39.1556 51.316 39.1297 51.6931C39.1039 52.0703 39.1755 52.4478 39.3374 52.7887C41.5949 57.4532 46.3719 62.2169 51.0069 64.4734C51.3464 64.6362 51.7221 64.7068 52.097 64.6783C52.4718 64.6498 52.8327 64.5231 53.1443 64.3108L59.9767 58.4451Z" fill="white"/>
<mask id="mask1_7851_10878" style="mask-type:alpha" maskUnits="userSpaceOnUse" x="26" y="27" width="51" height="51">
<path d="M59.976 58.4451C60.2784 58.2419 60.6263 58.1182 60.988 58.085C61.3498 58.0518 61.7141 58.1102 62.0478 58.255L74.9211 64.0767C75.3549 64.2638 75.717 64.5877 75.9532 65C76.1894 65.4122 76.287 65.8906 76.2313 66.3635C75.8072 69.5623 74.2465 72.4969 71.8394 74.6214C69.4323 76.7459 66.3427 77.9156 63.1452 77.9132C53.2993 77.9132 43.8567 73.9654 36.8946 66.9383C29.9325 59.9113 26.0212 50.3805 26.0212 40.4427C26.0188 37.2153 27.1778 34.0969 29.2826 31.6673C31.3874 29.2377 34.2948 27.6624 37.4641 27.2344C37.9327 27.1782 38.4066 27.2767 38.815 27.5151C39.2234 27.7535 39.5444 28.119 39.7298 28.5569L45.4976 41.5613C45.6394 41.8953 45.6971 42.2595 45.6656 42.6215C45.6342 42.9834 45.5146 43.3319 45.3175 43.636L39.4841 50.6369C39.2772 50.952 39.1548 51.316 39.129 51.6931C39.1032 52.0703 39.1747 52.4478 39.3367 52.7887C41.5942 57.4532 46.3712 62.2169 51.0062 64.4734C51.3457 64.6362 51.7214 64.7068 52.0962 64.6783C52.471 64.6498 52.832 64.5231 53.1435 64.3108L59.976 58.4451Z" fill="white"/>
</mask>
<g mask="url(#mask1_7851_10878)">
<g opacity="0.4" filter="url(#filter5_f_7851_10878)">
<path d="M26.0212 40.4427C26.0212 50.3805 29.9325 59.9113 36.8946 66.9383C43.8567 73.9654 53.2993 77.9132 63.1452 77.9132C66.3427 77.9156 69.4323 76.7459 71.8394 74.6214C74.2465 72.4969 75.8072 69.5623 76.2313 66.3635L75.6762 66.2899C75.676 66.2913 75.6758 66.2928 75.6757 66.2942M26.0212 40.4427L75.6757 66.2942M26.0212 40.4427C26.0188 37.2153 27.1778 34.0969 29.2826 31.6673C31.3874 29.2377 34.2948 27.6624 37.4641 27.2344L26.0212 40.4427ZM75.6757 66.2942C75.7164 65.9415 75.6431 65.5851 75.4674 65.2784C75.291 64.9706 75.0212 64.7297 74.6993 64.5908L74.6903 64.5869L74.6903 64.5869L61.8212 58.767C61.5746 58.6608 61.3059 58.6181 61.0392 58.6426C60.7812 58.6663 60.5325 58.7521 60.3138 58.8931L53.5083 64.7357L53.4846 64.756L53.4589 64.7736C53.0666 65.0409 52.6116 65.2007 52.1387 65.2366C51.6658 65.2726 51.192 65.1835 50.7641 64.9783L50.7611 64.9769C46.0138 62.6657 41.1453 57.811 38.8327 53.0326L38.8309 53.029L38.831 53.029C38.6277 52.6012 38.538 52.1277 38.5704 51.6549C38.6027 51.182 38.7562 50.7253 39.016 50.3296L39.0335 50.3029L39.0539 50.2784L44.8643 43.3051C45.0015 43.0845 45.0852 42.8336 45.1078 42.573C45.1312 42.3035 45.0885 42.0325 44.9838 41.7839L39.2179 28.7839L39.2141 28.7753L39.2142 28.7752C39.0756 28.448 38.8362 28.1758 38.5327 27.9987C38.2305 27.8223 37.8806 27.7493 37.5347 27.7899C34.503 28.2005 31.7209 29.708 29.7058 32.0339C27.6897 34.3611 26.5789 37.3491 26.5812 40.4423L26.5812 40.4427C26.5812 50.2337 30.4347 59.6226 37.2924 66.5442C44.1499 73.4657 53.4495 77.3532 63.1452 77.3532H63.1456C66.2059 77.3556 69.1638 76.236 71.4689 74.2016C73.7731 72.1679 75.2684 69.3583 75.6757 66.2942Z" stroke="url(#paint3_linear_7851_10878)" stroke-width="1.11991"/>
</g>
<g opacity="0.4" filter="url(#filter6_f_7851_10878)">
<path d="M26.0212 40.4427C26.0212 50.3805 29.9325 59.9113 36.8946 66.9383C43.8567 73.9654 53.2993 77.9132 63.1452 77.9132C66.3427 77.9156 69.4323 76.7459 71.8394 74.6214C74.2465 72.4969 75.8072 69.5623 76.2313 66.3635L75.6762 66.2899C75.676 66.2913 75.6758 66.2928 75.6757 66.2942M26.0212 40.4427L75.6757 66.2942M26.0212 40.4427C26.0188 37.2153 27.1778 34.0969 29.2826 31.6673C31.3874 29.2377 34.2948 27.6624 37.4641 27.2344L26.0212 40.4427ZM75.6757 66.2942C75.7164 65.9415 75.6431 65.5851 75.4674 65.2784C75.291 64.9706 75.0212 64.7297 74.6993 64.5908L74.6903 64.5869L74.6903 64.5869L61.8212 58.767C61.5746 58.6608 61.3059 58.6181 61.0392 58.6426C60.7812 58.6663 60.5325 58.7521 60.3138 58.8931L53.5083 64.7357L53.4846 64.756L53.4589 64.7736C53.0666 65.0409 52.6116 65.2007 52.1387 65.2366C51.6658 65.2726 51.192 65.1835 50.7641 64.9783L50.7611 64.9769C46.0138 62.6657 41.1453 57.811 38.8327 53.0326L38.8309 53.029L38.831 53.029C38.6277 52.6012 38.538 52.1277 38.5704 51.6549C38.6027 51.182 38.7562 50.7253 39.016 50.3296L39.0335 50.3029L39.0539 50.2784L44.8643 43.3051C45.0015 43.0845 45.0852 42.8336 45.1078 42.573C45.1312 42.3035 45.0885 42.0325 44.9838 41.7839L39.2179 28.7839L39.2141 28.7753L39.2142 28.7752C39.0756 28.448 38.8362 28.1758 38.5327 27.9987C38.2305 27.8223 37.8806 27.7493 37.5347 27.7899C34.503 28.2005 31.7209 29.708 29.7058 32.0339C27.6897 34.3611 26.5789 37.3491 26.5812 40.4423L26.5812 40.4427C26.5812 50.2337 30.4347 59.6226 37.2924 66.5442C44.1499 73.4657 53.4495 77.3532 63.1452 77.3532H63.1456C66.2059 77.3556 69.1638 76.236 71.4689 74.2016C73.7731 72.1679 75.2684 69.3583 75.6757 66.2942Z" stroke="url(#paint4_linear_7851_10878)" stroke-width="1.11991"/>
</g>
<g opacity="0.2" filter="url(#filter7_f_7851_10878)">
<path d="M26.0212 40.4427C26.0212 50.3805 29.9325 59.9113 36.8946 66.9383C43.8567 73.9654 53.2993 77.9132 63.1452 77.9132C66.3427 77.9156 69.4323 76.7459 71.8394 74.6214C74.2465 72.4969 75.8072 69.5623 76.2313 66.3635L75.6762 66.2899C75.676 66.2913 75.6758 66.2928 75.6757 66.2942M26.0212 40.4427L75.6757 66.2942M26.0212 40.4427C26.0188 37.2153 27.1778 34.0969 29.2826 31.6673C31.3874 29.2377 34.2948 27.6624 37.4641 27.2344L26.0212 40.4427ZM75.6757 66.2942C75.7164 65.9415 75.6431 65.5851 75.4674 65.2784C75.291 64.9706 75.0212 64.7297 74.6993 64.5908L74.6903 64.5869L74.6903 64.5869L61.8212 58.767C61.5746 58.6608 61.3059 58.6181 61.0392 58.6426C60.7812 58.6663 60.5325 58.7521 60.3138 58.8931L53.5083 64.7357L53.4846 64.756L53.4589 64.7736C53.0666 65.0409 52.6116 65.2007 52.1387 65.2366C51.6658 65.2726 51.192 65.1835 50.7641 64.9783L50.7611 64.9769C46.0138 62.6657 41.1453 57.811 38.8327 53.0326L38.8309 53.029L38.831 53.029C38.6277 52.6012 38.538 52.1277 38.5704 51.6549C38.6027 51.182 38.7562 50.7253 39.016 50.3296L39.0335 50.3029L39.0539 50.2784L44.8643 43.3051C45.0015 43.0845 45.0852 42.8336 45.1078 42.573C45.1312 42.3035 45.0885 42.0325 44.9838 41.7839L39.2179 28.7839L39.2141 28.7753L39.2142 28.7752C39.0756 28.448 38.8362 28.1758 38.5327 27.9987C38.2305 27.8223 37.8806 27.7493 37.5347 27.7899C34.503 28.2005 31.7209 29.708 29.7058 32.0339C27.6897 34.3611 26.5789 37.3491 26.5812 40.4423L26.5812 40.4427C26.5812 50.2337 30.4347 59.6226 37.2924 66.5442C44.1499 73.4657 53.4495 77.3532 63.1452 77.3532H63.1456C66.2059 77.3556 69.1638 76.236 71.4689 74.2016C73.7731 72.1679 75.2684 69.3583 75.6757 66.2942Z" stroke="url(#paint5_linear_7851_10878)" stroke-width="1.11991"/>
</g>
</g>
<defs>
<filter id="filter0_f_7851_10878" x="-8.41213" y="-8.41213" width="120.824" height="133.964" filterUnits="userSpaceOnUse" color-interpolation-filters="sRGB">
<feFlood flood-opacity="0" result="BackgroundImageFix"/>
<feBlend mode="normal" in="SourceGraphic" in2="BackgroundImageFix" result="shape"/>
<feGaussianBlur stdDeviation="4.20607" result="effect1_foregroundBlur_7851_10878"/>
</filter>
<filter id="filter1_f_7851_10878" x="-2.82149" y="-1.62496" width="109.646" height="122.503" filterUnits="userSpaceOnUse" color-interpolation-filters="sRGB">
<feFlood flood-opacity="0" result="BackgroundImageFix"/>
<feBlend mode="normal" in="SourceGraphic" in2="BackgroundImageFix" result="shape"/>
<feGaussianBlur stdDeviation="1.86936" result="effect1_foregroundBlur_7851_10878"/>
</filter>
<filter id="filter2_f_7851_10878" x="-20.5076" y="47.1389" width="145.014" height="145.722" filterUnits="userSpaceOnUse" color-interpolation-filters="sRGB">
<feFlood flood-opacity="0" result="BackgroundImageFix"/>
<feBlend mode="normal" in="SourceGraphic" in2="BackgroundImageFix" result="shape"/>
<feGaussianBlur stdDeviation="17.2916" result="effect1_foregroundBlur_7851_10878"/>
</filter>
<filter id="filter3_f_7851_10878" x="-2.90754" y="-1.71101" width="109.818" height="122.676" filterUnits="userSpaceOnUse" color-interpolation-filters="sRGB">
<feFlood flood-opacity="0" result="BackgroundImageFix"/>
<feBlend mode="normal" in="SourceGraphic" in2="BackgroundImageFix" result="shape"/>
<feGaussianBlur stdDeviation="1.91239" result="effect1_foregroundBlur_7851_10878"/>
</filter>
<filter id="filter4_f_7851_10878" x="24.7616" y="25.9756" width="56.1982" height="56.6671" filterUnits="userSpaceOnUse" color-interpolation-filters="sRGB">
<feFlood flood-opacity="0" result="BackgroundImageFix"/>
<feBlend mode="normal" in="SourceGraphic" in2="BackgroundImageFix" result="shape"/>
<feGaussianBlur stdDeviation="1.49321" result="effect1_foregroundBlur_7851_10878"/>
</filter>
<filter id="filter5_f_7851_10878" x="25.2746" y="26.4724" width="51.7186" height="52.1874" filterUnits="userSpaceOnUse" color-interpolation-filters="sRGB">
<feFlood flood-opacity="0" result="BackgroundImageFix"/>
<feBlend mode="normal" in="SourceGraphic" in2="BackgroundImageFix" result="shape"/>
<feGaussianBlur stdDeviation="0.373304" result="effect1_foregroundBlur_7851_10878"/>
</filter>
<filter id="filter6_f_7851_10878" x="25.2746" y="26.4724" width="51.7186" height="52.1874" filterUnits="userSpaceOnUse" color-interpolation-filters="sRGB">
<feFlood flood-opacity="0" result="BackgroundImageFix"/>
<feBlend mode="normal" in="SourceGraphic" in2="BackgroundImageFix" result="shape"/>
<feGaussianBlur stdDeviation="0.373304" result="effect1_foregroundBlur_7851_10878"/>
</filter>
<filter id="filter7_f_7851_10878" x="24.528" y="25.7258" width="53.2118" height="53.6806" filterUnits="userSpaceOnUse" color-interpolation-filters="sRGB">
<feFlood flood-opacity="0" result="BackgroundImageFix"/>
<feBlend mode="normal" in="SourceGraphic" in2="BackgroundImageFix" result="shape"/>
<feGaussianBlur stdDeviation="0.746607" result="effect1_foregroundBlur_7851_10878"/>
</filter>
<linearGradient id="paint0_linear_7851_10878" x1="51.9999" y1="0" x2="51.9999" y2="120" gradientUnits="userSpaceOnUse">
<stop stop-color="white"/>
<stop offset="1" stop-color="white" stop-opacity="0"/>
</linearGradient>
<linearGradient id="paint1_linear_7851_10878" x1="52.0013" y1="2.11377" x2="52.0013" y2="31.9376" gradientUnits="userSpaceOnUse">
<stop stop-color="white"/>
<stop offset="1" stop-color="white" stop-opacity="0"/>
</linearGradient>
<linearGradient id="paint2_linear_7851_10878" x1="18.0696" y1="39.922" x2="32.4957" y2="38.9999" gradientUnits="userSpaceOnUse">
<stop stop-color="white"/>
<stop offset="1" stop-color="white" stop-opacity="0"/>
</linearGradient>
<linearGradient id="paint3_linear_7851_10878" x1="24.3619" y1="61.8756" x2="50.8517" y2="53.3754" gradientUnits="userSpaceOnUse">
<stop stop-color="#36E87D"/>
<stop offset="1" stop-color="white" stop-opacity="0"/>
</linearGradient>
<linearGradient id="paint4_linear_7851_10878" x1="73.7092" y1="63.2055" x2="60.9184" y2="47.1285" gradientUnits="userSpaceOnUse">
<stop stop-color="#36E87D"/>
<stop offset="1" stop-color="white" stop-opacity="0"/>
</linearGradient>
<linearGradient id="paint5_linear_7851_10878" x1="45.6348" y1="35.1204" x2="47.7439" y2="59.6442" gradientUnits="userSpaceOnUse">
<stop stop-color="#36E87D"/>
<stop offset="1" stop-color="white" stop-opacity="0"/>
</linearGradient>
</defs>
</svg>
