<svg width="48" height="48" viewBox="0 0 48 48" fill="none" xmlns="http://www.w3.org/2000/svg">
<rect x="0.769231" y="0.769231" width="46.4615" height="46.4615" rx="11.5385" fill="#F1F3F7" stroke="#353E5C" stroke-width="1.53846"/>
<mask id="mask0_5462_57485" style="mask-type:alpha" maskUnits="userSpaceOnUse" x="1" y="1" width="46" height="46">
<rect x="1.68079" y="1.84967" width="44.6131" height="44.6024" rx="10.7692" fill="#F1F4FF"/>
</mask>
<g mask="url(#mask0_5462_57485)">
<line x1="32.8077" y1="6.10133e-05" x2="32.8077" y2="50.0481" stroke="#B4B9C9"/>
<line x1="41.1155" y1="6.10133e-05" x2="41.1155" y2="50.0481" stroke="#B4B9C9"/>
<line x1="24.5" y1="6.10133e-05" x2="24.5" y2="50.0481" stroke="#B4B9C9"/>
<line x1="7.88464" y1="6.10133e-05" x2="7.88465" y2="50.0481" stroke="#B4B9C9"/>
<line x1="16.1924" y1="6.10133e-05" x2="16.1924" y2="50.0481" stroke="#B4B9C9"/>
<line x1="-1.02405" y1="16.2164" x2="49.024" y2="16.2164" stroke="#B4B9C9"/>
<line x1="-1.02405" y1="7.90863" x2="49.024" y2="7.90863" stroke="#B4B9C9"/>
<line x1="-1.02405" y1="24.524" x2="49.024" y2="24.524" stroke="#B4B9C9"/>
<line x1="-1.02405" y1="41.1394" x2="49.024" y2="41.1394" stroke="#B4B9C9"/>
<line x1="-1.02405" y1="32.8318" x2="49.024" y2="32.8318" stroke="#B4B9C9"/>
<rect x="1.41187" y="1.53467" width="45.0024" height="44.9916" rx="10.7692" fill="url(#paint0_radial_5462_57485)"/>
<path d="M31.359 29.7042L24.3074 36.7558C24.1376 36.9256 23.8624 36.9256 23.6926 36.7558L16.641 29.7042C12.5768 25.64 12.5768 19.0505 16.641 14.9863C20.7053 10.922 27.2947 10.922 31.359 14.9863C35.4232 19.0505 35.4232 25.64 31.359 29.7042Z" fill="white" stroke="#353E5C" stroke-width="1.23"/>
<circle cx="24.1875" cy="22.2188" r="3.53125" fill="#B4B9C9" stroke="#353E5C"/>
</g>
<defs>
<radialGradient id="paint0_radial_5462_57485" cx="0" cy="0" r="1" gradientUnits="userSpaceOnUse" gradientTransform="translate(23.9131 24.0305) rotate(90) scale(22.4958 22.5012)">
<stop stop-color="#F6FAFD" stop-opacity="0.28"/>
<stop offset="1" stop-color="#F6FAFD"/>
</radialGradient>
</defs>
</svg>
