<svg width="188" height="35" viewBox="0 0 188 35" fill="none" xmlns="http://www.w3.org/2000/svg">
<g clip-path="url(#clip0_7854_9271)">
<path d="M29.8564 7.87467L16.7106 0.258643C16.4345 0.0986682 16.0939 0.0986672 15.8178 0.25864L2.67191 7.87463C2.39702 8.03388 2.22778 8.32752 2.22778 8.64521V23.8827C2.22778 24.2004 2.39702 24.494 2.67191 24.6533L15.8177 32.2693C16.0939 32.4293 16.4345 32.4293 16.7106 32.2693L29.8564 24.6533C30.1313 24.494 30.3005 24.2004 30.3005 23.8827V8.64525C30.3005 8.32756 30.1313 8.03392 29.8564 7.87467Z" fill="#0084FE"/>
<mask id="mask0_7854_9271" style="mask-type:alpha" maskUnits="userSpaceOnUse" x="2" y="0" width="29" height="33">
<path d="M29.8564 7.87467L16.7106 0.258643C16.4345 0.0986682 16.0939 0.0986672 15.8178 0.25864L2.67191 7.87463C2.39702 8.03388 2.22778 8.32752 2.22778 8.64521V23.8827C2.22778 24.2004 2.39702 24.494 2.67191 24.6533L15.8177 32.2693C16.0939 32.4293 16.4345 32.4293 16.7106 32.2693L29.8564 24.6533C30.1313 24.494 30.3005 24.2004 30.3005 23.8827V8.64525C30.3005 8.32756 30.1313 8.03392 29.8564 7.87467Z" fill="#FFBF1A"/>
</mask>
<g mask="url(#mask0_7854_9271)">
<g opacity="0.3" filter="url(#filter0_f_7854_9271)">
<rect width="16.2894" height="16.2894" rx="0.445281" transform="matrix(0.866475 0.49922 -0.866475 0.49922 16.0562 -0.192627)" fill="white"/>
</g>
<g filter="url(#filter1_f_7854_9271)">
<rect width="16.2894" height="16.264" rx="0.445281" transform="matrix(0.866475 0.49922 -2.20764e-08 1 1.94165 7.93933)" stroke="url(#paint0_linear_7854_9271)" stroke-width="0.485117"/>
</g>
<g filter="url(#filter2_f_7854_9271)">
<rect width="16.2894" height="16.264" rx="0.445281" transform="matrix(0.866475 0.49922 -2.20764e-08 1 1.94165 7.93933)" stroke="url(#paint1_linear_7854_9271)" stroke-width="0.485117"/>
</g>
<g opacity="0.4" filter="url(#filter3_f_7854_9271)">
<rect width="15.6774" height="15.9973" rx="0.445281" transform="matrix(0.866475 0.49922 -2.20764e-08 1 2.22778 8.4375)" stroke="url(#paint2_linear_7854_9271)" stroke-width="0.485117"/>
</g>
<g opacity="0.4" filter="url(#filter4_f_7854_9271)">
<rect width="15.6774" height="15.9973" rx="0.445281" transform="matrix(-0.866475 0.49922 2.20764e-08 1 30.3004 8.4375)" stroke="url(#paint3_linear_7854_9271)" stroke-width="0.485117"/>
</g>
<g filter="url(#filter5_f_7854_9271)">
<rect width="16.2894" height="16.2894" rx="0.445281" transform="matrix(0.866475 0.49922 -0.866475 0.49922 16.4718 -0.192627)" stroke="url(#paint4_linear_7854_9271)" stroke-width="0.646822"/>
</g>
</g>
</g>
<path d="M49.2332 9.15687L45.138 20.4115H53.358L49.2332 9.15687ZM44.3719 23.0631L42.9872 26.9521H39.216L46.67 6.09278H51.7965L59.221 26.9521H55.4793L54.0945 23.0631H44.3719ZM67.7982 24.5068C70.6561 24.5068 72.7184 22.3855 72.7184 19.4687C72.7184 16.4341 70.6561 14.2539 67.7982 14.2539C64.9404 14.2539 62.8485 16.4341 62.8485 19.4687C62.8485 22.3855 64.9404 24.5068 67.7982 24.5068ZM67.8571 31.6072C70.6266 31.6072 72.6006 29.81 72.6006 26.6575V24.7425C71.3337 26.3334 69.4481 27.2468 67.209 27.2468C62.8485 27.2468 59.6666 24.0059 59.6666 19.4687C59.6666 14.8136 62.8485 11.4549 67.209 11.4549C69.5365 11.4549 71.3632 12.4272 72.63 14.0182V11.9853H75.812V26.687C75.812 31.5188 72.5417 34.3177 67.975 34.3177C64.0565 34.3177 60.8156 31.8429 60.2853 28.3958L63.2315 28.0423C63.7324 30.1046 65.6769 31.6072 67.8571 31.6072ZM81.7919 18.084H91.102C90.7485 15.727 88.8629 14.0771 86.388 14.0771C83.9721 14.0771 82.2044 15.6975 81.7919 18.084ZM78.4627 19.2919C78.4627 14.6958 81.8214 11.396 86.4764 11.396C91.1315 11.396 94.4313 14.6958 94.4313 19.3214C94.4313 19.6749 94.4018 20.1169 94.3724 20.4704L81.7625 20.441C82.1455 23.0926 84.0016 24.8603 86.447 24.8603C88.4504 24.8603 90.3065 23.6818 90.8663 22.0319L93.8715 22.4739C93.0171 25.4201 89.9235 27.5414 86.5059 27.5414C81.8214 27.5414 78.4627 24.0943 78.4627 19.2919ZM97.0739 11.9853H100.226V13.9003C101.287 12.3388 103.143 11.396 105.088 11.396C108.741 11.396 111.127 14.1066 111.127 17.8188V26.9521H107.946V18.0545C107.946 15.8448 106.62 14.2539 104.381 14.2539C102.141 14.2539 100.285 15.9627 100.285 18.3491V26.9521H97.0739V11.9853ZM121.39 11.396C125.191 11.396 128.314 13.7825 128.844 17.0823L125.78 17.4653C125.309 15.5207 123.482 14.136 121.42 14.136C118.768 14.136 116.676 16.3752 116.676 19.4687C116.706 22.5623 118.738 24.8014 121.42 24.8014C123.541 24.8014 125.279 23.4167 125.809 21.5016L128.873 21.8846C128.255 25.1549 125.102 27.5414 121.42 27.5414C116.823 27.5414 113.494 24.1532 113.494 19.4687C113.494 14.7842 116.823 11.396 121.39 11.396ZM131.942 11.9853H135.124V26.9521H131.942V11.9853ZM133.533 9.56934C132.355 9.56934 131.53 8.7444 131.53 7.59536C131.53 6.47579 132.355 5.68031 133.533 5.68031C134.682 5.68031 135.507 6.47579 135.507 7.59536C135.507 8.7444 134.682 9.56934 133.533 9.56934ZM146.299 24.6835C149.157 24.6835 151.22 22.5033 151.22 19.4687C151.22 16.4341 149.157 14.2539 146.299 14.2539C143.441 14.2539 141.35 16.4341 141.35 19.4687C141.35 22.4739 143.441 24.6835 146.299 24.6835ZM151.249 14.2244V11.9853H154.46V26.9521H151.249V24.713C149.982 26.4808 148.008 27.5414 145.681 27.5414C141.291 27.5414 138.168 24.1532 138.168 19.4687C138.168 14.7842 141.291 11.396 145.681 11.396C148.008 11.396 149.982 12.4567 151.249 14.2244ZM164.992 26.9521L172.122 15.9332L165.227 6.09278H169.411L174.862 13.9887L180.43 6.09278H184.643L177.513 15.9332L184.908 26.9521H180.695L174.832 17.9956L169.146 26.9521H164.992Z" fill="#001A56"/>
<defs>
<filter id="filter0_f_7854_9271" x="1.57545" y="-0.654655" width="28.9614" height="17.1881" filterUnits="userSpaceOnUse" color-interpolation-filters="sRGB">
<feFlood flood-opacity="0" result="BackgroundImageFix"/>
<feBlend mode="normal" in="SourceGraphic" in2="BackgroundImageFix" result="shape"/>
<feGaussianBlur stdDeviation="0.296139" result="effect1_foregroundBlur_7854_9271"/>
</filter>
<filter id="filter1_f_7854_9271" x="0.761212" y="6.86766" width="16.4753" height="26.5393" filterUnits="userSpaceOnUse" color-interpolation-filters="sRGB">
<feFlood flood-opacity="0" result="BackgroundImageFix"/>
<feBlend mode="normal" in="SourceGraphic" in2="BackgroundImageFix" result="shape"/>
<feGaussianBlur stdDeviation="0.485117" result="effect1_foregroundBlur_7854_9271"/>
</filter>
<filter id="filter2_f_7854_9271" x="1.08462" y="7.19107" width="15.8284" height="25.8925" filterUnits="userSpaceOnUse" color-interpolation-filters="sRGB">
<feFlood flood-opacity="0" result="BackgroundImageFix"/>
<feBlend mode="normal" in="SourceGraphic" in2="BackgroundImageFix" result="shape"/>
<feGaussianBlur stdDeviation="0.323411" result="effect1_foregroundBlur_7854_9271"/>
</filter>
<filter id="filter3_f_7854_9271" x="1.5723" y="7.89078" width="14.8951" height="24.9172" filterUnits="userSpaceOnUse" color-interpolation-filters="sRGB">
<feFlood flood-opacity="0" result="BackgroundImageFix"/>
<feBlend mode="normal" in="SourceGraphic" in2="BackgroundImageFix" result="shape"/>
<feGaussianBlur stdDeviation="0.222641" result="effect1_foregroundBlur_7854_9271"/>
</filter>
<filter id="filter4_f_7854_9271" x="16.0608" y="7.89078" width="14.8951" height="24.9172" filterUnits="userSpaceOnUse" color-interpolation-filters="sRGB">
<feFlood flood-opacity="0" result="BackgroundImageFix"/>
<feBlend mode="normal" in="SourceGraphic" in2="BackgroundImageFix" result="shape"/>
<feGaussianBlur stdDeviation="0.222641" result="effect1_foregroundBlur_7854_9271"/>
</filter>
<filter id="filter5_f_7854_9271" x="1.54031" y="-0.937594" width="29.863" height="17.7539" filterUnits="userSpaceOnUse" color-interpolation-filters="sRGB">
<feFlood flood-opacity="0" result="BackgroundImageFix"/>
<feBlend mode="normal" in="SourceGraphic" in2="BackgroundImageFix" result="shape"/>
<feGaussianBlur stdDeviation="0.323411" result="effect1_foregroundBlur_7854_9271"/>
</filter>
<linearGradient id="paint0_linear_7854_9271" x1="15.3499" y1="-0.216761" x2="8.73327" y2="8.60557" gradientUnits="userSpaceOnUse">
<stop stop-color="white"/>
<stop offset="1" stop-color="white" stop-opacity="0"/>
</linearGradient>
<linearGradient id="paint1_linear_7854_9271" x1="9.02796" y1="15.1428" x2="9.99074" y2="12.6348" gradientUnits="userSpaceOnUse">
<stop stop-color="#0029FF"/>
<stop offset="1" stop-color="#0029FF" stop-opacity="0"/>
</linearGradient>
<linearGradient id="paint2_linear_7854_9271" x1="1.77843" y1="16.1115" x2="10.4993" y2="11.3417" gradientUnits="userSpaceOnUse">
<stop stop-color="white"/>
<stop offset="1" stop-color="white" stop-opacity="0"/>
</linearGradient>
<linearGradient id="paint3_linear_7854_9271" x1="1.77843" y1="16.1115" x2="10.4993" y2="11.3417" gradientUnits="userSpaceOnUse">
<stop stop-color="white"/>
<stop offset="1" stop-color="white" stop-opacity="0"/>
</linearGradient>
<linearGradient id="paint4_linear_7854_9271" x1="0.784283" y1="1.49057" x2="5.37652" y2="2.24874" gradientUnits="userSpaceOnUse">
<stop stop-color="white"/>
<stop offset="1" stop-color="white" stop-opacity="0"/>
</linearGradient>
<clipPath id="clip0_7854_9271">
<rect width="32.528" height="32.528" fill="white"/>
</clipPath>
</defs>
</svg>
