<svg width="142" height="120" viewBox="0 0 142 120" fill="none" xmlns="http://www.w3.org/2000/svg">
<path d="M73.0158 118.87C71.7458 119.598 70.254 119.598 68.984 118.87C57.4171 112.239 0 77.2853 0 36.8181C0 27.0533 3.88401 17.6885 10.7976 10.7838C17.7112 3.87904 27.088 0 36.8653 0C52.2873 0 65.4974 8.39316 70.9999 21.8181C76.5024 8.39316 89.7125 0 105.134 0C114.912 0 124.289 3.87904 131.202 10.7838C138.116 17.6885 142 27.0533 142 36.8181C142 77.2853 84.5827 112.239 73.0158 118.87Z" fill="#FF2B2A"/>
<mask id="mask0_7851_10678" style="mask-type:alpha" maskUnits="userSpaceOnUse" x="-1" y="0" width="143" height="120">
<path d="M73.0157 118.87C71.7456 119.598 70.2538 119.598 68.9838 118.87C57.4169 112.239 -0.000183105 77.2855 -0.000183105 36.8183C-0.000183105 27.0536 3.88383 17.6887 10.7974 10.784C17.711 3.87928 27.0879 0.000244141 36.8652 0.000244141C52.2871 0.000244141 65.4972 8.3934 70.9997 21.8184C76.5022 8.3934 89.7123 0.000244141 105.134 0.000244141C114.912 0.000244141 124.288 3.87928 131.202 10.784C138.116 17.6887 142 27.0536 142 36.8183C142 77.2855 84.5825 112.239 73.0157 118.87Z" fill="#FF2B2A"/>
</mask>
<g mask="url(#mask0_7851_10678)">
<g filter="url(#filter0_f_7851_10678)">
<path d="M72.0417 117.227C70.7719 117.955 69.283 117.955 68.0131 117.227C56.545 110.65 -0.000183105 76.197 -0.000183105 36.3141C-0.000183105 26.6831 3.83064 17.4465 10.6496 10.6363C17.4685 3.82616 26.7169 0.000244141 36.3603 0.000244141C51.5711 0.000244141 64.6003 8.27847 70.0274 21.5196C75.4546 8.27847 88.4838 0.000244141 103.695 0.000244141C113.338 0.000244141 122.586 3.82616 129.405 10.6363C136.224 17.4465 140.055 26.6831 140.055 36.3141C140.055 76.197 83.5098 110.65 72.0417 117.227Z" stroke="url(#paint0_linear_7851_10678)" stroke-width="3.33396" stroke-linecap="round" stroke-linejoin="round"/>
</g>
<g filter="url(#filter1_f_7851_10678)">
<path d="M36.3589 -0.000488281C51.5697 -0.000488281 64.5989 8.27773 70.026 21.5189" stroke="url(#paint1_linear_7851_10678)" stroke-width="3.33396" stroke-linecap="round" stroke-linejoin="round"/>
</g>
<g filter="url(#filter2_f_7851_10678)">
<path d="M73.0099 113.435C71.7404 114.164 70.2572 114.164 68.9877 113.435C57.7483 106.982 3.2149 73.6845 3.2149 35.1501C3.2149 25.8277 6.92299 16.887 13.5234 10.2951C20.1239 3.70309 29.076 -0.000244141 38.4104 -0.000244141C53.1338 -0.000244141 65.7455 8.01274 70.9988 20.8296C76.252 8.01274 88.8637 -0.000244141 103.587 -0.000244141C112.922 -0.000244141 121.874 3.70309 128.474 10.2951C135.075 16.887 138.783 25.8277 138.783 35.1501C138.783 73.6845 84.2493 106.982 73.0099 113.435Z" stroke="url(#paint2_linear_7851_10678)" stroke-width="3.33396" stroke-linecap="round" stroke-linejoin="round"/>
</g>
<g filter="url(#filter3_f_7851_10678)">
<path d="M73.0157 118.87C71.7456 119.598 70.2538 119.598 68.9838 118.87C57.4169 112.239 -0.000183105 77.2855 -0.000183105 36.8183C-0.000183105 27.0536 3.88383 17.6887 10.7974 10.784C17.711 3.87928 27.0879 0.000244141 36.8652 0.000244141C52.2871 0.000244141 65.4972 8.3934 70.9997 21.8184C76.5022 8.3934 89.7123 0.000244141 105.134 0.000244141C114.912 0.000244141 124.288 3.87928 131.202 10.784C138.116 17.6887 142 27.0536 142 36.8183C142 77.2855 84.5825 112.239 73.0157 118.87Z" stroke="url(#paint3_linear_7851_10678)" stroke-width="2.05167" stroke-linecap="round" stroke-linejoin="round"/>
</g>
<g filter="url(#filter4_f_7851_10678)">
<path d="M88.724 9.22132C91.9185 4.79777 99.3345 2.20264 107.888 2.47167C113.311 2.64222 118.471 4.11167 122.232 6.55676C125.618 8.75793 127.621 11.5875 127.912 14.5285C128.123 14.9287 128.147 15.2645 127.945 15.5096C127.955 15.1817 127.944 14.8544 127.912 14.5285C126.706 12.2477 119.413 7.87533 113.337 6.27699C103.871 3.78714 91.3595 7.02071 88.724 9.22132Z" fill="white"/>
</g>
<g opacity="0.3" filter="url(#filter5_f_7851_10678)">
<ellipse cx="17.5978" cy="21.3985" rx="17.5978" ry="21.3985" transform="matrix(0.79591 -0.605415 0.606398 0.795161 5.58313 23.0039)" fill="white"/>
</g>
<g opacity="0.3" filter="url(#filter6_f_7851_10678)">
<ellipse cx="11.3531" cy="13.8052" rx="11.3531" ry="13.8052" transform="matrix(0.79591 -0.605415 0.606398 0.795161 15.1599 25.2612)" fill="white"/>
</g>
<mask id="mask1_7851_10678" style="mask-type:alpha" maskUnits="userSpaceOnUse" x="-2" y="-1" width="77" height="85">
<path d="M74.8558 41.5637C74.8558 64.7765 56.3591 83.5942 35.7324 83.5942C15.1057 83.5942 -1.61554 64.7765 -1.61554 41.5637C-1.61554 18.3509 13.2263 -0.466797 35.7324 -0.466797C61.0327 -0.466797 74.8558 18.3509 74.8558 41.5637Z" fill="#D9D9D9"/>
</mask>
<g mask="url(#mask1_7851_10678)">
<g filter="url(#filter7_f_7851_10678)">
<path d="M73.31 27.2244C71.914 15.2697 60.4894 7.12811 54.7593 5.02368C64.962 10.6502 70.8811 21.6397 70.558 26.6991L73.31 27.2244Z" fill="white"/>
</g>
</g>
<path opacity="0.2" d="M73.0157 118.87C71.7456 119.598 70.2538 119.598 68.9838 118.87C57.4169 112.239 -0.000183105 77.2855 -0.000183105 36.8183C-0.000183105 27.0536 3.88383 17.6887 10.7974 10.784C17.711 3.87928 27.0879 0.000244141 36.8652 0.000244141C52.2871 0.000244141 65.4972 8.3934 70.9997 21.8184C76.5022 8.3934 89.7123 0.000244141 105.134 0.000244141C114.912 0.000244141 124.288 3.87928 131.202 10.784C138.116 17.6887 142 27.0536 142 36.8183C142 77.2855 84.5825 112.239 73.0157 118.87Z" fill="url(#paint4_linear_7851_10678)"/>
<g style="mix-blend-mode:multiply" opacity="0.6" filter="url(#filter8_f_7851_10678)">
<path fill-rule="evenodd" clip-rule="evenodd" d="M67.013 42.812C66.155 42.812 65.4594 43.5076 65.4594 44.3656V57.8622L51.9421 57.8622C51.084 57.8622 50.3885 58.5577 50.3885 59.4158V68.543C50.3885 69.401 51.084 70.0966 51.9421 70.0966H65.4594V83.5933C65.4594 84.4513 66.155 85.1468 67.013 85.1468H76.1559C77.0139 85.1468 77.7095 84.4513 77.7095 83.5933V70.0966H91.2241C92.0821 70.0966 92.7776 69.401 92.7776 68.543V59.4158C92.7776 58.5577 92.0821 57.8622 91.2241 57.8622L77.7095 57.8622V44.3656C77.7095 43.5076 77.0139 42.812 76.1559 42.812H67.013Z" fill="#C41212"/>
</g>
<path fill-rule="evenodd" clip-rule="evenodd" d="M65.8479 41.6467C64.9899 41.6467 64.2943 42.3423 64.2943 43.2003V56.6969L50.777 56.6969C49.9189 56.6969 49.2234 57.3925 49.2234 58.2505V67.3777C49.2234 68.2357 49.9189 68.9313 50.777 68.9313H64.2943V82.428C64.2943 83.286 64.9899 83.9815 65.8479 83.9815H74.9908C75.8488 83.9815 76.5444 83.286 76.5444 82.428V68.9313H90.059C90.917 68.9313 91.6125 68.2357 91.6125 67.3777V58.2505C91.6125 57.3925 90.917 56.6969 90.059 56.6969L76.5444 56.6969V43.2003C76.5444 42.3423 75.8488 41.6467 74.9908 41.6467H65.8479Z" fill="white"/>
<mask id="mask2_7851_10678" style="mask-type:alpha" maskUnits="userSpaceOnUse" x="49" y="41" width="43" height="43">
<path fill-rule="evenodd" clip-rule="evenodd" d="M65.8485 41.6467C64.9905 41.6467 64.2949 42.3423 64.2949 43.2003V56.6969L50.7776 56.6969C49.9196 56.6969 49.224 57.3925 49.224 58.2505V67.3777C49.224 68.2357 49.9196 68.9313 50.7776 68.9313H64.2949V82.428C64.2949 83.286 64.9905 83.9815 65.8485 83.9815H74.9914C75.8494 83.9815 76.545 83.286 76.545 82.428V68.9313H90.0596C90.9176 68.9313 91.6131 68.2357 91.6131 67.3777V58.2505C91.6131 57.3925 90.9176 56.6969 90.0596 56.6969L76.545 56.6969V43.2003C76.545 42.3423 75.8494 41.6467 74.9914 41.6467H65.8485Z" fill="white"/>
</mask>
<g mask="url(#mask2_7851_10678)">
<g opacity="0.2" filter="url(#filter9_f_7851_10678)">
<mask id="path-16-inside-1_7851_10678" fill="white">
<path fill-rule="evenodd" clip-rule="evenodd" d="M65.8485 41.6467C64.9905 41.6467 64.2949 42.3423 64.2949 43.2003V56.4575C64.2949 56.5897 64.1877 56.6969 64.0555 56.6969L50.7776 56.6969C49.9196 56.6969 49.224 57.3925 49.224 58.2505V67.3777C49.224 68.2357 49.9196 68.9313 50.7776 68.9313H64.0555C64.1877 68.9313 64.2949 69.0385 64.2949 69.1707V82.428C64.2949 83.286 64.9905 83.9815 65.8485 83.9815H74.9914C75.8494 83.9815 76.545 83.286 76.545 82.428V69.1707C76.545 69.0385 76.6522 68.9313 76.7844 68.9313H90.0596C90.9176 68.9313 91.6131 68.2357 91.6131 67.3777V58.2505C91.6131 57.3925 90.9176 56.6969 90.0596 56.6969L76.7844 56.6969C76.6522 56.6969 76.545 56.5897 76.545 56.4575V43.2003C76.545 42.3423 75.8494 41.6467 74.9914 41.6467H65.8485Z"/>
</mask>
<path d="M50.7776 56.6969L50.7776 55.9786H50.7776V56.6969ZM90.0596 56.6969L90.0596 57.4152H90.0596V56.6969ZM76.7844 56.6969L76.7844 55.9786L76.7844 56.6969ZM64.0555 56.6969L64.0555 57.4152L64.0555 56.6969ZM65.0132 43.2003C65.0132 42.739 65.3872 42.365 65.8485 42.365V40.9284C64.5938 40.9284 63.5766 41.9456 63.5766 43.2003H65.0132ZM65.0132 56.4575V43.2003H63.5766V56.4575H65.0132ZM50.7776 57.4152L64.0555 57.4152L64.0555 55.9786L50.7776 55.9786L50.7776 57.4152ZM49.9423 58.2505C49.9423 57.7892 50.3163 57.4152 50.7776 57.4152V55.9786C49.5229 55.9786 48.5057 56.9958 48.5057 58.2505H49.9423ZM49.9423 67.3777V58.2505H48.5057V67.3777H49.9423ZM50.7776 68.213C50.3163 68.213 49.9423 67.839 49.9423 67.3777H48.5057C48.5057 68.6324 49.5229 69.6496 50.7776 69.6496V68.213ZM64.0555 68.213H50.7776V69.6496H64.0555V68.213ZM65.0132 82.428V69.1707H63.5766V82.428H65.0132ZM65.8485 83.2633C65.3872 83.2633 65.0132 82.8893 65.0132 82.428H63.5766C63.5766 83.6827 64.5938 84.6998 65.8485 84.6998V83.2633ZM74.9914 83.2633H65.8485V84.6998H74.9914V83.2633ZM75.8267 82.428C75.8267 82.8893 75.4528 83.2633 74.9914 83.2633V84.6998C76.2461 84.6998 77.2633 83.6827 77.2633 82.428H75.8267ZM75.8267 69.1707V82.428H77.2633V69.1707H75.8267ZM90.0596 68.213H76.7844V69.6496H90.0596V68.213ZM90.8949 67.3777C90.8949 67.839 90.5209 68.213 90.0596 68.213V69.6496C91.3143 69.6496 92.3314 68.6324 92.3314 67.3777H90.8949ZM90.8949 58.2505V67.3777H92.3314V58.2505H90.8949ZM90.0596 57.4152C90.5209 57.4152 90.8949 57.7892 90.8949 58.2505H92.3314C92.3314 56.9958 91.3143 55.9786 90.0596 55.9786V57.4152ZM76.7844 57.4152L90.0596 57.4152L90.0596 55.9786L76.7844 55.9786L76.7844 57.4152ZM75.8267 43.2003V56.4575H77.2633V43.2003H75.8267ZM74.9914 42.365C75.4528 42.365 75.8267 42.739 75.8267 43.2003H77.2633C77.2633 41.9456 76.2461 40.9284 74.9914 40.9284V42.365ZM65.8485 42.365H74.9914V40.9284H65.8485V42.365ZM76.7844 55.9786C77.0489 55.9786 77.2633 56.193 77.2633 56.4575H75.8267C75.8267 56.9864 76.2555 57.4152 76.7844 57.4152L76.7844 55.9786ZM77.2633 69.1707C77.2633 69.4352 77.0489 69.6496 76.7844 69.6496V68.213C76.2555 68.213 75.8267 68.6418 75.8267 69.1707H77.2633ZM64.0555 69.6496C63.791 69.6496 63.5766 69.4352 63.5766 69.1707H65.0132C65.0132 68.6418 64.5844 68.213 64.0555 68.213V69.6496ZM63.5766 56.4575C63.5766 56.193 63.791 55.9786 64.0555 55.9786L64.0555 57.4152C64.5844 57.4152 65.0132 56.9864 65.0132 56.4575H63.5766Z" fill="url(#paint5_linear_7851_10678)" mask="url(#path-16-inside-1_7851_10678)"/>
</g>
<g opacity="0.2" filter="url(#filter10_f_7851_10678)">
<mask id="path-18-inside-2_7851_10678" fill="white">
<path fill-rule="evenodd" clip-rule="evenodd" d="M65.8485 41.6467C64.9905 41.6467 64.2949 42.3423 64.2949 43.2003V56.4575C64.2949 56.5897 64.1877 56.6969 64.0555 56.6969L50.7776 56.6969C49.9196 56.6969 49.224 57.3925 49.224 58.2505V67.3777C49.224 68.2357 49.9196 68.9313 50.7776 68.9313H64.0555C64.1877 68.9313 64.2949 69.0385 64.2949 69.1707V82.428C64.2949 83.286 64.9905 83.9815 65.8485 83.9815H74.9914C75.8494 83.9815 76.545 83.286 76.545 82.428V69.1707C76.545 69.0385 76.6522 68.9313 76.7844 68.9313H90.0596C90.9176 68.9313 91.6131 68.2357 91.6131 67.3777V58.2505C91.6131 57.3925 90.9176 56.6969 90.0596 56.6969L76.7844 56.6969C76.6522 56.6969 76.545 56.5897 76.545 56.4575V43.2003C76.545 42.3423 75.8494 41.6467 74.9914 41.6467H65.8485Z"/>
</mask>
<path d="M50.7776 56.6969L50.7776 55.9786H50.7776V56.6969ZM90.0596 56.6969L90.0596 57.4152H90.0596V56.6969ZM76.7844 56.6969L76.7844 55.9786L76.7844 56.6969ZM64.0555 56.6969L64.0555 57.4152L64.0555 56.6969ZM65.0132 43.2003C65.0132 42.739 65.3872 42.365 65.8485 42.365V40.9284C64.5938 40.9284 63.5766 41.9456 63.5766 43.2003H65.0132ZM65.0132 56.4575V43.2003H63.5766V56.4575H65.0132ZM50.7776 57.4152L64.0555 57.4152L64.0555 55.9786L50.7776 55.9786L50.7776 57.4152ZM49.9423 58.2505C49.9423 57.7892 50.3163 57.4152 50.7776 57.4152V55.9786C49.5229 55.9786 48.5057 56.9958 48.5057 58.2505H49.9423ZM49.9423 67.3777V58.2505H48.5057V67.3777H49.9423ZM50.7776 68.213C50.3163 68.213 49.9423 67.839 49.9423 67.3777H48.5057C48.5057 68.6324 49.5229 69.6496 50.7776 69.6496V68.213ZM64.0555 68.213H50.7776V69.6496H64.0555V68.213ZM65.0132 82.428V69.1707H63.5766V82.428H65.0132ZM65.8485 83.2633C65.3872 83.2633 65.0132 82.8893 65.0132 82.428H63.5766C63.5766 83.6827 64.5938 84.6998 65.8485 84.6998V83.2633ZM74.9914 83.2633H65.8485V84.6998H74.9914V83.2633ZM75.8267 82.428C75.8267 82.8893 75.4528 83.2633 74.9914 83.2633V84.6998C76.2461 84.6998 77.2633 83.6827 77.2633 82.428H75.8267ZM75.8267 69.1707V82.428H77.2633V69.1707H75.8267ZM90.0596 68.213H76.7844V69.6496H90.0596V68.213ZM90.8949 67.3777C90.8949 67.839 90.5209 68.213 90.0596 68.213V69.6496C91.3143 69.6496 92.3314 68.6324 92.3314 67.3777H90.8949ZM90.8949 58.2505V67.3777H92.3314V58.2505H90.8949ZM90.0596 57.4152C90.5209 57.4152 90.8949 57.7892 90.8949 58.2505H92.3314C92.3314 56.9958 91.3143 55.9786 90.0596 55.9786V57.4152ZM76.7844 57.4152L90.0596 57.4152L90.0596 55.9786L76.7844 55.9786L76.7844 57.4152ZM75.8267 43.2003V56.4575H77.2633V43.2003H75.8267ZM74.9914 42.365C75.4528 42.365 75.8267 42.739 75.8267 43.2003H77.2633C77.2633 41.9456 76.2461 40.9284 74.9914 40.9284V42.365ZM65.8485 42.365H74.9914V40.9284H65.8485V42.365ZM76.7844 55.9786C77.0489 55.9786 77.2633 56.193 77.2633 56.4575H75.8267C75.8267 56.9864 76.2555 57.4152 76.7844 57.4152L76.7844 55.9786ZM77.2633 69.1707C77.2633 69.4352 77.0489 69.6496 76.7844 69.6496V68.213C76.2555 68.213 75.8267 68.6418 75.8267 69.1707H77.2633ZM64.0555 69.6496C63.791 69.6496 63.5766 69.4352 63.5766 69.1707H65.0132C65.0132 68.6418 64.5844 68.213 64.0555 68.213V69.6496ZM63.5766 56.4575C63.5766 56.193 63.791 55.9786 64.0555 55.9786L64.0555 57.4152C64.5844 57.4152 65.0132 56.9864 65.0132 56.4575H63.5766Z" fill="url(#paint6_linear_7851_10678)" mask="url(#path-18-inside-2_7851_10678)"/>
</g>
<g opacity="0.2" filter="url(#filter11_f_7851_10678)">
<mask id="path-20-inside-3_7851_10678" fill="white">
<path fill-rule="evenodd" clip-rule="evenodd" d="M65.8485 41.6467C64.9905 41.6467 64.2949 42.3423 64.2949 43.2003V56.4575C64.2949 56.5897 64.1877 56.6969 64.0555 56.6969L50.7776 56.6969C49.9196 56.6969 49.224 57.3925 49.224 58.2505V67.3777C49.224 68.2357 49.9196 68.9313 50.7776 68.9313H64.0555C64.1877 68.9313 64.2949 69.0385 64.2949 69.1707V82.428C64.2949 83.286 64.9905 83.9815 65.8485 83.9815H74.9914C75.8494 83.9815 76.545 83.286 76.545 82.428V69.1707C76.545 69.0385 76.6522 68.9313 76.7844 68.9313H90.0596C90.9176 68.9313 91.6131 68.2357 91.6131 67.3777V58.2505C91.6131 57.3925 90.9176 56.6969 90.0596 56.6969L76.7844 56.6969C76.6522 56.6969 76.545 56.5897 76.545 56.4575V43.2003C76.545 42.3423 75.8494 41.6467 74.9914 41.6467H65.8485Z"/>
</mask>
<path d="M50.7776 56.6969L50.7776 55.9786H50.7776V56.6969ZM90.0596 56.6969L90.0596 57.4152H90.0596V56.6969ZM76.7844 56.6969L76.7844 55.9786L76.7844 56.6969ZM64.0555 56.6969L64.0555 57.4152L64.0555 56.6969ZM65.0132 43.2003C65.0132 42.739 65.3872 42.365 65.8485 42.365V40.9284C64.5938 40.9284 63.5766 41.9456 63.5766 43.2003H65.0132ZM65.0132 56.4575V43.2003H63.5766V56.4575H65.0132ZM50.7776 57.4152L64.0555 57.4152L64.0555 55.9786L50.7776 55.9786L50.7776 57.4152ZM49.9423 58.2505C49.9423 57.7892 50.3163 57.4152 50.7776 57.4152V55.9786C49.5229 55.9786 48.5057 56.9958 48.5057 58.2505H49.9423ZM49.9423 67.3777V58.2505H48.5057V67.3777H49.9423ZM50.7776 68.213C50.3163 68.213 49.9423 67.839 49.9423 67.3777H48.5057C48.5057 68.6324 49.5229 69.6496 50.7776 69.6496V68.213ZM64.0555 68.213H50.7776V69.6496H64.0555V68.213ZM65.0132 82.428V69.1707H63.5766V82.428H65.0132ZM65.8485 83.2633C65.3872 83.2633 65.0132 82.8893 65.0132 82.428H63.5766C63.5766 83.6827 64.5938 84.6998 65.8485 84.6998V83.2633ZM74.9914 83.2633H65.8485V84.6998H74.9914V83.2633ZM75.8267 82.428C75.8267 82.8893 75.4528 83.2633 74.9914 83.2633V84.6998C76.2461 84.6998 77.2633 83.6827 77.2633 82.428H75.8267ZM75.8267 69.1707V82.428H77.2633V69.1707H75.8267ZM90.0596 68.213H76.7844V69.6496H90.0596V68.213ZM90.8949 67.3777C90.8949 67.839 90.5209 68.213 90.0596 68.213V69.6496C91.3143 69.6496 92.3314 68.6324 92.3314 67.3777H90.8949ZM90.8949 58.2505V67.3777H92.3314V58.2505H90.8949ZM90.0596 57.4152C90.5209 57.4152 90.8949 57.7892 90.8949 58.2505H92.3314C92.3314 56.9958 91.3143 55.9786 90.0596 55.9786V57.4152ZM76.7844 57.4152L90.0596 57.4152L90.0596 55.9786L76.7844 55.9786L76.7844 57.4152ZM75.8267 43.2003V56.4575H77.2633V43.2003H75.8267ZM74.9914 42.365C75.4528 42.365 75.8267 42.739 75.8267 43.2003H77.2633C77.2633 41.9456 76.2461 40.9284 74.9914 40.9284V42.365ZM65.8485 42.365H74.9914V40.9284H65.8485V42.365ZM76.7844 55.9786C77.0489 55.9786 77.2633 56.193 77.2633 56.4575H75.8267C75.8267 56.9864 76.2555 57.4152 76.7844 57.4152L76.7844 55.9786ZM77.2633 69.1707C77.2633 69.4352 77.0489 69.6496 76.7844 69.6496V68.213C76.2555 68.213 75.8267 68.6418 75.8267 69.1707H77.2633ZM64.0555 69.6496C63.791 69.6496 63.5766 69.4352 63.5766 69.1707H65.0132C65.0132 68.6418 64.5844 68.213 64.0555 68.213V69.6496ZM63.5766 56.4575C63.5766 56.193 63.791 55.9786 64.0555 55.9786L64.0555 57.4152C64.5844 57.4152 65.0132 56.9864 65.0132 56.4575H63.5766Z" fill="url(#paint7_linear_7851_10678)" mask="url(#path-20-inside-3_7851_10678)"/>
</g>
</g>
</g>
<defs>
<filter id="filter0_f_7851_10678" x="-8.3351" y="-8.33467" width="156.725" height="134.443" filterUnits="userSpaceOnUse" color-interpolation-filters="sRGB">
<feFlood flood-opacity="0" result="BackgroundImageFix"/>
<feBlend mode="normal" in="SourceGraphic" in2="BackgroundImageFix" result="shape"/>
<feGaussianBlur stdDeviation="3.33396" result="effect1_foregroundBlur_7851_10678"/>
</filter>
<filter id="filter1_f_7851_10678" x="28.024" y="-8.3354" width="50.3374" height="38.1896" filterUnits="userSpaceOnUse" color-interpolation-filters="sRGB">
<feFlood flood-opacity="0" result="BackgroundImageFix"/>
<feBlend mode="normal" in="SourceGraphic" in2="BackgroundImageFix" result="shape"/>
<feGaussianBlur stdDeviation="3.33396" result="effect1_foregroundBlur_7851_10678"/>
</filter>
<filter id="filter2_f_7851_10678" x="-9.99273" y="-13.2079" width="161.983" height="140.398" filterUnits="userSpaceOnUse" color-interpolation-filters="sRGB">
<feFlood flood-opacity="0" result="BackgroundImageFix"/>
<feBlend mode="normal" in="SourceGraphic" in2="BackgroundImageFix" result="shape"/>
<feGaussianBlur stdDeviation="5.77032" result="effect1_foregroundBlur_7851_10678"/>
</filter>
<filter id="filter3_f_7851_10678" x="-4.1035" y="-4.10314" width="150.206" height="127.622" filterUnits="userSpaceOnUse" color-interpolation-filters="sRGB">
<feFlood flood-opacity="0" result="BackgroundImageFix"/>
<feBlend mode="normal" in="SourceGraphic" in2="BackgroundImageFix" result="shape"/>
<feGaussianBlur stdDeviation="1.53875" result="effect1_foregroundBlur_7851_10678"/>
</filter>
<filter id="filter4_f_7851_10678" x="79.4915" y="-6.77987" width="57.8253" height="31.5219" filterUnits="userSpaceOnUse" color-interpolation-filters="sRGB">
<feFlood flood-opacity="0" result="BackgroundImageFix"/>
<feBlend mode="normal" in="SourceGraphic" in2="BackgroundImageFix" result="shape"/>
<feGaussianBlur stdDeviation="4.61625" result="effect1_foregroundBlur_7851_10678"/>
</filter>
<filter id="filter5_f_7851_10678" x="-6.53173" y="-10.7167" width="78.1942" height="80.1638" filterUnits="userSpaceOnUse" color-interpolation-filters="sRGB">
<feFlood flood-opacity="0" result="BackgroundImageFix"/>
<feBlend mode="normal" in="SourceGraphic" in2="BackgroundImageFix" result="shape"/>
<feGaussianBlur stdDeviation="10.0019" result="effect1_foregroundBlur_7851_10678"/>
</filter>
<filter id="filter6_f_7851_10678" x="4.60541" y="0.76789" width="55.9239" height="57.1947" filterUnits="userSpaceOnUse" color-interpolation-filters="sRGB">
<feFlood flood-opacity="0" result="BackgroundImageFix"/>
<feBlend mode="normal" in="SourceGraphic" in2="BackgroundImageFix" result="shape"/>
<feGaussianBlur stdDeviation="7.82199" result="effect1_foregroundBlur_7851_10678"/>
</filter>
<filter id="filter7_f_7851_10678" x="50.3995" y="0.663885" width="27.2702" height="30.9203" filterUnits="userSpaceOnUse" color-interpolation-filters="sRGB">
<feFlood flood-opacity="0" result="BackgroundImageFix"/>
<feBlend mode="normal" in="SourceGraphic" in2="BackgroundImageFix" result="shape"/>
<feGaussianBlur stdDeviation="2.1799" result="effect1_foregroundBlur_7851_10678"/>
</filter>
<filter id="filter8_f_7851_10678" x="48.4731" y="40.8966" width="46.22" height="46.1656" filterUnits="userSpaceOnUse" color-interpolation-filters="sRGB">
<feFlood flood-opacity="0" result="BackgroundImageFix"/>
<feBlend mode="normal" in="SourceGraphic" in2="BackgroundImageFix" result="shape"/>
<feGaussianBlur stdDeviation="0.957713" result="effect1_foregroundBlur_7851_10678"/>
</filter>
<filter id="filter9_f_7851_10678" x="48.2663" y="40.689" width="44.3046" height="44.2501" filterUnits="userSpaceOnUse" color-interpolation-filters="sRGB">
<feFlood flood-opacity="0" result="BackgroundImageFix"/>
<feBlend mode="normal" in="SourceGraphic" in2="BackgroundImageFix" result="shape"/>
<feGaussianBlur stdDeviation="0.478857" result="effect1_foregroundBlur_7851_10678"/>
</filter>
<filter id="filter10_f_7851_10678" x="48.2663" y="40.689" width="44.3046" height="44.2501" filterUnits="userSpaceOnUse" color-interpolation-filters="sRGB">
<feFlood flood-opacity="0" result="BackgroundImageFix"/>
<feBlend mode="normal" in="SourceGraphic" in2="BackgroundImageFix" result="shape"/>
<feGaussianBlur stdDeviation="0.478857" result="effect1_foregroundBlur_7851_10678"/>
</filter>
<filter id="filter11_f_7851_10678" x="48.2663" y="40.689" width="44.3046" height="44.2501" filterUnits="userSpaceOnUse" color-interpolation-filters="sRGB">
<feFlood flood-opacity="0" result="BackgroundImageFix"/>
<feBlend mode="normal" in="SourceGraphic" in2="BackgroundImageFix" result="shape"/>
<feGaussianBlur stdDeviation="0.478857" result="effect1_foregroundBlur_7851_10678"/>
</filter>
<linearGradient id="paint0_linear_7851_10678" x1="14.8431" y1="14.7024" x2="43.1441" y2="26.2308" gradientUnits="userSpaceOnUse">
<stop stop-color="white"/>
<stop offset="1" stop-color="white" stop-opacity="0"/>
</linearGradient>
<linearGradient id="paint1_linear_7851_10678" x1="42.5203" y1="-0.972864" x2="80.6968" y2="36.1135" gradientUnits="userSpaceOnUse">
<stop stop-color="white" stop-opacity="0"/>
<stop offset="0.512152" stop-color="white"/>
<stop offset="1" stop-color="white" stop-opacity="0"/>
</linearGradient>
<linearGradient id="paint2_linear_7851_10678" x1="112.125" y1="82.0169" x2="98.7824" y2="71.5687" gradientUnits="userSpaceOnUse">
<stop stop-color="white"/>
<stop offset="1" stop-color="white" stop-opacity="0"/>
</linearGradient>
<linearGradient id="paint3_linear_7851_10678" x1="79.8597" y1="114.691" x2="75.3117" y2="107.228" gradientUnits="userSpaceOnUse">
<stop stop-color="white" stop-opacity="0.67"/>
<stop offset="1" stop-color="white" stop-opacity="0"/>
</linearGradient>
<linearGradient id="paint4_linear_7851_10678" x1="103.402" y1="8.88766" x2="71.0762" y2="120.022" gradientUnits="userSpaceOnUse">
<stop stop-color="white"/>
<stop offset="1" stop-color="white" stop-opacity="0"/>
</linearGradient>
<linearGradient id="paint5_linear_7851_10678" x1="53.0435" y1="72.1735" x2="70.8755" y2="74.6784" gradientUnits="userSpaceOnUse">
<stop stop-color="#E83636"/>
<stop offset="1" stop-color="white" stop-opacity="0"/>
</linearGradient>
<linearGradient id="paint6_linear_7851_10678" x1="79.855" y1="79.6049" x2="71.9412" y2="68.2425" gradientUnits="userSpaceOnUse">
<stop stop-color="#E83636"/>
<stop offset="1" stop-color="white" stop-opacity="0"/>
</linearGradient>
<linearGradient id="paint7_linear_7851_10678" x1="79.855" y1="79.6049" x2="71.9412" y2="68.2425" gradientUnits="userSpaceOnUse">
<stop stop-color="#E83636"/>
<stop offset="1" stop-color="white" stop-opacity="0"/>
</linearGradient>
</defs>
</svg>
