<svg width="142" height="120" viewBox="0 0 142 120" fill="none" xmlns="http://www.w3.org/2000/svg">
<g clip-path="url(#clip0_8090_19772)">
<path d="M73.0174 118.867C71.7463 119.597 70.2531 119.597 68.9821 118.867C57.4202 112.23 0.0908203 77.2803 0.0908203 36.8181C0.0908203 27.0533 3.96986 17.6885 10.8746 10.7838C17.7793 3.87904 27.1441 0 36.9089 0C52.3111 0 65.5043 8.39316 70.9997 21.8181C76.4952 8.39316 89.6883 0 105.091 0C114.855 0 124.22 3.87904 131.125 10.7838C138.03 17.6885 141.909 27.0533 141.909 36.8181C141.909 77.2803 84.5792 112.23 73.0174 118.867Z" fill="#FF2B2A"/>
<mask id="mask0_8090_19772" style="mask-type:alpha" maskUnits="userSpaceOnUse" x="0" y="0" width="142" height="120">
<path d="M73.0174 118.867C71.7463 119.597 70.2531 119.597 68.9821 118.867C57.4202 112.23 0.0908203 77.2805 0.0908203 36.8183C0.0908203 27.0536 3.96986 17.6887 10.8746 10.784C17.7793 3.87928 27.1441 0.000244141 36.9089 0.000244141C52.3111 0.000244141 65.5043 8.3934 70.9997 21.8184C76.4952 8.3934 89.6883 0.000244141 105.091 0.000244141C114.855 0.000244141 124.22 3.87928 131.125 10.784C138.03 17.6887 141.909 27.0536 141.909 36.8183C141.909 77.2806 84.5792 112.23 73.0174 118.867Z" fill="#FF2B2A"/>
</mask>
<g mask="url(#mask0_8090_19772)">
<g filter="url(#filter0_f_8090_19772)">
<path d="M72.0447 117.225C70.7738 117.955 69.2836 117.955 68.0127 117.225C56.5495 110.641 0.0908203 76.192 0.0908203 36.3141C0.0908203 26.6831 3.91674 17.4465 10.7269 10.6363C17.5371 3.82616 26.7737 0.000244141 36.4047 0.000244141C51.596 0.000244141 64.6085 8.27847 70.0287 21.5196C75.4489 8.27847 88.4614 0.000244141 103.653 0.000244141C113.284 0.000244141 122.52 3.82616 129.33 10.6363C136.141 17.4465 139.967 26.6831 139.967 36.3141C139.967 76.192 83.5079 110.641 72.0447 117.225Z" stroke="url(#paint0_linear_8090_19772)" stroke-width="3.33396" stroke-linecap="round" stroke-linejoin="round"/>
</g>
<g filter="url(#filter1_f_8090_19772)">
<path d="M36.4033 -0.000610352C51.5946 -0.000610352 64.6071 8.27761 70.0273 21.5187" stroke="url(#paint1_linear_8090_19772)" stroke-width="3.33396" stroke-linecap="round" stroke-linejoin="round"/>
</g>
<g filter="url(#filter2_f_8090_19772)">
<path d="M73.0107 113.433C71.7401 114.163 70.2554 114.163 68.9849 113.433C57.7502 106.973 3.30078 73.6795 3.30078 35.1501C3.30078 25.8277 7.00411 16.887 13.5961 10.2951C20.1881 3.70309 29.1287 -0.000244141 38.4511 -0.000244141C53.1557 -0.000244141 65.7513 8.01274 70.9978 20.8296C76.2443 8.01274 88.8398 -0.000244141 103.544 -0.000244141C112.867 -0.000244141 121.807 3.70309 128.399 10.2951C134.991 16.887 138.695 25.8277 138.695 35.1501C138.695 73.6795 84.2454 106.973 73.0107 113.433Z" stroke="url(#paint2_linear_8090_19772)" stroke-width="3.33396" stroke-linecap="round" stroke-linejoin="round"/>
</g>
<g filter="url(#filter3_f_8090_19772)">
<path d="M73.0174 118.867C71.7463 119.597 70.2531 119.597 68.9821 118.867C57.4202 112.23 0.0908203 77.2805 0.0908203 36.8183C0.0908203 27.0536 3.96986 17.6887 10.8746 10.784C17.7793 3.87928 27.1441 0.000244141 36.9089 0.000244141C52.3111 0.000244141 65.5043 8.3934 70.9997 21.8184C76.4952 8.3934 89.6883 0.000244141 105.091 0.000244141C114.855 0.000244141 124.22 3.87928 131.125 10.784C138.03 17.6887 141.909 27.0536 141.909 36.8183C141.909 77.2806 84.5792 112.23 73.0174 118.867Z" stroke="url(#paint3_linear_8090_19772)" stroke-width="2.05167" stroke-linecap="round" stroke-linejoin="round"/>
</g>
<g filter="url(#filter4_f_8090_19772)">
<path d="M88.7013 9.22131C91.8917 4.79777 99.2982 2.20264 107.841 2.47167C113.257 2.64222 118.41 4.11167 122.167 6.55676C125.548 8.75793 127.549 11.5875 127.839 14.5285C128.05 14.9287 128.074 15.2645 127.872 15.5096C127.882 15.1817 127.871 14.8544 127.839 14.5285C126.635 12.2477 119.351 7.87533 113.283 6.27699C103.829 3.78714 91.3334 7.02071 88.7013 9.22131Z" fill="white"/>
</g>
<g opacity="0.3" filter="url(#filter5_f_8090_19772)">
<ellipse cx="32.6156" cy="29.3651" rx="17.5835" ry="21.3884" transform="rotate(-37.2941 32.6156 29.3651)" fill="white"/>
</g>
<g opacity="0.3" filter="url(#filter6_f_8090_19772)">
<ellipse cx="32.6176" cy="29.3651" rx="11.3439" ry="13.7987" transform="rotate(-37.2941 32.6176 29.3651)" fill="white"/>
</g>
<mask id="mask1_8090_19772" style="mask-type:alpha" maskUnits="userSpaceOnUse" x="-2" y="-1" width="77" height="85">
<path d="M74.8509 41.5638C74.8509 64.7767 56.3779 83.5944 35.7776 83.5944C15.1774 83.5944 -1.52246 64.7767 -1.52246 41.5638C-1.52246 18.351 13.3004 -0.466675 35.7776 -0.466675C61.0455 -0.466675 74.8509 18.351 74.8509 41.5638Z" fill="#D9D9D9"/>
</mask>
<g mask="url(#mask1_8090_19772)">
<g filter="url(#filter7_f_8090_19772)">
<path d="M73.3061 27.2245C71.912 15.2698 60.502 7.12823 54.7793 5.0238C64.9689 10.6504 70.8804 21.6398 70.5577 26.6992L73.3061 27.2245Z" fill="white"/>
</g>
</g>
<path opacity="0.2" d="M73.0174 118.867C71.7463 119.597 70.2531 119.597 68.9821 118.867C57.4202 112.23 0.0908203 77.2805 0.0908203 36.8183C0.0908203 27.0536 3.96986 17.6887 10.8746 10.784C17.7793 3.87928 27.1441 0.000244141 36.9089 0.000244141C52.3111 0.000244141 65.5043 8.3934 70.9997 21.8184C76.4952 8.3934 89.6883 0.000244141 105.091 0.000244141C114.855 0.000244141 124.22 3.87928 131.125 10.784C138.03 17.6887 141.909 27.0536 141.909 36.8183C141.909 77.2806 84.5792 112.23 73.0174 118.867Z" fill="url(#paint4_linear_8090_19772)"/>
<g style="mix-blend-mode:multiply" opacity="0.6" filter="url(#filter8_f_8090_19772)">
<path fill-rule="evenodd" clip-rule="evenodd" d="M67.0174 42.8119C66.1594 42.8119 65.4639 43.5074 65.4639 44.3655V57.8621L51.9676 57.8621C51.1096 57.8621 50.4141 58.5577 50.4141 59.4157V68.5429C50.4141 69.4009 51.1096 70.0965 51.9676 70.0965H65.4639V83.5931C65.4639 84.4512 66.1594 85.1467 67.0174 85.1467H76.1447C77.0027 85.1467 77.6982 84.4512 77.6982 83.5931V70.0965H91.1953C92.0533 70.0965 92.7489 69.4009 92.7489 68.5429V59.4157C92.7489 58.5577 92.0533 57.8621 91.1953 57.8621L77.6982 57.8621V44.3655C77.6982 43.5074 77.0027 42.8119 76.1447 42.8119H67.0174Z" fill="#C41212"/>
</g>
<path fill-rule="evenodd" clip-rule="evenodd" d="M65.8534 41.6467C64.9954 41.6467 64.2998 42.3423 64.2998 43.2003V56.697L50.8036 56.6969C49.9456 56.6969 49.25 57.3925 49.25 58.2505V67.3778C49.25 68.2358 49.9456 68.9313 50.8036 68.9313H64.2998V82.428C64.2998 83.286 64.9954 83.9815 65.8534 83.9815H74.9806C75.8386 83.9815 76.5342 83.286 76.5342 82.428V68.9313H90.0312C90.8893 68.9313 91.5848 68.2358 91.5848 67.3778V58.2505C91.5848 57.3925 90.8893 56.697 90.0312 56.697L76.5342 56.697V43.2003C76.5342 42.3423 75.8386 41.6467 74.9806 41.6467H65.8534Z" fill="white"/>
<mask id="mask2_8090_19772" style="mask-type:alpha" maskUnits="userSpaceOnUse" x="49" y="41" width="43" height="43">
<path fill-rule="evenodd" clip-rule="evenodd" d="M65.8534 41.6467C64.9954 41.6467 64.2998 42.3423 64.2998 43.2003V56.697L50.8036 56.6969C49.9456 56.6969 49.25 57.3925 49.25 58.2505V67.3778C49.25 68.2358 49.9456 68.9313 50.8036 68.9313H64.2998V82.428C64.2998 83.286 64.9954 83.9815 65.8534 83.9815H74.9806C75.8386 83.9815 76.5342 83.286 76.5342 82.428V68.9313H90.0312C90.8893 68.9313 91.5848 68.2358 91.5848 67.3778V58.2505C91.5848 57.3925 90.8893 56.697 90.0312 56.697L76.5342 56.697V43.2003C76.5342 42.3423 75.8386 41.6467 74.9806 41.6467H65.8534Z" fill="white"/>
</mask>
<g mask="url(#mask2_8090_19772)">
<g opacity="0.2" filter="url(#filter9_f_8090_19772)">
<mask id="path-16-inside-1_8090_19772" fill="white">
<path fill-rule="evenodd" clip-rule="evenodd" d="M65.8534 41.6467C64.9954 41.6467 64.2998 42.3423 64.2998 43.2003V56.4575C64.2998 56.5898 64.1926 56.697 64.0604 56.697L50.8036 56.6969C49.9456 56.6969 49.25 57.3925 49.25 58.2505V67.3778C49.25 68.2358 49.9456 68.9313 50.8036 68.9313H64.0604C64.1926 68.9313 64.2998 69.0385 64.2998 69.1708V82.428C64.2998 83.286 64.9954 83.9815 65.8534 83.9815H74.9806C75.8386 83.9815 76.5342 83.286 76.5342 82.428V69.1708C76.5342 69.0385 76.6414 68.9313 76.7736 68.9313H90.0312C90.8893 68.9313 91.5848 68.2358 91.5848 67.3778V58.2505C91.5848 57.3925 90.8893 56.697 90.0312 56.697L76.7736 56.697C76.6414 56.697 76.5342 56.5898 76.5342 56.4575V43.2003C76.5342 42.3423 75.8386 41.6467 74.9806 41.6467H65.8534Z"/>
</mask>
<path d="M50.8036 56.6969L50.8036 55.9787H50.8036V56.6969ZM90.0312 56.697L90.0312 57.4152H90.0312V56.697ZM76.7736 56.697L76.7736 55.9787L76.7736 56.697ZM64.0604 56.697L64.0604 57.4152L64.0604 56.697ZM65.0181 43.2003C65.0181 42.739 65.3921 42.365 65.8534 42.365V40.9284C64.5987 40.9284 63.5815 41.9456 63.5815 43.2003H65.0181ZM65.0181 56.4575V43.2003H63.5815V56.4575H65.0181ZM50.8036 57.4152L64.0604 57.4152L64.0604 55.9787L50.8036 55.9787L50.8036 57.4152ZM49.9683 58.2505C49.9683 57.7892 50.3423 57.4152 50.8036 57.4152V55.9787C49.5489 55.9787 48.5317 56.9958 48.5317 58.2505H49.9683ZM49.9683 67.3778V58.2505H48.5317V67.3778H49.9683ZM50.8036 68.213C50.3423 68.213 49.9683 67.8391 49.9683 67.3778H48.5317C48.5317 68.6325 49.5489 69.6496 50.8036 69.6496V68.213ZM64.0604 68.213H50.8036V69.6496H64.0604V68.213ZM65.0181 82.428V69.1708H63.5815V82.428H65.0181ZM65.8534 83.2633C65.3921 83.2633 65.0181 82.8893 65.0181 82.428H63.5815C63.5815 83.6827 64.5987 84.6998 65.8534 84.6998V83.2633ZM74.9806 83.2633H65.8534V84.6998H74.9806V83.2633ZM75.8159 82.428C75.8159 82.8893 75.4419 83.2633 74.9806 83.2633V84.6998C76.2353 84.6998 77.2525 83.6827 77.2525 82.428H75.8159ZM75.8159 69.1708V82.428H77.2525V69.1708H75.8159ZM90.0312 68.213H76.7736V69.6496H90.0312V68.213ZM90.8665 67.3778C90.8665 67.8391 90.4926 68.213 90.0312 68.213V69.6496C91.286 69.6496 92.3031 68.6325 92.3031 67.3778H90.8665ZM90.8665 58.2505V67.3778H92.3031V58.2505H90.8665ZM90.0312 57.4152C90.4926 57.4152 90.8665 57.7892 90.8665 58.2505H92.3031C92.3031 56.9958 91.286 55.9787 90.0312 55.9787V57.4152ZM76.7736 57.4152L90.0312 57.4152L90.0313 55.9787L76.7736 55.9787L76.7736 57.4152ZM75.8159 43.2003V56.4575H77.2525V43.2003H75.8159ZM74.9806 42.365C75.4419 42.365 75.8159 42.739 75.8159 43.2003H77.2525C77.2525 41.9456 76.2353 40.9284 74.9806 40.9284V42.365ZM65.8534 42.365H74.9806V40.9284H65.8534V42.365ZM76.7736 55.9787C77.0381 55.9787 77.2525 56.1931 77.2525 56.4575H75.8159C75.8159 56.9865 76.2447 57.4152 76.7736 57.4152L76.7736 55.9787ZM77.2525 69.1708C77.2525 69.4352 77.0381 69.6496 76.7736 69.6496V68.213C76.2447 68.213 75.8159 68.6418 75.8159 69.1708H77.2525ZM64.0604 69.6496C63.7959 69.6496 63.5815 69.4352 63.5815 69.1708H65.0181C65.0181 68.6418 64.5893 68.213 64.0604 68.213V69.6496ZM63.5815 56.4575C63.5815 56.1931 63.7959 55.9787 64.0604 55.9787L64.0604 57.4152C64.5893 57.4152 65.0181 56.9865 65.0181 56.4575H63.5815Z" fill="url(#paint5_linear_8090_19772)" mask="url(#path-16-inside-1_8090_19772)"/>
</g>
<g opacity="0.2" filter="url(#filter10_f_8090_19772)">
<mask id="path-18-inside-2_8090_19772" fill="white">
<path fill-rule="evenodd" clip-rule="evenodd" d="M65.8534 41.6467C64.9954 41.6467 64.2998 42.3423 64.2998 43.2003V56.4575C64.2998 56.5898 64.1926 56.697 64.0604 56.697L50.8036 56.6969C49.9456 56.6969 49.25 57.3925 49.25 58.2505V67.3778C49.25 68.2358 49.9456 68.9313 50.8036 68.9313H64.0604C64.1926 68.9313 64.2998 69.0385 64.2998 69.1708V82.428C64.2998 83.286 64.9954 83.9815 65.8534 83.9815H74.9806C75.8386 83.9815 76.5342 83.286 76.5342 82.428V69.1708C76.5342 69.0385 76.6414 68.9313 76.7736 68.9313H90.0312C90.8893 68.9313 91.5848 68.2358 91.5848 67.3778V58.2505C91.5848 57.3925 90.8893 56.697 90.0312 56.697L76.7736 56.697C76.6414 56.697 76.5342 56.5898 76.5342 56.4575V43.2003C76.5342 42.3423 75.8386 41.6467 74.9806 41.6467H65.8534Z"/>
</mask>
<path d="M50.8036 56.6969L50.8036 55.9787H50.8036V56.6969ZM90.0312 56.697L90.0312 57.4152H90.0312V56.697ZM76.7736 56.697L76.7736 55.9787L76.7736 56.697ZM64.0604 56.697L64.0604 57.4152L64.0604 56.697ZM65.0181 43.2003C65.0181 42.739 65.3921 42.365 65.8534 42.365V40.9284C64.5987 40.9284 63.5815 41.9456 63.5815 43.2003H65.0181ZM65.0181 56.4575V43.2003H63.5815V56.4575H65.0181ZM50.8036 57.4152L64.0604 57.4152L64.0604 55.9787L50.8036 55.9787L50.8036 57.4152ZM49.9683 58.2505C49.9683 57.7892 50.3423 57.4152 50.8036 57.4152V55.9787C49.5489 55.9787 48.5317 56.9958 48.5317 58.2505H49.9683ZM49.9683 67.3778V58.2505H48.5317V67.3778H49.9683ZM50.8036 68.213C50.3423 68.213 49.9683 67.8391 49.9683 67.3778H48.5317C48.5317 68.6325 49.5489 69.6496 50.8036 69.6496V68.213ZM64.0604 68.213H50.8036V69.6496H64.0604V68.213ZM65.0181 82.428V69.1708H63.5815V82.428H65.0181ZM65.8534 83.2633C65.3921 83.2633 65.0181 82.8893 65.0181 82.428H63.5815C63.5815 83.6827 64.5987 84.6998 65.8534 84.6998V83.2633ZM74.9806 83.2633H65.8534V84.6998H74.9806V83.2633ZM75.8159 82.428C75.8159 82.8893 75.4419 83.2633 74.9806 83.2633V84.6998C76.2353 84.6998 77.2525 83.6827 77.2525 82.428H75.8159ZM75.8159 69.1708V82.428H77.2525V69.1708H75.8159ZM90.0312 68.213H76.7736V69.6496H90.0312V68.213ZM90.8665 67.3778C90.8665 67.8391 90.4926 68.213 90.0312 68.213V69.6496C91.286 69.6496 92.3031 68.6325 92.3031 67.3778H90.8665ZM90.8665 58.2505V67.3778H92.3031V58.2505H90.8665ZM90.0312 57.4152C90.4926 57.4152 90.8665 57.7892 90.8665 58.2505H92.3031C92.3031 56.9958 91.286 55.9787 90.0312 55.9787V57.4152ZM76.7736 57.4152L90.0312 57.4152L90.0313 55.9787L76.7736 55.9787L76.7736 57.4152ZM75.8159 43.2003V56.4575H77.2525V43.2003H75.8159ZM74.9806 42.365C75.4419 42.365 75.8159 42.739 75.8159 43.2003H77.2525C77.2525 41.9456 76.2353 40.9284 74.9806 40.9284V42.365ZM65.8534 42.365H74.9806V40.9284H65.8534V42.365ZM76.7736 55.9787C77.0381 55.9787 77.2525 56.1931 77.2525 56.4575H75.8159C75.8159 56.9865 76.2447 57.4152 76.7736 57.4152L76.7736 55.9787ZM77.2525 69.1708C77.2525 69.4352 77.0381 69.6496 76.7736 69.6496V68.213C76.2447 68.213 75.8159 68.6418 75.8159 69.1708H77.2525ZM64.0604 69.6496C63.7959 69.6496 63.5815 69.4352 63.5815 69.1708H65.0181C65.0181 68.6418 64.5893 68.213 64.0604 68.213V69.6496ZM63.5815 56.4575C63.5815 56.1931 63.7959 55.9787 64.0604 55.9787L64.0604 57.4152C64.5893 57.4152 65.0181 56.9865 65.0181 56.4575H63.5815Z" fill="url(#paint6_linear_8090_19772)" mask="url(#path-18-inside-2_8090_19772)"/>
</g>
<g opacity="0.2" filter="url(#filter11_f_8090_19772)">
<mask id="path-20-inside-3_8090_19772" fill="white">
<path fill-rule="evenodd" clip-rule="evenodd" d="M65.8534 41.6467C64.9954 41.6467 64.2998 42.3423 64.2998 43.2003V56.4575C64.2998 56.5898 64.1926 56.697 64.0604 56.697L50.8036 56.6969C49.9456 56.6969 49.25 57.3925 49.25 58.2505V67.3778C49.25 68.2358 49.9456 68.9313 50.8036 68.9313H64.0604C64.1926 68.9313 64.2998 69.0385 64.2998 69.1708V82.428C64.2998 83.286 64.9954 83.9815 65.8534 83.9815H74.9806C75.8386 83.9815 76.5342 83.286 76.5342 82.428V69.1708C76.5342 69.0385 76.6414 68.9313 76.7736 68.9313H90.0312C90.8893 68.9313 91.5848 68.2358 91.5848 67.3778V58.2505C91.5848 57.3925 90.8893 56.697 90.0312 56.697L76.7736 56.697C76.6414 56.697 76.5342 56.5898 76.5342 56.4575V43.2003C76.5342 42.3423 75.8386 41.6467 74.9806 41.6467H65.8534Z"/>
</mask>
<path d="M50.8036 56.6969L50.8036 55.9787H50.8036V56.6969ZM90.0312 56.697L90.0312 57.4152H90.0312V56.697ZM76.7736 56.697L76.7736 55.9787L76.7736 56.697ZM64.0604 56.697L64.0604 57.4152L64.0604 56.697ZM65.0181 43.2003C65.0181 42.739 65.3921 42.365 65.8534 42.365V40.9284C64.5987 40.9284 63.5815 41.9456 63.5815 43.2003H65.0181ZM65.0181 56.4575V43.2003H63.5815V56.4575H65.0181ZM50.8036 57.4152L64.0604 57.4152L64.0604 55.9787L50.8036 55.9787L50.8036 57.4152ZM49.9683 58.2505C49.9683 57.7892 50.3423 57.4152 50.8036 57.4152V55.9787C49.5489 55.9787 48.5317 56.9958 48.5317 58.2505H49.9683ZM49.9683 67.3778V58.2505H48.5317V67.3778H49.9683ZM50.8036 68.213C50.3423 68.213 49.9683 67.8391 49.9683 67.3778H48.5317C48.5317 68.6325 49.5489 69.6496 50.8036 69.6496V68.213ZM64.0604 68.213H50.8036V69.6496H64.0604V68.213ZM65.0181 82.428V69.1708H63.5815V82.428H65.0181ZM65.8534 83.2633C65.3921 83.2633 65.0181 82.8893 65.0181 82.428H63.5815C63.5815 83.6827 64.5987 84.6998 65.8534 84.6998V83.2633ZM74.9806 83.2633H65.8534V84.6998H74.9806V83.2633ZM75.8159 82.428C75.8159 82.8893 75.4419 83.2633 74.9806 83.2633V84.6998C76.2353 84.6998 77.2525 83.6827 77.2525 82.428H75.8159ZM75.8159 69.1708V82.428H77.2525V69.1708H75.8159ZM90.0312 68.213H76.7736V69.6496H90.0312V68.213ZM90.8665 67.3778C90.8665 67.8391 90.4926 68.213 90.0312 68.213V69.6496C91.286 69.6496 92.3031 68.6325 92.3031 67.3778H90.8665ZM90.8665 58.2505V67.3778H92.3031V58.2505H90.8665ZM90.0312 57.4152C90.4926 57.4152 90.8665 57.7892 90.8665 58.2505H92.3031C92.3031 56.9958 91.286 55.9787 90.0312 55.9787V57.4152ZM76.7736 57.4152L90.0312 57.4152L90.0313 55.9787L76.7736 55.9787L76.7736 57.4152ZM75.8159 43.2003V56.4575H77.2525V43.2003H75.8159ZM74.9806 42.365C75.4419 42.365 75.8159 42.739 75.8159 43.2003H77.2525C77.2525 41.9456 76.2353 40.9284 74.9806 40.9284V42.365ZM65.8534 42.365H74.9806V40.9284H65.8534V42.365ZM76.7736 55.9787C77.0381 55.9787 77.2525 56.1931 77.2525 56.4575H75.8159C75.8159 56.9865 76.2447 57.4152 76.7736 57.4152L76.7736 55.9787ZM77.2525 69.1708C77.2525 69.4352 77.0381 69.6496 76.7736 69.6496V68.213C76.2447 68.213 75.8159 68.6418 75.8159 69.1708H77.2525ZM64.0604 69.6496C63.7959 69.6496 63.5815 69.4352 63.5815 69.1708H65.0181C65.0181 68.6418 64.5893 68.213 64.0604 68.213V69.6496ZM63.5815 56.4575C63.5815 56.1931 63.7959 55.9787 64.0604 55.9787L64.0604 57.4152C64.5893 57.4152 65.0181 56.9865 65.0181 56.4575H63.5815Z" fill="url(#paint7_linear_8090_19772)" mask="url(#path-20-inside-3_8090_19772)"/>
</g>
</g>
</g>
</g>
<defs>
<filter id="filter0_f_8090_19772" x="-8.2441" y="-8.33467" width="156.546" height="134.442" filterUnits="userSpaceOnUse" color-interpolation-filters="sRGB">
<feFlood flood-opacity="0" result="BackgroundImageFix"/>
<feBlend mode="normal" in="SourceGraphic" in2="BackgroundImageFix" result="shape"/>
<feGaussianBlur stdDeviation="3.33396" result="effect1_foregroundBlur_8090_19772"/>
</filter>
<filter id="filter1_f_8090_19772" x="28.0684" y="-8.33553" width="50.2939" height="38.1896" filterUnits="userSpaceOnUse" color-interpolation-filters="sRGB">
<feFlood flood-opacity="0" result="BackgroundImageFix"/>
<feBlend mode="normal" in="SourceGraphic" in2="BackgroundImageFix" result="shape"/>
<feGaussianBlur stdDeviation="3.33396" result="effect1_foregroundBlur_8090_19772"/>
</filter>
<filter id="filter2_f_8090_19772" x="-9.90685" y="-13.2079" width="161.809" height="140.396" filterUnits="userSpaceOnUse" color-interpolation-filters="sRGB">
<feFlood flood-opacity="0" result="BackgroundImageFix"/>
<feBlend mode="normal" in="SourceGraphic" in2="BackgroundImageFix" result="shape"/>
<feGaussianBlur stdDeviation="5.77032" result="effect1_foregroundBlur_8090_19772"/>
</filter>
<filter id="filter3_f_8090_19772" x="-4.01207" y="-4.10314" width="150.024" height="127.621" filterUnits="userSpaceOnUse" color-interpolation-filters="sRGB">
<feFlood flood-opacity="0" result="BackgroundImageFix"/>
<feBlend mode="normal" in="SourceGraphic" in2="BackgroundImageFix" result="shape"/>
<feGaussianBlur stdDeviation="1.53875" result="effect1_foregroundBlur_8090_19772"/>
</filter>
<filter id="filter4_f_8090_19772" x="79.4687" y="-6.77987" width="57.7746" height="31.522" filterUnits="userSpaceOnUse" color-interpolation-filters="sRGB">
<feFlood flood-opacity="0" result="BackgroundImageFix"/>
<feBlend mode="normal" in="SourceGraphic" in2="BackgroundImageFix" result="shape"/>
<feGaussianBlur stdDeviation="4.61625" result="effect1_foregroundBlur_8090_19772"/>
</filter>
<filter id="filter5_f_8090_19772" x="-6.4569" y="-10.7168" width="78.1452" height="80.1638" filterUnits="userSpaceOnUse" color-interpolation-filters="sRGB">
<feFlood flood-opacity="0" result="BackgroundImageFix"/>
<feBlend mode="normal" in="SourceGraphic" in2="BackgroundImageFix" result="shape"/>
<feGaussianBlur stdDeviation="10.0019" result="effect1_foregroundBlur_8090_19772"/>
</filter>
<filter id="filter6_f_8090_19772" x="4.67145" y="0.767768" width="55.8924" height="57.1947" filterUnits="userSpaceOnUse" color-interpolation-filters="sRGB">
<feFlood flood-opacity="0" result="BackgroundImageFix"/>
<feBlend mode="normal" in="SourceGraphic" in2="BackgroundImageFix" result="shape"/>
<feGaussianBlur stdDeviation="7.82199" result="effect1_foregroundBlur_8090_19772"/>
</filter>
<filter id="filter7_f_8090_19772" x="50.4195" y="0.664007" width="27.246" height="30.9203" filterUnits="userSpaceOnUse" color-interpolation-filters="sRGB">
<feFlood flood-opacity="0" result="BackgroundImageFix"/>
<feBlend mode="normal" in="SourceGraphic" in2="BackgroundImageFix" result="shape"/>
<feGaussianBlur stdDeviation="2.1799" result="effect1_foregroundBlur_8090_19772"/>
</filter>
<filter id="filter8_f_8090_19772" x="48.4986" y="40.8965" width="46.1658" height="46.1657" filterUnits="userSpaceOnUse" color-interpolation-filters="sRGB">
<feFlood flood-opacity="0" result="BackgroundImageFix"/>
<feBlend mode="normal" in="SourceGraphic" in2="BackgroundImageFix" result="shape"/>
<feGaussianBlur stdDeviation="0.957713" result="effect1_foregroundBlur_8090_19772"/>
</filter>
<filter id="filter9_f_8090_19772" x="48.2923" y="40.689" width="44.2504" height="44.2503" filterUnits="userSpaceOnUse" color-interpolation-filters="sRGB">
<feFlood flood-opacity="0" result="BackgroundImageFix"/>
<feBlend mode="normal" in="SourceGraphic" in2="BackgroundImageFix" result="shape"/>
<feGaussianBlur stdDeviation="0.478857" result="effect1_foregroundBlur_8090_19772"/>
</filter>
<filter id="filter10_f_8090_19772" x="48.2923" y="40.689" width="44.2504" height="44.2503" filterUnits="userSpaceOnUse" color-interpolation-filters="sRGB">
<feFlood flood-opacity="0" result="BackgroundImageFix"/>
<feBlend mode="normal" in="SourceGraphic" in2="BackgroundImageFix" result="shape"/>
<feGaussianBlur stdDeviation="0.478857" result="effect1_foregroundBlur_8090_19772"/>
</filter>
<filter id="filter11_f_8090_19772" x="48.2923" y="40.689" width="44.2504" height="44.2503" filterUnits="userSpaceOnUse" color-interpolation-filters="sRGB">
<feFlood flood-opacity="0" result="BackgroundImageFix"/>
<feBlend mode="normal" in="SourceGraphic" in2="BackgroundImageFix" result="shape"/>
<feGaussianBlur stdDeviation="0.478857" result="effect1_foregroundBlur_8090_19772"/>
</filter>
<linearGradient id="paint0_linear_8090_19772" x1="14.9151" y1="14.7024" x2="43.1901" y2="26.2055" gradientUnits="userSpaceOnUse">
<stop stop-color="white"/>
<stop offset="1" stop-color="white" stop-opacity="0"/>
</linearGradient>
<linearGradient id="paint1_linear_8090_19772" x1="42.5568" y1="-0.972986" x2="80.7319" y2="36.0644" gradientUnits="userSpaceOnUse">
<stop stop-color="white" stop-opacity="0"/>
<stop offset="0.512152" stop-color="white"/>
<stop offset="1" stop-color="white" stop-opacity="0"/>
</linearGradient>
<linearGradient id="paint2_linear_8090_19772" x1="112.071" y1="82.0169" x2="98.7328" y2="71.5853" gradientUnits="userSpaceOnUse">
<stop stop-color="white"/>
<stop offset="1" stop-color="white" stop-opacity="0"/>
</linearGradient>
<linearGradient id="paint3_linear_8090_19772" x1="79.8483" y1="114.691" x2="75.2976" y2="107.233" gradientUnits="userSpaceOnUse">
<stop stop-color="white" stop-opacity="0.67"/>
<stop offset="1" stop-color="white" stop-opacity="0"/>
</linearGradient>
<linearGradient id="paint4_linear_8090_19772" x1="103.36" y1="8.88766" x2="70.9997" y2="120" gradientUnits="userSpaceOnUse">
<stop stop-color="white"/>
<stop offset="1" stop-color="white" stop-opacity="0"/>
</linearGradient>
<linearGradient id="paint5_linear_8090_19772" x1="53.0646" y1="72.1735" x2="70.8747" y2="74.6721" gradientUnits="userSpaceOnUse">
<stop stop-color="#E83636"/>
<stop offset="1" stop-color="white" stop-opacity="0"/>
</linearGradient>
<linearGradient id="paint6_linear_8090_19772" x1="79.8418" y1="79.6049" x2="71.9244" y2="68.252" gradientUnits="userSpaceOnUse">
<stop stop-color="#E83636"/>
<stop offset="1" stop-color="white" stop-opacity="0"/>
</linearGradient>
<linearGradient id="paint7_linear_8090_19772" x1="79.8418" y1="79.6049" x2="71.9244" y2="68.252" gradientUnits="userSpaceOnUse">
<stop stop-color="#E83636"/>
<stop offset="1" stop-color="white" stop-opacity="0"/>
</linearGradient>
<clipPath id="clip0_8090_19772">
<rect width="142" height="120" fill="white"/>
</clipPath>
</defs>
</svg>
