<svg width="260" height="218" viewBox="0 0 260 218" fill="none" xmlns="http://www.w3.org/2000/svg">
<path d="M14.5359 139.384L145.59 12.4218C152.072 6.1424 162.742 7.69346 167.167 15.5586L251.711 165.808C255.989 173.41 252.207 183.024 243.896 185.675L147.581 216.392C144.336 217.427 140.822 217.222 137.72 215.818L18.4369 161.813C9.58775 157.807 7.55912 146.143 14.5359 139.384Z" fill="#FF2B2A"/>
<mask id="mask0_7893_17396" style="mask-type:alpha" maskUnits="userSpaceOnUse" x="10" y="8" width="244" height="210">
<path d="M14.5359 139.384L145.59 12.4218C152.072 6.1424 162.742 7.69346 167.167 15.5586L251.711 165.808C255.989 173.41 252.207 183.024 243.896 185.675L147.581 216.392C144.336 217.427 140.822 217.222 137.72 215.818L18.4369 161.813C9.58775 157.807 7.55912 146.143 14.5359 139.384Z" fill="#FF2B2A"/>
</mask>
<g mask="url(#mask0_7893_17396)">
<path d="M8.71749 145.02L150.723 7.44964C154.61 3.68373 161.009 4.61394 163.663 9.33081L255.029 171.704C257.594 176.264 255.327 182.029 250.342 183.619L145.563 217.036C143.617 217.656 141.51 217.534 139.649 216.691L11.057 158.472C5.74998 156.069 4.53337 149.074 8.71749 145.02Z" fill="#FF2B2A"/>
<g opacity="0.5" filter="url(#filter0_f_7893_17396)">
<path d="M117.291 116.477L170.307 -20.6195L-16.3594 158.66L117.291 116.477Z" fill="url(#paint0_linear_7893_17396)"/>
</g>
<g style="mix-blend-mode:multiply" filter="url(#filter1_f_7893_17396)">
<path d="M112.956 117.992L7.45309 154.846C2.64898 156.525 2.26791 163.172 6.84875 165.388L140.977 230.279C142.332 230.935 143.89 231.029 145.315 230.543L254.963 193.06C259.836 191.394 260.194 184.638 255.523 182.468L117.25 118.205C115.901 117.578 114.36 117.501 112.956 117.992Z" stroke="url(#paint1_linear_7893_17396)" stroke-width="1.90529"/>
</g>
<g filter="url(#filter2_f_7893_17396)">
<path d="M110.994 114.906L4.99431 151.934C-1.94496 154.358 -2.49541 163.959 4.12136 167.16L140.727 233.251C142.684 234.198 144.936 234.334 146.993 233.631L257.202 195.957C264.241 193.55 264.757 183.792 258.011 180.657L117.197 115.213C115.248 114.307 113.023 114.197 110.994 114.906Z" fill="url(#paint2_linear_7893_17396)"/>
</g>
<g opacity="0.4" filter="url(#filter3_f_7893_17396)">
<path d="M118.825 115.47L156.655 7.84315C157.736 4.76737 161.929 4.3814 163.554 7.20818L262.783 179.888C264.643 183.126 261.219 186.831 257.845 185.229L120.786 120.176C119.024 119.34 118.178 117.31 118.825 115.47Z" fill="url(#paint3_linear_7893_17396)"/>
</g>
<g style="mix-blend-mode:soft-light" filter="url(#filter4_f_7893_17396)">
<path d="M111.968 114.566L-0.785189 153.953C-5.5893 155.631 -5.97039 162.278 -1.38955 164.494L141.667 233.705C143.022 234.361 144.581 234.456 146.005 233.969L263.182 193.912C268.055 192.247 268.412 185.491 263.742 183.32L116.262 114.778C114.913 114.151 113.372 114.075 111.968 114.566Z" stroke="url(#paint4_linear_7893_17396)" stroke-width="6.98608"/>
</g>
<g style="mix-blend-mode:soft-light" filter="url(#filter5_f_7893_17396)">
<path d="M111.968 114.566L-0.785189 153.953C-5.5893 155.631 -5.97039 162.278 -1.38955 164.494L141.667 233.705C143.022 234.361 144.581 234.456 146.005 233.969L263.182 193.912C268.055 192.247 268.412 185.491 263.742 183.32L116.262 114.778C114.913 114.151 113.372 114.075 111.968 114.566Z" stroke="url(#paint5_linear_7893_17396)" stroke-width="6.98608"/>
</g>
</g>
<defs>
<filter id="filter0_f_7893_17396" x="-22.0753" y="-26.3354" width="198.1" height="190.711" filterUnits="userSpaceOnUse" color-interpolation-filters="sRGB">
<feFlood flood-opacity="0" result="BackgroundImageFix"/>
<feBlend mode="normal" in="SourceGraphic" in2="BackgroundImageFix" result="shape"/>
<feGaussianBlur stdDeviation="2.85794" result="effect1_foregroundBlur_7893_17396"/>
</filter>
<filter id="filter1_f_7893_17396" x="-1.14262" y="112.909" width="264.734" height="122.704" filterUnits="userSpaceOnUse" color-interpolation-filters="sRGB">
<feFlood flood-opacity="0" result="BackgroundImageFix"/>
<feBlend mode="normal" in="SourceGraphic" in2="BackgroundImageFix" result="shape"/>
<feGaussianBlur stdDeviation="1.90529" result="effect1_foregroundBlur_7893_17396"/>
</filter>
<filter id="filter2_f_7893_17396" x="-4.34965" y="110.633" width="270.949" height="127.252" filterUnits="userSpaceOnUse" color-interpolation-filters="sRGB">
<feFlood flood-opacity="0" result="BackgroundImageFix"/>
<feBlend mode="normal" in="SourceGraphic" in2="BackgroundImageFix" result="shape"/>
<feGaussianBlur stdDeviation="1.90529" result="effect1_foregroundBlur_7893_17396"/>
</filter>
<filter id="filter3_f_7893_17396" x="113.529" y="0.214868" width="154.861" height="190.48" filterUnits="userSpaceOnUse" color-interpolation-filters="sRGB">
<feFlood flood-opacity="0" result="BackgroundImageFix"/>
<feBlend mode="normal" in="SourceGraphic" in2="BackgroundImageFix" result="shape"/>
<feGaussianBlur stdDeviation="2.54039" result="effect1_foregroundBlur_7893_17396"/>
</filter>
<filter id="filter4_f_7893_17396" x="-11.92" y="106.942" width="286.274" height="134.637" filterUnits="userSpaceOnUse" color-interpolation-filters="sRGB">
<feFlood flood-opacity="0" result="BackgroundImageFix"/>
<feBlend mode="normal" in="SourceGraphic" in2="BackgroundImageFix" result="shape"/>
<feGaussianBlur stdDeviation="1.90529" result="effect1_foregroundBlur_7893_17396"/>
</filter>
<filter id="filter5_f_7893_17396" x="-11.92" y="106.942" width="286.274" height="134.637" filterUnits="userSpaceOnUse" color-interpolation-filters="sRGB">
<feFlood flood-opacity="0" result="BackgroundImageFix"/>
<feBlend mode="normal" in="SourceGraphic" in2="BackgroundImageFix" result="shape"/>
<feGaussianBlur stdDeviation="1.90529" result="effect1_foregroundBlur_7893_17396"/>
</filter>
<linearGradient id="paint0_linear_7893_17396" x1="138.879" y1="14.7957" x2="120.45" y2="109.609" gradientUnits="userSpaceOnUse">
<stop stop-color="white" stop-opacity="0.77"/>
<stop offset="1" stop-color="white" stop-opacity="0"/>
</linearGradient>
<linearGradient id="paint1_linear_7893_17396" x1="131.433" y1="117.227" x2="95.0811" y2="183.788" gradientUnits="userSpaceOnUse">
<stop stop-color="#A30606"/>
<stop offset="1" stop-color="#A30606" stop-opacity="0"/>
</linearGradient>
<linearGradient id="paint2_linear_7893_17396" x1="131.423" y1="113.801" x2="131.423" y2="234.729" gradientUnits="userSpaceOnUse">
<stop stop-color="#C81211"/>
<stop offset="1" stop-color="#B80100"/>
</linearGradient>
<linearGradient id="paint3_linear_7893_17396" x1="163.508" y1="4.72202" x2="224.823" y2="166.873" gradientUnits="userSpaceOnUse">
<stop stop-color="#C60100"/>
<stop offset="1" stop-color="#560000"/>
</linearGradient>
<linearGradient id="paint4_linear_7893_17396" x1="96.1862" y1="119.31" x2="101.813" y2="138.224" gradientUnits="userSpaceOnUse">
<stop stop-color="white"/>
<stop offset="1" stop-color="white" stop-opacity="0"/>
</linearGradient>
<linearGradient id="paint5_linear_7893_17396" x1="96.1861" y1="119.31" x2="96.8105" y2="135.365" gradientUnits="userSpaceOnUse">
<stop stop-color="white"/>
<stop offset="1" stop-color="white" stop-opacity="0"/>
</linearGradient>
</defs>
</svg>
