<svg width="142" height="120" viewBox="0 0 142 120" fill="none" xmlns="http://www.w3.org/2000/svg">
<path d="M52.2872 95.2489H89.7162V105.844L92.9501 115.983C93.0467 116.286 93.0958 116.602 93.0958 116.919V116.919C93.0958 118.621 91.7166 120 90.0152 120H51.9883C50.2869 120 48.9077 118.621 48.9077 116.919V116.919C48.9077 116.602 48.9568 116.286 49.0533 115.983L52.2872 105.844V95.2489Z" fill="#0084FE"/>
<mask id="mask0_7851_10849" style="mask-type:alpha" maskUnits="userSpaceOnUse" x="48" y="95" width="46" height="25">
<path d="M52.2886 95.2489H89.7176V105.844L92.9515 115.983C93.048 116.286 93.0972 116.602 93.0972 116.919V116.919C93.0972 118.621 91.7179 120 90.0165 120H51.9897C50.2883 120 48.909 118.621 48.909 116.919V116.919C48.909 116.602 48.9581 116.286 49.0547 115.983L52.2886 105.844V95.2489Z" fill="#FF2B2A"/>
</mask>
<g mask="url(#mask0_7851_10849)">
<g filter="url(#filter0_f_7851_10849)">
<path d="M95.6633 116.296V116.296C95.6633 118.342 94.0048 120 91.9589 120H49.9969C47.951 120 46.2925 118.342 46.2925 116.296V116.296" stroke="#0D6FE1" stroke-width="5.32584"/>
</g>
<g opacity="0.4" filter="url(#filter1_f_7851_10849)">
<path d="M93.0972 116.296V116.296C93.0972 116.824 92.6686 117.253 92.1398 117.253H49.8663C49.3376 117.253 48.909 116.824 48.909 116.296V116.296" stroke="url(#paint0_linear_7851_10849)" stroke-width="1.33146"/>
</g>
<g filter="url(#filter2_f_7851_10849)">
<rect x="33.3384" y="107.347" width="68.6213" height="4.91149" fill="#0D6FE1"/>
</g>
<g filter="url(#filter3_f_7851_10849)">
<rect x="53.0538" y="91.1698" width="35.8457" height="8.15806" fill="#0D6FE1"/>
</g>
<g opacity="0.6" filter="url(#filter4_f_7851_10849)">
<path d="M49.1796 105.627H92.8251" stroke="white" stroke-width="1.99719"/>
</g>
</g>
<path d="M8.96803 95.5994C4.01513 95.5994 4.78799e-08 91.5842 1.06943e-07 86.6313L1.03307e-06 8.96806C1.09213e-06 4.01516 4.01513 3.81949e-05 8.96804 3.82539e-05L133.032 3.97334e-05C137.985 3.97924e-05 142 4.01517 142 8.96808L142 86.6313C142 91.5842 137.985 95.5994 133.032 95.5994L8.96803 95.5994Z" fill="#0084FE"/>
<mask id="mask1_7851_10849" style="mask-type:alpha" maskUnits="userSpaceOnUse" x="0" y="0" width="142" height="96">
<path d="M8.96803 95.5994C4.01513 95.5994 4.78799e-08 91.5842 1.06943e-07 86.6313L1.03307e-06 8.96806C1.09213e-06 4.01516 4.01513 3.81949e-05 8.96804 3.82539e-05L133.032 3.97334e-05C137.985 3.97924e-05 142 4.01517 142 8.96808L142 86.6313C142 91.5842 137.985 95.5994 133.032 95.5994L8.96803 95.5994Z" fill="#FF2B2A"/>
</mask>
<g mask="url(#mask1_7851_10849)">
<g opacity="0.7" filter="url(#filter5_f_7851_10849)">
<path d="M10.0602 95.5994C5.10727 95.5994 1.09216 91.5842 1.09216 86.6313L1.09216 10.4399C1.09216 5.48701 5.10729 1.47188 10.0602 1.47188L131.938 1.47188C136.891 1.47188 140.906 5.48701 140.906 10.4399L140.906 86.6313C140.906 91.5842 136.891 95.5994 131.938 95.5994L10.0602 95.5994Z" stroke="url(#paint1_linear_7851_10849)" stroke-width="1.121"/>
</g>
<g filter="url(#filter6_f_7851_10849)">
<path d="M8.96803 95.5994C4.01513 95.5994 4.78799e-08 91.5842 1.06943e-07 86.6313L1.03307e-06 8.96806C1.09213e-06 4.01516 4.01513 3.81949e-05 8.96804 3.82539e-05L133.032 3.97334e-05C137.985 3.97924e-05 142 4.01517 142 8.96808L142 86.6313C142 91.5842 137.985 95.5994 133.032 95.5994L8.96803 95.5994Z" stroke="url(#paint2_linear_7851_10849)" stroke-width="0.560502"/>
</g>
<g opacity="0.7" filter="url(#filter7_f_7851_10849)">
<path d="M10.0602 95.5994C5.10727 95.5994 1.09216 91.5842 1.09216 86.6313L1.09216 10.4399C1.09216 5.48701 5.10729 1.47188 10.0602 1.47188L131.938 1.47188C136.891 1.47188 140.906 5.48701 140.906 10.4399L140.906 86.6313C140.906 91.5842 136.891 95.5994 131.938 95.5994L10.0602 95.5994Z" stroke="url(#paint3_linear_7851_10849)" stroke-width="1.121"/>
</g>
<g opacity="0.4" filter="url(#filter8_f_7851_10849)">
<rect x="3.65997" y="95.5994" width="91.2539" height="134.68" rx="6.16552" transform="rotate(-90 3.65997 95.5994)" stroke="url(#paint4_linear_7851_10849)" stroke-width="1.121"/>
</g>
<g filter="url(#filter9_d_7851_10849)">
<path d="M4.78098 84.3854C4.16186 84.3854 3.65997 83.8835 3.65997 83.2644L3.65997 11.492C3.65997 7.77733 6.67132 4.76598 10.386 4.76598L131.614 4.76599C135.329 4.76599 138.34 7.77733 138.34 11.492L138.34 83.2644C138.34 83.8835 137.839 84.3854 137.219 84.3854L4.78098 84.3854Z" fill="#80B3FF"/>
</g>
<mask id="mask2_7851_10849" style="mask-type:alpha" maskUnits="userSpaceOnUse" x="3" y="4" width="136" height="81">
<path d="M4.78098 84.3853C4.16186 84.3853 3.65997 83.8834 3.65997 83.2642L3.65997 11.4919C3.65997 7.77721 6.67132 4.76586 10.386 4.76586L131.614 4.76586C135.329 4.76586 138.34 7.77721 138.34 11.4919L138.34 83.2643C138.34 83.8834 137.839 84.3853 137.219 84.3853L4.78098 84.3853Z" fill="#FF8080"/>
</mask>
<g mask="url(#mask2_7851_10849)">
<g opacity="0.4" filter="url(#filter10_f_7851_10849)">
<path d="M3.8001 83.2642L3.8001 11.4919C3.8001 7.8546 6.74871 4.90599 10.386 4.90599L131.614 4.90599C135.252 4.90599 138.2 7.85459 138.2 11.4919L138.2 83.2643C138.2 83.806 137.761 84.2451 137.219 84.2451L4.78098 84.2451C4.23925 84.2451 3.8001 83.806 3.8001 83.2642Z" stroke="url(#paint5_linear_7851_10849)" stroke-width="0.280251"/>
</g>
</g>
<path opacity="0.2" d="M8.96803 95.5994C4.01513 95.5994 4.78799e-08 91.5842 1.06943e-07 86.6313L1.03307e-06 8.96806C1.09213e-06 4.01516 4.01513 3.81949e-05 8.96804 3.82539e-05L133.032 3.97334e-05C137.985 3.97924e-05 142 4.01517 142 8.96808L142 86.6313C142 91.5842 137.985 95.5994 133.032 95.5994L8.96803 95.5994Z" fill="white"/>
<path opacity="0.2" d="M8.96803 95.5994C4.01513 95.5994 4.78799e-08 91.5842 1.06943e-07 86.6313L1.03307e-06 8.96806C1.09213e-06 4.01516 4.01513 3.81949e-05 8.96804 3.82539e-05L133.032 3.97334e-05C137.985 3.97924e-05 142 4.01517 142 8.96808L142 86.6313C142 91.5842 137.985 95.5994 133.032 95.5994L8.96803 95.5994Z" fill="white"/>
</g>
<g filter="url(#filter11_d_7851_10849)">
<ellipse cx="71.0009" cy="89.4316" rx="3.35331" ry="3.3642" fill="white"/>
</g>
<mask id="mask3_7851_10849" style="mask-type:alpha" maskUnits="userSpaceOnUse" x="67" y="86" width="8" height="7">
<ellipse cx="71.002" cy="89.4317" rx="3.35331" ry="3.3642" fill="white"/>
</mask>
<g mask="url(#mask3_7851_10849)">
<g filter="url(#filter12_f_7851_10849)">
<path d="M74.0751 89.4317C74.0751 91.1358 72.6983 92.5157 71.002 92.5157C69.3056 92.5157 67.9289 91.1358 67.9289 89.4317C67.9289 87.7276 69.3056 86.3478 71.002 86.3478C72.6983 86.3478 74.0751 87.7276 74.0751 89.4317Z" stroke="url(#paint6_linear_7851_10849)" stroke-width="0.560502"/>
</g>
</g>
<g filter="url(#filter13_d_7851_10849)">
<path d="M8.19766 79.6194C7.57855 79.6194 7.07666 79.1175 7.07666 78.4984L7.07666 13.1747C7.07666 10.3887 9.33517 8.13015 12.1212 8.13015L129.881 8.13015C132.667 8.13015 134.925 10.3887 134.925 13.1747L134.925 78.4984C134.925 79.1175 134.424 79.6194 133.804 79.6194L8.19766 79.6194Z" fill="white"/>
</g>
<defs>
<filter id="filter0_f_7851_10849" x="43.2967" y="115.963" width="55.3624" height="7.03304" filterUnits="userSpaceOnUse" color-interpolation-filters="sRGB">
<feFlood flood-opacity="0" result="BackgroundImageFix"/>
<feBlend mode="normal" in="SourceGraphic" in2="BackgroundImageFix" result="shape"/>
<feGaussianBlur stdDeviation="0.166432" result="effect1_foregroundBlur_7851_10849"/>
</filter>
<filter id="filter1_f_7851_10849" x="46.9118" y="114.964" width="48.1825" height="4.28596" filterUnits="userSpaceOnUse" color-interpolation-filters="sRGB">
<feFlood flood-opacity="0" result="BackgroundImageFix"/>
<feBlend mode="normal" in="SourceGraphic" in2="BackgroundImageFix" result="shape"/>
<feGaussianBlur stdDeviation="0.665729" result="effect1_foregroundBlur_7851_10849"/>
</filter>
<filter id="filter2_f_7851_10849" x="29.0112" y="103.019" width="77.2758" height="13.566" filterUnits="userSpaceOnUse" color-interpolation-filters="sRGB">
<feFlood flood-opacity="0" result="BackgroundImageFix"/>
<feBlend mode="normal" in="SourceGraphic" in2="BackgroundImageFix" result="shape"/>
<feGaussianBlur stdDeviation="2.16362" result="effect1_foregroundBlur_7851_10849"/>
</filter>
<filter id="filter3_f_7851_10849" x="48.7265" y="86.8426" width="44.5002" height="16.8126" filterUnits="userSpaceOnUse" color-interpolation-filters="sRGB">
<feFlood flood-opacity="0" result="BackgroundImageFix"/>
<feBlend mode="normal" in="SourceGraphic" in2="BackgroundImageFix" result="shape"/>
<feGaussianBlur stdDeviation="2.16362" result="effect1_foregroundBlur_7851_10849"/>
</filter>
<filter id="filter4_f_7851_10849" x="45.1853" y="100.634" width="51.6342" height="9.98582" filterUnits="userSpaceOnUse" color-interpolation-filters="sRGB">
<feFlood flood-opacity="0" result="BackgroundImageFix"/>
<feBlend mode="normal" in="SourceGraphic" in2="BackgroundImageFix" result="shape"/>
<feGaussianBlur stdDeviation="1.99719" result="effect1_foregroundBlur_7851_10849"/>
</filter>
<filter id="filter5_f_7851_10849" x="-1.43008" y="-1.05038" width="144.858" height="99.1721" filterUnits="userSpaceOnUse" color-interpolation-filters="sRGB">
<feFlood flood-opacity="0" result="BackgroundImageFix"/>
<feBlend mode="normal" in="SourceGraphic" in2="BackgroundImageFix" result="shape"/>
<feGaussianBlur stdDeviation="0.980879" result="effect1_foregroundBlur_7851_10849"/>
</filter>
<filter id="filter6_f_7851_10849" x="-0.840776" y="-0.840776" width="143.682" height="97.2809" filterUnits="userSpaceOnUse" color-interpolation-filters="sRGB">
<feFlood flood-opacity="0" result="BackgroundImageFix"/>
<feBlend mode="normal" in="SourceGraphic" in2="BackgroundImageFix" result="shape"/>
<feGaussianBlur stdDeviation="0.280251" result="effect1_foregroundBlur_7851_10849"/>
</filter>
<filter id="filter7_f_7851_10849" x="-1.43008" y="-1.05038" width="144.858" height="99.1721" filterUnits="userSpaceOnUse" color-interpolation-filters="sRGB">
<feFlood flood-opacity="0" result="BackgroundImageFix"/>
<feBlend mode="normal" in="SourceGraphic" in2="BackgroundImageFix" result="shape"/>
<feGaussianBlur stdDeviation="0.980879" result="effect1_foregroundBlur_7851_10849"/>
</filter>
<filter id="filter8_f_7851_10849" x="1.97848" y="2.66391" width="138.043" height="94.617" filterUnits="userSpaceOnUse" color-interpolation-filters="sRGB">
<feFlood flood-opacity="0" result="BackgroundImageFix"/>
<feBlend mode="normal" in="SourceGraphic" in2="BackgroundImageFix" result="shape"/>
<feGaussianBlur stdDeviation="0.560502" result="effect1_foregroundBlur_7851_10849"/>
</filter>
<filter id="filter9_d_7851_10849" x="3.09947" y="4.76599" width="135.801" height="80.7404" filterUnits="userSpaceOnUse" color-interpolation-filters="sRGB">
<feFlood flood-opacity="0" result="BackgroundImageFix"/>
<feColorMatrix in="SourceAlpha" type="matrix" values="0 0 0 0 0 0 0 0 0 0 0 0 0 0 0 0 0 0 127 0" result="hardAlpha"/>
<feOffset dy="0.560502"/>
<feGaussianBlur stdDeviation="0.280251"/>
<feComposite in2="hardAlpha" operator="out"/>
<feColorMatrix type="matrix" values="0 0 0 0 0.0412536 0 0 0 0 0.324255 0 0 0 0 0.873611 0 0 0 1 0"/>
<feBlend mode="normal" in2="BackgroundImageFix" result="effect1_dropShadow_7851_10849"/>
<feBlend mode="normal" in="SourceGraphic" in2="effect1_dropShadow_7851_10849" result="shape"/>
</filter>
<filter id="filter10_f_7851_10849" x="3.09947" y="4.20537" width="135.801" height="80.7404" filterUnits="userSpaceOnUse" color-interpolation-filters="sRGB">
<feFlood flood-opacity="0" result="BackgroundImageFix"/>
<feBlend mode="normal" in="SourceGraphic" in2="BackgroundImageFix" result="shape"/>
<feGaussianBlur stdDeviation="0.280251" result="effect1_foregroundBlur_7851_10849"/>
</filter>
<filter id="filter11_d_7851_10849" x="66.5266" y="86.0674" width="8.94861" height="8.9704" filterUnits="userSpaceOnUse" color-interpolation-filters="sRGB">
<feFlood flood-opacity="0" result="BackgroundImageFix"/>
<feColorMatrix in="SourceAlpha" type="matrix" values="0 0 0 0 0 0 0 0 0 0 0 0 0 0 0 0 0 0 127 0" result="hardAlpha"/>
<feOffset dy="1.121"/>
<feGaussianBlur stdDeviation="0.560502"/>
<feComposite in2="hardAlpha" operator="out"/>
<feColorMatrix type="matrix" values="0 0 0 0 0.0412536 0 0 0 0 0.47408 0 0 0 0 0.873611 0 0 0 1 0"/>
<feBlend mode="normal" in2="BackgroundImageFix" result="effect1_dropShadow_7851_10849"/>
<feBlend mode="normal" in="SourceGraphic" in2="effect1_dropShadow_7851_10849" result="shape"/>
</filter>
<filter id="filter12_f_7851_10849" x="67.3684" y="85.7873" width="7.26711" height="7.2889" filterUnits="userSpaceOnUse" color-interpolation-filters="sRGB">
<feFlood flood-opacity="0" result="BackgroundImageFix"/>
<feBlend mode="normal" in="SourceGraphic" in2="BackgroundImageFix" result="shape"/>
<feGaussianBlur stdDeviation="0.140126" result="effect1_foregroundBlur_7851_10849"/>
</filter>
<filter id="filter13_d_7851_10849" x="5.07947" y="6.13294" width="131.843" height="75.4836" filterUnits="userSpaceOnUse" color-interpolation-filters="sRGB">
<feFlood flood-opacity="0" result="BackgroundImageFix"/>
<feColorMatrix in="SourceAlpha" type="matrix" values="0 0 0 0 0 0 0 0 0 0 0 0 0 0 0 0 0 0 127 0" result="hardAlpha"/>
<feOffset/>
<feGaussianBlur stdDeviation="0.998594"/>
<feComposite in2="hardAlpha" operator="out"/>
<feColorMatrix type="matrix" values="0 0 0 0 0.312813 0 0 0 0 0.494725 0 0 0 0 0.9625 0 0 0 1 0"/>
<feBlend mode="normal" in2="BackgroundImageFix" result="effect1_dropShadow_7851_10849"/>
<feBlend mode="normal" in="SourceGraphic" in2="effect1_dropShadow_7851_10849" result="shape"/>
</filter>
<linearGradient id="paint0_linear_7851_10849" x1="50.19" y1="117.253" x2="93.0972" y2="117.253" gradientUnits="userSpaceOnUse">
<stop stop-color="white" stop-opacity="0"/>
<stop offset="0.526042" stop-color="white"/>
<stop offset="1" stop-color="white" stop-opacity="0"/>
</linearGradient>
<linearGradient id="paint1_linear_7851_10849" x1="6.65921" y1="5.18652" x2="11.2916" y2="12.6023" gradientUnits="userSpaceOnUse">
<stop stop-color="white"/>
<stop offset="1" stop-color="white" stop-opacity="0"/>
</linearGradient>
<linearGradient id="paint2_linear_7851_10849" x1="10.337" y1="-2.38294" x2="10.337" y2="11.3182" gradientUnits="userSpaceOnUse">
<stop stop-color="white"/>
<stop offset="1" stop-color="white" stop-opacity="0"/>
</linearGradient>
<linearGradient id="paint3_linear_7851_10849" x1="135.063" y1="7.00879" x2="123.696" y2="23.6553" gradientUnits="userSpaceOnUse">
<stop stop-color="white"/>
<stop offset="1" stop-color="white" stop-opacity="0"/>
</linearGradient>
<linearGradient id="paint4_linear_7851_10849" x1="94.2449" y1="144.985" x2="19.7833" y2="144.985" gradientUnits="userSpaceOnUse">
<stop stop-color="#0532A7"/>
<stop offset="1" stop-color="white" stop-opacity="0"/>
</linearGradient>
<linearGradient id="paint5_linear_7851_10849" x1="71.0002" y1="5.46674" x2="71.0002" y2="84.3853" gradientUnits="userSpaceOnUse">
<stop stop-color="white"/>
<stop offset="1" stop-color="white" stop-opacity="0"/>
</linearGradient>
<linearGradient id="paint6_linear_7851_10849" x1="71.002" y1="86.0675" x2="71.002" y2="92.7959" gradientUnits="userSpaceOnUse">
<stop stop-color="#DBEBFF"/>
<stop offset="1" stop-color="#FFDBDB" stop-opacity="0"/>
</linearGradient>
</defs>
</svg>
