<svg width="48" height="48" viewBox="0 0 48 48" fill="none" xmlns="http://www.w3.org/2000/svg">
<rect x="0.769231" y="0.769231" width="46.4615" height="46.4615" rx="11.5385" fill="#F1F3F7" stroke="#353E5C" stroke-width="1.53846"/>
<mask id="mask0_5462_57747" style="mask-type:alpha" maskUnits="userSpaceOnUse" x="1" y="1" width="46" height="46">
<rect x="1.68079" y="1.84967" width="44.6131" height="44.6024" rx="10.7692" fill="#F1F4FF"/>
</mask>
<g mask="url(#mask0_5462_57747)">
<line x1="32.8206" y1="6.10127e-05" x2="32.8206" y2="50.0481" stroke="#B4B9C9" stroke-width="1.02564"/>
<line x1="41.1283" y1="6.10127e-05" x2="41.1283" y2="50.0481" stroke="#B4B9C9" stroke-width="1.02564"/>
<line x1="24.5128" y1="6.10127e-05" x2="24.5128" y2="50.0481" stroke="#B4B9C9" stroke-width="1.02564"/>
<line x1="7.89746" y1="6.10127e-05" x2="7.89747" y2="50.0481" stroke="#B4B9C9" stroke-width="1.02564"/>
<line x1="16.2052" y1="6.10127e-05" x2="16.2052" y2="50.0481" stroke="#B4B9C9" stroke-width="1.02564"/>
<line x1="-1.02405" y1="16.2035" x2="49.024" y2="16.2035" stroke="#B4B9C9" stroke-width="1.02564"/>
<line x1="-1.02405" y1="7.89581" x2="49.024" y2="7.89581" stroke="#B4B9C9" stroke-width="1.02564"/>
<line x1="-1.02405" y1="24.5112" x2="49.024" y2="24.5112" stroke="#B4B9C9" stroke-width="1.02564"/>
<line x1="-1.02405" y1="41.1266" x2="49.024" y2="41.1266" stroke="#B4B9C9" stroke-width="1.02564"/>
<line x1="-1.02405" y1="32.819" x2="49.024" y2="32.819" stroke="#B4B9C9" stroke-width="1.02564"/>
<rect x="1.41187" y="1.53467" width="45.0024" height="44.9916" rx="10.7692" fill="url(#paint0_radial_5462_57747)"/>
</g>
<path d="M35.385 24C35.385 30.2878 30.2878 35.385 24 35.385C17.7122 35.385 12.615 30.2878 12.615 24C12.615 17.7122 17.7122 12.615 24 12.615C30.2878 12.615 35.385 17.7122 35.385 24Z" fill="white" stroke="#353E5C" stroke-width="1.23"/>
<mask id="path-15-inside-1_5462_57747" fill="white">
<path d="M29.1456 25.1974C29.974 25.1974 30.6618 25.8767 30.4838 26.6857C30.3965 27.0822 30.2744 27.4712 30.1183 27.848C29.7703 28.6883 29.2601 29.4519 28.6169 30.095C27.9737 30.7382 27.2102 31.2484 26.3698 31.5965C25.5295 31.9446 24.6288 32.1237 23.7193 32.1237C22.8097 32.1237 21.909 31.9446 21.0687 31.5965C20.2283 31.2484 19.4648 30.7382 18.8216 30.095C18.1785 29.4519 17.6683 28.6883 17.3202 27.848C17.1641 27.4712 17.042 27.0822 16.9548 26.6857C16.7768 25.8766 17.4645 25.1974 18.293 25.1974L23.7193 25.1974H29.1456Z"/>
</mask>
<path d="M29.1456 25.1974C29.974 25.1974 30.6618 25.8767 30.4838 26.6857C30.3965 27.0822 30.2744 27.4712 30.1183 27.848C29.7703 28.6883 29.2601 29.4519 28.6169 30.095C27.9737 30.7382 27.2102 31.2484 26.3698 31.5965C25.5295 31.9446 24.6288 32.1237 23.7193 32.1237C22.8097 32.1237 21.909 31.9446 21.0687 31.5965C20.2283 31.2484 19.4648 30.7382 18.8216 30.095C18.1785 29.4519 17.6683 28.6883 17.3202 27.848C17.1641 27.4712 17.042 27.0822 16.9548 26.6857C16.7768 25.8766 17.4645 25.1974 18.293 25.1974L23.7193 25.1974H29.1456Z" fill="#B4B9C9" stroke="#353E5C" stroke-width="2.46" mask="url(#path-15-inside-1_5462_57747)"/>
<defs>
<radialGradient id="paint0_radial_5462_57747" cx="0" cy="0" r="1" gradientUnits="userSpaceOnUse" gradientTransform="translate(23.9131 24.0305) rotate(90) scale(22.4958 22.5012)">
<stop stop-color="#F6FAFD" stop-opacity="0.28"/>
<stop offset="1" stop-color="#F6FAFD"/>
</radialGradient>
</defs>
</svg>
