<svg width="156" height="40" viewBox="0 0 156 40" fill="none" xmlns="http://www.w3.org/2000/svg">
<path d="M63.5263 21.8252C63.5263 26.0217 60.2117 29.0322 54.9509 29.0322C49.5685 29.0322 45.6761 25.748 45.6761 21.2474H49.1428C49.1428 24.0147 51.5755 26.0217 55.0422 26.0217C58.1135 26.0217 59.9076 24.4404 59.9076 22.2814C59.9076 19.8182 57.1708 19.4533 54.1299 19.0276C50.0855 18.4802 45.9498 17.7504 45.9498 12.7937C45.9498 8.81007 49.3252 5.98201 54.3427 5.98201C59.3907 5.98201 63.0398 9.08375 63.0398 13.3715H59.6644C59.6644 10.8171 57.4445 8.99253 54.3732 8.99253C51.4539 8.99253 49.5685 10.4522 49.5685 12.4288C49.5685 14.8919 52.0621 15.2872 55.1638 15.713C59.1778 16.2603 63.5263 16.9902 63.5263 21.8252ZM68.0264 23.9235V15.4089H65.6545V12.8241H68.2089L68.6346 9.08375H71.341V12.8241H75.1118V15.4089H71.341V23.7106C71.341 25.1094 72.1925 26.0825 73.5913 26.0825C74.017 26.0825 74.7469 25.9913 75.3246 25.8088V28.4544C74.534 28.7281 73.4393 28.8802 72.5878 28.8802C69.8206 28.8802 68.0264 26.8731 68.0264 23.9235ZM85.7336 25.9305C88.6833 25.9305 90.812 23.6802 90.812 20.548C90.812 17.4159 88.6833 15.1656 85.7336 15.1656C82.7839 15.1656 80.6249 17.4159 80.6249 20.548C80.6249 23.6498 82.7839 25.9305 85.7336 25.9305ZM90.8424 15.1352V12.8241H94.157V28.272H90.8424V25.9609C89.5348 27.7854 87.4974 28.8802 85.095 28.8802C80.564 28.8802 77.3407 25.3831 77.3407 20.548C77.3407 15.713 80.564 12.2159 85.095 12.2159C87.4974 12.2159 89.5348 13.3106 90.8424 15.1352ZM97.6191 12.8241H100.812V14.8007C101.755 13.2194 103.245 12.2767 105.009 12.2767C105.617 12.2767 106.316 12.4288 106.985 12.672V15.6217C106.134 15.2568 105.191 15.1352 104.583 15.1352C102.393 15.1352 100.934 17.0814 100.934 19.8182V28.272H97.6191V12.8241ZM110.458 23.9235V15.4089H108.086V12.8241H110.64L111.066 9.08375H113.773V12.8241H117.543V15.4089H113.773V23.7106C113.773 25.1094 114.624 26.0825 116.023 26.0825C116.449 26.0825 117.178 25.9913 117.756 25.8088V28.4544C116.966 28.7281 115.871 28.8802 115.019 28.8802C112.252 28.8802 110.458 26.8731 110.458 23.9235ZM134.703 28.272H131.449V26.2954C130.385 27.9071 128.439 28.8802 126.462 28.8802C122.661 28.8802 120.198 26.0825 120.198 22.2509V12.8241H123.513V22.0077C123.513 24.2884 124.851 25.9305 127.192 25.9305C129.473 25.9305 131.419 24.1667 131.419 21.7036V12.8241H134.703V28.272ZM146.451 25.7784C149.401 25.7784 151.56 23.5585 151.56 20.548C151.56 17.4767 149.37 15.3176 146.451 15.3176C143.501 15.3176 141.373 17.5375 141.373 20.548C141.373 23.5585 143.501 25.7784 146.451 25.7784ZM154.844 20.548C154.844 25.3831 151.59 28.8802 147.09 28.8802C144.779 28.8802 142.802 27.8767 141.494 26.1737V35.2661H138.18V12.8241H141.403V14.9831C142.741 13.2498 144.718 12.2159 147.09 12.2159C151.56 12.2159 154.844 15.713 154.844 20.548Z" fill="#545D73"/>
<path d="M11.7155 19.5172L4.62427 26.5118C3.66414 27.4589 2.11924 27.4521 1.16748 26.4967C0.204343 25.5298 0.216708 23.9624 1.19498 23.0108L10.6292 13.8342C11.6273 12.8634 13.2164 12.8618 14.2165 13.8306L18.7274 18.2008L26.2069 10.8026H21.0662C19.7745 10.8026 18.7274 9.75546 18.7274 8.46379C18.7274 7.17211 19.7745 6.125 21.0662 6.125H31.9914C33.4135 6.125 34.5664 7.2779 34.5664 8.70007V19.0964C34.5664 20.4734 33.4502 21.5896 32.0733 21.5896C30.6963 21.5896 29.5801 20.4734 29.5801 19.0964V14.1914L20.8438 22.6828C19.6595 23.8338 17.7795 23.8503 16.5754 22.7201L13.1437 19.4995C12.7402 19.1208 12.1095 19.1286 11.7155 19.5172Z" fill="#545D73"/>
</svg>
