<svg width="122" height="120" viewBox="0 0 122 120" fill="none" xmlns="http://www.w3.org/2000/svg">
<mask id="mask0_7851_10714" style="mask-type:alpha" maskUnits="userSpaceOnUse" x="0" y="0" width="120" height="120">
<circle cx="60" cy="60" r="60" fill="#0F44E8"/>
</mask>
<g mask="url(#mask0_7851_10714)">
<g filter="url(#filter0_f_7851_10714)">
<ellipse cx="60.0008" cy="49.2521" rx="97.4609" ry="97.4609" fill="#F5F5F5"/>
</g>
<g filter="url(#filter1_f_7851_10714)">
<circle cx="60.0007" cy="97.4611" r="37.1478" fill="#F2F2F2"/>
</g>
<g style="mix-blend-mode:overlay" opacity="0.7" filter="url(#filter2_f_7851_10714)">
<circle cx="60.0023" cy="83.4781" r="75.2485" stroke="white" stroke-width="26.8944"/>
</g>
<g opacity="0.7" filter="url(#filter3_f_7851_10714)">
<circle cx="59.9987" cy="76.3825" r="74.8764" stroke="white" stroke-width="13.4472"/>
</g>
<g filter="url(#filter4_f_7851_10714)">
<circle cx="57.2859" cy="52.5913" r="24.1634" stroke="url(#paint0_linear_7851_10714)" stroke-width="13.4472"/>
</g>
<g filter="url(#filter5_f_7851_10714)">
<path d="M51.3582 34.3792C70.4065 32.2582 87.5676 45.9806 89.6886 65.0289C91.8095 84.0773 78.0872 101.238 59.0388 103.359C39.9905 105.48 22.8294 91.7579 20.7085 72.7096C18.5875 53.6612 32.3099 36.5001 51.3582 34.3792Z" stroke="url(#paint1_linear_7851_10714)" stroke-width="13.4472"/>
</g>
<path fill-rule="evenodd" clip-rule="evenodd" d="M86.8015 16.5752C89.441 17.5172 92.0653 19.3366 94.2064 21.9146C95.4195 23.3753 96.3647 24.9438 97.0365 26.5324C105.711 25.2721 111.565 28.3919 113.502 30.2419L127.569 47.0103L120.209 64.1514C122.108 48.672 106.635 37.5324 98.1804 33.6414C97.9067 35.8789 96.9571 37.8438 95.3111 39.2109C94.526 39.8629 93.6363 40.3342 92.6762 40.6335C108.648 86.2177 94.9496 109.508 86.0203 115.481C68.7302 125.841 50.7445 123.4 43.9129 120.885C68.2889 113.618 81.5235 65.358 84.8723 39.8696C82.592 38.8526 80.3698 37.1866 78.5117 34.9492C77.9191 34.2357 77.3904 33.4965 76.9264 32.7418C54.248 40.2559 8.76777 60.3796 1.99233 83.0625C-1.17504 77.7215 -6.39189 62.9777 -1.9203 46.7309C10.4736 19.0971 57.1274 20.8375 74.4681 25.2033C74.3248 22.1587 75.2897 19.4113 77.407 17.6529C78.0459 17.1222 78.7542 16.7113 79.5133 16.4153C74.7799 9.21332 63.6255 -2.97901 51.2733 -1.99084C66.3649 -5.43761 77.7693 0.0582473 78.5686 0.524467C83.1582 3.20146 86.8552 9.76808 86.8015 16.5752Z" fill="#00BA57"/>
<mask id="mask1_7851_10714" style="mask-type:alpha" maskUnits="userSpaceOnUse" x="-4" y="-4" width="132" height="128">
<path fill-rule="evenodd" clip-rule="evenodd" d="M86.8008 16.5752C89.4403 17.5172 92.0647 19.3366 94.2057 21.9146C95.4188 23.3753 96.364 24.9438 97.0358 26.5324C105.71 25.2721 111.565 28.3919 113.501 30.2419L127.568 47.0103L120.209 64.1514C122.107 48.672 106.634 37.5324 98.1798 33.6414C97.906 35.8789 96.9565 37.8438 95.3104 39.2109C94.5253 39.8629 93.6356 40.3342 92.6756 40.6335C108.647 86.2177 94.9489 109.508 86.0196 115.481C68.7295 125.841 50.7438 123.4 43.9122 120.885C68.2882 113.618 81.5228 65.358 84.8716 39.8696C82.5914 38.8526 80.3691 37.1866 78.511 34.9492C77.9184 34.2357 77.3898 33.4965 76.9257 32.7418C54.2473 40.2559 8.7671 60.3796 1.99166 83.0625C-1.17571 77.7215 -6.39256 62.9777 -1.92097 46.7309C10.4729 19.0971 57.1268 20.8375 74.4674 25.2033C74.3242 22.1587 75.289 19.4113 77.4063 17.6529C78.0453 17.1222 78.7535 16.7113 79.5126 16.4153C74.7792 9.21332 63.6248 -2.97901 51.2726 -1.99084C66.3642 -5.43761 77.7686 0.0582473 78.5679 0.524467C83.1576 3.20146 86.8545 9.76808 86.8008 16.5752Z" fill="#00BA57"/>
</mask>
<g mask="url(#mask1_7851_10714)">
<g opacity="0.4" filter="url(#filter6_f_7851_10714)">
<path d="M33.7464 37.4589C39.1992 59.8055 98.0223 63.14 65.1679 71.1569C32.3135 79.1738 13.8535 68.5002 8.40063 46.1536C2.94778 23.8069 20.6229 9.53674 30.0256 6.23837C62.88 -1.77851 28.2935 15.1122 33.7464 37.4589Z" fill="white"/>
</g>
<g filter="url(#filter7_f_7851_10714)">
<path d="M65.1679 71.1569C32.3135 79.1738 13.8535 68.5002 8.40063 46.1536C2.94778 23.8069 20.6229 9.53674 30.0256 6.23837" stroke="url(#paint2_linear_7851_10714)" stroke-width="3.98288"/>
</g>
<g filter="url(#filter8_f_7851_10714)">
<path d="M3.88336 81.0099C-3.73432 61.9692 1.47936 43.1302 4.60456 35.6194C-1.02081 60.7893 3.52276 73.212 6.49771 76.2771L3.88336 81.0099Z" stroke="url(#paint3_linear_7851_10714)" stroke-width="3.25872"/>
</g>
</g>
<g filter="url(#filter9_f_7851_10714)">
<circle cx="59.9995" cy="53.6497" r="65.2642" stroke="#00D67A" stroke-width="2.17248"/>
</g>
<g opacity="0.4" filter="url(#filter10_f_7851_10714)">
<path d="M94.8721 34.1778C73.3017 -3.18314 8.3819 -2.91584 37.6695 -19.825C66.957 -36.7342 94.1244 -20.486 115.695 16.875C137.265 54.2359 128.536 80.2248 120.863 86.7673C91.5751 103.677 116.442 71.5388 94.8721 34.1778Z" fill="white"/>
</g>
<g filter="url(#filter11_f_7851_10714)">
<circle cx="59.9995" cy="58.7881" r="60.1257" transform="rotate(90 59.9995 58.7881)" stroke="url(#paint4_linear_7851_10714)" stroke-width="2.17248"/>
</g>
<g opacity="0.6">
<mask id="path-16-inside-1_7851_10714" fill="white">
<path fill-rule="evenodd" clip-rule="evenodd" d="M86.8015 16.5752C89.441 17.5172 92.0653 19.3366 94.2064 21.9146C95.4195 23.3753 96.3647 24.9438 97.0365 26.5324C105.711 25.2721 111.565 28.3919 113.502 30.2419L127.569 47.0103L120.209 64.1514C122.108 48.672 106.635 37.5324 98.1804 33.6414C97.9067 35.8789 96.9571 37.8438 95.3111 39.2109C94.526 39.8629 93.6363 40.3342 92.6762 40.6335C108.648 86.2177 94.9496 109.508 86.0203 115.481C68.7302 125.841 50.7445 123.4 43.9129 120.885C68.2889 113.618 81.5235 65.358 84.8723 39.8696C82.592 38.8526 80.3698 37.1866 78.5117 34.9492C77.9191 34.2357 77.3904 33.4965 76.9264 32.7418C54.248 40.2559 8.76777 60.3796 1.99233 83.0625C-1.17504 77.7215 -6.39189 62.9777 -1.9203 46.7309C10.4736 19.0971 57.1274 20.8375 74.4681 25.2033C74.3248 22.1587 75.2897 19.4113 77.407 17.6529C78.0459 17.1222 78.7542 16.7113 79.5133 16.4153C74.7799 9.21332 63.6255 -2.97901 51.2733 -1.99084C66.3649 -5.43761 77.7693 0.0582473 78.5686 0.524467C83.1582 3.20146 86.8552 9.76808 86.8015 16.5752Z"/>
</mask>
<path d="M86.8015 16.5752L86.4394 16.5723L86.4374 16.8297L86.6797 16.9162L86.8015 16.5752ZM94.2064 21.9146L93.9278 22.1459L93.9278 22.1459L94.2064 21.9146ZM97.0365 26.5324L96.703 26.6734L96.8118 26.9309L97.0885 26.8907L97.0365 26.5324ZM113.502 30.2419L113.779 30.0092L113.766 29.9938L113.752 29.98L113.502 30.2419ZM127.569 47.0103L127.901 47.1531L127.989 46.9483L127.846 46.7776L127.569 47.0103ZM120.209 64.1514L119.85 64.1073L120.542 64.2942L120.209 64.1514ZM98.1804 33.6414L98.3318 33.3124L97.8813 33.1051L97.821 33.5974L98.1804 33.6414ZM95.3111 39.2109L95.5424 39.4894L95.5424 39.4894L95.3111 39.2109ZM92.6762 40.6335L92.5685 40.2878L92.2106 40.3994L92.3345 40.7532L92.6762 40.6335ZM86.0203 115.481L86.2064 115.792L86.2141 115.787L86.2216 115.782L86.0203 115.481ZM43.9129 120.885L43.8095 120.538L42.7668 120.848L43.7878 121.224L43.9129 120.885ZM84.8723 39.8696L85.2312 39.9168L85.2664 39.6489L85.0197 39.5389L84.8723 39.8696ZM78.5117 34.9492L78.7902 34.7179L78.7902 34.7179L78.5117 34.9492ZM76.9264 32.7418L77.2348 32.5521L77.0846 32.3079L76.8125 32.3981L76.9264 32.7418ZM1.99233 83.0625L1.6809 83.2472L2.10263 83.9584L2.33927 83.1662L1.99233 83.0625ZM-1.9203 46.7309L-2.25068 46.5827L-2.26204 46.6081L-2.2694 46.6348L-1.9203 46.7309ZM74.4681 25.2033L74.3797 25.5544L74.8527 25.6735L74.8298 25.1863L74.4681 25.2033ZM77.407 17.6529L77.6383 17.9314L77.6383 17.9314L77.407 17.6529ZM79.5133 16.4153L79.6448 16.7527L80.0615 16.5902L79.8158 16.2165L79.5133 16.4153ZM51.2733 -1.99084L51.1927 -2.34383L51.3022 -1.62991L51.2733 -1.99084ZM78.5686 0.524467L78.3862 0.837233L78.3862 0.837234L78.5686 0.524467ZM86.6797 16.9162C89.2536 17.8348 91.8251 19.6141 93.9278 22.1459L94.4849 21.6833C92.3055 19.0591 89.6283 17.1996 86.9232 16.2341L86.6797 16.9162ZM93.9278 22.1459C95.1187 23.5799 96.0453 25.118 96.703 26.6734L97.3699 26.3914C96.6841 24.7695 95.7202 23.1707 94.4849 21.6833L93.9278 22.1459ZM97.0885 26.8907C105.66 25.6454 111.4 28.7351 113.252 30.5037L113.752 29.98C111.73 28.0487 105.763 24.8987 96.9844 26.1741L97.0885 26.8907ZM113.225 30.4746L127.291 47.243L127.846 46.7776L113.779 30.0092L113.225 30.4746ZM127.236 46.8675L119.877 64.0085L120.542 64.2942L127.901 47.1531L127.236 46.8675ZM120.569 64.1954C121.535 56.3152 118.075 49.5602 113.346 44.3085C108.619 39.058 102.593 35.2737 98.3318 33.3124L98.0291 33.9703C102.222 35.9 108.16 39.6311 112.808 44.793C117.455 49.9537 120.782 56.5082 119.85 64.1073L120.569 64.1954ZM97.821 33.5974C97.5565 35.7597 96.643 37.6341 95.0797 38.9324L95.5424 39.4894C97.2713 38.0536 98.2569 35.9982 98.5398 33.6853L97.821 33.5974ZM95.0797 38.9324C94.3327 39.5527 93.4855 40.002 92.5685 40.2878L92.784 40.9792C93.787 40.6665 94.7192 40.1731 95.5424 39.4894L95.0797 38.9324ZM92.3345 40.7532C108.277 86.2544 94.556 109.336 85.819 115.18L86.2216 115.782C95.3432 109.68 109.019 86.1811 93.018 40.5138L92.3345 40.7532ZM85.8342 115.171C68.6574 125.462 50.79 123.031 44.038 120.545L43.7878 121.224C50.6989 123.769 68.8029 126.219 86.2064 115.792L85.8342 115.171ZM44.0163 121.232C50.2069 119.386 55.6619 114.947 60.409 108.97C65.1576 102.991 69.217 95.448 72.6117 87.3502C79.401 71.155 83.5536 52.6855 85.2312 39.9168L84.5133 39.8224C82.8421 52.5422 78.703 70.9468 71.9438 87.0702C68.5643 95.1318 64.5353 102.61 59.8419 108.519C55.1472 114.431 49.8068 118.75 43.8095 120.538L44.0163 121.232ZM85.0197 39.5389C82.7929 38.5457 80.6148 36.9148 78.7902 34.7179L78.2331 35.1805C80.1249 37.4584 82.3912 39.1595 84.7248 40.2003L85.0197 39.5389ZM78.7902 34.7179C78.2085 34.0175 77.6899 33.2922 77.2348 32.5521L76.6179 32.9315C77.091 33.7008 77.6296 34.4539 78.2331 35.1805L78.7902 34.7179ZM76.8125 32.3981C65.4558 36.1609 48.3917 43.0799 33.3129 51.9013C25.7735 56.312 18.7202 61.2041 13.1231 66.4224C7.52974 71.6371 3.36538 77.2007 1.6454 82.9589L2.33927 83.1662C4.007 77.5829 8.06845 72.1249 13.6169 66.952C19.1616 61.7827 26.1662 56.9212 33.6786 52.5264C48.7033 43.7366 65.7186 36.8367 77.0403 33.0855L76.8125 32.3981ZM2.30377 82.8778C-0.82568 77.6007 -6.01094 62.958 -1.5712 46.827L-2.2694 46.6348C-6.77283 62.9973 -1.5244 77.8422 1.6809 83.2472L2.30377 82.8778ZM-1.58993 46.8791C4.53075 33.2322 19.1347 26.7919 34.4764 24.3247C49.8054 21.8596 65.7543 23.3828 74.3797 25.5544L74.5565 24.8522C65.8412 22.6579 49.7929 21.1281 34.3614 23.6097C18.9425 26.0894 4.02256 32.5958 -2.25068 46.5827L-1.58993 46.8791ZM74.8298 25.1863C74.6904 22.2252 75.6293 19.5999 77.6383 17.9314L77.1756 17.3744C74.9501 19.2226 73.9592 22.0923 74.1064 25.2203L74.8298 25.1863ZM77.6383 17.9314C78.2464 17.4264 78.9207 17.035 79.6448 16.7527L79.3817 16.078C78.5876 16.3876 77.8454 16.8181 77.1756 17.3744L77.6383 17.9314ZM79.8158 16.2165C77.4326 12.5903 73.435 7.70953 68.4724 3.85497C63.514 0.00362122 57.5485 -2.85609 51.2444 -2.35177L51.3022 -1.62991C57.3502 -2.11376 63.1381 0.62861 68.0282 4.42688C72.9142 8.22196 76.8605 13.0383 79.2107 16.6142L79.8158 16.2165ZM51.3539 -1.63785C66.3312 -5.05851 77.6412 0.402722 78.3862 0.837233L78.751 0.211701C77.8973 -0.286228 66.3986 -5.81672 51.1927 -2.34383L51.3539 -1.63785ZM78.3862 0.837234C82.8487 3.44006 86.4923 9.87664 86.4394 16.5723L87.1635 16.578C87.2182 9.65952 83.4678 2.96286 78.751 0.211701L78.3862 0.837234Z" fill="white" mask="url(#path-16-inside-1_7851_10714)"/>
</g>
</g>
<g opacity="0.8" filter="url(#filter12_f_7851_10714)">
<path d="M112.873 34.628C108.907 25.613 97.1874 13.2624 90.967 12.6313C87.7216 14.9752 92.5514 16.643 95.2942 20.6547C99.8019 27.2476 110.079 38.1438 111.882 47.88C114.092 59.8144 116.87 70.2673 117.291 72.5811C118.042 69.3958 116.84 43.643 112.873 34.628Z" fill="white"/>
</g>
<g opacity="0.8" filter="url(#filter13_f_7851_10714)">
<circle cx="75.7339" cy="58.6079" r="15.596" fill="white"/>
</g>
<defs>
<filter id="filter0_f_7851_10714" x="-60.9927" y="-71.7413" width="241.987" height="241.987" filterUnits="userSpaceOnUse" color-interpolation-filters="sRGB">
<feFlood flood-opacity="0" result="BackgroundImageFix"/>
<feBlend mode="normal" in="SourceGraphic" in2="BackgroundImageFix" result="shape"/>
<feGaussianBlur stdDeviation="11.7663" result="effect1_foregroundBlur_7851_10714"/>
</filter>
<filter id="filter1_f_7851_10714" x="-20.8504" y="16.6099" width="161.702" height="161.702" filterUnits="userSpaceOnUse" color-interpolation-filters="sRGB">
<feFlood flood-opacity="0" result="BackgroundImageFix"/>
<feBlend mode="normal" in="SourceGraphic" in2="BackgroundImageFix" result="shape"/>
<feGaussianBlur stdDeviation="21.8517" result="effect1_foregroundBlur_7851_10714"/>
</filter>
<filter id="filter2_f_7851_10714" x="-52.2259" y="-28.7501" width="224.456" height="224.457" filterUnits="userSpaceOnUse" color-interpolation-filters="sRGB">
<feFlood flood-opacity="0" result="BackgroundImageFix"/>
<feBlend mode="normal" in="SourceGraphic" in2="BackgroundImageFix" result="shape"/>
<feGaussianBlur stdDeviation="11.7663" result="effect1_foregroundBlur_7851_10714"/>
</filter>
<filter id="filter3_f_7851_10714" x="-38.4103" y="-22.0265" width="196.818" height="196.818" filterUnits="userSpaceOnUse" color-interpolation-filters="sRGB">
<feFlood flood-opacity="0" result="BackgroundImageFix"/>
<feBlend mode="normal" in="SourceGraphic" in2="BackgroundImageFix" result="shape"/>
<feGaussianBlur stdDeviation="8.40449" result="effect1_foregroundBlur_7851_10714"/>
</filter>
<filter id="filter4_f_7851_10714" x="9.58994" y="4.89536" width="95.3919" height="95.3919" filterUnits="userSpaceOnUse" color-interpolation-filters="sRGB">
<feFlood flood-opacity="0" result="BackgroundImageFix"/>
<feBlend mode="normal" in="SourceGraphic" in2="BackgroundImageFix" result="shape"/>
<feGaussianBlur stdDeviation="8.40449" result="effect1_foregroundBlur_7851_10714"/>
</filter>
<filter id="filter5_f_7851_10714" x="-3.04091" y="10.6297" width="116.479" height="116.479" filterUnits="userSpaceOnUse" color-interpolation-filters="sRGB">
<feFlood flood-opacity="0" result="BackgroundImageFix"/>
<feBlend mode="normal" in="SourceGraphic" in2="BackgroundImageFix" result="shape"/>
<feGaussianBlur stdDeviation="8.40449" result="effect1_foregroundBlur_7851_10714"/>
</filter>
<filter id="filter6_f_7851_10714" x="-1.31236" y="-4.47655" width="85.0897" height="86.9763" filterUnits="userSpaceOnUse" color-interpolation-filters="sRGB">
<feFlood flood-opacity="0" result="BackgroundImageFix"/>
<feBlend mode="normal" in="SourceGraphic" in2="BackgroundImageFix" result="shape"/>
<feGaussianBlur stdDeviation="4.34496" result="effect1_foregroundBlur_7851_10714"/>
</filter>
<filter id="filter7_f_7851_10714" x="-0.0455837" y="-1.07207" width="71.1167" height="82.3043" filterUnits="userSpaceOnUse" color-interpolation-filters="sRGB">
<feFlood flood-opacity="0" result="BackgroundImageFix"/>
<feBlend mode="normal" in="SourceGraphic" in2="BackgroundImageFix" result="shape"/>
<feGaussianBlur stdDeviation="2.7156" result="effect1_foregroundBlur_7851_10714"/>
</filter>
<filter id="filter8_f_7851_10714" x="-4.58738" y="32.0968" width="15.9916" height="55.6068" filterUnits="userSpaceOnUse" color-interpolation-filters="sRGB">
<feFlood flood-opacity="0" result="BackgroundImageFix"/>
<feBlend mode="normal" in="SourceGraphic" in2="BackgroundImageFix" result="shape"/>
<feGaussianBlur stdDeviation="1.44832" result="effect1_foregroundBlur_7851_10714"/>
</filter>
<filter id="filter9_f_7851_10714" x="-26.6274" y="-32.9772" width="173.254" height="173.254" filterUnits="userSpaceOnUse" color-interpolation-filters="sRGB">
<feFlood flood-opacity="0" result="BackgroundImageFix"/>
<feBlend mode="normal" in="SourceGraphic" in2="BackgroundImageFix" result="shape"/>
<feGaussianBlur stdDeviation="10.1382" result="effect1_foregroundBlur_7851_10714"/>
</filter>
<filter id="filter10_f_7851_10714" x="21.5187" y="-35.1973" width="116.456" height="135.282" filterUnits="userSpaceOnUse" color-interpolation-filters="sRGB">
<feFlood flood-opacity="0" result="BackgroundImageFix"/>
<feBlend mode="normal" in="SourceGraphic" in2="BackgroundImageFix" result="shape"/>
<feGaussianBlur stdDeviation="4.34496" result="effect1_foregroundBlur_7851_10714"/>
</filter>
<filter id="filter11_f_7851_10714" x="-21.4888" y="-22.7003" width="162.977" height="162.977" filterUnits="userSpaceOnUse" color-interpolation-filters="sRGB">
<feFlood flood-opacity="0" result="BackgroundImageFix"/>
<feBlend mode="normal" in="SourceGraphic" in2="BackgroundImageFix" result="shape"/>
<feGaussianBlur stdDeviation="10.1382" result="effect1_foregroundBlur_7851_10714"/>
</filter>
<filter id="filter12_f_7851_10714" x="85.9021" y="8.64846" width="35.5829" height="67.9155" filterUnits="userSpaceOnUse" color-interpolation-filters="sRGB">
<feFlood flood-opacity="0" result="BackgroundImageFix"/>
<feBlend mode="normal" in="SourceGraphic" in2="BackgroundImageFix" result="shape"/>
<feGaussianBlur stdDeviation="1.99144" result="effect1_foregroundBlur_7851_10714"/>
</filter>
<filter id="filter13_f_7851_10714" x="48.9135" y="31.7875" width="53.6409" height="53.6409" filterUnits="userSpaceOnUse" color-interpolation-filters="sRGB">
<feFlood flood-opacity="0" result="BackgroundImageFix"/>
<feBlend mode="normal" in="SourceGraphic" in2="BackgroundImageFix" result="shape"/>
<feGaussianBlur stdDeviation="5.61224" result="effect1_foregroundBlur_7851_10714"/>
</filter>
<linearGradient id="paint0_linear_7851_10714" x1="57.2859" y1="21.7043" x2="57.2859" y2="41.5112" gradientUnits="userSpaceOnUse">
<stop stop-color="white"/>
<stop offset="1" stop-color="white" stop-opacity="0"/>
</linearGradient>
<linearGradient id="paint1_linear_7851_10714" x1="14.0262" y1="73.4536" x2="40.4288" y2="70.5138" gradientUnits="userSpaceOnUse">
<stop stop-color="white"/>
<stop offset="1" stop-color="white" stop-opacity="0"/>
</linearGradient>
<linearGradient id="paint2_linear_7851_10714" x1="15.0624" y1="30.3906" x2="14.7018" y2="66.8112" gradientUnits="userSpaceOnUse">
<stop stop-color="white"/>
<stop offset="1" stop-color="white" stop-opacity="0"/>
</linearGradient>
<linearGradient id="paint3_linear_7851_10714" x1="1.17886" y1="43.9061" x2="2.34464" y2="81.0076" gradientUnits="userSpaceOnUse">
<stop stop-color="white"/>
<stop offset="1" stop-color="white" stop-opacity="0"/>
</linearGradient>
<linearGradient id="paint4_linear_7851_10714" x1="5.99964" y1="77.0418" x2="57.5655" y2="54.1437" gradientUnits="userSpaceOnUse">
<stop stop-color="#008E1F"/>
<stop offset="1" stop-color="#008E1F" stop-opacity="0"/>
</linearGradient>
</defs>
</svg>
