<svg width="158" height="40" viewBox="0 0 158 40" fill="none" xmlns="http://www.w3.org/2000/svg">
<path d="M44.7234 6.47027H48.555L54.9105 25.324L61.2356 6.47027H65.0672L57.6473 28H52.1432L44.7234 6.47027ZM68.3468 18.8468H77.9562C77.5912 16.4141 75.6451 14.7112 73.0907 14.7112C70.5971 14.7112 68.7726 16.3837 68.3468 18.8468ZM64.9106 20.0936C64.9106 15.3498 68.3773 11.9439 73.1819 11.9439C77.9866 11.9439 81.3924 15.3498 81.3924 20.124C81.3924 20.4889 81.362 20.9451 81.3316 21.31L68.3164 21.2796C68.7118 24.0164 70.6275 25.8409 73.1515 25.8409C75.2193 25.8409 77.1351 24.6246 77.7129 22.9217L80.8146 23.3778C79.9328 26.4187 76.7398 28.6082 73.2123 28.6082C68.3773 28.6082 64.9106 25.0503 64.9106 20.0936ZM84.12 12.5521H87.3738V14.5287C88.4685 12.917 90.3843 11.9439 92.3913 11.9439C96.162 11.9439 98.6252 14.7416 98.6252 18.5731V28H95.341V18.8164C95.341 16.5357 93.9726 14.8936 91.6615 14.8936C89.3504 14.8936 87.4346 16.6574 87.4346 19.1205V28H84.12V12.5521ZM103.136 23.6515V15.1369H100.764V12.5521H103.318L103.744 8.81178H106.45V12.5521H110.221V15.1369H106.45V23.4386C106.45 24.8374 107.302 25.8105 108.701 25.8105C109.126 25.8105 109.856 25.7193 110.434 25.5369V28.1825C109.643 28.4561 108.549 28.6082 107.697 28.6082C104.93 28.6082 103.136 26.6012 103.136 23.6515ZM127.381 28H124.127V26.0234C123.063 27.6351 121.117 28.6082 119.14 28.6082C115.339 28.6082 112.876 25.8105 112.876 21.979V12.5521H116.19V21.7357C116.19 24.0164 117.528 25.6585 119.87 25.6585C122.15 25.6585 124.097 23.8948 124.097 21.4316V12.5521H127.381V28ZM130.858 12.5521H134.05V14.5287C134.993 12.9474 136.483 12.0047 138.247 12.0047C138.855 12.0047 139.555 12.1568 140.224 12.4001V15.3498C139.372 14.9849 138.429 14.8632 137.821 14.8632C135.632 14.8632 134.172 16.8094 134.172 19.5462V28H130.858V12.5521ZM144.144 18.8468H153.754C153.389 16.4141 151.442 14.7112 148.888 14.7112C146.394 14.7112 144.57 16.3837 144.144 18.8468ZM140.708 20.0936C140.708 15.3498 144.175 11.9439 148.979 11.9439C153.784 11.9439 157.19 15.3498 157.19 20.124C157.19 20.4889 157.159 20.9451 157.129 21.31L144.114 21.2796C144.509 24.0164 146.425 25.8409 148.949 25.8409C151.017 25.8409 152.932 24.6246 153.51 22.9217L156.612 23.3778C155.73 26.4187 152.537 28.6082 149.01 28.6082C144.175 28.6082 140.708 25.0503 140.708 20.0936Z" fill="#545D73"/>
<path fill-rule="evenodd" clip-rule="evenodd" d="M12.7684 2.20642C12.1553 2.20642 11.6582 2.7035 11.6582 3.31669V13.6698H11.4634C5.13234 13.6698 0 18.8022 0 25.1332C0 31.4643 5.13234 36.5966 11.4634 36.5966H22.2053C22.8185 36.5966 23.3155 36.0996 23.3155 35.4864V25.1332H23.5103C29.8414 25.1332 34.9737 20.0009 34.9737 13.6698C34.9737 7.33877 29.8414 2.20642 23.5103 2.20642H12.7684ZM23.3155 25.1332V14.7801C23.3155 14.1669 22.8185 13.6698 22.2053 13.6698H11.6582V24.023C11.6582 24.6362 12.1553 25.1332 12.7684 25.1332H23.3155Z" fill="#545D73"/>
<path d="M12.6414 2.20642C12.0973 2.20642 11.6562 2.64014 11.6562 3.17516L11.6563 13.6698H22.3289C22.8729 13.6698 23.314 14.1036 23.314 14.6386L23.314 25.1332C29.7524 25.1332 34.9718 20.0009 34.9718 13.6698C34.9718 7.33877 29.7524 2.20642 23.314 2.20642H12.6414Z" fill="#545D73"/>
</svg>
