<svg width="256" height="256" viewBox="0 0 256 256" fill="none" xmlns="http://www.w3.org/2000/svg">
<path d="M219.101 72.1652L131.063 21.1218C129.214 20.0496 126.932 20.0496 125.083 21.1218L37.0442 72.1649C35.2049 73.2313 34.0728 75.1964 34.0728 77.3225L34.0728 179.453C34.0728 181.579 35.2049 183.544 37.0442 184.611L125.083 235.654C126.932 236.727 129.214 236.727 131.063 235.654L219.101 184.611C220.941 183.545 222.073 181.58 222.073 179.454V77.3227C222.073 75.1967 220.941 73.2316 219.101 72.1652Z" fill="#0084FE"/>
<mask id="mask0_7854_9298" style="mask-type:alpha" maskUnits="userSpaceOnUse" x="34" y="20" width="189" height="217">
<path d="M219.101 72.1652L131.063 21.1218C129.214 20.0496 126.932 20.0496 125.083 21.1218L37.0442 72.1649C35.2049 73.2313 34.0728 75.1964 34.0728 77.3225L34.0728 179.453C34.0728 181.579 35.2049 183.544 37.0442 184.611L125.083 235.654C126.932 236.727 129.214 236.727 131.063 235.654L219.101 184.611C220.941 183.545 222.073 181.58 222.073 179.454V77.3227C222.073 75.1967 220.941 73.2316 219.101 72.1652Z" fill="#FFBF1A"/>
</mask>
<g mask="url(#mask0_7854_9298)">
<g opacity="0.3" filter="url(#filter0_f_7854_9298)">
<rect width="109.109" height="109.109" rx="2.98084" transform="matrix(0.866313 0.499502 -0.866313 0.499502 126.679 18.0971)" fill="white"/>
</g>
<g filter="url(#filter1_f_7854_9298)">
<rect width="109.109" height="109" rx="2.98084" transform="matrix(0.866229 0.499647 -2.20513e-08 1 32.1566 72.5969)" stroke="url(#paint0_linear_7854_9298)" stroke-width="3.24751"/>
</g>
<g filter="url(#filter2_f_7854_9298)">
<rect width="109.109" height="109" rx="2.98084" transform="matrix(0.866229 0.499647 -2.20513e-08 1 32.1566 72.5969)" stroke="url(#paint1_linear_7854_9298)" stroke-width="3.24751"/>
</g>
<g opacity="0.4" filter="url(#filter3_f_7854_9298)">
<rect width="105.01" height="107.213" rx="2.98084" transform="matrix(0.866313 0.499502 -2.20598e-08 1 34.0723 75.9356)" stroke="url(#paint2_linear_7854_9298)" stroke-width="3.24751"/>
</g>
<g opacity="0.4" filter="url(#filter4_f_7854_9298)">
<rect width="105.01" height="107.213" rx="2.98084" transform="matrix(-0.866313 0.499502 2.20598e-08 1 222.072 75.9356)" stroke="url(#paint3_linear_7854_9298)" stroke-width="3.24751"/>
</g>
<g filter="url(#filter5_f_7854_9298)">
<rect width="109.109" height="109.109" rx="2.98084" transform="matrix(0.866313 0.499502 -0.866313 0.499502 129.464 18.0971)" stroke="url(#paint4_linear_7854_9298)" stroke-width="4.33002"/>
</g>
</g>
<defs>
<filter id="filter0_f_7854_9298" x="29.7046" y="15.0044" width="193.949" height="115.186" filterUnits="userSpaceOnUse" color-interpolation-filters="sRGB">
<feFlood flood-opacity="0" result="BackgroundImageFix"/>
<feBlend mode="normal" in="SourceGraphic" in2="BackgroundImageFix" result="shape"/>
<feGaussianBlur stdDeviation="1.98244" result="effect1_foregroundBlur_7854_9298"/>
</filter>
<filter id="filter1_f_7854_9298" x="24.255" y="65.4236" width="110.317" height="177.863" filterUnits="userSpaceOnUse" color-interpolation-filters="sRGB">
<feFlood flood-opacity="0" result="BackgroundImageFix"/>
<feBlend mode="normal" in="SourceGraphic" in2="BackgroundImageFix" result="shape"/>
<feGaussianBlur stdDeviation="3.24751" result="effect1_foregroundBlur_7854_9298"/>
</filter>
<filter id="filter2_f_7854_9298" x="26.42" y="67.5886" width="105.987" height="173.533" filterUnits="userSpaceOnUse" color-interpolation-filters="sRGB">
<feFlood flood-opacity="0" result="BackgroundImageFix"/>
<feBlend mode="normal" in="SourceGraphic" in2="BackgroundImageFix" result="shape"/>
<feGaussianBlur stdDeviation="2.16501" result="effect1_foregroundBlur_7854_9298"/>
</filter>
<filter id="filter3_f_7854_9298" x="29.6848" y="72.2764" width="99.7463" height="166.984" filterUnits="userSpaceOnUse" color-interpolation-filters="sRGB">
<feFlood flood-opacity="0" result="BackgroundImageFix"/>
<feBlend mode="normal" in="SourceGraphic" in2="BackgroundImageFix" result="shape"/>
<feGaussianBlur stdDeviation="1.49042" result="effect1_foregroundBlur_7854_9298"/>
</filter>
<filter id="filter4_f_7854_9298" x="126.713" y="72.2764" width="99.7463" height="166.984" filterUnits="userSpaceOnUse" color-interpolation-filters="sRGB">
<feFlood flood-opacity="0" result="BackgroundImageFix"/>
<feBlend mode="normal" in="SourceGraphic" in2="BackgroundImageFix" result="shape"/>
<feGaussianBlur stdDeviation="1.49042" result="effect1_foregroundBlur_7854_9298"/>
</filter>
<filter id="filter5_f_7854_9298" x="29.4714" y="13.1099" width="199.985" height="118.975" filterUnits="userSpaceOnUse" color-interpolation-filters="sRGB">
<feFlood flood-opacity="0" result="BackgroundImageFix"/>
<feBlend mode="normal" in="SourceGraphic" in2="BackgroundImageFix" result="shape"/>
<feGaussianBlur stdDeviation="2.16501" result="effect1_foregroundBlur_7854_9298"/>
</filter>
<linearGradient id="paint0_linear_7854_9298" x1="102.816" y1="-1.45272" x2="58.4647" y2="57.6498" gradientUnits="userSpaceOnUse">
<stop stop-color="white"/>
<stop offset="1" stop-color="white" stop-opacity="0"/>
</linearGradient>
<linearGradient id="paint1_linear_7854_9298" x1="60.4706" y1="101.486" x2="66.9258" y2="84.6798" gradientUnits="userSpaceOnUse">
<stop stop-color="#0029FF"/>
<stop offset="1" stop-color="#0029FF" stop-opacity="0"/>
</linearGradient>
<linearGradient id="paint2_linear_7854_9298" x1="11.9121" y1="107.978" x2="70.341" y2="76.039" gradientUnits="userSpaceOnUse">
<stop stop-color="white"/>
<stop offset="1" stop-color="white" stop-opacity="0"/>
</linearGradient>
<linearGradient id="paint3_linear_7854_9298" x1="11.9121" y1="107.978" x2="70.341" y2="76.039" gradientUnits="userSpaceOnUse">
<stop stop-color="white"/>
<stop offset="1" stop-color="white" stop-opacity="0"/>
</linearGradient>
<linearGradient id="paint4_linear_7854_9298" x1="5.25324" y1="9.98407" x2="36.0127" y2="15.0624" gradientUnits="userSpaceOnUse">
<stop stop-color="white"/>
<stop offset="1" stop-color="white" stop-opacity="0"/>
</linearGradient>
</defs>
</svg>
