<svg width="48" height="48" viewBox="0 0 48 48" fill="none" xmlns="http://www.w3.org/2000/svg">
<rect x="0.769231" y="0.769231" width="46.4615" height="46.4615" rx="11.5385" fill="#F1F3F7" stroke="#353E5C" stroke-width="1.53846"/>
<mask id="mask0_5462_57558" style="mask-type:alpha" maskUnits="userSpaceOnUse" x="1" y="1" width="46" height="46">
<rect x="1.68079" y="1.84967" width="44.6131" height="44.6024" rx="10.7692" fill="#E3EFFF"/>
</mask>
<g mask="url(#mask0_5462_57558)">
<line x1="32.8206" y1="6.10127e-05" x2="32.8206" y2="50.0481" stroke="#B4B9C9" stroke-width="1.02564"/>
<line x1="41.1283" y1="6.10127e-05" x2="41.1283" y2="50.0481" stroke="#B4B9C9" stroke-width="1.02564"/>
<line x1="24.5128" y1="6.10127e-05" x2="24.5128" y2="50.0481" stroke="#B4B9C9" stroke-width="1.02564"/>
<line x1="7.89746" y1="6.10127e-05" x2="7.89747" y2="50.0481" stroke="#B4B9C9" stroke-width="1.02564"/>
<line x1="16.2052" y1="6.10127e-05" x2="16.2052" y2="50.0481" stroke="#B4B9C9" stroke-width="1.02564"/>
<line x1="-1.02405" y1="16.2035" x2="49.024" y2="16.2035" stroke="#B4B9C9" stroke-width="1.02564"/>
<line x1="-1.02405" y1="7.89581" x2="49.024" y2="7.89581" stroke="#B4B9C9" stroke-width="1.02564"/>
<line x1="-1.02405" y1="24.5112" x2="49.024" y2="24.5112" stroke="#B4B9C9" stroke-width="1.02564"/>
<line x1="-1.02405" y1="41.1266" x2="49.024" y2="41.1266" stroke="#B4B9C9" stroke-width="1.02564"/>
<line x1="-1.02405" y1="32.819" x2="49.024" y2="32.819" stroke="#B4B9C9" stroke-width="1.02564"/>
<rect x="1.41187" y="1.53467" width="45.0024" height="44.9916" rx="10.7692" fill="url(#paint0_radial_5462_57558)"/>
</g>
<path d="M27.6527 19.4791C27.0739 18.9003 27.0739 17.9619 27.6527 17.3831L31.1657 13.8701C30.3426 13.4756 29.4204 13.2546 28.4465 13.2546C24.9677 13.2546 22.1475 16.0747 22.1475 19.5536C22.1475 20.5274 22.3685 21.4496 22.7631 22.2728L13.8686 31.1672C13.05 31.9858 13.05 33.313 13.8686 34.1315C14.6871 34.95 16.0142 34.95 16.8328 34.1315L25.7273 25.237C26.5504 25.6315 27.4728 25.8525 28.4465 25.8525C31.9253 25.8525 34.7455 23.0324 34.7455 19.5536C34.7455 18.5921 34.5301 17.6809 34.1449 16.8657L30.64 20.3704C30.0613 20.9492 29.1228 20.9492 28.544 20.3705L27.6527 19.4791Z" fill="white" stroke="#353E5C" stroke-width="1.23077" stroke-linecap="round" stroke-linejoin="round"/>
<path d="M27.6526 17.3831C27.0739 17.9619 27.0739 18.9003 27.6526 19.4791L28.544 20.3705C29.1227 20.9492 30.0612 20.9492 30.64 20.3704L34.1449 16.8657C34.5301 17.6809 34.7454 18.5921 34.7454 19.5536C34.7454 23.0324 31.9253 25.8525 28.4465 25.8525C23.0302 25.4447 21.9904 21.4833 22.1475 19.5536C22.1475 16.0747 24.9676 13.2546 28.4465 13.2546C29.4204 13.2546 30.3425 13.4756 31.1657 13.8701L27.6526 17.3831Z" fill="#B4B9C9" stroke="#353E5C" stroke-width="1.23077" stroke-linecap="round" stroke-linejoin="round"/>
<defs>
<radialGradient id="paint0_radial_5462_57558" cx="0" cy="0" r="1" gradientUnits="userSpaceOnUse" gradientTransform="translate(23.9131 24.0305) rotate(90) scale(22.4958 22.5012)">
<stop stop-color="#F6FAFD" stop-opacity="0.28"/>
<stop offset="1" stop-color="#F6FAFD"/>
</radialGradient>
</defs>
</svg>
